<svg width="512" height="512" viewBox="0 0 512 512" fill="none" xmlns="http://www.w3.org/2000/svg">
<path d="M479.355 222.32C487.268 227.922 493.944 235.353 496 245C498.431 267.092 488.017 282.139 475.307 299.161C471.682 304.024 468.222 308.983 464.812 314C459.878 321.261 454.896 328.486 449.875 335.688C445.354 342.174 440.845 348.666 436.375 355.188C435.066 357.091 433.756 358.994 432.445 360.897C431.401 362.416 430.36 363.937 429.32 365.459C416.143 384.725 416.143 384.725 408 393C407.469 393.603 406.938 394.207 406.391 394.828C380.488 423.295 329.468 421.471 293.875 423.563C293.008 423.615 292.141 423.668 291.248 423.722C247.755 426.306 210.87 423.977 177.056 394.163C165.635 383.918 155.063 372.97 144.812 361.563C144.215 360.899 143.617 360.236 143.001 359.552C127.522 342.335 112.88 324.53 99 306C100.78 302.148 103.192 299.628 106.312 296.813C106.843 296.333 107.374 295.853 107.92 295.359C127.491 278.02 148.451 271.355 174.099 271.482C175.957 271.477 177.815 271.47 179.673 271.461C184.669 271.443 189.664 271.45 194.66 271.463C199.911 271.473 205.161 271.463 210.413 271.457C219.22 271.45 228.027 271.459 236.834 271.479C246.998 271.5 257.161 271.493 267.325 271.471C276.081 271.453 284.837 271.451 293.594 271.461C298.811 271.467 304.027 271.468 309.245 271.455C314.145 271.443 319.045 271.451 323.945 271.474C325.738 271.48 327.53 271.478 329.322 271.469C338.502 271.428 346.736 271.44 355 276C356.354 276.721 356.354 276.721 357.734 277.457C366.929 283.64 373.611 291.936 376 303C376.794 316.137 376.384 327.525 367.691 338.156C358.394 348.291 348.497 352.407 334.762 353.116C329.365 353.283 323.968 353.3 318.569 353.305C315.501 353.309 312.433 353.325 309.365 353.346C300.652 353.401 291.939 353.432 283.226 353.456C277.875 353.472 272.525 353.502 267.175 353.541C265.14 353.553 263.104 353.559 261.068 353.559C258.236 353.559 255.405 353.577 252.574 353.599C251.73 353.595 250.887 353.59 250.017 353.586C247.458 353.582 247.458 353.582 244 354C241.687 357.47 241.66 358.925 242 363C243.62 366.076 243.62 366.076 245.892 366.679C249.351 367.206 252.819 367.147 256.31 367.145C257.146 367.149 257.983 367.152 258.845 367.155C261.613 367.165 264.38 367.167 267.148 367.168C269.082 367.171 271.016 367.175 272.95 367.178C277.01 367.184 281.07 367.186 285.13 367.185C290.299 367.185 295.467 367.199 300.636 367.216C304.636 367.227 308.636 367.229 312.635 367.229C314.539 367.23 316.442 367.234 318.345 367.242C339.069 367.319 358.399 366.116 374.525 351.468C386.112 339.935 390.28 325.715 390.319 309.854C390.178 299.75 388.049 290.838 381.855 282.684C381 281 381 281 381.157 279.21C382.35 276.082 384.279 274.331 386.636 271.959C387.118 271.471 387.6 270.983 388.096 270.48C389.69 268.867 391.296 267.265 392.902 265.664C394.021 264.541 395.139 263.418 396.256 262.294C398.605 259.937 400.958 257.586 403.316 255.238C406.317 252.249 409.301 249.244 412.282 246.234C414.59 243.907 416.908 241.59 419.229 239.275C420.332 238.172 421.432 237.066 422.528 235.957C438.418 219.913 457.549 210.097 479.355 222.32Z" fill="black"/>
<path d="M76.0001 304C77.7491 305.156 77.7491 305.156 79.5121 306.778C80.2091 307.418 80.906 308.059 81.6241 308.719C86.5387 313.437 91.3709 318.232 96.1835 323.054C97.3947 324.264 98.606 325.473 99.8176 326.683C103.086 329.947 106.351 333.214 109.616 336.481C113.037 339.905 116.461 343.326 119.884 346.748C125.625 352.487 131.363 358.228 137.1 363.969C143.737 370.612 150.379 377.252 157.021 383.889C162.73 389.593 168.436 395.298 174.14 401.005C177.546 404.412 180.952 407.819 184.36 411.223C187.557 414.418 190.753 417.615 193.946 420.814C195.12 421.99 196.295 423.165 197.471 424.339C199.071 425.936 200.668 427.536 202.264 429.137C203.16 430.033 204.056 430.929 204.979 431.853C207.957 435.016 208.538 437.425 208.463 441.812C207.894 444.501 206.952 445.625 205.095 447.639C204.457 448.334 203.818 449.029 203.16 449.744C199.15 453.931 195.085 458.057 190.981 462.152C190.031 463.102 189.082 464.053 188.133 465.003C186.16 466.977 184.186 468.949 182.21 470.92C179.677 473.448 177.149 475.98 174.621 478.513C172.67 480.468 170.716 482.421 168.761 484.373C167.374 485.759 165.988 487.148 164.603 488.536C163.346 489.788 163.346 489.788 162.063 491.066C160.956 492.172 160.956 492.172 159.826 493.301C156.841 496.079 154.268 496.539 150.181 496.455C147.539 495.904 146.467 495.043 144.488 493.222C143.791 492.582 143.094 491.941 142.376 491.281C137.462 486.563 132.629 481.768 127.817 476.946C126.606 475.736 125.394 474.527 124.183 473.317C120.914 470.053 117.649 466.787 114.385 463.519C110.963 460.095 107.54 456.674 104.116 453.252C98.3758 447.513 92.6374 441.772 86.9003 436.031C80.2628 429.388 73.6217 422.748 66.9788 416.111C61.2707 410.407 55.5645 404.702 49.8599 398.995C46.4545 395.588 43.0483 392.181 39.6404 388.777C36.4428 385.582 33.2476 382.385 30.0543 379.186C28.88 378.01 27.7049 376.835 26.5289 375.661C24.929 374.064 23.3322 372.464 21.7361 370.863C20.8404 369.967 19.9447 369.071 19.0218 368.147C16.0435 364.984 15.4627 362.575 15.5373 358.188C16.1061 355.499 17.0481 354.375 18.9052 352.361C19.8628 351.319 19.8628 351.319 20.8398 350.256C24.85 346.069 28.9156 341.943 33.0197 337.848C33.9691 336.898 34.9184 335.947 35.8675 334.997C37.84 333.023 39.8143 331.051 41.7899 329.08C44.3231 326.552 46.8517 324.02 49.3791 321.487C51.3306 319.532 53.2845 317.579 55.2391 315.627C56.6265 314.241 58.0118 312.853 59.3971 311.464C60.6543 310.212 60.6543 310.212 61.9369 308.934C62.6752 308.196 63.4136 307.459 64.1743 306.699C67.6626 303.453 71.4184 303.044 76.0001 304Z" fill="black"/>
<path fill-rule="evenodd" clip-rule="evenodd" d="M274 230C337.513 230 389 178.513 389 115C389 51.4873 337.513 0 274 0C210.487 0 159 51.4873 159 115C159 178.513 210.487 230 274 230ZM237.247 122.31L273.724 186H293.41L256.547 125.205C266.84 123.79 275.075 120.509 281.251 115.362C287.556 110.087 291.158 102.753 292.059 93.36H317.149V81.008H291.673C291.158 76.5047 289.936 72.5803 288.006 69.235C286.076 65.8897 283.631 62.9947 280.672 60.55H317.149V48.198H237.247V60.55H241.493C248.055 60.55 253.588 61.2577 258.091 62.673C262.723 64.0883 266.39 66.34 269.092 69.428C271.794 72.3873 273.595 76.2473 274.496 81.008H237.247V93.36H274.689C274.174 98.5067 272.566 102.56 269.864 105.519C267.162 108.478 263.431 110.601 258.67 111.888C254.038 113.175 248.312 113.818 241.493 113.818H237.247V122.31Z" fill="black"/>
</svg>
