<svg width="512" height="512" viewBox="0 0 512 512" fill="none" xmlns="http://www.w3.org/2000/svg">
<path d="M297.984 19.3516C302.07 22.693 305.017 26.6324 308.086 30.9024C314.947 40.3738 321.064 47.0223 333 49C340.96 49.5704 347.835 47.3364 355.424 45.1328C366.27 42.1141 375.206 42.0777 385.422 47.2188C392.921 51.7486 397.256 57.7326 399.687 66.125C400.461 69.3106 401.088 72.4915 401.668 75.7188C403.611 86.4558 406.006 94.4949 414.73 101.504C421.395 105.897 428.699 107.176 436.437 108.375C446.729 110.013 456.017 113.292 462.598 121.82C467.965 130.163 469.21 138.16 468 148C467.111 151.635 465.946 155.177 464.799 158.737C461.919 167.957 461.516 176.833 465.703 185.738C470.14 193.476 476.232 197.633 483.575 202.357C492.098 207.902 497.067 214.404 499.609 224.395C501.136 234.58 498.599 243.494 493 252C491.356 253.881 489.64 255.554 487.801 257.242C480.187 264.674 476.725 273.115 475.625 283.563C476.636 292.832 479.588 298.395 485.844 305.359C492.252 313.207 492.791 321.199 492 331C489.869 340.18 484.442 347.044 476.562 352.063C472.124 354.575 467.504 356.523 462.812 358.5C453.416 362.506 448.39 366.183 443.945 375.633C442.155 380.115 441.916 383.756 442.043 388.602C442.064 389.897 442.085 391.193 442.107 392.527C442.144 394.568 442.187 396.608 442.247 398.648C442.569 410.218 441.338 419.487 433.195 428.176C425.895 434.242 417.579 437.246 408.176 436.957C407.064 436.936 405.952 436.915 404.807 436.893C402.496 436.84 400.186 436.775 397.877 436.697C387.991 436.543 380.543 438.399 373 445C372.34 445 371.68 445 371 445C370.728 445.545 370.456 446.091 370.176 446.652C369.344 448.313 368.508 449.972 367.668 451.629C365.148 456.623 362.714 461.612 360.5 466.75C355.942 476.742 350.21 482.918 339.742 486.848C328.994 489.756 319.736 486.571 310 482C308.246 481.194 308.246 481.194 306.457 480.371C304.206 479.334 301.958 478.289 299.715 477.234C292.447 473.93 284.409 473.79 276.875 476.5C270.267 479.503 264.955 484.244 259.687 489.156C252.75 495.612 245.772 499.791 236.09 500.09C225.663 499.586 217.017 496.706 209.812 488.875C207.709 486.301 205.748 483.654 203.793 480.965C196.945 471.55 190.892 464.971 179 463C171.04 462.43 164.165 464.664 156.576 466.867C146.62 469.638 138.688 469.869 129 466C120.942 461.439 115.002 455.032 112.437 446.063C111.282 441.532 110.451 436.975 109.625 432.375C107.795 423.12 104.713 416.462 97.2578 410.492C90.9279 406.309 83.9491 404.945 76.5952 403.609C65.6557 401.617 56.3418 399.205 49.25 389.957C43.9846 381.714 42.8098 373.679 44 364C44.889 360.365 46.0534 356.823 47.2006 353.263C50.0809 344.043 50.484 335.167 46.2968 326.262C41.8598 318.524 35.7683 314.367 28.4252 309.643C19.6942 303.963 15.1883 297.477 12.25 287.438C11.0749 275.981 13.8341 267.035 21 258C22.5277 256.3 24.0699 254.613 25.625 252.938C32.2492 245.734 35.4124 238.346 36.3125 228.625C35.5359 219.617 32.0204 212.854 27.2248 205.354C21.9879 197.101 21.1527 189.717 22 180C24.0152 171.191 29.146 164.41 36.664 159.52C41.6932 156.462 47.0326 154.27 52.4648 152.039C58.9981 149.257 64.3205 146.132 67.75 139.625C68.1367 138.916 68.5234 138.207 68.9218 137.477C72.8954 128.349 72.0757 119.671 71.746 109.846C71.5582 99.1784 73.3535 90.7753 80.8046 82.8242C86.9416 77.7246 94.8566 73.7886 102.945 74.1211C103.995 74.2255 105.044 74.3299 106.125 74.4375C117.76 75.4082 127.212 76.0911 137 68.75C137.66 68.1725 138.32 67.595 139 67C139.66 67 140.32 67 141 67C141.272 66.4548 141.544 65.9095 141.824 65.3477C142.656 63.6868 143.492 62.0281 144.332 60.3711C146.852 55.3772 149.286 50.3876 151.5 45.25C156.058 35.2578 161.79 29.0823 172.258 25.1524C183.006 22.2438 192.264 25.429 202 30C203.169 30.5376 204.338 31.0751 205.543 31.6289C207.794 32.6659 210.042 33.7107 212.285 34.7656C219.553 38.0701 227.591 38.2103 235.125 35.5C241.733 32.4974 247.045 27.7558 252.312 22.8438C265.883 10.216 282.611 8.33244 297.984 19.3516ZM143 141C142.324 141.602 141.649 142.204 140.953 142.824C126.642 156.351 116.14 174.254 108 192C107.72 192.609 107.44 193.219 107.152 193.846C90.7059 230.424 90.7625 273.48 104 311C120.288 353.835 152.63 386.125 194.066 404.938C231.421 421.072 275.472 421.102 313.254 406.434C332.474 398.619 349.787 388.117 365 374C365.773 373.293 365.773 373.293 366.561 372.572C380.083 360.092 390.673 345.36 399 329C399.317 328.39 399.633 327.78 399.959 327.151C416.248 295.467 421.179 256.717 413 222C412.807 221.173 412.613 220.346 412.414 219.493C402.316 177.839 376.172 141.256 339.519 118.836C274.429 80.1701 198.439 91.1767 143 141Z" fill="black"/>
<path d="M335.547 160.152C338.078 162.389 340.545 164.681 343 167C343.812 167.736 344.624 168.472 345.461 169.23C366.632 189.166 379.666 219.618 381.126 248.491C382.202 284.298 371.472 317.029 346.813 343.438C330.151 360.899 310.263 372.566 287 379C285.8 379.34 284.6 379.681 283.364 380.031C251.657 387.435 216.581 380.922 189 364C181.376 359.032 174.606 353.24 168 347C167.25 346.314 166.5 345.628 165.727 344.922C143.489 323.855 130.833 292.82 129.797 262.414C129.51 244.823 132.055 228.555 138 212C138.369 210.966 138.738 209.932 139.117 208.867C150.895 178.409 176.49 154.172 206 141C211.882 138.59 217.879 136.696 224 135C225.189 134.66 226.377 134.319 227.602 133.969C265.164 125.131 306.276 135.415 335.547 160.152ZM293.66 204.449C293.123 204.966 292.586 205.482 292.032 206.014C290 207.988 287.999 209.991 286 212C285.135 212.868 284.269 213.736 283.378 214.63C278.235 219.795 273.111 224.979 267.99 230.166C267.454 230.709 266.918 231.252 266.366 231.812C263.604 234.611 260.846 237.415 258.096 240.227C255.401 242.981 252.694 245.723 249.978 248.457C248.953 249.495 247.932 250.537 246.915 251.583C245.506 253.033 244.081 254.466 242.654 255.898C241.85 256.716 241.045 257.535 240.216 258.379C238 260 238 260 235.852 259.883C233.065 258.554 231.341 256.581 229.227 254.344C228.319 253.404 227.412 252.464 226.477 251.496C225.048 249.999 223.624 248.499 222.205 246.993C220.828 245.536 219.434 244.096 218.039 242.656C217.216 241.788 216.393 240.92 215.546 240.025C212.588 237.672 210.75 237.153 207 237C201.564 239.762 197.504 244.196 193.25 248.5C192.579 249.164 191.907 249.828 191.215 250.512C190.25 251.48 190.25 251.48 189.266 252.469C188.686 253.051 188.106 253.633 187.509 254.232C184.997 257.176 183.927 258.871 184.185 262.823C185.168 266.652 186.547 268.186 189.317 270.98C190.235 271.917 191.154 272.854 192.1 273.82C193.11 274.825 194.121 275.829 195.133 276.832C196.169 277.874 197.205 278.917 198.24 279.96C200.409 282.141 202.587 284.313 204.772 286.478C207.565 289.248 210.332 292.043 213.093 294.845C215.225 297.003 217.372 299.146 219.522 301.286C220.548 302.311 221.57 303.34 222.586 304.373C224.012 305.819 225.459 307.244 226.907 308.667C227.723 309.482 228.54 310.297 229.381 311.136C232.675 313.481 234.977 313.931 239 314C241.119 313.054 241.119 313.054 242.723 311.273C243.395 310.621 244.066 309.968 244.759 309.296C245.498 308.538 246.238 307.781 247 307C247.85 306.168 248.699 305.335 249.574 304.478C252.02 302.072 254.446 299.65 256.861 297.214C258.475 295.588 260.091 293.965 261.709 292.342C265.142 288.898 268.572 285.449 272 282C275.979 277.998 279.959 273.997 283.944 270.001C285.523 268.415 287.1 266.826 288.676 265.237C293.409 260.479 298.188 255.839 303.288 251.474C307.701 247.675 311.792 243.52 315.938 239.438C316.418 238.976 316.898 238.515 317.392 238.04C318.803 236.684 320.197 235.309 321.59 233.934C322.414 233.13 323.237 232.326 324.086 231.498C326.373 228.514 326.954 226.752 327 223C325.317 219.306 322.919 216.671 320.059 213.828C319.311 213.082 318.562 212.335 317.791 211.566C317.015 210.802 316.238 210.038 315.438 209.25C314.657 208.47 313.877 207.69 313.073 206.887C308.423 201.843 308.423 201.843 302.209 199.659C297.968 200.11 296.71 201.484 293.66 204.449Z" fill="black"/>
</svg>
