<svg width="24" height="24" viewBox="0 0 24 24" fill="none" xmlns="http://www.w3.org/2000/svg">
<path d="M4.71944 0.737125C4.78458 0.736917 4.84972 0.736667 4.91486 0.736382C5.09321 0.735719 5.27156 0.735639 5.44991 0.73566C5.64253 0.735582 5.83515 0.734969 6.02778 0.734432C6.4487 0.733362 6.86962 0.73299 7.29054 0.732752C7.55362 0.7326 7.8167 0.732294 8.07979 0.731956C8.80891 0.731039 9.53803 0.73027 10.2671 0.730133C10.3138 0.730124 10.3604 0.730116 10.4084 0.730107C10.503 0.730089 10.5975 0.730072 10.692 0.730055C10.7624 0.730043 10.7624 0.730043 10.8342 0.730029C10.9046 0.730017 10.9046 0.730017 10.9765 0.730004C11.7371 0.729838 12.4977 0.728572 13.2583 0.726819C14.0402 0.725031 14.822 0.724126 15.6038 0.724112C16.0424 0.724084 16.481 0.72369 16.9196 0.722331C17.2932 0.721178 17.6668 0.720842 18.0403 0.721545C18.2307 0.72188 18.421 0.721847 18.6114 0.720776C19.7269 0.714871 20.6409 0.768633 21.4973 1.5712C22.2916 2.3967 22.3818 3.35646 22.3778 4.44504C22.3779 4.53721 22.3781 4.62938 22.3782 4.72154C22.3784 4.91332 22.3781 5.10508 22.3775 5.29685C22.3767 5.54123 22.3771 5.78559 22.378 6.02997C22.3785 6.21979 22.3783 6.4096 22.378 6.59942C22.3779 6.68949 22.378 6.77956 22.3783 6.86963C22.3804 7.59014 22.3582 8.26814 21.8384 8.82456C21.2986 9.32897 20.7196 9.39118 20 9.38413C19.9478 9.384 19.8955 9.38387 19.8416 9.38373C19.6769 9.38321 19.5122 9.38204 19.3474 9.38084C19.2348 9.38037 19.1222 9.37994 19.0096 9.37955C18.7355 9.37853 18.4614 9.37696 18.1873 9.37498C18.1873 9.40211 18.1874 9.42924 18.1875 9.4572C18.1917 11.0656 18.1949 12.674 18.1969 14.2824C18.1971 14.4755 18.1973 14.6687 18.1976 14.8618C18.1976 14.9003 18.1977 14.9388 18.1977 14.9784C18.1985 15.6009 18.2 16.2234 18.2017 16.8459C18.2035 17.4847 18.2045 18.1235 18.2049 18.7623C18.2052 19.1565 18.206 19.5506 18.2075 19.9447C18.2085 20.215 18.2088 20.4854 18.2086 20.7557C18.2084 20.9116 18.2087 21.0675 18.2096 21.2235C18.2106 21.3927 18.2103 21.5619 18.2098 21.7311C18.2104 21.7802 18.2109 21.8293 18.2115 21.8798C18.2086 22.2282 18.1386 22.4793 17.9093 22.7457C17.6343 22.9766 17.4043 23.0898 17.0396 23.0761C16.5986 23.025 16.208 22.7376 15.8406 22.5088C15.7834 22.4735 15.7262 22.4383 15.669 22.4032C15.581 22.3491 15.493 22.295 15.405 22.2407C15.0988 22.0519 14.7901 21.8671 14.4812 21.6826C14.385 21.6251 14.2887 21.5675 14.1925 21.5099C14.1525 21.486 14.1125 21.4621 14.0712 21.4375C13.9889 21.3874 13.9081 21.3347 13.8279 21.2812C13.5712 21.2919 13.3868 21.3748 13.1726 21.5077C13.1423 21.5259 13.112 21.5441 13.0807 21.5628C12.9828 21.6218 12.8853 21.6815 12.7879 21.7412C12.7202 21.7821 12.6525 21.8229 12.5848 21.8637C12.4509 21.9446 12.3171 22.0257 12.1834 22.1071C11.9864 22.227 11.7885 22.3453 11.5905 22.4635C11.3525 22.6055 11.1147 22.7477 10.8801 22.8953C10.8382 22.9216 10.8382 22.9216 10.7954 22.9484C10.7237 22.9936 10.6522 23.0392 10.5807 23.0848C10.376 23.1992 10.1809 23.2637 9.94607 23.2676C9.90999 23.2689 9.87392 23.2702 9.83675 23.2716C9.38278 23.1983 8.97477 22.8886 8.58669 22.6552C8.52077 22.6158 8.45484 22.5764 8.3889 22.5371C6.66906 21.5087 6.66906 21.5087 6.3279 21.2812C6.10005 21.2559 5.97643 21.3034 5.78481 21.4242C5.73415 21.4556 5.68349 21.4871 5.63129 21.5194C5.59109 21.545 5.59109 21.545 5.55007 21.571C5.43591 21.6435 5.3209 21.7145 5.20594 21.7857C5.14483 21.8235 5.08376 21.8615 5.02274 21.8995C4.68985 22.1066 4.35355 22.3078 4.01649 22.5081C3.91809 22.5666 3.81984 22.6253 3.7216 22.6841C3.66075 22.7204 3.59989 22.7566 3.53902 22.7928C3.51159 22.8092 3.48415 22.8257 3.45588 22.8427C3.12609 23.0378 2.86667 23.1112 2.48415 23.0625C2.179 22.9685 1.97382 22.8166 1.78835 22.5589C1.66196 22.3121 1.62867 22.0696 1.62847 21.7953C1.62832 21.7637 1.62817 21.732 1.62802 21.6994C1.62763 21.5937 1.62791 21.488 1.62818 21.3823C1.62804 21.3056 1.62786 21.2289 1.62764 21.1522C1.62716 20.9417 1.62726 20.7312 1.62746 20.5206C1.62757 20.2935 1.62715 20.0663 1.6268 19.8391C1.6262 19.3941 1.62612 18.9491 1.62623 18.504C1.62631 18.1421 1.62623 17.7802 1.62603 17.4183C1.626 17.3668 1.62598 17.3152 1.62595 17.2622C1.62589 17.1575 1.62583 17.0528 1.62578 16.9482C1.62527 15.9664 1.62537 14.9845 1.62565 14.0027C1.6259 13.1054 1.62537 12.2081 1.62448 11.3108C1.62357 10.3889 1.62318 9.46699 1.62336 8.54509C1.62345 8.02775 1.62333 7.5104 1.62267 6.99306C1.62211 6.5524 1.62204 6.11175 1.62261 5.67109C1.62289 5.44648 1.62294 5.22187 1.62238 4.99725C1.62186 4.79116 1.62202 4.58508 1.62267 4.37899C1.62279 4.30488 1.62269 4.23078 1.62231 4.15668C1.6194 3.54272 1.64736 2.88371 1.94509 2.33201C1.96907 2.28606 1.96907 2.28606 1.99354 2.23918C2.40129 1.49715 3.06181 1.04516 3.85925 0.794599C4.14253 0.725464 4.42952 0.736579 4.71944 0.737125ZM3.52126 2.75974C3.24776 3.09656 3.18137 3.44256 3.18151 3.87161C3.18142 3.9334 3.18132 3.99519 3.18123 4.05886C3.18136 4.12711 3.1815 4.19537 3.18164 4.26363C3.18162 4.33638 3.18158 4.40913 3.18152 4.48188C3.18141 4.68166 3.1816 4.88144 3.18184 5.08123C3.18204 5.29672 3.18197 5.5122 3.18193 5.72769C3.18191 6.101 3.18206 6.4743 3.18232 6.84761C3.1827 7.38735 3.18282 7.92709 3.18288 8.46683C3.18299 9.34251 3.1833 10.2182 3.18374 11.0939C3.18417 11.9445 3.1845 12.7952 3.1847 13.6459C3.18471 13.6983 3.18473 13.7507 3.18474 13.8047C3.1848 14.0678 3.18486 14.3308 3.18492 14.5939C3.1854 16.7761 3.18623 18.9584 3.18728 21.1406C3.37328 21.0687 3.53527 20.9831 3.70528 20.8782C3.73208 20.8618 3.75888 20.8453 3.78648 20.8284C3.84354 20.7934 3.90056 20.7584 3.95753 20.7232C4.1052 20.6322 4.25331 20.542 4.40145 20.4518C4.43043 20.4341 4.45941 20.4164 4.48927 20.3983C4.71559 20.2607 4.94311 20.1256 5.1736 19.9951C5.2019 19.9789 5.2302 19.9626 5.25936 19.9459C5.56478 19.7752 5.82513 19.7165 6.1697 19.7138C6.20396 19.7123 6.23822 19.7108 6.27352 19.7092C6.80593 19.7041 7.26284 20.0086 7.70017 20.2816C7.78333 20.3334 7.86677 20.3848 7.95031 20.4361C8.06801 20.5084 8.18559 20.5809 8.30306 20.6536C8.5761 20.8226 8.84975 20.9905 9.12381 21.1578C9.20937 21.2101 9.29473 21.2627 9.38009 21.3154C9.43199 21.3472 9.4839 21.3789 9.53737 21.4116C9.60585 21.4537 9.60585 21.4537 9.67571 21.4967C9.82265 21.5798 9.82265 21.5798 9.98415 21.6094C10.1155 21.5546 10.1155 21.5546 10.2537 21.4676C10.28 21.452 10.3064 21.4364 10.3336 21.4203C10.4206 21.3687 10.507 21.3162 10.5935 21.2636C10.654 21.2275 10.7145 21.1914 10.775 21.1554C10.9651 21.042 11.1544 20.9274 11.3435 20.8125C11.3744 20.7937 11.4054 20.7749 11.4372 20.7556C11.5289 20.6999 11.6205 20.6442 11.7121 20.5885C11.7417 20.5706 11.7712 20.5526 11.8016 20.5341C11.9431 20.4481 12.0843 20.3619 12.2253 20.2751C13.1276 19.7221 13.1276 19.7221 13.6726 19.7168C13.7337 19.7154 13.7948 19.7141 13.8577 19.7127C14.404 19.7476 14.8713 20.0817 15.325 20.3584C15.3901 20.3977 15.4553 20.437 15.5204 20.4762C15.6133 20.5321 15.7061 20.588 15.7987 20.6443C15.9884 20.7595 16.1795 20.8721 16.3712 20.9838C16.4469 21.0279 16.4469 21.0279 16.5242 21.0729C16.5625 21.0952 16.6009 21.1176 16.6404 21.1406C16.6405 21.0843 16.6405 21.0843 16.6405 21.0268C16.6433 18.8008 16.6467 16.5747 16.6511 14.3486C16.6517 14.0812 16.6522 13.8137 16.6527 13.5463C16.6528 13.4931 16.6529 13.4398 16.653 13.385C16.6547 12.5235 16.6558 11.662 16.6568 10.8006C16.6578 9.91628 16.6594 9.03201 16.6614 8.14773C16.6627 7.60231 16.6635 7.05688 16.6638 6.51145C16.6641 6.13718 16.6648 5.76292 16.666 5.38865C16.6666 5.17287 16.6671 4.95711 16.6669 4.74133C16.6667 4.54341 16.6672 4.34551 16.6682 4.14759C16.6685 4.07635 16.6685 4.00511 16.6682 3.93387C16.6668 3.48137 16.7157 3.06433 16.8279 2.62498C16.8378 2.58402 16.8478 2.54306 16.858 2.50086C16.8785 2.41705 16.8999 2.33347 16.9217 2.24998C15.3591 2.24783 13.7965 2.24618 12.234 2.24519C12.0494 2.24507 11.8648 2.24495 11.6803 2.24483C11.6251 2.24479 11.6251 2.24479 11.5689 2.24475C10.9744 2.24434 10.3798 2.24361 9.78525 2.24274C9.17493 2.24187 8.56462 2.24135 7.9543 2.24116C7.57787 2.24103 7.20144 2.24062 6.82501 2.23986C6.5361 2.2393 6.24719 2.23925 5.95828 2.23937C5.83995 2.23935 5.72162 2.23916 5.6033 2.2388C5.4415 2.23833 5.27972 2.23845 5.11792 2.2387C5.04802 2.23829 5.04802 2.23829 4.9767 2.23788C4.41347 2.24027 3.91675 2.33192 3.52126 2.75974ZM18.4438 2.72514C18.1899 3.04636 18.1803 3.41894 18.182 3.81037C18.1819 3.85384 18.1819 3.8973 18.1819 3.94209C18.182 4.08539 18.1823 4.22869 18.1827 4.37199C18.1828 4.47149 18.1829 4.571 18.1829 4.6705C18.1831 4.93212 18.1835 5.19375 18.1841 5.45537C18.1845 5.72245 18.1848 5.98952 18.185 6.2566C18.1855 6.78043 18.1863 7.30427 18.1873 7.8281C18.5168 7.83167 18.8463 7.83413 19.1758 7.83583C19.2878 7.83653 19.3999 7.83749 19.512 7.83871C19.6731 7.84042 19.8343 7.84121 19.9954 7.84183C20.0455 7.84256 20.0956 7.84329 20.1471 7.84403C20.481 7.8487 20.481 7.8487 20.7654 7.68748C20.8392 7.53988 20.8192 7.38177 20.8191 7.21972C20.8192 7.18107 20.8194 7.14241 20.8196 7.10259C20.82 6.97425 20.8201 6.84591 20.8201 6.71757C20.8203 6.62833 20.8205 6.53909 20.8206 6.44986C20.8209 6.2624 20.821 6.07495 20.821 5.88749C20.821 5.64802 20.8216 5.40856 20.8224 5.1691C20.8229 4.98455 20.823 4.80001 20.823 4.61546C20.8231 4.52724 20.8233 4.43901 20.8236 4.35079C20.8241 4.22683 20.8239 4.10289 20.8237 3.97894C20.8239 3.94291 20.8242 3.90688 20.8245 3.86975C20.8215 3.34355 20.6805 2.96194 20.3054 2.58689C19.6765 2.15526 18.9778 2.15707 18.4438 2.72514Z" fill="black"/>
<path d="M6.44623 10.3993C6.49999 10.399 6.55374 10.3987 6.60912 10.3983C6.66815 10.3982 6.72718 10.3981 6.788 10.3979C6.85075 10.3976 6.91351 10.3973 6.97627 10.397C7.18242 10.396 7.38856 10.3955 7.59471 10.3951C7.66574 10.3949 7.73676 10.3947 7.80778 10.3945C8.14148 10.3936 8.47518 10.3929 8.80888 10.3925C9.19382 10.3921 9.57874 10.3908 9.96367 10.3889C10.2614 10.3875 10.5591 10.3868 10.8568 10.3867C11.0345 10.3866 11.2122 10.3862 11.3899 10.385C11.5572 10.3839 11.7245 10.3837 11.8918 10.3842C11.9821 10.3842 12.0725 10.3833 12.1628 10.3824C12.4779 10.3843 12.6845 10.3993 12.9377 10.5937C13.1306 10.8424 13.1979 11.0291 13.1721 11.3437C13.0831 11.6164 12.9609 11.7693 12.7034 11.9062C12.5584 11.9546 12.458 11.9594 12.306 11.96C12.2527 11.9603 12.1993 11.9607 12.1443 11.961C12.0857 11.9612 12.0271 11.9613 11.9668 11.9614C11.9051 11.9617 11.8434 11.962 11.7799 11.9623C11.5753 11.9633 11.3706 11.9638 11.166 11.9643C11.0955 11.9645 11.025 11.9647 10.9545 11.9649C10.6233 11.9658 10.292 11.9664 9.96076 11.9668C9.57866 11.9673 9.19658 11.9685 8.81449 11.9704C8.51898 11.9718 8.22348 11.9725 7.92797 11.9727C7.75156 11.9728 7.57516 11.9732 7.39875 11.9744C7.23269 11.9755 7.06665 11.9757 6.90058 11.9752C6.81091 11.9751 6.72123 11.976 6.63156 11.977C6.31666 11.9751 6.11381 11.9576 5.85961 11.7656C5.6444 11.5334 5.60846 11.347 5.61205 11.0392C5.63801 10.8081 5.76662 10.6822 5.93285 10.5322C6.1073 10.4114 6.2393 10.4002 6.44623 10.3993Z" fill="black"/>
<path d="M6.5383 6.36843C6.59054 6.36816 6.64278 6.36789 6.6966 6.36762C6.75371 6.36757 6.81081 6.36751 6.86965 6.36746C6.92996 6.36723 6.99027 6.36699 7.0524 6.36675C7.21773 6.36614 7.38305 6.36584 7.54838 6.36563C7.65175 6.36549 7.75512 6.3653 7.85848 6.36509C8.18212 6.36445 8.50576 6.36399 8.82941 6.36381C9.20258 6.3636 9.57575 6.36278 9.94893 6.36142C10.2377 6.36041 10.5264 6.35994 10.8152 6.35987C10.9875 6.35983 11.1598 6.35955 11.3321 6.35871C11.5244 6.35779 11.7167 6.358 11.9091 6.3583C11.9659 6.35787 12.0227 6.35744 12.0813 6.35699C12.4465 6.35881 12.6892 6.38512 12.9756 6.62697C13.1602 6.84853 13.1967 7.02524 13.1719 7.31251C13.0864 7.58786 12.9766 7.71111 12.75 7.87501C12.6275 7.93628 12.5371 7.92821 12.3999 7.92879C12.3181 7.92929 12.3181 7.92929 12.2348 7.9298C12.1447 7.92999 12.1447 7.92999 12.0527 7.93018C11.9891 7.93048 11.9254 7.93079 11.8617 7.93112C11.6523 7.9321 11.4428 7.93259 11.2334 7.93306C11.1613 7.93325 11.0891 7.93344 11.017 7.93364C10.6782 7.93453 10.3393 7.9352 10.0005 7.93559C9.60945 7.93604 9.21845 7.93728 8.82745 7.93917C8.52517 7.94059 8.2229 7.94128 7.92063 7.94143C7.74013 7.94154 7.55964 7.94196 7.37914 7.94314C7.2092 7.94424 7.03927 7.94443 6.86932 7.94395C6.77752 7.94392 6.68572 7.94481 6.59392 7.94574C6.27685 7.94386 6.06706 7.93078 5.81252 7.73439C5.63806 7.51071 5.59418 7.33428 5.60708 7.0514C5.64621 6.80303 5.75463 6.65522 5.95315 6.49806C6.15492 6.38876 6.31004 6.36913 6.5383 6.36843Z" fill="black"/>
<path d="M6.58693 14.4778C6.63838 14.4775 6.68983 14.4773 6.74284 14.477C6.79882 14.4769 6.85481 14.4769 6.9125 14.4768C7.00148 14.4765 7.00148 14.4765 7.09227 14.4761C7.25469 14.4755 7.41711 14.4752 7.57954 14.475C7.68114 14.4749 7.78274 14.4747 7.88434 14.4745C8.2026 14.4738 8.52086 14.4734 8.83912 14.4732C9.20582 14.473 9.57252 14.4722 9.93922 14.4708C10.2231 14.4698 10.5071 14.4693 10.791 14.4692C10.9604 14.4692 11.1297 14.4689 11.2991 14.4681C11.4881 14.4672 11.6772 14.4674 11.8662 14.4677C11.9219 14.4672 11.9776 14.4668 12.035 14.4664C12.37 14.4681 12.6719 14.4815 12.9403 14.7056C12.9616 14.7331 12.9829 14.7607 13.0049 14.7891C13.0271 14.8166 13.0493 14.8442 13.0721 14.8726C13.1891 15.0507 13.1857 15.2148 13.1719 15.4219C13.0864 15.6972 12.9766 15.8205 12.75 15.9844C12.6275 16.0457 12.5371 16.0376 12.3999 16.0382C12.3181 16.0387 12.3181 16.0387 12.2348 16.0392C12.1447 16.0394 12.1447 16.0394 12.0527 16.0396C11.9891 16.0399 11.9254 16.0402 11.8617 16.0405C11.6523 16.0415 11.4428 16.042 11.2334 16.0424C11.1613 16.0426 11.0891 16.0428 11.017 16.043C10.6782 16.0439 10.3393 16.0446 10.0005 16.045C9.60945 16.0454 9.21845 16.0467 8.82745 16.0485C8.52517 16.05 8.2229 16.0507 7.92063 16.0508C7.74013 16.0509 7.55964 16.0513 7.37914 16.0525C7.2092 16.0536 7.03927 16.0538 6.86932 16.0533C6.77752 16.0533 6.68572 16.0542 6.59392 16.0551C6.27685 16.0532 6.06706 16.0402 5.81252 15.8438C5.63806 15.6201 5.59418 15.4437 5.60708 15.1608C5.64603 14.9136 5.75436 14.7658 5.95022 14.6074C6.16192 14.4951 6.3497 14.4785 6.58693 14.4778Z" fill="black"/>
</svg>
