<svg width="20" height="21" viewBox="0 0 20 21" fill="none" xmlns="http://www.w3.org/2000/svg">
<path fill-rule="evenodd" clip-rule="evenodd" d="M16.5597 3.08998C16.5581 2.69856 16.5677 2.32597 16.8216 2.00475C17.3556 1.43668 18.0542 1.43488 18.6832 1.86651C19.0582 2.24156 19.1992 2.62317 19.2022 3.14937L19.2014 3.25856C19.2017 3.38251 19.2018 3.50645 19.2014 3.6304C19.201 3.71863 19.2008 3.80685 19.2007 3.89508C19.2008 4.07963 19.2007 4.26417 19.2002 4.44872C19.1993 4.68818 19.1987 4.92764 19.1987 5.16711C19.1987 5.35457 19.1986 5.54202 19.1984 5.72947L19.1979 5.99718C19.1978 6.12553 19.1978 6.25386 19.1973 6.3822L19.1968 6.49934C19.1968 6.52789 19.1975 6.55632 19.1981 6.58459C19.2011 6.71678 19.2039 6.8455 19.1431 6.96709C18.8588 7.12832 18.8588 7.12832 18.5249 7.12365L18.3732 7.12145C18.212 7.12083 18.0509 7.12003 17.8897 7.11833C17.7777 7.11711 17.6656 7.11615 17.5535 7.11544C17.224 7.11375 16.8945 7.11129 16.565 7.10772C16.564 6.58389 16.5632 6.06005 16.5627 5.53622L16.5627 5.47414C16.5625 5.22776 16.5622 4.98137 16.5618 4.73499C16.5613 4.47336 16.5608 4.21174 16.5606 3.95012L16.5604 3.6516C16.5601 3.5083 16.5597 3.36501 16.5597 3.22171L16.5597 3.08998Z" fill="black"/>
<path fill-rule="evenodd" clip-rule="evenodd" d="M0 19V4.026C0 4.10961 9.84924e-05 4.19323 0.000306072 4.27685C0.000870254 4.50147 0.000815951 4.72608 0.000540676 4.9507C-2.56402e-05 5.39135 3.79155e-05 5.832 0.000597539 6.27266C0.00126128 6.79 0.00137657 7.30735 0.00128705 7.8247C0.00111107 8.74659 0.00149719 9.66848 0.00240642 10.5904C0.00329826 11.4877 0.00382508 12.385 0.00358302 13.2823C0.00329724 14.2641 0.00319535 15.246 0.00370533 16.2278L0.00387627 16.5418L0.00396067 16.6979C0.00416026 17.0598 0.00424239 17.4217 0.0041588 17.7836C0.00405824 18.1916 0.00412019 18.5996 0.0045919 19.0077L0 19ZM1.56519 20.3824C1.58561 20.3871 1.60611 20.3915 1.62666 20.3956C1.78748 20.3289 1.93218 20.251 2.08321 20.1578L2.16441 20.108L2.33546 20.0028C2.48313 19.9118 2.63124 19.8216 2.77938 19.7314L2.8672 19.6779C3.09352 19.5403 3.32104 19.4052 3.55153 19.2747L3.63728 19.2255C3.94271 19.0548 4.20306 18.9961 4.54763 18.9934L4.65145 18.9888C5.15653 18.984 5.59365 19.2578 6.01057 19.5189L6.0781 19.5612C6.16126 19.613 6.2447 19.6644 6.32824 19.7157C6.44594 19.788 6.56352 19.8605 6.68099 19.9332C6.95403 20.1022 7.22768 20.2701 7.50174 20.4374C7.5873 20.4897 7.67266 20.5423 7.75802 20.595L7.9153 20.6912L8.05364 20.7763C8.20057 20.8594 8.20058 20.8594 8.36206 20.8889L8.36208 20.889C8.42328 20.8634 8.45596 20.8498 8.48739 20.8337C8.52342 20.8153 8.55781 20.7937 8.63161 20.7472L8.7115 20.6999C8.7985 20.6483 8.88496 20.5958 8.97146 20.5432L9.15295 20.435C9.34298 20.3216 9.5323 20.207 9.72146 20.0921L9.81516 20.0352L10.09 19.8681L10.1796 19.8137C10.321 19.7277 10.4622 19.6415 10.6032 19.5547L10.6032 19.5547C11.1901 19.1951 11.3953 19.0693 11.6169 19.0239C11.7361 18.9995 11.86 18.9982 12.0505 18.9964H12.0506L12.2357 18.9923C12.7146 19.0229 13.133 19.2836 13.5346 19.5339C13.591 19.569 13.6471 19.6039 13.7029 19.638L13.8984 19.7558C13.9912 19.8117 14.084 19.8676 14.1766 19.9239C14.3663 20.0391 14.5574 20.1517 14.7492 20.2634L14.9021 20.3525L14.936 20.3723C14.9638 20.3589 14.9913 20.3448 15.0184 20.3301L15.0185 20.3064C15.0212 18.0804 15.0247 15.8543 15.0291 13.6282L15.0306 12.8259L15.0309 12.6646C15.0326 11.8031 15.0338 10.9416 15.0348 10.0802C15.0358 9.19588 15.0373 8.31161 15.0394 7.42733C15.0406 6.88191 15.0414 6.33648 15.0417 5.79105C15.042 5.41678 15.0427 5.04252 15.0439 4.66825C15.0446 4.45248 15.045 4.23671 15.0448 4.02093C15.0447 3.82301 15.0451 3.62511 15.0461 3.42719C15.0464 3.35595 15.0464 3.28471 15.0461 3.21348C15.0447 2.76097 15.0936 2.34393 15.2058 1.90458L15.236 1.78046C15.244 1.74767 15.2521 1.71492 15.2604 1.68219C15.2235 1.63032 15.1853 1.57936 15.146 1.52937C13.6346 1.52732 12.1233 1.52575 10.6119 1.52479L10.0582 1.52443L9.94684 1.52435C9.35228 1.52395 8.75773 1.52321 8.16318 1.52235C7.55286 1.52147 6.94255 1.52095 6.33223 1.52076C5.9558 1.52063 5.57937 1.52022 5.20294 1.51946C4.91403 1.51891 4.62512 1.51885 4.33621 1.51897C4.21788 1.51895 4.09955 1.51876 3.98123 1.5184C3.81943 1.51794 3.65765 1.51805 3.49585 1.5183L3.35463 1.51748C2.7914 1.51987 2.29468 1.61152 1.89919 2.03934C1.62569 2.37616 1.5593 2.72216 1.55944 3.15121L1.55916 3.33846L1.55957 3.54323L1.55945 3.76148C1.55934 3.96126 1.55953 4.16105 1.55977 4.36083C1.55995 4.55305 1.55991 4.74527 1.55988 4.93749L1.55986 5.00729C1.55984 5.3806 1.55999 5.75391 1.56025 6.12721C1.56063 6.66695 1.56075 7.20669 1.56081 7.74643C1.56091 8.62211 1.56123 9.4978 1.56167 10.3735C1.5621 11.2241 1.56243 12.0748 1.56263 12.9255L1.56267 13.0844L1.56285 13.8735C1.56333 16.0431 1.56415 18.2127 1.56519 20.3824ZM12 0C12.0695 0 12.1386 0.00177164 12.2072 0.00527222L11.6362 0.00642066C10.8756 0.00817394 10.115 0.00943995 9.35445 0.00960585L9.2121 0.0096315L9.06993 0.00965747L8.78638 0.00970861L8.64508 0.00973525C7.91596 0.00987157 7.18684 0.0106406 6.45772 0.0115576C6.19463 0.0118958 5.93155 0.0122017 5.66847 0.0123545C5.24755 0.0125917 4.82663 0.0129643 4.40571 0.0140339L4.33435 0.0142353C4.16551 0.0147145 3.99668 0.0151938 3.82784 0.0152617L3.64779 0.0152934C3.76384 0.00516876 3.88132 0 4 0H12ZM5.07453 5.64722L4.91622 5.64803C4.68797 5.64873 4.53285 5.66837 4.33108 5.77766C4.13256 5.93482 4.02414 6.08263 3.98501 6.33101C3.97211 6.61388 4.01599 6.79031 4.19045 7.01399C4.44499 7.21038 4.65478 7.22347 4.97185 7.22534C5.06365 7.22441 5.15545 7.22352 5.24725 7.22355C5.4172 7.22404 5.58713 7.22384 5.75707 7.22275C5.93757 7.22157 6.11806 7.22115 6.29856 7.22104C6.60083 7.22088 6.9031 7.22019 7.20538 7.21877C7.59638 7.21688 7.98738 7.21565 8.37839 7.21519C8.71725 7.2148 9.0561 7.21413 9.39496 7.21324L9.61129 7.21266C9.82074 7.21219 10.0302 7.21171 10.2396 7.21072L10.4307 7.20979L10.6127 7.2094L10.7778 7.20839L10.8224 7.20841C10.9358 7.20875 11.0192 7.209 11.128 7.15461C11.3545 6.99071 11.4644 6.86747 11.5498 6.59211C11.5746 6.30484 11.5382 6.12813 11.3535 5.90657C11.0671 5.66472 10.8245 5.63841 10.4592 5.6366L10.287 5.63791C10.0947 5.6376 9.90236 5.63739 9.71004 5.63831C9.53772 5.63915 9.3654 5.63943 9.19308 5.63948C8.90434 5.63954 8.6156 5.64001 8.32686 5.64103C7.95368 5.64238 7.58051 5.64321 7.20733 5.64342C6.88369 5.6436 6.56005 5.64405 6.23641 5.64469L5.92631 5.64523C5.76098 5.64544 5.59566 5.64574 5.43033 5.64636L5.24758 5.64706L5.07453 5.64722ZM4.91622 9.64803L5.07453 9.64722L5.24758 9.64706L5.43033 9.64636C5.59566 9.64574 5.76098 9.64544 5.92631 9.64523L6.23641 9.64469C6.56005 9.64405 6.88369 9.6436 7.20733 9.64342C7.58051 9.64321 7.95368 9.64238 8.32686 9.64103C8.6156 9.64001 8.90434 9.63954 9.19308 9.63948C9.3654 9.63943 9.53772 9.63915 9.71004 9.63831C9.90236 9.63739 10.0947 9.6376 10.287 9.63791L10.4592 9.6366C10.8245 9.63841 11.0671 9.66472 11.3535 9.90657C11.5382 10.1281 11.5746 10.3048 11.5498 10.5921C11.4644 10.8675 11.3545 10.9907 11.128 11.1546C11.0192 11.209 10.9358 11.2087 10.8224 11.2084L10.7778 11.2084L10.6127 11.2094L10.4307 11.2098L10.2396 11.2107C10.0302 11.2117 9.82074 11.2122 9.61129 11.2127L9.39496 11.2132C9.0561 11.2141 8.71725 11.2148 8.37839 11.2152C7.98738 11.2156 7.59638 11.2169 7.20538 11.2188C6.9031 11.2202 6.60083 11.2209 6.29856 11.221C6.11806 11.2211 5.93757 11.2216 5.75707 11.2227C5.58713 11.2238 5.4172 11.224 5.24725 11.2236C5.15545 11.2235 5.06365 11.2244 4.97185 11.2253C4.65478 11.2235 4.44499 11.2104 4.19045 11.014C4.01599 10.7903 3.97211 10.6139 3.98501 10.331C4.02414 10.0826 4.13256 9.93482 4.33108 9.77766C4.53285 9.66837 4.68797 9.64873 4.91622 9.64803ZM5.07453 13.6472L4.91622 13.648C4.68797 13.6487 4.53285 13.6684 4.33108 13.7777C4.13256 13.9348 4.02414 14.0826 3.98501 14.331C3.97211 14.6139 4.01599 14.7903 4.19045 15.014C4.44499 15.2104 4.65478 15.2235 4.97185 15.2253C5.06365 15.2244 5.15545 15.2235 5.24725 15.2236C5.4172 15.224 5.58713 15.2238 5.75707 15.2227C5.93757 15.2216 6.11806 15.2211 6.29856 15.221C6.60083 15.2209 6.9031 15.2202 7.20538 15.2188C7.59638 15.2169 7.98738 15.2156 8.37839 15.2152C8.71725 15.2148 9.0561 15.2141 9.39496 15.2132L9.61129 15.2127C9.82074 15.2122 10.0302 15.2117 10.2396 15.2107L10.4307 15.2098L10.6127 15.2094L10.7778 15.2084C10.7932 15.2083 10.808 15.2084 10.8224 15.2084C10.9358 15.2087 11.0192 15.209 11.128 15.1546C11.3545 14.9907 11.4644 14.8675 11.5498 14.5921C11.5746 14.3048 11.5382 14.1281 11.3535 13.9066C11.0671 13.6647 10.8245 13.6384 10.4592 13.6366L10.287 13.6379C10.0947 13.6376 9.90236 13.6374 9.71004 13.6383C9.53772 13.6392 9.3654 13.6394 9.19308 13.6395C8.90434 13.6395 8.6156 13.64 8.32686 13.641C7.95368 13.6424 7.58051 13.6432 7.20733 13.6434C6.88369 13.6436 6.56005 13.6441 6.23641 13.6447L5.92631 13.6452C5.76098 13.6454 5.59566 13.6457 5.43033 13.6464L5.24758 13.6471L5.07453 13.6472Z" fill="black"/>
</svg>
