<svg width="30" height="27" viewBox="0 0 30 27" fill="none" xmlns="http://www.w3.org/2000/svg">
<path fill-rule="evenodd" clip-rule="evenodd" d="M18.3442 0L18.7255 0.063123L29.439 5.49512L29.7913 6.06871V24.3002L29.2176 24.9396L10.2484 27L9.88731 26.9338L0.560229 22.1886L0.20874 21.6155V3.13418L0.761401 2.49747L18.3442 0ZM11.6698 2.24715L19.7867 6.62204L26.993 5.69699L18.3245 1.30191L11.6698 2.24715ZM28.5051 6.79964L20.3067 7.85205V10.1895H19.0205V8.01715L10.822 9.06956V25.6439L19.0205 24.7534V22.552H20.3067V24.6137L28.5051 23.7232V6.79964ZM9.53582 25.3119V8.87557L1.49494 4.24646V21.2211L9.53582 25.3119ZM2.79073 3.50833L10.312 7.83829L17.5973 6.90309L9.52429 2.55189L2.79073 3.50833Z" fill="#007BFF"/>
<path fill-rule="evenodd" clip-rule="evenodd" d="M20.1882 12.8338C19.2859 12.6666 18.3537 12.8264 17.5586 13.2846C16.7636 13.7427 16.1578 14.4691 15.8501 15.3336C15.5423 16.198 15.5526 17.1438 15.8793 18.0013C16.2059 18.8588 16.8274 19.5718 17.6322 20.0124C18.4371 20.453 19.3726 20.5924 20.271 20.4055C21.1693 20.2187 21.9717 19.7177 22.5341 18.9927C23.0964 18.2677 23.382 17.3659 23.3396 16.4493C23.3232 16.0946 23.5975 15.7936 23.9522 15.7772C24.307 15.7608 24.608 16.0351 24.6244 16.3899C24.681 17.612 24.3002 18.8143 23.5504 19.781C22.8005 20.7477 21.7307 21.4156 20.5329 21.6648C19.3351 21.9139 18.0877 21.7281 17.0146 21.1406C15.9414 20.5531 15.1128 19.6024 14.6773 18.4591C14.2418 17.3158 14.228 16.0547 14.6384 14.9021C15.0488 13.7496 15.8564 12.781 16.9165 12.1701C17.9765 11.5593 19.2195 11.3462 20.4225 11.5691C20.7717 11.6339 21.0024 11.9694 20.9377 12.3186C20.8729 12.6679 20.5374 12.8985 20.1882 12.8338Z" fill="#FF8C00"/>
<path fill-rule="evenodd" clip-rule="evenodd" d="M24.4029 11.7085C24.6813 11.9292 24.7281 12.3336 24.5074 12.612L24.0035 12.2125L23.4995 11.813C23.7201 11.5347 24.1246 11.4879 24.4029 11.7085ZM17.9509 15.4293C17.6638 15.2203 17.2615 15.2836 17.0525 15.5708C16.8435 15.8579 16.9069 16.2602 17.194 16.4692L17.2167 16.4856L17.2795 16.5311C17.3335 16.5701 17.4107 16.6257 17.504 16.6924C17.6903 16.8256 17.9417 17.0038 18.2004 17.1824C18.4577 17.3601 18.7285 17.5426 18.9516 17.6823C19.062 17.7514 19.1702 17.8161 19.2637 17.8655C19.3097 17.8898 19.3631 17.9162 19.4177 17.9382L19.4201 17.9391C19.4537 17.9527 19.572 18.0004 19.7161 18.0004C19.8642 18.0004 19.973 17.9497 20.0081 17.9328C20.0564 17.9095 20.094 17.8846 20.1166 17.8687C20.1627 17.8363 20.203 17.8011 20.2319 17.7749C20.2923 17.7198 20.3607 17.6497 20.4302 17.5754C20.5718 17.4239 20.7558 17.2141 20.9634 16.9709C21.3803 16.4826 21.9136 15.8347 22.4372 15.1906C22.9616 14.5456 23.4791 13.901 23.8653 13.4179C24.0584 13.1763 24.2189 12.975 24.3311 12.8339L24.5074 12.612L24.0035 12.2125L23.4995 11.813L23.3246 12.0332C23.2129 12.1735 23.0531 12.3741 22.8607 12.6148C22.4757 13.0963 21.9606 13.738 21.4392 14.3792C20.9172 15.0213 20.3917 15.6596 19.9851 16.1359C19.8383 16.3078 19.7097 16.4555 19.6039 16.5731C19.4105 16.4509 19.1711 16.2896 18.9313 16.1241C18.6803 15.9507 18.435 15.7769 18.252 15.6461C18.1607 15.5808 18.0851 15.5264 18.0325 15.4884L17.9718 15.4444L17.9509 15.4293Z" fill="#FF8C00"/>
</svg>
