<?xml version="1.0" encoding="UTF-8"?>
<svg version="1.1" xmlns="http://www.w3.org/2000/svg" width="512" height="512">
<path d="M0 0 C1.09555206 -0.00511093 2.19110413 -0.01022186 3.31985474 -0.01548767 C6.91918495 -0.02931744 10.51832226 -0.02843185 14.11767578 -0.02612305 C16.63436961 -0.03001359 19.15106279 -0.034349 21.66775513 -0.03910828 C26.93476993 -0.04655626 32.20173537 -0.04642901 37.46875 -0.04101562 C43.53147093 -0.03497962 49.59395956 -0.04728576 55.65664089 -0.06858569 C61.51979334 -0.08841672 67.38285571 -0.09136471 73.24603653 -0.08785057 C75.72659984 -0.08836201 78.207167 -0.09356624 80.68770981 -0.10366249 C84.16438147 -0.11607753 87.64052353 -0.10920446 91.1171875 -0.09765625 C92.12948425 -0.10529999 93.14178101 -0.11294373 94.18475342 -0.12081909 C110.46597515 -0.0020235 125.57069285 6.75954128 136.99267578 18.25512695 C148.79499564 30.97911207 152.81026221 46.30740147 153.00048828 63.2121582 C153.02949219 64.06745117 153.05849609 64.92274414 153.08837891 65.80395508 C153.14784839 71.80122367 152.0955995 76.27672886 148.68798828 81.2746582 C143.74364091 85.9778179 139.7058639 86.42406821 133.12995911 86.42855835 C132.35308186 86.4329406 131.57620461 86.43732286 130.77578562 86.44183791 C128.16424201 86.45522657 125.55273215 86.46140493 122.94116211 86.4675293 C121.07194872 86.47543024 119.20273686 86.48369918 117.33352661 86.49230957 C111.18737241 86.5185315 105.04121139 86.53383778 98.89501953 86.5480957 C96.77938012 86.55345539 94.66374075 86.5588329 92.54810143 86.56422806 C83.74746319 86.58585738 74.9468268 86.60459399 66.14616871 86.61585045 C53.53335029 86.63208882 40.92083998 86.66526345 28.30813771 86.7222513 C19.44008498 86.76095362 10.57211464 86.78048352 1.70397967 86.78577101 C-3.59263549 86.78942416 -8.88892205 86.80144174 -14.18544579 86.83387375 C-19.17023407 86.86395919 -24.15449499 86.87026441 -29.13935471 86.85848999 C-30.96626947 86.85826929 -32.79320873 86.8665711 -34.62003899 86.88414383 C-51.75654177 87.03997612 -51.75654177 87.03997612 -58.31201172 81.2746582 C-62.75022983 75.81324986 -61.78804547 69.48653725 -61.74951172 62.7746582 C-61.76949219 61.57067383 -61.78947266 60.36668945 -61.81005859 59.1262207 C-61.80164567 43.47817356 -56.49123206 28.95967394 -45.70654297 17.47387695 C-32.44639125 5.29530368 -17.8559412 -0.04352518 0 0 Z " fill="#000000" transform="translate(61.31201171875,276.725341796875)"/>
<path d="M0 0 C0.94440948 -0.0071553 1.88881897 -0.01431061 2.86184692 -0.02168274 C3.88628906 -0.02437164 4.9107312 -0.02706055 5.96621704 -0.02983093 C7.05475983 -0.03640213 8.14330261 -0.04297333 9.26483154 -0.04974365 C12.86662877 -0.06944776 16.46838425 -0.08113603 20.07022095 -0.09111023 C21.92182768 -0.09722352 21.92182768 -0.09722352 23.81084061 -0.10346031 C29.6772064 -0.12216564 35.54355592 -0.13672987 41.40994585 -0.14507228 C47.47634615 -0.15384484 53.54249471 -0.17305355 59.60879517 -0.20951843 C66.13742514 -0.24812755 72.66582864 -0.26677741 79.19456863 -0.27127647 C81.67184312 -0.27612036 84.14911464 -0.28767082 86.6263237 -0.30631447 C107.77849317 -0.45554794 125.98833836 0.95396229 142.3006897 16.14717102 C155.02103678 29.74386769 159.52784396 44.03344716 159.54678345 62.27217102 C159.57127563 63.52127258 159.59576782 64.77037415 159.6210022 66.05732727 C159.63725431 71.13340249 159.6394584 75.08050353 157.58584595 79.76435852 C152.98591964 84.30473886 148.79885004 86.5830286 142.29712194 86.67748255 C141.57843343 86.66787754 140.85974491 86.65827253 140.11927795 86.64837646 C138.94671883 86.65667806 138.94671883 86.65667806 137.75047165 86.66514736 C135.14635778 86.67869734 132.54321179 86.66381603 129.93911743 86.64888 C128.06606643 86.65266521 126.19301823 86.65816692 124.31997681 86.66525269 C119.24358468 86.67919722 114.16753186 86.6680449 109.09115863 86.65154147 C103.77550674 86.63767694 98.45987427 86.64415258 93.14421082 86.64767456 C84.21918274 86.65037533 75.29428926 86.63691166 66.36929321 86.61372375 C56.05307493 86.58710675 45.73708154 86.58537003 35.42084068 86.59711212 C25.49227806 86.60789319 15.56379673 86.60170075 5.63524055 86.58755684 C1.41168355 86.58180074 -2.8118139 86.58187676 -7.03537178 86.58662224 C-12.00866164 86.59139644 -16.98170537 86.58127185 -21.95494843 86.55966759 C-23.7794531 86.55410592 -25.60398146 86.55362874 -27.42848778 86.55862045 C-29.92016268 86.56458233 -32.41108734 86.55205124 -34.9026947 86.53485107 C-35.98407356 86.54386614 -35.98407356 86.54386614 -37.08729845 86.55306333 C-41.72707781 86.49487327 -44.87947727 85.57170537 -48.82821655 83.14717102 C-56.05858179 75.51511883 -55.2478908 67.33982335 -55.07040405 57.45576477 C-54.49607171 41.30337835 -48.11257658 27.12741784 -36.71102905 15.77217102 C-26.87953679 6.81991791 -13.51473708 0.07072754 0 0 Z " fill="#000000" transform="translate(352.8282165527344,276.8528289794922)"/>
<path d="M0 0 C1.26070312 -0.03867187 1.26070312 -0.03867187 2.546875 -0.078125 C8.91044861 0.69433191 12.93707301 4.55812492 17.1640625 9.046875 C18.26538238 10.18122519 19.36695215 11.31533281 20.46875 12.44921875 C22.18254937 14.23162933 23.89204171 16.01790684 25.59667969 17.80908203 C27.25428356 19.54487477 28.92678132 21.26517468 30.6015625 22.984375 C31.36262802 23.79826691 31.36262802 23.79826691 32.1390686 24.62860107 C33.72285594 26.30418433 33.72285594 26.30418433 36.25 28.25 C38.38749066 28.33844201 38.38749066 28.33844201 40.25 27.25 C40.90621338 26.97655762 41.56242676 26.70311523 42.23852539 26.42138672 C42.93453857 26.09412598 43.63055176 25.76686523 44.34765625 25.4296875 C45.13849609 25.06278809 45.92933594 24.69588867 46.74414062 24.31787109 C47.59169922 23.92422363 48.43925781 23.53057617 49.3125 23.125 C74.14481795 11.85184483 100.07080538 4.24488812 127.25 1.25 C128.05348877 1.1571875 128.85697754 1.064375 129.68481445 0.96875 C137.88132661 0.1132758 146.07929239 0.00677328 154.3125 0 C155.05577545 -0.00067474 155.7990509 -0.00134949 156.56484985 -0.00204468 C206.09205449 0.06876236 256.61705284 14.38224234 297.25 43.25 C298.64992188 44.23806641 298.64992188 44.23806641 300.078125 45.24609375 C305.52613288 49.14948487 310.82648067 53.20959855 316.0234375 57.44140625 C317.36638652 58.53225783 318.72233464 59.60773868 320.1015625 60.65234375 C323.75436445 63.46842013 325.78586241 65.85758722 327.25 70.25 C327.89110976 75.55300665 327.92963672 79.81230694 325.625 84.6875 C321.0872151 89.58353108 317.2010479 91.61367514 310.69140625 92.46484375 C304.61903045 91.93047468 300.2229226 88.69313545 295.8125 84.75 C265.81317212 58.87253487 228.05894836 42.98766465 189.25 36.25 C188.57453125 36.13140625 187.8990625 36.0128125 187.203125 35.890625 C151.05665818 29.91365017 95.75449559 31.89580182 64.98901367 53.86450195 C64.41513916 54.32171631 63.84126465 54.77893066 63.25 55.25 C63.67152344 55.72050781 64.09304687 56.19101563 64.52734375 56.67578125 C65.07519531 57.29839844 65.62304688 57.92101562 66.1875 58.5625 C66.73277344 59.17738281 67.27804688 59.79226562 67.83984375 60.42578125 C71.00608061 64.52171646 70.70687311 69.31746248 70.25 74.25 C68.28565961 79.92476113 64.62199338 83.56400331 59.25 86.25 C57.24998163 86.36192574 55.24623365 86.40930779 53.24316406 86.42700195 C51.98135315 86.43983719 50.71954224 86.45267242 49.41949463 86.46589661 C48.03487541 86.47406511 46.65025175 86.48150863 45.265625 86.48828125 C44.56886406 86.49235678 43.87210312 86.4964323 43.15422821 86.50063133 C39.46447547 86.52149523 35.77475992 86.53579404 32.08496094 86.54516602 C28.28066089 86.5562156 24.47694818 86.59059683 20.67285538 86.63033772 C17.74223778 86.65653612 14.81175924 86.66486078 11.88103485 86.66844749 C10.47924596 86.67330725 9.07746303 86.68490398 7.67578888 86.70348549 C5.70880821 86.72793469 3.74154149 86.72448646 1.77441406 86.7199707 C0.65681702 86.72583694 -0.46078003 86.73170319 -1.61224365 86.73774719 C-6.65610681 85.95370604 -9.74852254 83.38681225 -13.0625 79.625 C-15.72368459 75.8796291 -15.88650709 73.82738999 -15.92700195 69.24316406 C-15.93983719 67.98135315 -15.95267242 66.71954224 -15.96589661 65.41949463 C-15.97406511 64.03487541 -15.98150863 62.65025175 -15.98828125 61.265625 C-15.99235678 60.56886406 -15.9964323 59.87210312 -16.00063133 59.15422821 C-16.02149523 55.46447547 -16.03579404 51.77475992 -16.04516602 48.08496094 C-16.0562156 44.28066089 -16.09059683 40.47694818 -16.13033772 36.67285538 C-16.15653612 33.74223778 -16.16486078 30.81175924 -16.16844749 27.88103485 C-16.17330725 26.47924596 -16.18490398 25.07746303 -16.20348549 23.67578888 C-16.22793469 21.70880821 -16.22448646 19.74154149 -16.2199707 17.77441406 C-16.22583694 16.65681702 -16.23170319 15.53921997 -16.23774719 14.38775635 C-15.45370604 9.34389319 -12.88681225 6.25147746 -9.125 2.9375 C-5.82055664 0.58960604 -4.01470014 0.07299455 0 0 Z " fill="#000000" transform="translate(100.75,20.75)"/>
<path d="M0 0 C0.72960937 0.05542969 1.45921875 0.11085938 2.2109375 0.16796875 C7.44883638 1.5664369 11.51548815 5.46941992 15.61962891 8.87133789 C47.47841327 35.22350723 86.68139876 51.57625392 127.625 56.8125 C128.70430786 56.95389404 128.70430786 56.95389404 129.80541992 57.09814453 C166.64764348 61.37580638 212.42215177 57.39935855 244.625 37.8125 C243.88443359 36.99845703 243.88443359 36.99845703 243.12890625 36.16796875 C242.48824219 35.45253906 241.84757812 34.73710937 241.1875 34 C240.54941406 33.29230469 239.91132813 32.58460938 239.25390625 31.85546875 C235.76019016 27.47366176 236.02416815 22.16157244 236.625 16.8125 C239.11834503 11.82580993 242.61850949 8.31574526 247.625 5.8125 C249.62501837 5.70057426 251.62876635 5.65319221 253.63183594 5.63549805 C255.52455231 5.61624519 255.52455231 5.61624519 257.45550537 5.59660339 C258.84012459 5.58843489 260.22474825 5.58099137 261.609375 5.57421875 C262.30613594 5.57014322 263.00289688 5.5660677 263.72077179 5.56186867 C267.41052453 5.54100477 271.10024008 5.52670596 274.79003906 5.51733398 C278.59433911 5.5062844 282.39805182 5.47190317 286.20214462 5.43216228 C289.13276222 5.40596388 292.06324076 5.39763922 294.99396515 5.39405251 C296.39575404 5.38919275 297.79753697 5.37759602 299.19921112 5.35901451 C301.16619179 5.33456531 303.13345851 5.33801354 305.10058594 5.3425293 C306.21818298 5.33666306 307.33578003 5.33079681 308.48724365 5.32475281 C313.53110681 6.10879396 316.62352254 8.67568775 319.9375 12.4375 C322.59868459 16.1828709 322.76150709 18.23511001 322.80200195 22.81933594 C322.81483719 24.08114685 322.82767242 25.34295776 322.84089661 26.64300537 C322.84906511 28.02762459 322.85650863 29.41224825 322.86328125 30.796875 C322.86735678 31.49363594 322.8714323 32.19039688 322.87563133 32.90827179 C322.89649523 36.59802453 322.91079404 40.28774008 322.92016602 43.97753906 C322.9312156 47.78183911 322.96559683 51.58555182 323.00533772 55.38964462 C323.03153612 58.32026222 323.03986078 61.25074076 323.04344749 64.18146515 C323.04830725 65.58325404 323.05990398 66.98503697 323.07848549 68.38671112 C323.10293469 70.35369179 323.09948646 72.32095851 323.0949707 74.28808594 C323.10377007 75.96448151 323.10377007 75.96448151 323.11274719 77.67474365 C322.32870604 82.71860681 319.76181225 85.81102254 316 89.125 C312.69555664 91.47289396 310.88970014 91.98950545 306.875 92.0625 C306.03453125 92.08828125 305.1940625 92.1140625 304.328125 92.140625 C298.08071504 91.38226888 294.09945539 87.66553167 289.96484375 83.234375 C288.91381304 82.14544558 287.8623686 81.05691538 286.81054688 79.96875 C285.17657542 78.26004747 283.54781008 76.54690909 281.92651367 74.82617188 C280.34820041 73.15744554 278.7518863 71.50772548 277.15234375 69.859375 C276.6720018 69.33865417 276.19165985 68.81793335 275.69676208 68.28143311 C274.1727193 66.65541226 274.1727193 66.65541226 271.625 64.8125 C267.83926227 64.94266963 265.01280383 66.51644049 261.66748047 68.23706055 C241.62090614 78.49270011 218.77256139 85.08717451 196.625 88.8125 C195.21565186 89.05371582 195.21565186 89.05371582 193.77783203 89.29980469 C143.90094787 97.44879873 91.03824862 89.8950907 45.625 67.8125 C44.73022949 67.37808594 43.83545898 66.94367188 42.91357422 66.49609375 C25.22494362 57.80757877 8.62241328 47.66742567 -6.375 34.8125 C-7.28121094 34.06226563 -8.18742187 33.31203125 -9.12109375 32.5390625 C-10.02988281 31.76304687 -10.93867187 30.98703125 -11.875 30.1875 C-12.6896875 29.49398438 -13.504375 28.80046875 -14.34375 28.0859375 C-17.49407134 24.56000092 -18.23661321 21.05798112 -18.75 16.4375 C-18.278435 11.87903835 -17.0241351 8.5505434 -14.375 4.8125 C-9.71927008 1.02971944 -5.94462716 -0.55274603 0 0 Z " fill="#000000" transform="translate(104.375,399.1875)"/>
<path d="M0 0 C0.74636719 0.30035156 1.49273437 0.60070312 2.26171875 0.91015625 C14.90652056 6.64875982 23.94751603 17.11754786 29 29.9375 C34.4277964 45.14663784 33.01054556 60.53802805 26.375 75.0625 C19.13761128 88.7904216 7.56522012 97.17088959 -7 102 C-11.68402895 103.35067413 -16.28195886 103.2229439 -21.125 103.25 C-22.02476562 103.270625 -22.92453125 103.29125 -23.8515625 103.3125 C-38.75251509 103.39813766 -50.813973 97.08842373 -61.296875 86.828125 C-72.98701042 74.59740528 -75.50401888 60.59538834 -75.27734375 44.29296875 C-74.80800822 31.0371587 -68.14425098 19.66377577 -59.2578125 10.1015625 C-43.17740533 -4.86601372 -20.02551869 -8.09423063 0 0 Z " fill="#000000" transform="translate(427,153)"/>
<path d="M0 0 C9.78439421 8.2870854 16.5169093 19.43176145 19.265625 31.99609375 C20.63483907 48.82515109 18.77137999 63.27429131 8.265625 76.99609375 C-0.31134666 87.07841146 -12.41130052 95.08151833 -25.92578125 96.1730957 C-44.92267117 96.66405734 -59.30108269 93.57279296 -73.6328125 80.25390625 C-84.61684806 68.45321378 -88.26702183 54.13141253 -88.01953125 38.4375 C-87.75477646 32.24436671 -86.04739421 26.71861532 -83.734375 20.99609375 C-83.43402344 20.24972656 -83.13367188 19.50335938 -82.82421875 18.734375 C-77.08561518 6.08957319 -66.61682714 -2.95142228 -53.796875 -8.00390625 C-35.49427273 -14.53568996 -15.67636646 -11.48853713 0 0 Z " fill="#000000" transform="translate(140.734375,160.00390625)"/>
</svg>
