<?xml version="1.0" encoding="UTF-8"?>
<svg version="1.1" xmlns="http://www.w3.org/2000/svg" width="512" height="512">
<path d="M0 0 C1.65125885 0.0001133 1.65125885 0.0001133 3.33587646 0.00022888 C4.51828918 0.00539017 5.7007019 0.01055145 6.91894531 0.01586914 C8.13406799 0.01728409 9.34919067 0.01869904 10.60113525 0.02015686 C14.48313862 0.02575551 18.36508437 0.0383078 22.24707031 0.05102539 C24.8785799 0.05604056 27.51009038 0.06060344 30.14160156 0.06469727 C36.59344415 0.0757245 43.04525311 0.09246131 49.49707031 0.11352539 C49.5011792 1.07129883 49.50528809 2.02907227 49.50952148 3.01586914 C49.53145234 6.60217587 49.58588238 10.187407 49.6496582 13.77319336 C49.6727177 15.31898616 49.68720543 16.86493339 49.69262695 18.41088867 C49.73595956 28.73738117 50.29600391 35.91245899 57.87207031 43.48852539 C63.71355902 47.10468507 69.73317178 47.42200537 76.39550781 47.41430664 C77.22990387 47.41859177 78.06429993 47.42287689 78.92398071 47.42729187 C80.68043108 47.43300682 82.43690511 47.43355646 84.19335938 47.42919922 C86.857514 47.42604264 89.52055286 47.44952174 92.18457031 47.47485352 C93.90071476 47.47712739 95.61686216 47.4778296 97.33300781 47.47680664 C98.11767426 47.48601639 98.9023407 47.49522614 99.71078491 47.50471497 C106.61327457 47.44795967 112.91367778 46.19147156 118.37207031 41.80102539 C122.55899222 36.50580062 123.94699856 31.98951642 124.00878906 25.30883789 C124.02674026 24.58485809 124.04469147 23.8608783 124.06318665 23.11495972 C124.1169817 20.82287262 124.15108433 18.53098998 124.18457031 16.23852539 C124.2177708 14.67599712 124.25226297 13.11349573 124.28808594 11.55102539 C124.37268955 7.73867371 124.4396459 3.92637939 124.49707031 0.11352539 C132.12838233 0.01153481 139.75951649 -0.05818707 147.39135742 -0.10620117 C149.98387216 -0.12623182 152.5763422 -0.15346427 155.16870117 -0.18823242 C158.90978065 -0.23712602 162.65025922 -0.25953 166.39160156 -0.27709961 C168.11102715 -0.30806732 168.11102715 -0.30806732 169.8651886 -0.33966064 C179.91195177 -0.34241929 188.41636853 1.95680022 196.49707031 8.11352539 C197.32207031 8.67040039 198.14707031 9.22727539 198.99707031 9.80102539 C207.82534425 17.96717878 212.14353568 29.43529251 212.62570477 41.27112198 C212.62738061 42.34915966 212.62905645 43.42719734 212.63078308 44.53790283 C212.63718056 46.4090551 212.63718056 46.4090551 212.64370728 48.31800842 C212.64335783 49.68246463 212.64289634 51.04692082 212.64233398 52.41137695 C212.64532943 53.86252427 212.64873285 55.31367079 212.6525116 56.76481628 C212.66131742 60.69270532 212.66368829 64.62057254 212.66432738 68.5484705 C212.66503993 71.0071364 212.66717814 73.46579683 212.6698246 75.92446136 C212.67906734 84.5153183 212.68316091 93.10615975 212.68237305 101.69702148 C212.68177283 109.68301237 212.6923164 117.66893559 212.70811671 125.65490937 C212.72122866 132.52905411 212.7265554 139.40317684 212.72591764 146.27733397 C212.72566369 150.37499992 212.72845768 154.4726057 212.73909569 158.57025909 C212.74883818 162.42807009 212.74881409 166.28576416 212.74157906 170.14357948 C212.74054075 171.55156693 212.74285074 172.95956189 212.74893951 174.36753654 C212.80818694 189.02913387 211.14868242 200.47387592 202.18457031 212.42602539 C192.04809503 222.56250067 180.49865521 225.61556061 166.51029968 225.65563965 C164.82034111 225.64786502 163.13038442 225.63967251 161.44042969 225.63110352 C159.63401223 225.63653249 157.8275992 225.64365948 156.02119446 225.65234375 C151.14305198 225.67048785 146.26525011 225.66354658 141.38710213 225.65082741 C136.26599377 225.64065335 131.14491329 225.65010527 126.02380371 225.65637207 C117.42613526 225.66363569 108.82860454 225.65409457 100.23095703 225.63500977 C90.3111999 225.61324354 80.3917717 225.62029582 70.47202253 225.64231539 C61.93324211 225.66050608 53.39456033 225.6630098 44.85576677 225.65256071 C39.76549932 225.64634593 34.67538614 225.64543445 29.58512878 225.65870667 C24.79802856 225.67031807 20.01134969 225.66214335 15.22429466 225.63912964 C13.47445053 225.63387069 11.72457052 225.63530771 9.97474098 225.6441803 C-4.72390671 225.71180122 -15.82151886 223.55599831 -26.63183594 213.04321289 C-34.00802114 205.2459195 -37.6109219 197.31431529 -37.65010071 186.59434509 C-37.6537774 185.94123669 -37.65745408 185.28812828 -37.66124219 184.61522871 C-37.67224846 182.42837362 -37.6761177 180.2415661 -37.67993164 178.0546875 C-37.68619876 176.48575694 -37.69284578 174.91682786 -37.69984436 173.34790039 C-37.72086313 168.19556711 -37.73124685 163.04323361 -37.74121094 157.89086914 C-37.74525975 156.11425829 -37.74937671 154.3376476 -37.75356102 152.56103706 C-37.77261036 144.21080624 -37.78684017 135.86058423 -37.79517299 127.51033586 C-37.80493537 117.88748576 -37.83122979 108.2648663 -37.87167388 98.64209741 C-37.9018947 91.19477078 -37.91664763 83.74751001 -37.919954 76.30012327 C-37.92229829 71.85692419 -37.93117699 67.41397157 -37.95641518 62.97083855 C-37.97980466 58.78549588 -37.9838858 54.60056001 -37.97365379 50.41516876 C-37.9731609 48.88623 -37.97940791 47.35727048 -37.99320984 45.82839394 C-38.1135571 31.69660714 -35.40387573 21.23808312 -25.43261719 10.98461914 C-18.07434119 4.02374132 -10.21069548 -0.02341903 0 0 Z M-3.50292969 153.11352539 C-3.1550626 155.08889284 -3.1550626 155.08889284 -2.50292969 157.11352539 C0.40339366 158.56668706 2.94767774 158.24887201 6.1940918 158.25878906 C7.22605682 158.26382698 7.22605682 158.26382698 8.27886963 158.26896667 C10.55865268 158.27848461 12.83836236 158.28042018 15.11816406 158.28149414 C16.69995657 158.28470605 18.28174878 158.28807007 19.86354065 158.2915802 C23.18157643 158.29757352 26.49958614 158.29941988 29.81762695 158.29882812 C34.07266976 158.29872647 38.32754582 158.31238107 42.5825491 158.32960033 C45.85017161 158.34070982 49.11775367 158.34274766 52.38539314 158.3422184 C53.95430133 158.34340001 55.5232105 158.34783192 57.09210014 158.35555077 C59.28507092 158.36532992 61.47767787 158.36248106 63.6706543 158.35644531 C64.91926743 158.35787033 66.16788055 158.35929535 67.45433044 158.36076355 C70.67267877 158.34708605 70.67267877 158.34708605 73.49707031 156.11352539 C73.14920323 154.13815794 73.14920323 154.13815794 72.49707031 152.11352539 C69.59074697 150.66036372 67.04646289 150.97817877 63.80004883 150.96826172 C63.11207214 150.96490311 62.42409546 150.96154449 61.715271 150.95808411 C59.43548794 150.94856617 57.15577826 150.9466306 54.87597656 150.94555664 C53.29418405 150.94234473 51.71239185 150.93898071 50.13059998 150.93547058 C46.8125642 150.92947727 43.49455448 150.9276309 40.17651367 150.92822266 C35.92147086 150.92832431 31.6665948 150.91466971 27.41159153 150.89745045 C24.14396902 150.88634096 20.87638695 150.88430312 17.60874748 150.88483238 C16.0398393 150.88365077 14.47093012 150.87921886 12.90204048 150.87150002 C10.70906971 150.86172086 8.51646275 150.86456972 6.32348633 150.87060547 C5.0748732 150.86918045 3.82626007 150.86775543 2.53981018 150.86628723 C-0.67853814 150.87996473 -0.67853814 150.87996473 -3.50292969 153.11352539 Z M-3.50292969 180.11352539 C-3.00536877 182.86993955 -3.00536877 182.86993955 -1.50292969 185.11352539 C-0.13213086 185.2114707 1.24362712 185.2415062 2.61791992 185.24291992 C3.49230209 185.24607208 4.36668427 185.24922424 5.26756287 185.25247192 C6.21857376 185.25044769 7.16958466 185.24842346 8.14941406 185.24633789 C9.11988174 185.24729462 10.09034943 185.24825134 11.09022522 185.24923706 C13.14730901 185.24991904 15.20439493 185.24806353 17.26147461 185.24389648 C20.41752953 185.23855424 23.57344176 185.24383792 26.72949219 185.25024414 C28.72363313 185.24958325 30.71777398 185.24830186 32.71191406 185.24633789 C34.13539406 185.24937424 34.13539406 185.24937424 35.58763123 185.25247192 C36.46516556 185.24931976 37.34269989 185.2461676 38.24682617 185.24291992 C39.02102402 185.24212433 39.79522186 185.24132874 40.59288025 185.24050903 C42.58443203 185.23097309 42.58443203 185.23097309 44.49707031 184.11352539 C44.1526215 181.64085774 44.1526215 181.64085774 43.49707031 179.11352539 C40.09499695 177.41248871 36.21662451 177.95032267 32.47363281 177.94555664 C31.57591156 177.94222824 30.67819031 177.93889984 29.75326538 177.93547058 C27.85179151 177.93040243 25.95030874 177.92806222 24.04882812 177.92822266 C21.14080098 177.92603945 18.23315512 177.90789169 15.32519531 177.88891602 C13.47884244 177.88598142 11.63248777 177.88399707 9.78613281 177.88305664 C8.91622711 177.87587112 8.04632141 177.86868561 7.15005493 177.86128235 C5.92891495 177.86589729 5.92891495 177.86589729 4.68310547 177.87060547 C3.61293686 177.86846794 3.61293686 177.86846794 2.52114868 177.86628723 C0.17277794 178.15313722 -1.45671425 178.95430984 -3.50292969 180.11352539 Z " fill="#000000" transform="translate(274.5029296875,57.886474609375)"/>
<path d="M0 0 C9.58098859 -0.07014398 19.16188603 -0.12313288 28.74307728 -0.15543652 C33.19412755 -0.1709566 37.64499955 -0.19193814 42.09594727 -0.22631836 C46.40781541 -0.25940804 50.71951435 -0.27695502 55.03149986 -0.28463173 C56.6597732 -0.29008783 58.28803945 -0.30073539 59.91623878 -0.31719017 C92.69946615 -0.63470101 122.26380544 9.41104435 148 30 C148.51443161 30.57694611 149.02886322 31.15389221 149.55888367 31.74832153 C153.57981811 36.01019555 156.59229594 37.48601206 162.47265625 37.80712891 C165.00273706 37.8141131 167.53309097 37.78527895 170.0625 37.7265625 C171.4219524 37.72324349 172.78141895 37.72374988 174.14086914 37.72787476 C177.70247492 37.73178233 181.26257221 37.69853628 184.82385254 37.652771 C190.52175563 37.58005697 196.2188386 37.53921002 201.91720581 37.54600143 C203.89364631 37.53921312 205.86989323 37.50027039 207.84594727 37.46060181 C217.30450895 37.43762815 222.06393137 39.3206315 228.875 45.6875 C232.45274234 51.26456895 233.58340136 57.05720128 232.5625 63.625 C231.14389036 68.75381947 228.11813739 72.68448684 224 76 C217.94015109 79.25650126 212.72605615 79.44192329 205.92407227 79.43237305 C204.28393913 79.44766052 204.28393913 79.44766052 202.610672 79.46325684 C199.012531 79.4933439 195.41465643 79.50264652 191.81640625 79.51171875 C189.31533425 79.52856855 186.8142707 79.5467192 184.31321716 79.56611633 C178.4131692 79.60874255 172.51317019 79.63829209 166.61301607 79.66143972 C159.23215391 79.69120335 151.85145384 79.7413897 144.47070312 79.79101562 C131.31386632 79.8770182 118.15700084 79.94494487 105 80 C105 81.32 105 82.64 105 84 C119.57786728 84.0936307 134.1556945 84.16407064 148.73380184 84.20724869 C155.50338254 84.227834 162.27277591 84.25587675 169.04223633 84.30175781 C175.57799637 84.34603364 182.11363509 84.36915389 188.64953804 84.37950897 C191.14015321 84.38688632 193.63075802 84.40129252 196.12129021 84.42292023 C199.61616687 84.45205618 203.11024557 84.45595158 206.60522461 84.45410156 C208.14163857 84.47567322 208.14163857 84.47567322 209.70909119 84.49768066 C218.54510188 84.44723669 225.414384 82.02113463 232 76 C232.6081958 75.3493457 233.2163916 74.69869141 233.84301758 74.02832031 C236.06233427 71.94138391 237.94903991 70.82683586 240.69921875 69.546875 C241.6442627 69.10077881 242.58930664 68.65468262 243.56298828 68.19506836 C244.59407715 67.7181958 245.62516602 67.24132324 246.6875 66.75 C248.94968567 65.6845846 251.2113789 64.61812315 253.47265625 63.55078125 C254.07176819 63.26928726 254.67088013 62.98779327 255.28814697 62.69776917 C262.05516522 59.51563693 268.77755398 56.24252096 275.50140381 52.97042847 C288.3728806 46.70967379 301.247972 40.45566062 314.19042969 34.34277344 C317.24686279 32.88201726 320.28286574 31.38261529 323.3203125 29.8828125 C325.4423101 28.85854955 327.56469628 27.83509119 329.6875 26.8125 C331.12138062 26.08873169 331.12138062 26.08873169 332.58422852 25.3503418 C339.39637572 22.11547688 345.46612826 20.95059485 353 22 C358.91146812 24.34597031 363.06307842 28.36564829 366 34 C367.82108698 39.97362928 367.19568494 45.226198 365.14453125 51.0078125 C362.15101745 56.21836553 356.94876069 59.71118522 352.16015625 63.16796875 C351.5063649 63.64324509 350.85257355 64.11852142 350.17897034 64.60820007 C343.07648993 69.73036707 335.77885171 74.54211762 328.4375 79.3125 C327.02650367 80.23307069 325.61561663 81.15380891 324.20483398 82.07470703 C320.14149448 84.7241145 316.07172562 87.36350482 312 90 C310.41300293 91.02891357 310.41300293 91.02891357 308.79394531 92.07861328 C294.3974632 101.39068165 279.76042437 110.27813673 265 119 C263.97455078 119.60956543 262.94910156 120.21913086 261.89257812 120.84716797 C164.37365744 178.69711445 164.37365744 178.69711445 123.16796875 168.4375 C86.826213 158.69945741 52.04065295 140.17576612 19.62402344 121.50439453 C14.97371848 118.83830045 10.28942156 116.23263207 5.60546875 113.6262207 C1.10910067 111.10910067 1.10910067 111.10910067 0 110 C-0.09554399 108.57053529 -0.12188438 107.13637335 -0.12025452 105.70372009 C-0.12162918 104.77678848 -0.12300385 103.84985687 -0.12442017 102.89483643 C-0.12082489 101.86985046 -0.11722961 100.8448645 -0.11352539 99.78881836 C-0.11367142 98.71577957 -0.11381744 97.64274078 -0.1139679 96.53718567 C-0.11326824 92.97138484 -0.10547338 89.40563551 -0.09765625 85.83984375 C-0.09579226 83.37504607 -0.09436827 80.91024801 -0.09336853 78.44544983 C-0.08954187 71.94346095 -0.07971032 65.44149425 -0.06866455 58.93951416 C-0.05791748 52.31059183 -0.05387159 45.68166307 -0.04882812 39.05273438 C-0.03808819 26.03514676 -0.02120097 13.01757456 0 0 Z " fill="#000000" transform="translate(113,316)"/>
<path d="M0 0 C1.92713585 -0.01407143 1.92713585 -0.01407143 3.89320374 -0.02842712 C5.28224357 -0.01794925 6.67127692 -0.0065803 8.06030273 0.00561523 C9.49706597 0.0054601 10.93382962 0.00396881 12.37059021 0.00120544 C15.3740399 -0.00017542 18.37701022 0.01232775 21.38037109 0.03515625 C25.22274906 0.06356626 29.06433276 0.06079275 32.90676975 0.04806614 C35.87085206 0.04109957 38.83475195 0.04890885 41.79881096 0.06132317 C43.21533444 0.0658264 44.63187759 0.06618434 46.04840279 0.06225777 C48.02969734 0.05933564 50.01098782 0.07804812 51.9921875 0.09765625 C53.6804641 0.10576073 53.6804641 0.10576073 55.40284729 0.11402893 C58.88395184 0.55963992 60.67348187 1.34461176 63.43139648 3.50170898 C66.18656849 7.29802208 66.80844253 9.94781765 66.81907654 14.60533142 C66.82898117 15.83200027 66.8388858 17.05866913 66.84909058 18.32250977 C66.84485285 19.67382913 66.84029502 21.02514752 66.83544922 22.37646484 C66.84115424 23.80587803 66.84811901 25.23528665 66.85624695 26.66468811 C66.8741793 30.54077012 66.87300986 34.41662575 66.86730456 38.29273677 C66.86421275 41.53082137 66.87030509 44.76886249 66.87634331 48.0069409 C66.89038723 55.64707947 66.88882844 63.28710622 66.87744141 70.92724609 C66.86596052 78.80433178 66.88003549 86.68107699 66.90683788 94.55811781 C66.9290025 101.32600899 66.93563055 108.09379335 66.92976147 114.86171824 C66.92639246 118.90174517 66.92880306 122.94155386 66.9460125 126.98155022 C66.96149183 130.78118109 66.95751564 134.58030802 66.93870735 138.37991905 C66.93502412 139.77226414 66.93812229 141.16464665 66.94859314 142.55695724 C67.039822 155.69323334 67.039822 155.69323334 62.43139648 160.50170898 C58.86513797 162.87921466 57.27155361 162.76943566 53.03564453 162.80810547 C52.06921021 162.82059074 52.06921021 162.82059074 51.08325195 162.83332825 C48.95314487 162.85742373 46.82334416 162.86620036 44.69311523 162.87280273 C43.20961923 162.88177078 41.72612416 162.89089266 40.24263 162.90016174 C37.13145756 162.91665398 34.02039273 162.92435202 30.90917969 162.92724609 C26.93098271 162.9326245 22.9538038 162.9702793 18.97589397 163.01599026 C15.91057182 163.04580218 12.84549333 163.05297056 9.78003883 163.05397224 C8.31404784 163.05816789 6.84805568 163.07057606 5.38220787 163.09148979 C-7.50722013 163.26071881 -7.50722013 163.26071881 -11.38964844 160.34179688 C-14.95687139 155.69221652 -15.8176423 151.2920428 -15.82929993 145.51234436 C-15.83638474 144.33623093 -15.84346954 143.16011749 -15.85076904 141.94836426 C-15.84829163 140.67182983 -15.84581421 139.39529541 -15.84326172 138.08007812 C-15.84761274 136.71125511 -15.85279719 135.34243454 -15.85874939 133.97361755 C-15.87210829 130.2669819 -15.87272157 126.56044841 -15.87018609 122.85379338 C-15.86911433 119.7549395 -15.87400495 116.65610612 -15.87879151 113.55725664 C-15.8898758 106.24453562 -15.89033009 98.93186597 -15.88427734 91.61914062 C-15.87823678 84.08463602 -15.89055307 76.55031812 -15.91184741 69.01584536 C-15.929481 62.53752488 -15.93546203 56.05926374 -15.93220967 49.58092016 C-15.93039957 45.71584743 -15.93300563 41.85090792 -15.94692421 37.98585701 C-15.95952676 34.35044126 -15.95753577 30.715316 -15.94451332 27.07990456 C-15.94103158 25.11678938 -15.95230743 23.15366523 -15.96408081 21.19058228 C-15.89582211 9.71797509 -15.89582211 9.71797509 -12.56860352 4.50170898 C-8.41951805 0.90666781 -5.42972901 0.00080106 0 0 Z M25.99389648 122.18920898 C23.70952673 127.03207287 22.56477197 131.44968352 24.06030273 136.71655273 C26.18720597 141.49541064 28.7419887 144.00734314 33.43139648 146.50170898 C37.48608283 147.8532711 41.20868908 148.35552561 45.30249023 146.78295898 C50.2510865 144.14370764 53.62120417 140.93228594 55.43139648 135.50170898 C55.942441 129.36917478 55.37698769 125.34458417 51.43139648 120.50170898 C47.49560474 117.02356745 43.89278191 115.69781658 38.73999023 115.34155273 C33.2767009 115.72056265 29.59747665 118.21603085 25.99389648 122.18920898 Z " fill="#000000" transform="translate(40.568603515625,294.498291015625)"/>
<path d="M0 0 C0.73270247 -0.00453111 1.46540494 -0.00906223 2.22031051 -0.01373065 C4.65270224 -0.02629665 7.08486781 -0.02475937 9.51728821 -0.02310181 C11.27075485 -0.02909202 13.02421886 -0.0358987 14.77767944 -0.04345703 C19.52587523 -0.06107608 24.27399886 -0.06581074 29.02222419 -0.0670886 C31.99399862 -0.06851332 34.96575489 -0.07278904 37.9375248 -0.07808304 C48.32024417 -0.09657125 58.70291229 -0.10475535 69.08564758 -0.10317993 C78.73887409 -0.10197954 88.39187664 -0.12306489 98.04504651 -0.15466726 C106.35278386 -0.18088833 114.66044835 -0.19154475 122.96822673 -0.19026911 C127.92113522 -0.1897611 132.87384466 -0.19535456 137.82671165 -0.21662521 C142.4898099 -0.23610558 147.15252123 -0.2360656 151.81563377 -0.22159195 C153.51788402 -0.2195147 155.22015911 -0.22413936 156.9223671 -0.23631287 C171.89401189 -0.33636775 184.88387001 1.64047539 196.29194641 12.26742554 C200.3795858 17.02909057 203.17737416 21.06512086 204.29194641 27.26742554 C203.3917191 27.26466016 202.49149179 27.26189478 201.56398487 27.2590456 C179.61991119 27.1926797 157.6758549 27.14309342 135.73170185 27.11198902 C125.11950378 27.09654586 114.50737286 27.07550526 103.8952179 27.04110718 C94.64145475 27.01112657 85.38774027 26.99183201 76.13392991 26.98516005 C71.23793046 26.98126244 66.34207017 26.97215603 61.44611549 26.95023537 C56.82915956 26.92973315 52.2123989 26.92361925 47.59540176 26.92810249 C45.90927885 26.9272834 44.22314878 26.92140011 42.53706551 26.90980911 C25.45430707 26.7982253 10.08272715 29.16344595 -2.93070984 41.29867554 C-12.028709 51.37645922 -15.83934391 64.53742824 -15.82830811 77.87971497 C-15.82968277 79.16828903 -15.83105743 80.4568631 -15.83247375 81.78448486 C-15.82893552 83.1947329 -15.82530073 84.6049807 -15.82157898 86.01522827 C-15.82129663 87.51377867 -15.82145577 89.0123292 -15.82202148 90.51087952 C-15.8223076 94.56406696 -15.81644094 98.61722461 -15.80944753 102.67040515 C-15.80318301 106.91181457 -15.80260774 111.15322473 -15.80142212 115.39463806 C-15.79831793 123.41966969 -15.79011685 131.44468765 -15.78007263 139.46971327 C-15.76888315 148.60875667 -15.7633939 157.74780074 -15.75837719 166.88684928 C-15.74793346 185.68038244 -15.73035171 204.47390289 -15.70805359 223.26742554 C-25.95664181 219.96953047 -33.89095124 212.85092178 -39.02055359 203.32992554 C-43.04913256 194.16288708 -42.99681385 185.09837049 -42.96684265 175.25180054 C-42.96955701 173.74785188 -42.97312043 172.24390455 -42.97746277 170.73995972 C-42.98653619 166.67800093 -42.98306346 162.6161444 -42.9767046 158.55418396 C-42.97161836 154.29030088 -42.97634332 150.02642617 -42.97947693 145.76254272 C-42.98310895 138.6039982 -42.97833756 131.44549503 -42.96879578 124.28695679 C-42.9579127 116.02708497 -42.96143882 107.7673119 -42.97244859 99.50744247 C-42.98154326 92.39804111 -42.98279609 85.28866937 -42.97757125 78.17926407 C-42.97446352 73.9408532 -42.97400915 69.70248865 -42.98064423 65.46408081 C-42.98644885 61.47819935 -42.98236412 57.49244443 -42.97085571 53.50657654 C-42.96822573 52.04937449 -42.96894559 50.59216166 -42.97338104 49.13496399 C-43.01344799 34.62688598 -41.30678622 22.83863165 -31.02055359 11.95492554 C-22.16588623 3.57391052 -12.11496498 0.03116021 0 0 Z " fill="#000000" transform="translate(246.7080535888672,24.732574462890625)"/>
<path d="M0 0 C20.79 0 41.58 0 63 0 C63.0825 5.15625 63.165 10.3125 63.25 15.625 C63.28641602 17.24100098 63.32283203 18.85700195 63.36035156 20.52197266 C63.3703418 21.8063623 63.38033203 23.09075195 63.390625 24.4140625 C63.41157227 25.7232666 63.43251953 27.0324707 63.45410156 28.38134766 C62.80411182 33.56099712 60.77336038 36.45237349 56.88256836 39.84790039 C52.56976362 41.57163424 48.48349365 41.44797869 43.87890625 41.43359375 C42.41263039 41.44145653 42.41263039 41.44145653 40.91673279 41.44947815 C38.85327096 41.45588996 36.78977253 41.45457226 34.72631836 41.44604492 C31.57664608 41.43753821 28.42878998 41.46630341 25.27929688 41.49804688 C23.27083387 41.49965917 21.26236768 41.49908082 19.25390625 41.49609375 C17.84740562 41.51294472 17.84740562 41.51294472 16.41249084 41.53013611 C10.81763629 41.47078685 7.29297906 40.95138452 3 37 C0 31 0 31 0 0 Z " fill="#000000" transform="translate(330,58)"/>
<path d="M0 0 C2.81636298 2.59971967 3.8420171 4.17497821 4.5625 7.9375 C3.77713832 12.21335806 2.18915605 14.08226148 -1 17 C-4.98987509 18.21121208 -6.98757832 18.44996519 -10.8125 16.75 C-14.17776777 14.05778578 -14.95134137 12.43097639 -15.4375 8.125 C-15.35957382 4.59884033 -15.02179521 4.02768581 -12.6875 1.0625 C-7.95878887 -2.56651087 -5.43162649 -2.09641724 0 0 Z " fill="#000000" transform="translate(86,418)"/>
</svg>
