<?xml version="1.0" encoding="UTF-8"?>
<svg version="1.1" xmlns="http://www.w3.org/2000/svg" width="512" height="512">
<path d="M0 0 C5.97357224 4.78585314 11.38900062 10.22098658 16.81518555 15.60644531 C17.65688293 16.43835892 18.49858032 17.27027252 19.36578369 18.12739563 C22.1259095 20.85781678 24.88194994 23.59229957 27.63671875 26.328125 C28.10814812 26.79625705 28.57957749 27.2643891 29.0652926 27.74670696 C33.52254225 32.17321845 37.97775359 36.60177226 42.42816448 41.03516006 C48.08616889 46.67125171 53.75401267 52.29702951 59.43569535 57.90925336 C63.4507222 61.87687564 67.45403915 65.85608039 71.44905311 69.8438518 C73.8266568 72.21652921 76.21025873 74.58224431 78.60382652 76.93888092 C81.27457207 79.57059874 83.92563977 82.22076125 86.57299805 84.87597656 C87.35596756 85.63894547 88.13893707 86.40191437 88.94563293 87.18800354 C94.95534773 93.27780848 99.83243323 100.47414463 100.62890625 109.22265625 C100.25291238 130.96394875 86.76523164 141.38486275 72.27331543 155.87385559 C70.78270444 157.3677713 69.29230473 158.86189784 67.80209684 160.35621566 C63.7260852 164.4421847 59.64698312 168.52505595 55.56732154 172.60738027 C51.16061536 177.01800771 46.7567396 181.43145983 42.35243225 185.84448242 C32.23276673 195.98292141 22.10883237 206.11709021 11.98400331 216.25037204 C6.97769391 221.26089633 1.97188764 226.27192318 -3.03390443 231.28296431 C-20.17989697 248.44683318 -37.32732883 265.6092629 -54.47853851 282.76791859 C-55.55351637 283.84337119 -56.62849366 284.91882437 -57.70347038 285.99427811 C-58.50306482 286.79422712 -58.50306482 286.79422712 -59.31881268 287.61033671 C-62.0193516 290.31207677 -64.71988336 293.013824 -67.42041016 295.71557617 C-67.95632556 296.25173173 -68.49224096 296.78788728 -69.04439623 297.34028997 C-86.43718981 314.74098424 -103.82218934 332.14943857 -121.20268948 349.56241144 C-139.59364171 367.98766139 -157.99187733 386.40560805 -176.39833975 404.81536406 C-178.41853729 406.83597913 -180.4387038 408.8566252 -182.45884705 410.87729454 C-182.95623906 411.37480975 -183.45363107 411.87232495 -183.96609557 412.38491637 C-191.96657312 420.38772494 -199.96036973 428.39717484 -207.95176362 436.40905296 C-215.98089471 444.45843856 -224.01754803 452.50024072 -232.06140101 460.53491972 C-236.41794525 464.88691152 -240.77117413 469.24209005 -245.11575127 473.60603142 C-249.09310739 477.60096207 -253.07958654 481.58654666 -257.07351965 485.56490251 C-258.51633438 487.00533265 -259.95577649 488.44915062 -261.39146858 489.89668009 C-279.38057 508.02487765 -279.38057 508.02487765 -294.125 508.3125 C-310.02580346 508.32979811 -318.20873518 498.93157625 -328.83105469 488.34594727 C-329.67435837 487.50921478 -330.51766205 486.6724823 -331.38652039 485.81039429 C-334.15119294 483.06529041 -336.91197608 480.31630673 -339.671875 477.56640625 C-340.62891874 476.61341759 -341.58599344 475.66046001 -342.54309845 474.70753288 C-347.0360362 470.23357916 -351.52660455 465.75726399 -356.01424575 461.27799755 C-361.17320557 456.12882904 -366.34036162 450.98807037 -371.51454425 445.85419995 C-375.53113758 441.86781998 -379.53997311 437.87374341 -383.5431416 433.87388271 C-385.92708909 431.49227666 -388.31417308 429.11403718 -390.70955658 426.74392891 C-393.37806104 424.09977642 -396.03364976 421.44326928 -398.68652344 418.78344727 C-399.47308823 418.00969254 -400.25965302 417.23593781 -401.0700531 416.43873596 C-409.10952846 408.32236384 -412.32181746 400.68248787 -412.31030273 389.25732422 C-411.94120821 371.28665639 -396.11444033 359.96488066 -384.27331543 348.12614441 C-382.78270444 346.6322287 -381.29230473 345.13810216 -379.80209684 343.64378434 C-375.7260852 339.5578153 -371.64698312 335.47494405 -367.56732154 331.39261973 C-363.16061536 326.98199229 -358.7567396 322.56854017 -354.35243225 318.15551758 C-344.23276673 308.01707859 -334.10883237 297.88290979 -323.98400331 287.74962796 C-318.97769391 282.73910367 -313.97188764 277.72807682 -308.96609557 272.71703569 C-291.82010303 255.55316682 -274.67267117 238.3907371 -257.52146149 221.23208141 C-256.44648363 220.15662881 -255.37150634 219.08117563 -254.29652962 218.00572189 C-253.76346666 217.47242255 -253.2304037 216.93912321 -252.68118732 216.38966329 C-249.9806484 213.68792323 -247.28011664 210.986176 -244.57958984 208.28442383 C-243.77571674 207.4801905 -243.77571674 207.4801905 -242.95560377 206.65971003 C-225.56281019 189.25901576 -208.17781066 171.85056143 -190.79731052 154.43758856 C-172.40635829 136.01233861 -154.00812267 117.59439195 -135.60166025 99.18463594 C-133.58146271 97.16402087 -131.5612962 95.1433748 -129.54115295 93.12270546 C-129.04376094 92.62519025 -128.54636893 92.12767505 -128.03390443 91.61508363 C-120.03342688 83.61227506 -112.03963027 75.60282516 -104.04823638 67.59094704 C-96.01910529 59.54156144 -87.98245197 51.49975928 -79.93859899 43.46508028 C-75.58205475 39.11308848 -71.22882587 34.75790995 -66.88424873 30.39396858 C-62.90689261 26.39903793 -58.92041346 22.41345334 -54.92648035 18.43509749 C-53.48366562 16.99466735 -52.04422351 15.55084938 -50.60853142 14.10331991 C-37.14116771 0.53182324 -19.23746266 -12.47319703 0 0 Z M-39.375 79 C-40.08527344 79.7115625 -40.79554688 80.423125 -41.52734375 81.15625 C-47.33876194 86.88479347 -47.33876194 86.88479347 -49.22875977 94.58813477 C-48.18182515 101.05235708 -42.80546943 105.19852589 -38.33984375 109.58984375 C-37.35050259 110.58390694 -36.36220197 111.57900671 -35.37489319 112.5750885 C-33.30708664 114.65318421 -31.22723178 116.71817201 -29.13793945 118.7746582 C-26.46977174 121.40294178 -23.83427792 124.06141613 -21.20705318 126.73055172 C-19.17353574 128.78944641 -17.12353579 130.83127636 -15.06826973 132.86844063 C-14.08999254 133.84207078 -13.11682604 134.82086565 -12.14909172 135.80497551 C-6.26709423 142.11133533 -6.26709423 142.11133533 1.50390625 145.16552734 C8.68438932 144.82555754 12.725781 139.63970726 17.5625 134.8125 C18.22185547 134.17763672 18.88121094 133.54277344 19.56054688 132.88867188 C24.77911549 127.70157202 29.54501203 121.83050768 29.625 114.125 C28.82586294 102.82665907 19.50158675 94.89726591 11.87841797 87.41186523 C10.12286961 85.68540491 8.38689679 83.94088607 6.65234375 82.19335938 C-3.98428814 71.11693745 -3.98428814 71.11693745 -18.1875 66.6875 C-18.90292969 66.65011719 -19.61835938 66.61273438 -20.35546875 66.57421875 C-28.50842652 67.88688108 -33.84159108 73.2693401 -39.375 79 Z M-74.75 114.5625 C-75.43449219 115.24763672 -76.11898438 115.93277344 -76.82421875 116.63867188 C-81.63923877 121.31383515 -81.63923877 121.31383515 -83.5 127.625 C-83.44383554 131.34906571 -82.53496767 132.9911692 -80.02661133 135.70727539 C-79.38857574 136.40168732 -78.75054016 137.09609924 -78.09317017 137.81155396 C-74.46403524 141.60587804 -70.79164958 145.35070264 -67.07421875 149.05859375 C-66.24541702 149.8883522 -65.4166153 150.71811066 -64.56269836 151.57301331 C-62.82517205 153.31121573 -61.08639989 155.04817362 -59.34643555 156.78393555 C-56.67445182 159.45052182 -54.00789944 162.12245688 -51.34179688 164.79492188 C-49.64875841 166.48730026 -47.95541015 168.17936881 -46.26171875 169.87109375 C-45.06333626 171.07251259 -45.06333626 171.07251259 -43.84074402 172.29820251 C-43.10270035 173.03309402 -42.36465668 173.76798553 -41.60424805 174.52514648 C-40.95473679 175.17386215 -40.30522552 175.82257782 -39.6360321 176.49095154 C-36.7577157 179.14586212 -34.10171161 179.53410023 -30.19921875 179.45703125 C-25.74879813 178.53216586 -23.08997869 175.13334682 -20 172 C-19.03835938 171.13117188 -18.07671875 170.26234375 -17.0859375 169.3671875 C-10.87486459 163.97072452 -10.87486459 163.97072452 -7.4375 156.75 C-8.18769696 151.74868694 -10.03818828 149.0912791 -14 146 C-16.8845108 144.58857248 -16.8845108 144.58857248 -20 145 C-24.99289657 147.31813055 -28.87951148 150.38201008 -33 154 C-35.0625 152.25 -35.0625 152.25 -37 150 C-36.70045254 146.36049841 -34.9395202 144.64218396 -32.4375 142.125 C-30.09778926 139.51996124 -29.07997847 138.33324363 -28.25 134.875 C-29.30157672 130.8439559 -31.08973778 128.97955418 -34 126 C-37.26047629 124.36976186 -39.37801035 124.5326465 -43 125 C-45.24174716 126.66983028 -47.15578612 128.46744645 -49.10546875 130.46875 C-51 132 -51 132 -55 132 C-56.75 130.5 -56.75 130.5 -58 129 C-56.32044107 125.30010206 -54.08369792 122.73307356 -51.33984375 119.78125 C-49.85945227 117.81314937 -49.35264254 116.42441747 -49 114 C-50.12837264 109.11038523 -52.94689227 106.78154452 -57 104 C-64.62299799 102.51258576 -69.92432885 109.64849768 -74.75 114.5625 Z M-103 143 C-104.54035756 146.08071512 -104.22795799 148.58786346 -104 152 C-102.75974991 155.43487751 -102.75974991 155.43487751 -100.9375 158.80859375 C-100.47138306 159.72597069 -100.47138306 159.72597069 -99.99584961 160.66188049 C-99.0102953 162.59412554 -98.00564084 164.51564612 -97 166.4375 C-96.32422815 167.75389449 -95.64973577 169.07094664 -94.9765625 170.38867188 C-93.3324302 173.60018382 -91.67102706 176.80238306 -90 180 C-93.70875752 178.23005408 -97.4169298 176.45888534 -101.125 174.6875 C-102.17171875 174.18798828 -103.2184375 173.68847656 -104.296875 173.17382812 C-105.31523437 172.68720703 -106.33359375 172.20058594 -107.3828125 171.69921875 C-108.36612549 171.2304834 -109.34943848 170.76174805 -110.36254883 170.27880859 C-112.43476027 169.27406514 -114.48234674 168.21851865 -116.51953125 167.14453125 C-120.10102589 165.49196758 -122.25504885 165.91055966 -126 167 C-129.21093673 169.44310404 -130.69865985 171.11481331 -132 174.9375 C-132 178.96663842 -131.25410746 180.6251352 -129 184 C-126.0042242 186.15363256 -122.75125196 187.70551365 -119.4375 189.3125 C-117.96011353 190.05270386 -117.96011353 190.05270386 -116.45288086 190.80786133 C-114.23341391 191.91818549 -112.01025823 193.02115558 -109.78417969 194.11816406 C-106.32909244 195.82703092 -102.90003845 197.58399207 -99.47380066 199.34986877 C-96.43065597 200.91728505 -93.38182835 202.47343822 -90.33206177 204.02792358 C-88.82777023 204.79650411 -87.32519877 205.56846125 -85.82443237 206.34390259 C-83.69220143 207.44307533 -81.55239125 208.52595089 -79.41015625 209.60546875 C-78.78066071 209.93408905 -78.15116516 210.26270935 -77.50259399 210.60128784 C-72.89389737 212.89542215 -69.08299933 213.74735662 -64 214 C-60.43494411 212.28349161 -58.57317452 210.97190463 -56.5625 207.5625 C-55.45904933 202.53566916 -57.49742781 198.62244824 -59.7121582 194.15576172 C-60.27977371 193.00461884 -60.84738922 191.85347595 -61.4322052 190.66744995 C-62.05463837 189.4213165 -62.67750766 188.17540081 -63.30078125 186.9296875 C-63.94019107 185.64376277 -64.57936288 184.35771966 -65.2183075 183.07156372 C-66.55667963 180.38139496 -67.8997591 177.69363861 -69.24584961 175.00732422 C-70.96828638 171.56835362 -72.67599553 168.12230079 -74.37989521 164.67411613 C-75.69498665 162.01806356 -77.0192446 159.3666622 -78.34615135 156.71649551 C-78.97963439 155.44783846 -79.60993903 154.17758905 -80.23696327 152.90572739 C-81.11496468 151.12754711 -82.0070218 149.35632805 -82.8996582 147.58544922 C-83.65458305 146.07251785 -83.65458305 146.07251785 -84.42475891 144.52902222 C-86.05920319 141.9049503 -87.34424107 140.55126359 -90 139 C-95.66751382 138.26532228 -98.59295841 139.43239491 -103 143 Z M-165 205 C-168.47951566 211.18319337 -169.91836074 216.61995316 -168 223.5 C-164.28057268 232.88125736 -155.14192824 240.07367986 -148.12036133 247.11987305 C-146.43040169 248.81963951 -144.75141426 250.52979574 -143.07226562 252.24023438 C-141.98503417 253.33398896 -140.8971656 254.4271107 -139.80859375 255.51953125 C-139.31467636 256.02579544 -138.82075897 256.53205963 -138.31187439 257.05366516 C-133.6243938 261.71168308 -128.80659777 264.47027905 -122.13671875 265.0546875 C-113.99416631 264.84628579 -108.50074962 260.60497435 -103 255 C-102.41863281 254.41734375 -101.83726562 253.8346875 -101.23828125 253.234375 C-97.10663699 248.79260732 -95.16054832 244.85958159 -94.90234375 238.65234375 C-95.37105247 226.52216216 -104.93036462 218.53673473 -113.01171875 210.48730469 C-114.74683759 208.75316063 -116.45946867 206.99872802 -118.171875 205.2421875 C-128.42647474 194.79655233 -128.42647474 194.79655233 -142.0625 190.4375 C-152.18775667 191.88396524 -158.56499699 197.17113352 -165 205 Z M-211.72265625 252.37109375 C-213.82856663 255.05661249 -214.6721307 257.47327434 -214.56542969 260.9296875 C-211.87451294 270.78243968 -196.60165121 281.54756009 -189.53222656 288.59814453 C-187.10624612 291.01871204 -184.68572361 293.44464702 -182.265625 295.87109375 C-180.72167516 297.41438369 -179.17741562 298.95736389 -177.6328125 300.5 C-176.91094757 301.22388916 -176.18908264 301.94777832 -175.44534302 302.69360352 C-174.77389252 303.36190186 -174.10244202 304.0302002 -173.41064453 304.71875 C-172.82268097 305.30591797 -172.23471741 305.89308594 -171.62893677 306.49804688 C-168.19113119 309.66785858 -165.67867026 310.48923181 -161.00390625 310.39453125 C-157.62436273 309.72916303 -156.05511298 307.61559833 -154 305 C-152.51268332 302.02536663 -152.5686948 300.32721157 -153 297 C-155.23956702 293.29265521 -157.94254745 290.05745255 -161 287 C-159.84242188 287.22816406 -158.68484375 287.45632813 -157.4921875 287.69140625 C-155.95322634 287.98230745 -154.41415801 288.27264212 -152.875 288.5625 C-152.11445313 288.71396484 -151.35390625 288.86542969 -150.5703125 289.02148438 C-146.10950883 289.84827126 -142.4633826 290.23058984 -138 289 C-134.5144106 286.36644356 -133.2050405 284.71764175 -132 280.5 C-132 276.49588616 -132.40151979 275.01758992 -135 272 C-139.45553322 269.40972699 -143.6408587 268.26156986 -148.6875 267.3125 C-149.35072266 267.18294922 -150.01394531 267.05339844 -150.69726562 266.91992188 C-153.51483995 266.3836464 -156.12520866 266 -159 266 C-158.93039063 265.10539062 -158.86078125 264.21078125 -158.7890625 263.2890625 C-158.40074332 254.6166009 -159.08122086 248.5979833 -165 242 C-170.62167119 237.11159027 -176.43601216 234.49608564 -183.875 233.6875 C-196.46191151 234.94619115 -203.80456563 243.14884703 -211.72265625 252.37109375 Z M-251.91015625 291.54296875 C-254.73137497 294.85987823 -255.74908131 296.65074269 -256 301 C-254.18536501 305.32522754 -251.99932438 308.38407135 -248.71557617 311.7043457 C-247.42359566 313.02019402 -247.42359566 313.02019402 -246.10551453 314.36262512 C-245.17737442 315.29096664 -244.24923431 316.21930817 -243.29296875 317.17578125 C-242.3248477 318.15101161 -241.35702309 319.12653634 -240.38948059 320.1023407 C-238.3662807 322.13894356 -236.33729063 324.16956187 -234.30444336 326.1965332 C-231.70497484 328.79009314 -229.12426181 331.4014777 -226.54801464 334.0180788 C-224.55689344 336.03508349 -222.55437805 338.04046952 -220.54845619 340.04274559 C-219.12860159 341.46510756 -217.71985621 342.89853134 -216.31132507 344.33210754 C-215.44054825 345.19357895 -214.56977142 346.05505035 -213.67260742 346.94262695 C-212.91332443 347.70396439 -212.15404144 348.46530182 -211.37174988 349.24971008 C-208.51421664 351.35849553 -206.52208744 351.78665051 -203 352 C-199.51083135 350.76852871 -197.5146617 349.58106966 -195.0625 346.8125 C-193.61862571 342.99047983 -193.75281157 339.82919383 -195 336 C-197.0374899 333.1433901 -199.47528316 330.8570734 -202.0625 328.5 C-202.72572266 327.86835938 -203.38894531 327.23671875 -204.07226562 326.5859375 C-205.70006088 325.04011755 -207.34181566 323.5130653 -209 322 C-207.10285897 318.11542648 -204.79205911 314.67650624 -202.33984375 311.12109375 C-199.05999664 305.92879935 -199.261923 299.73101308 -200.42578125 293.84765625 C-202.66979344 286.89534856 -207.48304065 281.09657733 -213.875 277.5625 C-229.73479485 270.71742477 -241.1779394 280.51309412 -251.91015625 291.54296875 Z M-289.5625 328.8125 C-290.18294189 329.39273926 -290.80338379 329.97297852 -291.44262695 330.57080078 C-294.40533485 333.55460293 -296.35394922 335.92779715 -297.08984375 340.13671875 C-296.95040084 346.132764 -293.98004004 349.26975268 -289.86743164 353.39135742 C-289.03969742 354.22539597 -288.2119632 355.05943451 -287.35914612 355.91874695 C-286.46847946 356.80536514 -285.57781281 357.69198334 -284.66015625 358.60546875 C-283.28240273 359.98609245 -283.28240273 359.98609245 -281.8768158 361.39460754 C-279.93746754 363.33689565 -277.99457032 365.27554239 -276.04907227 367.21166992 C-273.55959819 369.6897342 -271.07923272 372.1766913 -268.60144901 374.6664381 C-266.23004025 377.04682101 -263.85102992 379.41954463 -261.47265625 381.79296875 C-260.58401382 382.68565964 -259.6953714 383.57835052 -258.77980042 384.49809265 C-257.94891403 385.32267471 -257.11802765 386.14725677 -256.26196289 386.99682617 C-255.53376846 387.72342941 -254.80557404 388.45003265 -254.05531311 389.19865417 C-250.79084043 392.05974829 -248.9432855 393.01715065 -244.5625 392.9375 C-240.29016924 391.81320243 -238.68323558 390.47242251 -236 387 C-234.67739364 383.776147 -234.79584401 382.51518064 -236.08203125 379.26953125 C-238.44754095 375.23708396 -241.33050203 372.34015299 -244.6875 369.125 C-245.29400391 368.53203125 -245.90050781 367.9390625 -246.52539062 367.328125 C-248.01014785 365.87844078 -249.50414991 364.43823532 -251 363 C-250.60167969 362.50371094 -250.20335937 362.00742187 -249.79296875 361.49609375 C-244.85543196 355.16499427 -241.43211401 349.21016617 -241 341 C-242.0379515 332.80991391 -245.72557809 326.37686848 -252.16015625 321.2890625 C-266.14958943 311.4875488 -278.75212865 318.45593118 -289.5625 328.8125 Z M-330 370 C-331.66647288 373.33294575 -331.57037215 376.40837084 -331 380 C-329.35876436 384.4513399 -327.23383936 388.62960748 -325.0859375 392.85546875 C-324.47155132 394.08709567 -323.85817525 395.31922694 -323.24575806 396.55183411 C-321.96294624 399.12471143 -320.66903282 401.69159008 -319.36669922 404.25463867 C-317.70537215 407.52612027 -316.07122064 410.81030008 -314.44502831 414.09936047 C-313.18387848 416.64315822 -311.90919785 419.17998493 -310.63035965 421.71492958 C-309.72926218 423.50653475 -308.83892468 425.30353879 -307.94882202 427.10063171 C-304.97715119 432.90978629 -302.60260146 437.48922509 -297 441 C-292.67054058 441.68359886 -290.80949006 441.5279283 -287.125 439.125 C-284.96047153 437.1844662 -284.96047153 437.1844662 -284 435 C-284.10699219 434.35289062 -284.21398437 433.70578125 -284.32421875 433.0390625 C-284.8699239 429.41276373 -284.97945071 426.5318573 -282.93945312 423.34130859 C-281.5207061 421.56482156 -280.02838925 419.93634734 -278.4375 418.3125 C-277.92469482 417.77125488 -277.41188965 417.23000977 -276.88354492 416.67236328 C-275.30859375 415.17578125 -275.30859375 415.17578125 -272 413 C-268.30078125 413.23828125 -268.30078125 413.23828125 -265 414 C-261.43224161 412.76500671 -259.52239391 411.60665099 -257.0625 408.75 C-255.61268222 404.99753045 -255.89884489 402.85404289 -257 399 C-261.468535 393.21809043 -268.07819007 390.58323681 -274.4921875 387.38671875 C-275.72403969 386.7665625 -276.9556541 386.14593373 -278.18704224 385.52485657 C-280.76085693 384.22977981 -283.33832387 382.94235158 -285.91845703 381.65991211 C-289.21399745 380.02079295 -292.49812427 378.36011982 -295.77966118 376.69317913 C-298.31761487 375.40761709 -300.86198173 374.13518528 -303.40835953 372.86640358 C-305.20868163 371.96597663 -307.0029568 371.05349178 -308.79708862 370.14079285 C-309.90158356 369.59635025 -311.00607849 369.05190765 -312.14404297 368.4909668 C-313.10825165 368.00863083 -314.07246033 367.52629486 -315.06588745 367.02934265 C-321.23735332 364.8642747 -325.3690135 365.3690135 -330 370 Z " fill="#000000" transform="translate(412,4)"/>
<path d="M0 0 C0.86303238 -0.00701431 1.72606476 -0.01402863 2.61524963 -0.02125549 C5.38417843 -0.03866251 8.1528935 -0.04510744 10.921875 -0.046875 C11.86694916 -0.04754974 12.81202332 -0.04822449 13.78573608 -0.04891968 C27.29638308 -0.03356488 40.43237521 0.26010475 53.671875 3.203125 C55.07711426 3.50839111 55.07711426 3.50839111 56.51074219 3.81982422 C73.3125 7.5234375 73.3125 7.5234375 76.671875 9.203125 C75.36501535 12.06734324 73.95473776 14.19315272 71.78353882 16.46655273 C70.89746948 17.40010086 70.89746948 17.40010086 69.99349976 18.35250854 C69.02291122 19.3594426 69.02291122 19.3594426 68.03271484 20.38671875 C67.34920959 21.10264191 66.66570435 21.81856506 65.96148682 22.55618286 C59.624834 29.17416942 53.22398079 35.7306555 46.80589867 42.26960754 C42.50351705 46.6536231 38.22258792 51.0545297 33.98876953 55.50488281 C29.88159865 59.82133499 25.72564515 64.08495554 21.53252029 68.31790161 C19.95473002 69.92726179 18.39410943 71.5536692 16.85276413 73.19796753 C5.30636335 85.47681585 -4.00747479 89.62588082 -20.81483078 90.94886208 C-25.97414298 91.47081521 -30.77054949 93.09403509 -35.640625 94.828125 C-37.11088135 95.33690186 -37.11088135 95.33690186 -38.61083984 95.85595703 C-58.18722883 102.88948527 -75.33898707 113.82675057 -90.328125 128.203125 C-91.27171875 129.07195312 -92.2153125 129.94078125 -93.1875 130.8359375 C-109.77338397 146.41226946 -121.29065051 166.51401633 -128.703125 187.890625 C-129.01282227 188.76017822 -129.32251953 189.62973145 -129.64160156 190.52563477 C-131.28772409 195.5728184 -132.38257066 200.1693089 -132.78210449 205.46260071 C-134.34138254 222.93345786 -140.76144874 231.41946449 -153.2734375 243.171875 C-154.97109537 244.83721363 -156.66445648 246.5069425 -158.35372925 248.18078613 C-162.76480722 252.52753174 -167.23335524 256.81002476 -171.71691895 261.08178711 C-176.29470835 265.46739718 -180.80903697 269.91740891 -185.33203125 274.359375 C-191.9210401 280.80621733 -198.52436487 287.23764895 -205.18798828 293.60742188 C-206.23376038 294.61684845 -206.23376038 294.61684845 -207.30065918 295.64666748 C-207.93710358 296.25145935 -208.57354797 296.85625122 -209.22927856 297.47937012 C-209.78268984 298.00864861 -210.33610111 298.53792709 -210.90628242 299.08324432 C-212.328125 300.203125 -212.328125 300.203125 -214.328125 300.203125 C-217.09417458 291.71370686 -218.99370257 283.23960548 -220.515625 274.453125 C-220.68223633 273.49591553 -220.84884766 272.53870605 -221.02050781 271.55249023 C-225.36576531 245.66162589 -225.455753 216.95737975 -220.328125 191.203125 C-220.13476562 190.21812012 -219.94140625 189.23311523 -219.7421875 188.21826172 C-215.31544799 166.44321203 -207.94557339 145.7242216 -197.328125 126.203125 C-196.97782227 125.5440918 -196.62751953 124.88505859 -196.26660156 124.20605469 C-187.36177889 107.47650912 -176.27037599 92.57219329 -163.484375 78.58203125 C-161.53197064 76.42801991 -159.64535141 74.23284774 -157.765625 72.015625 C-154.88711058 68.71457635 -151.8008331 65.85085765 -148.45703125 63.02734375 C-147.01760284 61.79392528 -145.60880379 60.52398933 -144.23046875 59.22265625 C-132.0397391 47.74287824 -117.91139655 38.35926085 -103.328125 30.203125 C-102.62671387 29.80528809 -101.92530273 29.40745117 -101.20263672 28.99755859 C-70.77953398 11.86409071 -35.1683052 0.19189546 0 0 Z " fill="#000000" transform="translate(244.328125,20.796875)"/>
<path d="M0 0 C2.76604958 8.48941814 4.66557757 16.96351952 6.1875 25.75 C6.43741699 27.18581421 6.43741699 27.18581421 6.69238281 28.65063477 C13.6631792 70.18555963 8.90519906 114.06800433 -7 153 C-7.26361328 153.66725098 -7.52722656 154.33450195 -7.79882812 155.02197266 C-14.76294298 172.59370858 -24.52190506 189.01416806 -36 204 C-36.68707031 204.89847656 -37.37414062 205.79695312 -38.08203125 206.72265625 C-42.14566615 211.9083994 -46.46612456 216.82565336 -50.91015625 221.6875 C-52.68356841 223.64985514 -54.38150245 225.64661409 -56.0625 227.6875 C-58.73313212 230.82640734 -61.68784425 233.47456345 -64.828125 236.13671875 C-67.11119401 238.09539486 -69.29866603 240.13760008 -71.5 242.1875 C-83.5817716 253.03531017 -96.94226396 261.93751891 -111 270 C-111.73524902 270.42522949 -112.47049805 270.85045898 -113.22802734 271.28857422 C-133.70006498 282.9939534 -155.96774999 291.07314875 -179 296 C-179.94053223 296.20882813 -180.88106445 296.41765625 -181.85009766 296.6328125 C-209.0151848 302.43782859 -240.8236855 303.04104725 -268 297 C-268.93682617 296.79648926 -269.87365234 296.59297852 -270.83886719 296.38330078 C-287.640625 292.6796875 -287.640625 292.6796875 -291 291 C-289.69314035 288.13578176 -288.28286276 286.00997228 -286.11166382 283.73657227 C-285.22559448 282.80302414 -285.22559448 282.80302414 -284.32162476 281.85061646 C-283.67456573 281.17932709 -283.02750671 280.50803772 -282.36083984 279.81640625 C-281.67733459 279.10048309 -280.99382935 278.38455994 -280.28961182 277.64694214 C-273.952959 271.02895558 -267.55210579 264.4724695 -261.13402367 257.93351746 C-256.83164205 253.5495019 -252.55071292 249.1485953 -248.31689453 244.69824219 C-244.20972365 240.38179001 -240.05377015 236.11816946 -235.86064529 231.88522339 C-234.28285502 230.27586321 -232.72223443 228.6494558 -231.18088913 227.00515747 C-219.63448835 214.72630915 -210.32065021 210.57724418 -193.51329422 209.25426292 C-188.35398202 208.73230979 -183.55757551 207.10908991 -178.6875 205.375 C-177.7073291 205.03581543 -176.7271582 204.69663086 -175.71728516 204.34716797 C-155.02079511 196.91120277 -137.72757696 185.16587778 -122 170 C-121.22140625 169.28457031 -120.4428125 168.56914062 -119.640625 167.83203125 C-100.86474129 150.08815533 -83.52760502 120.57737355 -81.48880005 94.57458496 C-79.96101255 77.1715472 -73.51633071 68.73637134 -61.0546875 57.03125 C-59.35702963 55.36591137 -57.66366852 53.6961825 -55.97439575 52.02233887 C-51.56331778 47.67559326 -47.09476976 43.39310024 -42.61120605 39.12133789 C-38.03341665 34.73572782 -33.51908803 30.28571609 -28.99609375 25.84375 C-22.4070849 19.39690767 -15.80376013 12.96547605 -9.14013672 6.59570312 C-8.09436462 5.58627655 -8.09436462 5.58627655 -7.02746582 4.55645752 C-6.39102142 3.95166565 -5.75457703 3.34687378 -5.09884644 2.72375488 C-4.54543516 2.19447639 -3.99202389 1.66519791 -3.42184258 1.11988068 C-2 0 -2 0 0 0 Z " fill="#000000" transform="translate(482,191)"/>
<path d="M0 0 C6.11779705 5.09256183 11.82825556 10.54263835 17.5 16.125 C18.43070312 17.01832031 19.36140625 17.91164062 20.3203125 18.83203125 C21.19429688 19.69441406 22.06828125 20.55679688 22.96875 21.4453125 C23.76732422 22.22406738 24.56589844 23.00282227 25.38867188 23.80517578 C27 26 27 26 26.83398438 28.17138672 C25.82977657 30.37323579 24.98823501 31.60087166 23 33 C18.69858449 32.75346789 16.19953388 29.66714265 13.32421875 26.79296875 C12.79480179 26.27116531 12.26538483 25.74936188 11.71992493 25.21174622 C10.60589606 24.10850389 9.49579836 23.00127965 8.3894043 21.89038086 C6.68983973 20.18984107 4.97005503 18.51175655 3.24804688 16.83398438 C2.16797285 15.75911519 1.08915213 14.68298486 0.01171875 13.60546875 C-0.50586502 13.10428024 -1.02344879 12.60309174 -1.55671692 12.0867157 C-2.97387695 10.64135742 -2.97387695 10.64135742 -5 8 C-4.91778003 4.86002962 -4.08935713 4.0974805 -1.9375 1.75 C-1.298125 1.1725 -0.65875 0.595 0 0 Z " fill="#000000" transform="translate(269,215)"/>
<path d="M0 0 C3.28308224 1.31316163 5.46533581 3.64795271 7.92504883 6.10668945 C8.45446579 6.62849289 8.98388275 7.15029633 9.52934265 7.68791199 C10.64337152 8.79115432 11.75346922 9.89837855 12.85986328 11.00927734 C14.55942785 12.70981713 16.27921255 14.38790165 18.0012207 16.06567383 C19.08129472 17.14054301 20.16011545 18.21667334 21.23754883 19.29418945 C21.7551326 19.79537796 22.27271637 20.29656647 22.8059845 20.8129425 C24.22314453 22.25830078 24.22314453 22.25830078 26.24926758 24.8996582 C26.12432029 27.56840414 25.49178574 28.56475217 23.93676758 30.7121582 C22.24926758 31.8996582 22.24926758 31.8996582 20.49853516 31.79931641 C17.21545292 30.48615478 15.03319935 28.1513637 12.57348633 25.69262695 C12.04406937 25.17082352 11.5146524 24.64902008 10.9691925 24.11140442 C9.85516364 23.00816209 8.74506594 21.90093785 7.63867188 20.79003906 C5.93910731 19.08949927 4.21932261 17.41141476 2.49731445 15.73364258 C1.41724043 14.6587734 0.33841971 13.58264306 -0.73901367 12.50512695 C-1.25659744 12.00393845 -1.77418121 11.50274994 -2.30744934 10.9863739 C-3.72460938 9.54101562 -3.72460938 9.54101562 -5.75073242 6.8996582 C-5.62578513 4.23091227 -4.99325058 3.23456424 -3.43823242 1.0871582 C-1.75073242 -0.1003418 -1.75073242 -0.1003418 0 0 Z " fill="#000000" transform="translate(393.750732421875,92.100341796875)"/>
<path d="M0 0 C2.5 0.25 2.5 0.25 4.5 2.25 C4.87271546 5.15718056 4.89278138 6.66082793 3.25 9.125 C1.5 10.25 1.5 10.25 -0.5 10.125 C-2.80365256 9.11715201 -4.04793194 8.31346514 -5.5 6.25 C-5.15830916 2.49140074 -3.94708347 0.39470835 0 0 Z " fill="#000000" transform="translate(145.5,340.75)"/>
<path d="M0 0 C1.4540625 0.0309375 1.4540625 0.0309375 2.9375 0.0625 C3.5975 1.7125 4.2575 3.3625 4.9375 5.0625 C3.6175 6.7125 2.2975 8.3625 0.9375 10.0625 C-1.94687779 8.76950306 -3.93469421 7.40308637 -6.0625 5.0625 C-3.64893617 0.07446809 -3.64893617 0.07446809 0 0 Z " fill="#000000" transform="translate(187.0625,299.9375)"/>
<path d="M0 0 C1.0828125 0.37125 1.0828125 0.37125 2.1875 0.75 C2.5175 2.73 2.8475 4.71 3.1875 6.75 C1.5375 8.07 -0.1125 9.39 -1.8125 10.75 C-3.7925 8.44 -5.7725 6.13 -7.8125 3.75 C-3.50480769 -0.31153846 -3.50480769 -0.31153846 0 0 Z " fill="#000000" transform="translate(229.8125,258.25)"/>
<path d="M0 0 C3.465 1.485 3.465 1.485 7 3 C6.34 4.32 5.68 5.64 5 7 C4.01 6.67 3.02 6.34 2 6 C0.8125 2.9375 0.8125 2.9375 0 0 Z " fill="#000000" transform="translate(114,403)"/>
</svg>
