<?xml version="1.0" encoding="UTF-8"?>
<svg version="1.1" xmlns="http://www.w3.org/2000/svg" width="512" height="512">
<path d="M0 0 C2.2912021 -0.00571055 4.58240136 -0.01267745 6.87359619 -0.02079773 C13.06589332 -0.03866961 19.25804827 -0.03757183 25.4503634 -0.03185534 C30.63391256 -0.02875447 35.81743477 -0.03486601 41.00098008 -0.04089409 C53.9357281 -0.05571873 66.87038757 -0.05214251 79.80513402 -0.04003078 C91.00328574 -0.03010458 102.20127208 -0.04303427 113.3993983 -0.06696498 C124.93507645 -0.09142871 136.47065901 -0.10054747 148.00636452 -0.09431225 C154.46777368 -0.09095309 160.9290463 -0.09328825 167.39043617 -0.11056328 C173.47025357 -0.12611011 179.54975704 -0.12199122 185.62956238 -0.10325813 C187.84979381 -0.09959345 190.0700489 -0.10261813 192.29025841 -0.11314392 C219.59187669 -0.23260959 243.34161489 6.793674 263.20581055 26.40405273 C280.65423553 45.03748659 287.34794164 67.43836699 287.36694336 92.45483398 C287.37157808 93.87978746 287.37660362 95.30473971 287.38198853 96.72969055 C287.39505544 100.58759774 287.40154681 104.44548756 287.40599918 108.30341339 C287.40894043 110.72056812 287.41304727 113.13771822 287.41750336 115.55487061 C287.43116608 123.13730216 287.44083753 130.71972298 287.44470525 138.30216599 C287.44917677 147.01763229 287.46668761 155.73294105 287.49570584 164.44835949 C287.51742319 171.20876725 287.52741493 177.96913103 287.52874637 184.72957325 C287.52978765 188.75586334 287.53554894 192.7820051 287.55356598 196.80825806 C287.5702206 200.60374277 287.57211935 204.39897044 287.56342697 208.19447899 C287.56230708 210.22523773 287.57589105 212.25598861 287.59017944 214.28669739 C287.50525157 233.30892747 282.57207707 251.95999163 271.20581055 267.40405273 C270.22161133 268.75563477 270.22161133 268.75563477 269.2175293 270.13452148 C254.72592226 288.91797558 234.51541691 300.25924606 211.07093811 303.46000671 C201.97436294 304.61622481 192.98348249 304.61966426 183.82861328 304.51660156 C182.0476652 304.50458271 180.26670938 304.49367016 178.48574829 304.48376465 C174.68436817 304.46156957 170.88307429 304.43418177 167.08175468 304.40336037 C161.05688445 304.35711181 155.03211979 304.33852311 149.00709534 304.32633972 C147.47397262 304.32309015 147.47397262 304.32309015 145.90987772 304.31977493 C143.82186588 304.31544091 141.73385388 304.31118842 139.64584172 304.30701578 C125.64497484 304.27835314 111.64488484 304.23356719 97.64453125 304.10595703 C88.16262118 304.01973703 78.68175259 303.98001041 69.1994434 303.99321002 C64.19646408 303.99835994 59.19604353 303.98049983 54.19357109 303.9054966 C49.48830599 303.83531546 44.78680119 303.82694333 40.08119583 303.8638382 C38.36677022 303.86666071 36.6521301 303.8476944 34.93826103 303.80392265 C24.84502728 303.56066573 18.56576421 304.80364533 10.91688538 311.71098328 C9.16785969 313.38968051 7.45928303 315.09617744 5.77191651 316.83672941 C3.51378939 319.09661182 1.08366601 321.04497305 -1.41918945 323.02905273 C-5.42157856 326.27134421 -9.3701458 329.56798402 -13.29418945 332.90405273 C-18.14367668 337.02519221 -23.04580068 341.07396885 -27.98168945 345.09155273 C-31.11218612 347.66551666 -34.20591406 350.2797436 -37.29418945 352.90405273 C-42.13899843 357.02100308 -47.03340196 361.06901938 -51.9699707 365.07592773 C-54.03047756 366.77449217 -56.0657636 368.48832149 -58.0871582 370.23217773 C-75.35026878 385.11211515 -75.35026878 385.11211515 -85.79418945 384.40405273 C-91.13158419 382.41561156 -94.24752769 379.49737626 -96.79418945 374.40405273 C-96.89232716 372.78029646 -96.92699256 371.1525326 -96.93120384 369.52581882 C-96.93627838 368.48853533 -96.94135293 367.45125184 -96.94658124 366.38253552 C-96.947079 365.23403699 -96.94757676 364.08553846 -96.9480896 362.90223694 C-96.95247185 361.68886813 -96.95685411 360.47549932 -96.96136916 359.22536176 C-96.97245209 355.84607836 -96.97898742 352.46684138 -96.98355031 349.08754647 C-96.98950035 345.44641119 -97.0011125 341.80529305 -97.01184082 338.16416931 C-97.03639107 329.35949683 -97.05100226 320.55481866 -97.06390089 311.75012246 C-97.06761298 309.26108055 -97.07158626 306.7720392 -97.07565355 304.28299785 C-97.10090643 288.81493514 -97.12295238 273.34687154 -97.1353817 257.87879276 C-97.13831129 254.2935441 -97.14127295 250.70829547 -97.14428711 247.12304688 C-97.14503316 246.23197734 -97.14577921 245.34090781 -97.14654787 244.42283618 C-97.15917288 230.02185085 -97.19235419 215.62098981 -97.23408894 201.22006244 C-97.27662623 186.42013417 -97.30009091 171.62026923 -97.30530226 156.82028002 C-97.30870466 148.51695872 -97.32031935 140.21383103 -97.353405 131.91057014 C-97.38157018 124.83052461 -97.39233376 117.75071232 -97.38120954 110.67061514 C-97.37606311 107.06511152 -97.37864257 103.46009498 -97.40367508 99.85466385 C-97.60080399 69.80612475 -92.33151728 46.81008833 -71.16918945 24.27905273 C-61.11548049 14.61381784 -49.16171927 7.42485397 -35.79418945 3.40405273 C-34.99053861 3.15176879 -34.18688776 2.89948484 -33.35888386 2.63955593 C-22.33678467 -0.36655506 -11.34258243 -0.02560487 0 0 Z M50.39331055 87.71655273 C43.09727793 97.57652134 38.59323059 111.07496037 40.20581055 123.40405273 C41.53357983 127.57022701 43.85436934 130.47319434 47.51831055 132.84155273 C51.22719274 134.65653764 54.06649971 135.05762813 58.20581055 134.40405273 C62.3551532 132.60165805 65.40115563 130.50374778 68.08081055 126.84155273 C69.11451346 123.68301606 69.61496589 120.86910267 70.08081055 117.59155273 C71.14762945 110.70416993 72.94940984 105.16036333 78.39331055 100.55249023 C85.76348894 95.43700457 92.26619316 94.43641887 101.20581055 95.40405273 C109.38093691 98.02009317 113.71982537 102.20359503 118.01831055 109.46655273 C120.40295193 115.69694526 120.28603412 122.99257742 118.29174805 129.29077148 C115.18298827 135.99967565 111.42857127 140.21462786 104.51831055 143.09155273 C101.25060122 144.23086901 98.06513573 144.73843469 94.64331055 145.21655273 C89.23677101 146.11764266 85.5893386 148.03407335 82.20581055 152.40405273 C79.49662781 157.20213394 79.83828954 162.35785447 79.83081055 167.71655273 C79.80631836 168.62856445 79.78182617 169.54057617 79.7565918 170.48022461 C79.73045635 176.55671708 80.56634585 181.4090193 84.20581055 186.40405273 C87.58653338 189.30475001 90.81187798 190.63138382 95.26831055 190.90405273 C101.06189096 190.16835998 103.81941108 188.00935738 107.58081055 183.65405273 C109.65507133 179.50553117 109.52187944 176.98705168 109.20581055 172.40405273 C109.73948242 172.25709961 110.2731543 172.11014648 110.82299805 171.95874023 C125.14373848 167.64765228 135.27233755 158.9105958 143.20581055 146.40405273 C149.57573034 132.79079625 151.80101646 118.01596169 147.58081055 103.34155273 C142.02233584 88.04122165 131.81908617 76.6028741 117.20581055 69.40405273 C92.25269682 59.09669887 67.3217347 67.48323015 50.39331055 87.71655273 Z M84.95581055 213.71655273 C81.63936526 216.95762426 80.28175403 218.84570668 80.14331055 223.50952148 C80.45910526 229.40106655 81.94953207 232.3457407 86.20581055 236.40405273 C90.44659821 238.94852533 94.37509835 239.07615182 99.20581055 238.40405273 C104.0230272 236.04088985 106.80741582 233.20084219 109.20581055 228.40405273 C110.01737008 222.01302138 108.97690418 218.60204666 105.20581055 213.40405273 C98.3249523 207.97179623 91.82448266 208.82922835 84.95581055 213.71655273 Z " fill="#000000" transform="translate(96.794189453125,-0.404052734375)"/>
<path d="M0 0 C3.33721567 -0.03303028 6.6743885 -0.05278348 10.01171875 -0.0703125 C10.94786011 -0.07973877 11.88400146 -0.08916504 12.84851074 -0.09887695 C37.17429203 -0.19450134 58.82345898 10.10173204 76 27 C91.47583326 43.43908147 99.15076691 64.7237511 99.14717102 87.0703125 C99.15084771 88.29627136 99.1545244 89.52223022 99.1583125 90.78533936 C99.16741291 94.18068524 99.17204316 97.5759829 99.17470181 100.97133636 C99.17861573 104.63600917 99.18819288 108.30066811 99.19691467 111.96533203 C99.21664213 120.80831323 99.22673779 129.65129552 99.23564246 138.49429321 C99.240029 142.65960769 99.24539463 146.8249209 99.25063133 150.99023438 C99.26763526 164.83593482 99.2821315 178.68163448 99.28938007 192.52734375 C99.29128991 196.11718751 99.29321026 199.70703126 99.29516602 203.296875 C99.29564976 204.18909256 99.2961335 205.08131012 99.2966319 206.00056458 C99.30494022 220.46825544 99.33029437 234.93586385 99.36274669 249.40351868 C99.3957972 264.25888228 99.41382677 279.11420392 99.41702431 293.96960449 C99.41919061 302.30986655 99.42795747 310.65000814 99.45348549 318.99023438 C99.47516455 326.08919915 99.48325651 333.18801416 99.47351871 340.28700829 C99.46896666 343.90908702 99.4709125 347.53085652 99.49028015 351.15289307 C99.5110908 355.07862043 99.50095072 359.0039192 99.48774719 362.9296875 C99.50420106 364.64825958 99.50420106 364.64825958 99.52098733 366.40155029 C99.47069929 372.57417439 99.18938362 376.33227563 95 381 C90.46388075 384.49674659 86.55338877 384.63733346 80.9765625 384.4609375 C76.06730951 383.70071197 73.55378574 381.31177165 70 378 C68.4600999 376.69731688 66.91978133 375.39509931 65.37280273 374.10083008 C63.67149817 372.67408053 61.98141822 371.2348973 60.29296875 369.79296875 C57.3925669 367.32362807 54.45553382 364.90325889 51.5 362.5 C46.8954642 358.75212202 42.35980809 354.93016556 37.8359375 351.0859375 C34.4194046 348.18755177 30.97495162 345.328449 27.5 342.5 C22.8954642 338.75212202 18.35980809 334.93016556 13.8359375 331.0859375 C9.54901733 327.44916636 5.20531787 323.88682468 0.84375 320.33984375 C-3.03454816 317.1487715 -6.85935656 313.8959099 -10.67382812 310.62890625 C-15.81876468 306.24264063 -18.75758052 304.7049737 -25.45950317 304.7484436 C-26.22594678 304.74547346 -26.99239038 304.74250333 -27.78205955 304.73944318 C-30.35885068 304.73178487 -32.93541508 304.73830498 -35.51220703 304.74462891 C-37.35696569 304.7418796 -39.20172316 304.73820007 -41.04647827 304.73365784 C-45.02593711 304.72553379 -49.00533973 304.72338055 -52.98480606 304.72560501 C-59.29068842 304.72843773 -65.59645866 304.71408405 -71.90231323 304.69662476 C-89.83671353 304.64960512 -107.77110724 304.62568476 -125.70556641 304.61914062 C-135.60585263 304.61537557 -145.50601286 304.59722368 -155.40624511 304.56404626 C-161.6595725 304.54394429 -167.91257237 304.541408 -174.16591859 304.55232644 C-178.08261558 304.55495624 -181.99912691 304.54081838 -185.9157753 304.52224541 C-187.7146944 304.51697653 -189.51364887 304.51832775 -191.31255341 304.52728081 C-216.48136012 304.64230313 -239.86869761 297.631923 -258.25390625 279.73828125 C-259.61322266 278.38283203 -259.61322266 278.38283203 -261 277 C-262.09634766 275.93845703 -262.09634766 275.93845703 -263.21484375 274.85546875 C-273.28335485 264.42808003 -279.2496804 250.81945498 -283 237 C-283.24492187 236.12730469 -283.48984375 235.25460937 -283.7421875 234.35546875 C-285.20769053 227.98153432 -285.08228992 221.63372847 -285.04296875 215.1328125 C-285.03986694 214.15771729 -285.03676514 213.18262207 -285.03356934 212.17797852 C-285.02551067 209.78528867 -285.01422947 207.39265978 -285 205 C-284.13622584 204.99668985 -283.27245169 204.99337971 -282.38250256 204.98996925 C-261.2874583 204.90846641 -240.19248373 204.81628666 -219.09753704 204.71247292 C-208.89585022 204.66252064 -198.69417075 204.61607695 -188.49243164 204.578125 C-179.59235111 204.54500625 -170.69233065 204.50506808 -161.79231673 204.45720994 C-157.08733889 204.43214084 -152.38239987 204.41030378 -147.67737389 204.39665604 C-143.2327436 204.38365527 -138.78824787 204.361415 -134.34369278 204.33261681 C-132.72784332 204.32367952 -131.11197229 204.31788405 -129.49609947 204.31578636 C-120.93518763 204.3027033 -112.47918994 203.98207235 -103.95832825 203.11679077 C-103.19795027 203.04111551 -102.4375723 202.96544025 -101.65415257 202.8874718 C-82.61606667 200.77246122 -64.34432798 193.36535468 -49 182 C-48.16210938 181.38511719 -47.32421875 180.77023437 -46.4609375 180.13671875 C-36.17387499 172.24997083 -26.77928762 163.09760096 -20 152 C-19.6484082 151.4332959 -19.29681641 150.8665918 -18.93457031 150.28271484 C-7.07032975 130.96918769 -0.94355318 109.90526772 -0.79467773 87.1875 C-0.78477814 86.24023544 -0.77487854 85.29297089 -0.76467896 84.31700134 C-0.73329707 81.21135894 -0.70839948 78.10570129 -0.68359375 75 C-0.66300405 72.83666607 -0.64200707 70.67333597 -0.62062073 68.51000977 C-0.56560818 62.83509444 -0.51610765 57.16014407 -0.46777344 51.48516846 C-0.4174058 45.68669542 -0.36179964 39.88827284 -0.30664062 34.08984375 C-0.19931391 22.72660568 -0.09781304 11.36332367 0 0 Z " fill="#000000" transform="translate(413,128)"/>
</svg>
