<?xml version="1.0" encoding="UTF-8"?>
<svg version="1.1" xmlns="http://www.w3.org/2000/svg" width="512" height="512">
<path d="M0 0 C2.12563555 -0.0054313 4.25126733 -0.01255957 6.37689209 -0.02124023 C12.10832844 -0.03935658 17.8394743 -0.03245458 23.57091522 -0.01972389 C29.59367099 -0.00953533 35.61640332 -0.01900574 41.63916016 -0.02526855 C51.74971949 -0.03252798 61.86016162 -0.02300208 71.97070312 -0.00390625 C83.62864132 0.01785909 95.28629961 0.01080652 106.94423103 -0.01121187 C116.98717187 -0.02941453 127.03002886 -0.03190045 137.07298088 -0.0214572 C143.056452 -0.01524898 149.03979192 -0.01431267 155.02325439 -0.02760315 C160.65087108 -0.03923204 166.27812993 -0.03100812 171.90570831 -0.00802612 C173.96026264 -0.00277645 176.01484754 -0.00418789 178.06938934 -0.01307678 C192.99894289 -0.07167071 206.46126234 1.16982145 219.8984375 8.33007812 C220.56270752 8.67264648 221.22697754 9.01521484 221.91137695 9.36816406 C227.25595571 12.20137181 231.95081784 15.55778378 236.5234375 19.51757812 C237.71259766 20.41283203 237.71259766 20.41283203 238.92578125 21.32617188 C252.69446243 32.94155555 261.91526696 51.92396117 263.75173473 69.73126101 C264.09622811 75.49362471 264.0258666 81.25926765 263.97753906 87.02905273 C263.97640813 88.94257076 263.97704924 90.85609052 263.97930908 92.76960754 C263.98044756 97.91747116 263.95707991 103.06495505 263.92901325 108.21273112 C263.90385379 113.60986404 263.9016462 119.00700755 263.89691162 124.40419006 C263.88452433 134.60357223 263.85176065 144.80278103 263.81151366 155.00208718 C263.76666317 166.62250379 263.74477563 178.24292908 263.72473192 189.86341083 C263.68302391 213.74822903 263.61275514 237.63289382 263.5234375 261.51757812 C262.38616211 261.31044189 261.24888672 261.10330566 260.07714844 260.88989258 C258.55406285 260.61590145 257.03094936 260.34206533 255.5078125 260.06835938 C254.76192871 259.9320813 254.01604492 259.79580322 253.24755859 259.65539551 C220.00689521 253.70925078 185.88086394 261.68818074 158.15625 280.79101562 C133.16469152 299.18333617 116.90372371 323.80256491 108.5234375 353.51757812 C108.18183594 354.71898437 107.84023438 355.92039062 107.48828125 357.15820312 C102.15682338 380.07107323 103.8390866 406.79496863 112.7890625 428.61914062 C113.5234375 430.51757812 113.5234375 430.51757812 113.5234375 432.51757812 C96.1807228 432.61135 78.83808813 432.68171727 61.49517727 432.72482681 C53.44111554 432.74538245 45.38721206 432.77336769 37.33325195 432.81933594 C30.30690475 432.85941966 23.28067225 432.88506169 16.25421387 432.8939321 C12.53961061 432.89911076 8.82533526 432.91113286 5.11083794 432.94049835 C-28.91150761 433.19904231 -28.91150761 433.19904231 -44.8515625 424.70507812 C-45.51583252 424.36250977 -46.18010254 424.01994141 -46.86450195 423.66699219 C-52.20908071 420.83378444 -56.90394284 417.47737247 -61.4765625 413.51757812 C-62.26933594 412.92074219 -63.06210938 412.32390625 -63.87890625 411.70898438 C-73.42222917 403.65815105 -80.3880011 392.22017544 -84.4765625 380.51757812 C-84.80878059 379.63203751 -85.14099869 378.74649689 -85.483284 377.8341217 C-89.5919976 365.07835549 -89.04916755 352.07372075 -88.99946117 338.80266857 C-88.99032414 335.18703974 -89.00442279 331.57148513 -89.01538086 327.95587158 C-89.03307936 320.89221669 -89.02936506 313.82873272 -89.0177303 306.76507139 C-89.00866187 301.0194532 -89.00748664 295.27388259 -89.01182556 289.52825928 C-89.01243849 288.70756482 -89.01305143 287.88687036 -89.01368293 287.04130638 C-89.01496195 285.37358934 -89.01625881 283.70587232 -89.0175733 282.03815532 C-89.02895369 266.43461263 -89.0159054 250.83116426 -88.99437183 235.22763705 C-88.97650316 221.8665546 -88.97960798 208.5056112 -88.99804688 195.14453125 C-89.01949863 179.59322131 -89.0278553 164.04199383 -89.01559782 148.49067116 C-89.01432375 146.82941311 -89.01306627 145.16815505 -89.01182556 143.50689697 C-89.01120846 142.68972761 -89.01059136 141.87255825 -89.00995556 141.03062618 C-89.00651554 135.29820884 -89.01230175 129.56584423 -89.02174377 123.83343506 C-89.03301314 116.83849118 -89.02982075 109.84372663 -89.0086208 102.84880304 C-88.99817624 99.28632151 -88.99387424 95.72413793 -89.00721741 92.16165924 C-89.0660888 75.02629688 -88.8987997 59.59434575 -80.6640625 44.14257812 C-80.32076904 43.47758301 -79.97747559 42.81258789 -79.6237793 42.12744141 C-76.78920918 36.78433869 -73.45403882 32.07603413 -69.4765625 27.51757812 C-68.31833984 26.06544922 -68.31833984 26.06544922 -67.13671875 24.58398438 C-50.34835949 4.47197734 -24.67008398 -0.10673409 0 0 Z M-20.4765625 86.58007812 C-23.9037207 91.61371673 -24.1342491 95.49650364 -23.4765625 101.51757812 C-21.12863592 106.39404102 -18.18895396 108.92095426 -13.4765625 111.51757812 C-9.96854077 112.40682773 -6.68745591 112.64644042 -3.07647705 112.65802002 C-2.00559845 112.66373016 -0.93471985 112.66944031 0.16860962 112.67532349 C1.91577774 112.67700027 1.91577774 112.67700027 3.69824219 112.67871094 C4.93297272 112.68367584 6.16770325 112.68864075 7.43984985 112.6937561 C10.82023136 112.70584228 14.20055119 112.71331706 17.58094692 112.71776676 C19.69619192 112.72070435 21.81143159 112.72481045 23.92667389 112.72927094 C30.55442235 112.74293546 37.18215851 112.75260704 43.80992007 112.75647283 C51.44274632 112.76095017 59.0753932 112.77848732 66.70816493 112.80747342 C72.62003845 112.82913956 78.53186169 112.83917974 84.44377446 112.84051394 C87.969125 112.84155851 91.49430668 112.84739156 95.01961517 112.86533356 C98.95681963 112.88498309 102.89380252 112.88050564 106.83105469 112.87402344 C108.56607742 112.88784561 108.56607742 112.88784561 110.33615112 112.90194702 C120.96290259 112.85750717 120.96290259 112.85750717 130.14182663 108.06560135 C134.20720902 103.32664562 134.8794066 100.11952836 134.80078125 94.05664062 C134.38967306 90.2929741 133.0405739 88.29967625 130.5234375 85.51757812 C125.15544595 81.29171244 120.81738459 80.3986025 114.12335205 80.37713623 C113.05247345 80.37142609 111.98159485 80.36571594 110.87826538 80.35983276 C109.13109726 80.35815598 109.13109726 80.35815598 107.34863281 80.35644531 C106.11390228 80.35148041 104.87917175 80.3465155 103.60702515 80.34140015 C100.22664364 80.32931397 96.84632381 80.32183919 93.46592808 80.31738949 C91.35068308 80.3144519 89.23544341 80.3103458 87.12020111 80.30588531 C80.49245265 80.29222079 73.86471649 80.28254921 67.23695493 80.27868342 C59.60412868 80.27420608 51.9714818 80.25666893 44.33871007 80.22768283 C38.42683655 80.20601669 32.51501331 80.19597651 26.60310054 80.19464231 C23.07775 80.19359774 19.55256832 80.18776469 16.02725983 80.16982269 C12.09005537 80.15017316 8.15307248 80.15465061 4.21582031 80.16113281 C2.48079758 80.14731064 2.48079758 80.14731064 0.71072388 80.13320923 C-6.99948639 80.17288859 -15.1264161 80.34349211 -20.4765625 86.58007812 Z M-20.4765625 166.58007812 C-23.9037207 171.61371673 -24.1342491 175.49650364 -23.4765625 181.51757812 C-21.12863592 186.39404102 -18.18895396 188.92095426 -13.4765625 191.51757812 C-9.22854306 192.6686695 -5.01653834 192.66323275 -0.64678955 192.65802002 C0.13517453 192.66099114 0.91713862 192.66396226 1.72279859 192.66702342 C4.33962402 192.67568594 6.95640357 192.67721659 9.57324219 192.67871094 C11.45097959 192.68334084 13.32871605 192.68836573 15.20645142 192.6937561 C20.3057702 192.70686539 25.40507583 192.71332218 30.50440884 192.71776676 C33.69171513 192.72069981 36.87901784 192.72480506 40.06632233 192.72927094 C50.04291732 192.74294189 60.01950411 192.75261056 69.99610782 192.75647283 C81.50478258 192.76095295 93.01333854 192.77850048 104.52197719 192.80747342 C113.42320903 192.82910287 122.32440749 192.83917778 131.22566533 192.84051394 C136.53951541 192.84156105 141.85325375 192.84744882 147.16707611 192.86533356 C152.16739609 192.88183606 157.16752058 192.88395912 162.16785812 192.87519455 C163.99917754 192.87442535 165.83050757 192.87875141 167.66180038 192.8886528 C181.77214481 193.61445683 181.77214481 193.61445683 194.11887741 188.06560135 C198.22477965 183.35761415 198.87930903 180.11200488 198.80078125 174.05664062 C198.38967306 170.2929741 197.0405739 168.29967625 194.5234375 165.51757812 C188.41144444 160.70600912 183.25105845 160.36812092 175.69366455 160.37713623 C174.91170047 160.37416511 174.12973638 160.37119399 173.32407641 160.36813283 C170.70725098 160.35947031 168.09047143 160.35793966 165.47363281 160.35644531 C163.59589541 160.35181541 161.71815895 160.34679052 159.84042358 160.34140015 C154.7411048 160.32829086 149.64179917 160.32183407 144.54246616 160.31738949 C141.35515987 160.31445644 138.16785716 160.31035119 134.98055267 160.30588531 C125.00395768 160.29221436 115.02737089 160.28254569 105.05076718 160.27868342 C93.54209242 160.2742033 82.03353646 160.25665577 70.52489781 160.22768283 C61.62366597 160.20605338 52.72246751 160.19597847 43.82120967 160.19464231 C38.50735959 160.1935952 33.19362125 160.18770743 27.87979889 160.16982269 C22.87947891 160.15332019 17.87935442 160.15119713 12.87901688 160.1599617 C11.04769746 160.1607309 9.21636743 160.15640484 7.38507462 160.14650345 C-7.8750661 159.40557222 -7.8750661 159.40557222 -20.4765625 166.58007812 Z M-20.4765625 246.58007812 C-23.9037207 251.61371673 -24.1342491 255.49650364 -23.4765625 261.51757812 C-21.12863592 266.39404102 -18.18895396 268.92095426 -13.4765625 271.51757812 C-8.76985695 272.84675951 -3.99780423 272.6725137 0.85253906 272.67871094 C1.78490891 272.68367584 2.71727875 272.68864075 3.67790222 272.6937561 C6.75662988 272.70833801 9.83530601 272.71517334 12.9140625 272.72070312 C15.06011964 272.72645811 17.20617676 272.7322158 19.35223389 272.73797607 C23.85119872 272.74847495 28.35014574 272.75432482 32.84912109 272.7578125 C38.60006037 272.76329297 44.35076239 272.78731632 50.10162735 272.81578445 C54.53528521 272.83445403 58.96888642 272.83961875 63.40258026 272.84114838 C65.52196295 272.84416598 67.64134486 272.85216421 69.76068878 272.86533356 C72.73289281 272.88248331 75.70452371 272.88049192 78.67675781 272.87402344 C79.97697121 272.88784561 79.97697121 272.88784561 81.30345154 272.90194702 C88.42278202 272.85367268 94.77793975 271.67892742 100.4609375 267.20507812 C103.5935981 263.12312643 104.58234451 260.16697453 104.3984375 255.01757812 C103.06259525 249.67420913 100.90205354 246.6028716 96.5859375 243.20507812 C90.97125504 240.1112735 85.45197561 240.36444064 79.19433594 240.35644531 C78.26196609 240.35148041 77.32959625 240.3465155 76.36897278 240.34140015 C73.29024512 240.32681824 70.21156899 240.31998291 67.1328125 240.31445312 C64.98675536 240.30869814 62.84069824 240.30294045 60.69464111 240.29718018 C56.19567628 240.2866813 51.69672926 240.28083143 47.19775391 240.27734375 C41.44681463 240.27186328 35.69611261 240.24783993 29.94524765 240.2193718 C25.51158979 240.20070222 21.07798858 240.1955375 16.64429474 240.19400787 C14.52491205 240.19099027 12.40553014 240.18299204 10.28618622 240.16982269 C7.31398219 240.15267294 4.34235129 240.15466433 1.37011719 240.16113281 C0.50330826 240.15191803 -0.36350067 240.14270325 -1.25657654 240.13320923 C-8.28450281 240.18086378 -15.68590328 240.95038315 -20.4765625 246.58007812 Z M-20.4765625 326.58007812 C-23.9037207 331.61371673 -24.1342491 335.49650364 -23.4765625 341.51757812 C-21.12863592 346.39404102 -18.18895396 348.92095426 -13.4765625 351.51757812 C-9.97900859 352.40182429 -6.69455294 352.65202456 -3.09472656 352.67871094 C-2.04303284 352.68831848 -0.99133911 352.69792603 0.09222412 352.70782471 C1.78294037 352.71419952 1.78294037 352.71419952 3.5078125 352.72070312 C5.26306244 352.72925323 5.26306244 352.72925323 7.05377197 352.73797607 C9.52835184 352.74741333 12.00294421 352.75395499 14.47753906 352.7578125 C18.24566818 352.76750668 22.01324906 352.79853849 25.78125 352.83007812 C28.19010094 352.83660987 30.59895577 352.84185967 33.0078125 352.84570312 C34.12685974 352.85804993 35.24590698 352.87039673 36.39886475 352.88311768 C44.35510231 352.86068284 51.40566354 352.37000962 57.4609375 346.83007812 C60.1923778 342.44321946 62.03270893 338.64843999 61.1796875 333.40429688 C59.5685046 328.31180806 57.04611807 325.47471542 52.5234375 322.51757812 C46.18742503 320.11830635 40.06195963 320.21131433 33.34375 320.21679688 C32.17641327 320.21251175 31.00907654 320.20822662 29.80636597 320.20381165 C27.34373623 320.19808364 24.88108959 320.19755677 22.41845703 320.2019043 C18.667998 320.20506166 14.91833026 320.18159361 11.16796875 320.15625 C8.76823016 320.15397648 6.36848945 320.15327376 3.96875 320.15429688 C2.85597687 320.14508713 1.74320374 320.13587738 0.59671021 320.12638855 C-7.07128264 320.17153905 -15.1615432 320.3800055 -20.4765625 326.58007812 Z " fill="#000000" transform="translate(152.4765625,15.482421875)"/>
<path d="M0 0 C19.41513413 15.83036047 34.05409201 37.67987498 37 63 C39.00706443 91.38316441 34.11130766 116.2402984 15.84375 138.64453125 C-0.57892148 157.46699451 -22.83614019 171.43272251 -48.21777344 173.22753906 C-76.8329536 174.49950262 -101.20094475 168.80835389 -123.1875 149.625 C-141.72962913 132.23989973 -154.23970686 110.00534464 -155.3828125 84.2890625 C-156.09445376 55.78869783 -149.21659255 31.57486407 -129.3359375 10.37109375 C-94.83017582 -24.65398542 -39.47352935 -30.18232772 0 0 Z M-39.78222656 49.29394531 C-41.0807726 50.62668885 -42.36641787 51.9720928 -43.640625 53.328125 C-44.33009216 54.03652527 -45.01955933 54.74492554 -45.72991943 55.47479248 C-47.91584029 57.72144541 -50.0846799 59.98349672 -52.25 62.25 C-55.11595527 65.24857991 -57.99783393 68.23045309 -60.890625 71.203125 C-61.54484436 71.89883606 -62.19906372 72.59454712 -62.87310791 73.31134033 C-63.48764832 73.94239685 -64.10218872 74.57345337 -64.73535156 75.22363281 C-65.27081604 75.78528137 -65.80628052 76.34692993 -66.35797119 76.92559814 C-68 78 -68 78 -70.05169678 77.81195068 C-73.04625758 76.56397467 -74.79253412 74.4079325 -77 72.0625 C-81.83799887 66.84321711 -81.83799887 66.84321711 -88.3671875 64.6640625 C-94.10537931 64.57468257 -97.56519321 64.98755576 -102 69 C-105.97101901 73.38902101 -106.44257263 76.85152414 -106.43359375 82.53515625 C-105.43805148 88.19450013 -101.3403553 91.9673653 -97.4140625 95.88671875 C-96.87526459 96.42980179 -96.33646667 96.97288483 -95.78134155 97.53242493 C-94.64583521 98.67364997 -93.50773193 99.81229635 -92.3671875 100.94848633 C-90.62866968 102.683837 -88.90392016 104.4321094 -87.1796875 106.18164062 C-86.07112381 107.29247691 -84.96177473 108.40253008 -83.8515625 109.51171875 C-83.33993561 110.03255539 -82.82830872 110.55339203 -82.30117798 111.0900116 C-78.26483304 115.07509518 -75.19131017 116.80078998 -69.5625 117.3125 C-63.34235892 116.76687359 -59.44839258 113.82411554 -55.12792969 109.50024414 C-54.21388367 108.59242691 -53.29983765 107.68460968 -52.35809326 106.74928284 C-51.37904455 105.76154711 -50.40031262 104.77349731 -49.421875 103.78515625 C-48.40442172 102.76718371 -47.38644845 101.74973066 -46.36798096 100.73277283 C-44.24186067 98.60656311 -42.1209764 96.47530814 -40.00390625 94.34008789 C-37.2932998 91.60675206 -34.57171269 88.8846742 -31.84635544 86.16605473 C-29.74586279 84.06890614 -27.65039453 81.96679614 -25.55649567 79.86306572 C-24.55471082 78.85743942 -23.55158331 77.85314877 -22.54708099 76.85023689 C-21.1446079 75.44813549 -19.74938509 74.03879322 -18.35449219 72.62915039 C-17.16252228 71.43026939 -17.16252228 71.43026939 -15.94647217 70.20716858 C-12.03919477 65.77657869 -11.56531919 62.24217447 -11.67578125 56.47265625 C-12.31226045 51.61854383 -15.42540968 48.1363593 -19 45 C-20.98127213 44.10182592 -20.98127213 44.10182592 -23.1875 43.625 C-23.90292969 43.43164062 -24.61835938 43.23828125 -25.35546875 43.0390625 C-31.16969315 42.95318031 -35.68459537 45.38586107 -39.78222656 49.29394531 Z " fill="#000000" transform="translate(443,323)"/>
</svg>
