<svg width="512" height="512" viewBox="0 0 512 512" fill="none" xmlns="http://www.w3.org/2000/svg">
<path d="M90.2786 153.876C91.299 153.876 92.3193 153.877 93.3705 153.877C95.1291 153.874 95.1291 153.874 96.9232 153.871C98.2277 153.874 99.5321 153.877 100.876 153.88C102.263 153.879 103.65 153.878 105.037 153.877C108.865 153.875 112.694 153.879 116.523 153.884C120.645 153.888 124.767 153.887 128.889 153.886C136.036 153.885 143.184 153.889 150.332 153.894C160.666 153.902 171 153.905 181.335 153.906C198.1 153.908 214.865 153.915 231.63 153.925C247.92 153.934 264.21 153.941 280.5 153.945C281.504 153.945 282.507 153.946 283.541 153.946C288.574 153.947 293.608 153.948 298.641 153.95C340.427 153.96 382.214 153.978 424 154C424.806 155.928 425.612 157.857 426.417 159.786C426.865 160.86 427.314 161.934 427.776 163.04C429.026 166.062 430.211 169.097 431.337 172.166C431.724 173.219 432.112 174.273 432.512 175.358C433.115 177.008 433.115 177.008 433.73 178.691C434.166 179.876 434.601 181.06 435.05 182.28C436.2 185.41 437.348 188.542 438.495 191.673C440.085 196.011 441.679 200.348 443.272 204.685C444.113 206.976 444.954 209.267 445.794 211.558C450.497 224.384 455.255 237.189 460 250C460 315.34 460 380.68 460 448C325.36 448 190.72 448 52 448C52 249.771 52 249.771 78.5662 177.705C79.2619 175.816 79.9565 173.927 80.6501 172.037C81.703 169.17 82.7593 166.303 83.8164 163.437C84.1266 162.59 84.4369 161.743 84.7565 160.87C87.2836 154.039 87.2836 154.039 90.2786 153.876ZM215 226C214.077 226.441 213.154 226.882 212.203 227.336C205.023 231.007 199.011 235.652 193 241C191.842 242.015 191.842 242.015 190.66 243.051C173.425 259.135 164.174 282.627 162.832 305.914C162.646 331.717 171.495 355.855 189.469 374.466C202.428 387.454 217.355 395.509 235 400C235.906 400.245 236.812 400.49 237.746 400.742C259.904 405.789 284.318 400.687 303.688 389.312C325.931 374.805 340.744 354.893 347 329C352.052 303.875 347.338 279.06 333.488 257.543C319.948 237.62 299.7 224.177 276.562 218.062C255.337 214.136 234.403 216.732 215 226Z" fill="black"/>
<path d="M0 12C168.96 12 337.92 12 512 12C512 26.8319 510.082 36.4351 500 47C491.402 55.0068 481.085 58.159 469.518 58.1342C468.396 58.1377 468.396 58.1377 467.251 58.1413C464.736 58.148 462.221 58.1476 459.706 58.1472C457.888 58.1505 456.07 58.1542 454.252 58.1583C449.248 58.1683 444.245 58.1721 439.242 58.1747C433.849 58.1786 428.455 58.1882 423.062 58.1969C410.033 58.2167 397.004 58.2267 383.975 58.2356C377.839 58.24 371.703 58.2454 365.567 58.2506C345.17 58.2676 324.772 58.2821 304.374 58.2894C299.081 58.2913 293.787 58.2932 288.494 58.2952C287.179 58.2957 285.863 58.2961 284.507 58.2966C263.196 58.3049 241.885 58.3303 220.574 58.3627C198.694 58.3958 176.813 58.4138 154.932 58.417C142.648 58.4192 130.363 58.4279 118.078 58.4535C107.616 58.4752 97.1534 58.4832 86.6909 58.4735C81.3546 58.469 76.0186 58.4709 70.6823 58.4903C65.7917 58.5079 60.9014 58.5069 56.0107 58.4914C54.2468 58.489 52.483 58.4933 50.7191 58.5052C35.7656 58.5997 22.5112 56.7604 11.0703 46.2227C1.40222 36.0774 0 25.7366 0 12Z" fill="black"/>
<path d="M303 252C317.734 264.363 327.525 282.265 329.221 301.512C330.264 324.237 324.858 343.032 309.695 360.281C295.525 374.575 277.017 382.486 256.941 383.031C235.98 382.865 218.292 375.096 203 361C188.815 346.512 182.701 327.14 182.685 307.312C182.953 288.884 189.639 272.721 202 259C202.541 258.377 203.083 257.755 203.641 257.113C229.746 228.917 273.672 230.292 303 252ZM247 263C245.637 267.006 245.838 271.122 245.832 275.309C245.829 276.112 245.825 276.916 245.822 277.744C245.817 279.441 245.815 281.138 245.815 282.835C245.813 285.425 245.794 288.014 245.775 290.604C245.772 292.255 245.77 293.907 245.77 295.559C245.762 296.33 245.755 297.101 245.748 297.895C245.772 303.52 246.281 307.233 250.25 311.312C253.611 313.375 255.122 313.712 259 313C261.924 311.28 264.529 309.383 265.659 306.064C266.227 302.625 266.163 299.167 266.168 295.691C266.171 294.888 266.175 294.084 266.178 293.256C266.183 291.559 266.185 289.862 266.185 288.165C266.187 285.575 266.206 282.986 266.225 280.396C266.228 278.745 266.23 277.093 266.23 275.441C266.238 274.67 266.245 273.899 266.252 273.105C266.228 267.48 265.719 263.767 261.75 259.687C255.416 255.8 251.687 258.204 247 263Z" fill="black"/>
<path d="M52.0001 468C186.64 468 321.28 468 460 468C460 488 460 488 457 494C451.809 499.051 446.445 500.249 439.35 500.254C438.38 500.259 438.38 500.259 437.392 500.264C435.23 500.272 433.068 500.267 430.906 500.261C429.339 500.264 427.772 500.268 426.205 500.272C421.902 500.283 417.598 500.28 413.295 500.276C408.652 500.274 404.01 500.283 399.368 500.29C390.274 500.303 381.18 500.305 372.086 500.302C364.695 500.301 357.304 500.302 349.913 500.307C348.336 500.307 348.336 500.307 346.727 500.308C344.591 500.31 342.455 500.311 340.319 500.312C320.281 500.323 300.244 500.321 280.206 500.315C261.873 500.309 243.54 500.321 225.206 500.34C206.385 500.359 187.563 500.367 168.741 500.364C158.173 500.362 147.605 500.364 137.037 500.378C128.04 500.39 119.043 500.392 110.047 500.38C105.456 500.374 100.866 500.373 96.2757 500.385C92.0725 500.395 87.8695 500.392 83.6663 500.378C82.1469 500.376 80.6274 500.378 79.1079 500.386C61.7769 500.471 61.7769 500.471 56.4587 495.583C48.969 487.089 52.0001 481.042 52.0001 468Z" fill="black"/>
<path d="M224 78C245.12 78 266.24 78 288 78C290.228 84.5175 292.455 91.035 294.75 97.75C295.444 99.7812 296.139 101.812 296.854 103.905C298.025 107.33 299.192 110.755 300.357 114.182C301.343 117.08 302.337 119.975 303.346 122.865C303.711 123.925 304.077 124.986 304.453 126.078C304.912 127.392 304.912 127.392 305.38 128.731C306 131 306 131 306 135C273 135 240 135 206 135C206.652 130.437 207.157 127.03 208.566 122.831C209.042 121.4 209.042 121.4 209.527 119.94C209.869 118.932 210.21 117.925 210.562 116.887C211.09 115.311 211.09 115.311 211.627 113.703C212.367 111.492 213.111 109.283 213.856 107.074C215.001 103.683 216.138 100.29 217.273 96.8965C217.994 94.7472 218.716 92.5981 219.438 90.4492C219.95 88.9227 219.95 88.9227 220.473 87.3654C220.79 86.4272 221.107 85.4889 221.434 84.5222C221.713 83.6951 221.992 82.8679 222.279 82.0157C223 80 223 80 224 78Z" fill="black"/>
</svg>
