<?xml version="1.0" encoding="UTF-8"?>
<svg version="1.1" xmlns="http://www.w3.org/2000/svg" width="512" height="512">
<path d="M0 0 C2.62956459 -0.00407034 5.25912747 -0.00941481 7.88868713 -0.01593018 C14.26163505 -0.02920028 20.63447637 -0.02642 27.00742829 -0.01769225 C32.19147937 -0.01088944 37.37550078 -0.01001015 42.55955505 -0.0132637 C43.67050484 -0.01395325 43.67050484 -0.01395325 44.80389807 -0.01465673 C46.30894936 -0.015616 47.81400064 -0.01658864 49.31905192 -0.0175745 C63.39887296 -0.0261087 77.4786352 -0.01632531 91.55844659 -0.0001734 C103.61337532 0.01322799 115.66821736 0.01089934 127.72314453 -0.00292969 C141.75602216 -0.01902045 155.78884838 -0.02528491 169.82173395 -0.0160929 C171.32093969 -0.01513735 172.82014544 -0.01419424 174.3193512 -0.0132637 C175.05679706 -0.01280088 175.79424293 -0.01233805 176.55403563 -0.0118612 C181.72585066 -0.00928177 186.89763281 -0.01361958 192.06944275 -0.02070236 C199.04304386 -0.03004368 206.01647943 -0.02329833 212.99006462 -0.00601959 C215.54170906 -0.00206987 218.09336733 -0.00316267 220.64500618 -0.00980759 C245.58796457 -0.06874987 265.19263521 2.92237228 284.03320312 20.32177734 C298.45996568 35.56824231 301.56705176 54.01620673 301.40942383 74.11767578 C301.40993387 75.94751103 301.41219753 77.77734649 301.4160614 79.60717773 C301.42143336 84.52797211 301.40220318 89.44838321 301.37796044 94.36910915 C301.35652787 99.53262016 301.35725402 104.69613176 301.35527039 109.85968018 C301.34884615 118.51410448 301.3276775 127.16838622 301.29614258 135.82275391 C301.25569881 146.93678058 301.23842817 158.050715 301.2288332 169.16480637 C301.22054252 178.73120097 301.20331459 188.29757603 301.18379569 197.86395359 C301.17974626 199.91568984 301.17600678 201.96742672 301.17257333 204.01916409 C301.16280043 209.85700375 301.14833254 215.69478797 301.12573433 221.53259277 C301.1196055 223.30192818 301.11515887 225.07127031 301.11249161 226.84061432 C301.10851845 229.24947924 301.09840898 231.6582401 301.08662415 234.06707764 C301.08680851 234.7718237 301.08699287 235.47656976 301.08718282 236.20267177 C301.06636462 239.21312332 300.90005332 241.506383 299.93945312 244.38818359 C296.94195343 243.77241102 294.74248865 242.82262564 292.16381836 241.1862793 C291.43276382 240.7246489 290.70170929 240.26301849 289.94850159 239.78739929 C289.16047653 239.28054092 288.37245148 238.77368256 287.56054688 238.25146484 C286.72744492 237.72023514 285.89434296 237.18900543 285.03599548 236.64167786 C273.93970091 229.52338395 263.06516925 222.07152829 252.17260742 214.6472168 C233.60482499 200.12047824 233.60482499 200.12047824 211.93945312 194.38818359 C205.04900942 196.47478123 199.29129824 200.00245661 193.20117188 203.79223633 C190.1124342 205.71370853 187.00921639 207.61161149 183.90820312 209.51318359 C183.25875732 209.91226929 182.60931152 210.31135498 181.94018555 210.72253418 C174.6547745 215.19241599 167.29772043 219.53971526 159.93945312 223.88818359 C146.08559638 232.08427125 132.30993518 240.40375344 118.56958008 248.78857422 C117.70163818 249.31644531 116.83369629 249.84431641 115.93945312 250.38818359 C115.10438232 250.97277344 114.26931152 251.55736328 113.40893555 252.15966797 C110.31239273 253.70013297 109.21730488 253.32011922 105.93945312 252.38818359 C103.77302551 251.20735168 103.77302551 251.20735168 101.58325195 249.70776367 C100.75501419 249.14660355 99.92677643 248.58544342 99.07344055 248.00727844 C98.19004501 247.39692245 97.30664948 246.78656647 96.39648438 246.15771484 C95.47284592 245.52967453 94.54920746 244.90163422 93.59757996 244.25456238 C90.64373621 242.24424943 87.6975489 240.22305807 84.75195312 238.20068359 C81.822978 236.19804605 78.89241199 234.19779546 75.95988464 232.20036316 C74.13763537 230.95829558 72.31759085 229.71298467 70.50019836 228.46382141 C54.71176861 217.47308779 54.71176861 217.47308779 36.00913811 216.91929626 C32.85564063 217.68489594 29.73711899 218.53260369 26.61499023 219.41748047 C24.84712662 219.90028221 24.84712662 219.90028221 23.04354858 220.39283752 C19.84494235 221.26919137 16.65020675 222.15769589 13.45656276 223.05184364 C10.10383475 223.98716254 6.74659498 224.9059967 3.38978577 225.82653809 C-2.95353902 227.56862529 -9.29296095 229.32447987 -15.6309666 231.08580923 C-24.95185346 233.67542181 -34.27840759 236.24448229 -43.60510159 238.81308746 C-44.98083056 239.19199656 -46.35655822 239.5709104 -47.73228455 239.9498291 C-48.73934791 240.22716125 -48.73934791 240.22716125 -49.766756 240.51009607 C-53.75892932 241.60999791 -57.74992574 242.71405036 -61.73992836 243.82180023 C-63.61871671 244.34320649 -65.49784576 244.86338457 -67.37698364 245.38352966 C-69.67024533 246.01831128 -71.96297452 246.65502087 -74.25508118 247.29396057 C-75.26004639 247.57162766 -76.2650116 247.84929474 -77.3004303 248.13537598 C-78.17659532 248.37872932 -79.05276033 248.62208267 -79.95547581 248.87281036 C-82.06054687 249.38818359 -82.06054687 249.38818359 -84.06054688 249.38818359 C-84.13074898 224.72668776 -84.18358985 200.06520698 -84.21598339 175.40363121 C-84.23142665 163.95183336 -84.25246746 152.50009774 -84.28686523 141.04833984 C-84.31684552 131.06246511 -84.33614033 121.07663546 -84.34281236 111.09071696 C-84.34671002 105.80736305 -84.3558168 100.52413808 -84.37773705 95.24082565 C-84.39823872 90.25862513 -84.40435325 85.27660554 -84.39986992 80.29436684 C-84.40068904 78.4748225 -84.4065726 76.65527153 -84.4181633 74.83576393 C-84.49961301 61.37929322 -83.88963675 48.30750586 -77.43554688 36.13818359 C-77.09072266 35.47052979 -76.74589844 34.80287598 -76.390625 34.11499023 C-73.12291651 28.0481697 -69.03703626 23.15177504 -64.06054688 18.38818359 C-63.47144531 17.76814453 -62.88234375 17.14810547 -62.27539062 16.50927734 C-58.17119765 12.477246 -53.49962411 9.77762736 -48.43554688 7.13818359 C-47.82122803 6.80866699 -47.20690918 6.47915039 -46.57397461 6.13964844 C-31.98596694 -1.08506467 -15.82198892 -0.04120324 0 0 Z M8.34179688 99.20849609 C2.96508273 107.56561724 1.83996466 115.52679224 2.93945312 125.38818359 C4.83342931 133.5244363 9.32143347 140.25229863 16.25195312 144.95849609 C24.8751449 149.92250452 33.98034723 150.96634149 43.79882812 148.73974609 C52.74177289 145.49029101 58.65264285 139.85419777 63.02929688 131.50146484 C66.36042945 123.76694673 66.22934352 113.86335203 63.37695312 106.01318359 C59.41581964 97.65231361 53.81319259 92.3078221 45.38085938 88.46630859 C31.74033229 84.19299931 17.2721279 87.6361845 8.34179688 99.20849609 Z " fill="#000000" transform="translate(126.060546875,41.61181640625)"/>
<path d="M0 0 C3.64933523 1.19467814 6.62453109 3.16344267 9.77954102 5.2956543 C10.43834763 5.7334169 11.09715424 6.1711795 11.77592468 6.62220764 C13.16102293 7.54547972 14.54345214 8.47276702 15.92333984 9.40380859 C18.04444375 10.83295584 20.1758262 12.2456867 22.30883789 13.65698242 C23.65387994 14.5564152 24.99830351 15.45677371 26.34204102 16.3581543 C26.98256912 16.78217026 27.62309723 17.20618622 28.28303528 17.64305115 C29.80153545 18.67455854 31.27103617 19.77756318 32.72875977 20.89331055 C32.72875977 21.55331055 32.72875977 22.21331055 32.72875977 22.89331055 C31.58020508 23.37799805 30.43165039 23.86268555 29.24829102 24.36206055 C-0.70449608 37.19711954 -22.13113277 56.09167314 -34.64624023 86.51831055 C-39.16024969 98.16907001 -40.68638386 109.69205436 -41.36206055 122.07910156 C-41.84281347 129.07078447 -43.3781937 134.54074208 -48.01733398 139.91674805 C-48.57549805 140.36276367 -49.13366211 140.8087793 -49.70874023 141.26831055 C-50.26432617 141.72979492 -50.81991211 142.1912793 -51.39233398 142.66674805 C-56.06697366 145.71838393 -60.35916342 146.18499227 -65.83285522 146.16073608 C-66.96269929 146.16753275 -66.96269929 146.16753275 -68.11536849 146.17446673 C-70.63532459 146.18711033 -73.15506454 146.18549034 -75.67504883 146.18383789 C-77.4839404 146.18982355 -79.29282942 146.19662918 -81.10171509 146.20419312 C-86.01550625 146.22186588 -90.92922775 146.2265493 -95.84304762 146.22782469 C-98.91783972 146.2292472 -101.99261417 146.2335189 -105.06740189 146.23881912 C-115.80902477 146.25733023 -126.55059802 146.2654892 -137.29223633 146.26391602 C-147.27879541 146.26271736 -157.26513741 146.28376272 -167.25164163 146.31540334 C-175.84214962 146.34164326 -184.43258712 146.35227994 -193.02313483 146.3510052 C-198.1460588 146.35049742 -203.26879025 146.35607676 -208.39167404 146.3773613 C-213.21971034 146.39687154 -218.04737318 146.39678159 -222.87542343 146.38232803 C-224.63649548 146.38025393 -226.39759168 146.3848562 -228.15862274 146.39704895 C-248.25261462 146.52703009 -265.17485621 141.98815453 -280.27124023 127.89331055 C-296.18070954 111.18579343 -299.99782705 92.10405451 -299.52124023 69.89331055 C-299.50110555 68.23187421 -299.48286733 66.57041378 -299.46655273 64.90893555 C-299.42319747 60.90311348 -299.35457468 56.89849205 -299.27124023 52.89331055 C-292.56916163 50.5746663 -285.80574757 48.58113319 -278.97167969 46.69116211 C-277.87784973 46.38675705 -276.78401978 46.08235199 -275.65704346 45.76872253 C-272.06702361 44.7708066 -268.47593115 43.77683745 -264.88452148 42.78393555 C-263.6535845 42.44342918 -262.42264751 42.10292282 -261.15440941 41.75209808 C-255.98441692 40.32258145 -250.81415251 38.89406872 -245.6428194 37.46940994 C-238.25895704 35.43515737 -230.87752536 33.39254108 -223.49918395 31.33835053 C-217.6645558 29.71475742 -211.82628652 28.10466321 -205.98662376 26.49925995 C-203.50913983 25.81604327 -201.03280866 25.12863213 -198.5576725 24.43695831 C-195.10238402 23.47237715 -191.64318937 22.52330168 -188.18261719 21.57788086 C-187.16169479 21.28912582 -186.1407724 21.00037079 -185.08891296 20.7028656 C-179.15015013 19.10129811 -174.70984812 18.12223198 -169.00474548 21.0606842 C-168.29338943 21.54951584 -167.58203339 22.03834747 -166.84912109 22.54199219 C-165.62140236 23.3740493 -165.62140236 23.3740493 -164.36888123 24.22291565 C-163.50005814 24.82699753 -162.63123505 25.43107941 -161.73608398 26.0534668 C-160.82097549 26.67676376 -159.905867 27.30006073 -158.96302795 27.94224548 C-156.03808524 29.93696505 -153.12309912 31.94566687 -150.20874023 33.95581055 C-128.07553402 51.83741299 -128.07553402 51.83741299 -102.11401367 58.6472168 C-96.15965695 57.06811567 -91.09017191 53.60775647 -85.89624023 50.39331055 C-84.61638173 49.62003145 -83.33551701 48.84841559 -82.05371094 48.07836914 C-78.7528266 46.08957305 -75.46528273 44.07981103 -72.18109131 42.06359863 C-69.21903091 40.2485545 -66.24710833 38.44989175 -63.27514648 36.65112305 C-59.28768889 34.23527669 -55.30365006 31.81402843 -51.3236084 29.38598633 C-41.24517563 23.24226967 -31.08938986 17.22946625 -20.92822266 11.22387695 C-19.95782295 10.64949387 -19.95782295 10.64949387 -18.96781921 10.06350708 C-17.72044479 9.32591714 -16.47203167 8.5900804 -15.2224884 7.85617065 C-11.95898845 5.93149682 -8.79574923 3.91123122 -5.66186523 1.78393555 C-2.27124023 -0.10668945 -2.27124023 -0.10668945 0 0 Z " fill="#000000" transform="translate(341.271240234375,281.106689453125)"/>
<path d="M0 0 C3.63830022 3.1962175 7.06037605 6.59236723 10.484375 10.015625 C11.47198478 10.99611633 12.45988501 11.97631517 13.44805908 12.95623779 C15.50718349 15.00198996 17.56036239 17.05349549 19.60986328 19.10888672 C22.22100941 21.72593328 24.84996453 24.32424367 27.48415756 26.91806412 C29.52621261 28.9341233 31.55653368 30.96169635 33.5838089 32.99260712 C35.01212139 34.41843193 36.45146495 35.83317932 37.89105225 37.24761963 C43.79950465 43.21892067 48.06262586 48.63766853 49.53125 57.0390625 C49.44262409 64.37285656 48.25374449 68.61472116 43.1640625 73.91015625 C37.56983992 79.12928728 32.71372582 81.27539924 24.9453125 81.1953125 C23.83671875 81.18886719 22.728125 81.18242187 21.5859375 81.17578125 C19.87277344 81.15064453 19.87277344 81.15064453 18.125 81.125 C16.9596875 81.11597656 15.794375 81.10695313 14.59375 81.09765625 C11.72895423 81.07417432 8.86458465 81.04133141 6 81 C6.00888245 81.58358276 6.01776489 82.16716553 6.0269165 82.76843262 C6.11573525 88.86830809 6.17587693 94.96799844 6.21972656 101.06835938 C6.23978317 103.34187284 6.26703538 105.6153351 6.30175781 107.88867188 C6.35053712 111.16549349 6.37302897 114.44163025 6.390625 117.71875 C6.41127014 118.72740112 6.43191528 119.73605225 6.45318604 120.77526855 C6.45568301 128.71265703 4.84926094 134.08598313 -0.75 139.8125 C-6.6879721 143.80921199 -12.71167065 146.20785872 -20 145 C-27.47862202 142.85961073 -32.14815838 138.84639879 -36.06027222 132.19818115 C-37.15326646 129.64148399 -37.24135226 127.82233869 -37.22705078 125.04785156 C-37.22689972 124.06713684 -37.22674866 123.08642212 -37.22659302 122.07598877 C-37.21627045 121.02481873 -37.20594788 119.97364868 -37.1953125 118.890625 C-37.1924826 117.80867859 -37.18965271 116.72673218 -37.18673706 115.61199951 C-37.17554609 112.15788696 -37.1504432 108.70403412 -37.125 105.25 C-37.11496881 102.90755583 -37.1058432 100.56510759 -37.09765625 98.22265625 C-37.0756103 92.48168229 -37.04214334 86.7408597 -37 81 C-38.84000651 81.03873698 -40.68001302 81.07747396 -42.52001953 81.11621094 C-44.14982758 81.149505 -44.14982758 81.149505 -45.81256104 81.18347168 C-48.06001683 81.23229533 -50.30722362 81.2929572 -52.55419922 81.36035156 C-60.14631358 81.43695223 -67.55536812 80.69903732 -73.61254883 75.65795898 C-78.63928971 70.07917507 -80.31077325 64.10958563 -80.49609375 56.8203125 C-78.7693285 47.00358407 -72.68573282 40.96803856 -65.79296875 34.19921875 C-64.78324625 33.19121126 -63.77441692 32.18230838 -62.76643372 31.17256165 C-60.66181803 29.06959048 -58.54902366 26.9753364 -56.42944336 24.88745117 C-53.7259709 22.2237042 -51.04055786 19.54259919 -48.36063671 16.85518169 C-46.28254185 14.77400401 -44.19689332 12.70053485 -42.10875893 10.62943459 C-41.11619188 9.64384939 -40.1255177 8.6563538 -39.1368618 7.66684532 C-27.09860046 -4.35564879 -15.21842167 -11.12638351 0 0 Z " fill="#000000" transform="translate(421,325)"/>
</svg>
