<svg width="24" height="24" viewBox="0 0 24 24" fill="none" xmlns="http://www.w3.org/2000/svg">
<g clip-path="url(#clip0_97_24)">
<path d="M6.19302 0.924639C6.25978 0.92443 6.32654 0.924181 6.3933 0.923895C6.57591 0.923233 6.75852 0.923152 6.94113 0.923173C7.13842 0.923095 7.3357 0.922482 7.53299 0.921945C7.96397 0.920876 8.39496 0.920503 8.82595 0.920266C9.09531 0.920113 9.36466 0.919807 9.63402 0.919469C10.3805 0.918552 11.127 0.917783 11.8735 0.917647C11.9212 0.917638 11.969 0.917629 12.0181 0.91762C12.1149 0.917603 12.2116 0.917586 12.3084 0.917569C12.3804 0.917556 12.3804 0.917556 12.4539 0.917543C12.526 0.91753 12.526 0.91753 12.5996 0.917517C13.3784 0.917351 14.1572 0.916085 14.936 0.914332C15.7366 0.912545 16.5371 0.911639 17.3377 0.911625C17.7868 0.911598 18.2359 0.911203 18.6849 0.909844C19.0674 0.908692 19.4498 0.908355 19.8323 0.909059C20.0272 0.909393 20.2221 0.909359 20.417 0.908289C20.5959 0.907317 20.7747 0.907453 20.9536 0.908424C21.048 0.908663 21.1424 0.90776 21.2368 0.906799C22.0388 0.914098 22.7526 1.22726 23.3381 1.76897C23.7515 2.20086 24.0153 2.81247 24.0126 3.40863C24.0128 3.44358 24.013 3.47853 24.0132 3.51454C24.0138 3.63088 24.0137 3.7472 24.0137 3.86354C24.0139 3.94726 24.0143 4.03098 24.0146 4.11469C24.0154 4.34151 24.0157 4.56831 24.0157 4.79512C24.0158 4.93685 24.016 5.07857 24.0162 5.2203C24.0171 5.71476 24.0175 6.20922 24.0174 6.70369C24.0174 7.16463 24.0183 7.62556 24.0198 8.0865C24.0211 8.48241 24.0216 8.87831 24.0215 9.27422C24.0215 9.51062 24.0217 9.74701 24.0227 9.98341C24.0236 10.2056 24.0236 10.4277 24.023 10.6499C24.0229 10.7314 24.0231 10.8129 24.0237 10.8945C24.0244 11.0058 24.0239 11.117 24.0232 11.2283C24.0237 11.2605 24.0242 11.2928 24.0247 11.3261C24.0224 11.484 24.0018 11.5753 23.9195 11.7113C23.7069 11.9124 23.5021 11.9198 23.2202 11.9169C23.1674 11.9169 23.1674 11.9169 23.1134 11.9169C22.9975 11.9169 22.8816 11.9161 22.7657 11.9154C22.6851 11.9152 22.6045 11.9151 22.524 11.915C22.3123 11.9146 22.1006 11.9137 21.8889 11.9127C21.6727 11.9117 21.4565 11.9113 21.2404 11.9108C20.8165 11.9098 20.3926 11.9082 19.9688 11.9062C19.9689 11.9669 19.9689 11.9669 19.9691 12.0287C19.9711 13.0148 19.9727 14.0008 19.9736 14.9868C19.9741 15.4636 19.9748 15.9405 19.9759 16.4173C19.9768 16.8332 19.9774 17.2491 19.9776 17.665C19.9777 17.8849 19.978 18.1049 19.9787 18.3249C19.9793 18.5324 19.9795 18.74 19.9794 18.9476C19.9794 19.0232 19.9796 19.0989 19.98 19.1746C19.9851 20.3027 19.8037 21.2568 19.0014 22.1089C18.3586 22.7464 17.5669 23.0747 16.6582 23.0813C16.6046 23.081 16.5509 23.0807 16.4957 23.0803C16.4077 23.0807 16.4077 23.0807 16.3179 23.081C16.1569 23.0816 15.9959 23.0813 15.835 23.0809C15.6606 23.0806 15.4863 23.081 15.3119 23.0814C14.9711 23.0821 14.6303 23.0819 14.2895 23.0815C14.0124 23.0812 13.7352 23.0812 13.4581 23.0813C13.4185 23.0813 13.379 23.0814 13.3382 23.0814C13.2579 23.0814 13.1775 23.0815 13.0972 23.0815C12.3448 23.0819 11.5925 23.0815 10.8401 23.0807C10.1956 23.0801 9.55103 23.0802 8.90647 23.0808C8.1567 23.0816 7.40693 23.0819 6.65716 23.0814C6.5771 23.0814 6.49705 23.0814 6.41699 23.0813C6.35792 23.0813 6.35792 23.0813 6.29765 23.0812C6.02106 23.0811 5.74447 23.0813 5.46787 23.0817C5.13048 23.0821 4.79309 23.0819 4.45569 23.0812C4.28378 23.0808 4.11187 23.0807 3.93996 23.0811C3.7531 23.0816 3.56625 23.081 3.37939 23.0803C3.32577 23.0807 3.27215 23.081 3.2169 23.0813C2.71186 23.0777 2.22497 22.9887 1.77543 22.7519C1.74401 22.7357 1.71259 22.7195 1.68022 22.7028C1.063 22.3724 0.631798 21.9045 0.313518 21.2871C0.290615 21.2433 0.290615 21.2433 0.267249 21.1986C0.0159811 20.6858 -0.021806 20.1617 -0.0202836 19.5998C-0.020498 19.5297 -0.0207468 19.4596 -0.0210282 19.3895C-0.0214436 19.2438 -0.0213367 19.0981 -0.0208673 18.9523C-0.0203251 18.7659 -0.0212832 18.5796 -0.0226447 18.3931C-0.0235049 18.2489 -0.0234917 18.1047 -0.023224 17.9604C-0.0232169 17.8917 -0.0234991 17.8229 -0.0240816 17.7541C-0.0247808 17.6582 -0.0242802 17.5624 -0.0234765 17.4665C-0.0234687 17.4121 -0.0234609 17.3577 -0.0234529 17.3017C0.00572669 17.1211 0.054946 17.047 0.187541 16.9219C0.382035 16.8335 0.551193 16.8166 0.763202 16.8175C0.84904 16.8175 0.84904 16.8175 0.936613 16.8175C1.02825 16.8182 1.02825 16.8182 1.12175 16.819C1.18545 16.8191 1.24916 16.8193 1.31286 16.8194C1.47978 16.8197 1.64669 16.8206 1.8136 16.8217C1.98423 16.8226 2.15485 16.8231 2.32548 16.8235C2.65971 16.8245 2.99394 16.8261 3.32817 16.8281C3.32806 16.7703 3.32795 16.7124 3.32784 16.6528C3.32471 14.7746 3.33515 12.8967 3.34867 11.0185C3.34894 10.9813 3.34921 10.9441 3.34949 10.9057C3.35468 10.1833 3.35997 9.46089 3.36547 8.7385C3.3666 8.59086 3.36772 8.44322 3.36884 8.29558C3.36911 8.25957 3.36938 8.22355 3.36967 8.18644C3.37381 7.63796 3.37739 7.08948 3.38061 6.54099C3.38311 6.12033 3.38604 5.69967 3.38941 5.27901C3.39126 5.04558 3.3929 4.81216 3.39395 4.57873C3.39491 4.36573 3.3965 4.15274 3.3986 3.93975C3.39924 3.86405 3.39965 3.78836 3.39979 3.71266C3.40163 2.90281 3.56303 2.23936 4.12779 1.63164C4.73483 1.06613 5.38543 0.92315 6.19302 0.924639ZM4.83696 2.52538C4.45059 2.998 4.49343 3.56538 4.49042 4.14735C4.48995 4.20399 4.48949 4.26063 4.48901 4.31898C4.48779 4.47459 4.48676 4.63019 4.48582 4.7858C4.48499 4.91939 4.484 5.05297 4.48302 5.18655C4.48034 5.54885 4.47798 5.91115 4.47578 6.27345C4.47416 6.5393 4.47244 6.80514 4.47067 7.07098C4.44913 10.3234 4.44792 13.5757 4.45317 16.8281C4.52627 16.8283 4.52627 16.8283 4.60086 16.8286C5.78665 16.8324 6.97243 16.8367 8.15822 16.8416C8.73165 16.8439 9.30509 16.8461 9.87852 16.8479C10.3783 16.8494 10.8781 16.8513 11.3779 16.8536C11.6425 16.8547 11.9072 16.8558 12.1718 16.8564C12.421 16.857 12.6701 16.858 12.9192 16.8594C13.0106 16.8598 13.102 16.8601 13.1934 16.8602C13.3183 16.8603 13.4432 16.8611 13.5681 16.8619C13.6222 16.8618 13.6222 16.8618 13.6774 16.8617C13.9002 16.864 14.0871 16.8912 14.2969 16.9687C14.4475 17.2173 14.4046 17.5565 14.4051 17.8389C14.4063 17.9567 14.4075 18.0746 14.4087 18.1924C14.41 18.377 14.4112 18.5617 14.4121 18.7463C14.4131 18.9252 14.4149 19.1042 14.4168 19.2832C14.4169 19.3645 14.4169 19.3645 14.4169 19.4474C14.426 20.2113 14.592 20.7981 15.1161 21.358C15.5615 21.775 16.1138 22.0048 16.726 21.991C17.3531 21.9505 17.8998 21.6757 18.3225 21.2155C18.7829 20.6516 18.8653 20.0783 18.8619 19.3651C18.862 19.2962 18.8623 19.2273 18.8626 19.1584C18.8633 18.9705 18.8631 18.7825 18.8627 18.5946C18.8625 18.3914 18.8631 18.1882 18.8636 17.985C18.8643 17.6332 18.8646 17.2815 18.8645 16.9298C18.8644 16.4206 18.8651 15.9114 18.8661 15.4023C18.8677 14.5753 18.8687 13.7483 18.8693 12.9213C18.8693 12.8471 18.8693 12.8471 18.8694 12.7715C18.8695 12.5711 18.8697 12.3708 18.8698 12.1705C18.8702 11.6191 18.8707 11.0676 18.8713 10.5162C18.8713 10.4668 18.8714 10.4174 18.8714 10.3666C18.8723 9.54255 18.8735 8.71854 18.875 7.89453C18.8758 7.38678 18.8763 6.87903 18.8764 6.37128C18.8764 6.02332 18.8768 5.67536 18.8774 5.3274C18.8778 5.12682 18.878 4.92625 18.8778 4.72568C18.8776 4.54178 18.8778 4.35789 18.8784 4.174C18.8785 4.10776 18.8785 4.04152 18.8783 3.97529C18.8768 3.475 18.8922 2.97452 19.0987 2.51073C19.1179 2.46632 19.1372 2.42191 19.1571 2.37615C19.2182 2.25122 19.2872 2.13438 19.3594 2.01561C17.6476 2.01347 15.9357 2.01182 14.2239 2.01083C14.0217 2.01071 13.8195 2.01059 13.6173 2.01047C13.5771 2.01044 13.5368 2.01042 13.4954 2.01039C12.844 2.00998 12.1926 2.00924 11.5412 2.00838C10.8726 2.0075 10.204 2.00698 9.53547 2.00679C9.12305 2.00667 8.71063 2.00626 8.29821 2.0055C8.01525 2.005 7.73229 2.00485 7.44933 2.00497C7.28617 2.00503 7.12302 2.00494 6.95986 2.00444C6.78267 2.00397 6.60549 2.00409 6.4283 2.00434C6.35155 2.00393 6.35155 2.00393 6.27326 2.00351C5.69192 2.00578 5.24313 2.08692 4.83696 2.52538ZM20.4551 2.42284C20.1848 2.68606 19.986 3.00575 19.9573 3.38757C19.9573 3.44331 19.9574 3.49905 19.9575 3.55647C19.9574 3.58772 19.9574 3.61897 19.9573 3.65117C19.9571 3.75524 19.9576 3.8593 19.9581 3.96338C19.9582 4.03823 19.9582 4.11309 19.9581 4.18794C19.9581 4.39073 19.9586 4.5935 19.9593 4.79628C19.9599 5.00836 19.9599 5.22044 19.96 5.43252C19.9603 5.83393 19.9611 6.23534 19.962 6.63674C19.9631 7.09382 19.9636 7.55089 19.9641 8.00796C19.9651 8.94801 19.9668 9.88806 19.9688 10.8281C20.9433 10.8281 21.9179 10.8281 22.9219 10.8281C22.9262 9.85914 22.9296 8.89018 22.9316 7.92119C22.9326 7.47125 22.9339 7.0213 22.9361 6.57136C22.9379 6.17903 22.9391 5.78671 22.9396 5.39438C22.9398 5.18678 22.9404 4.97919 22.9417 4.7716C22.943 4.57588 22.9434 4.38017 22.9431 4.18445C22.9432 4.11293 22.9435 4.04141 22.9443 3.9699C22.9496 3.41468 22.8947 2.93483 22.4967 2.51806C21.8594 1.95034 21.148 1.97744 20.4551 2.42284ZM1.07817 17.9531C0.956609 19.8814 0.956609 19.8814 1.75987 21.408C2.25331 21.8692 2.84837 21.9921 3.50249 21.99C3.5481 21.99 3.5937 21.9901 3.64069 21.9901C3.79335 21.9902 3.946 21.9899 4.09865 21.9897C4.20814 21.9897 4.31764 21.9897 4.42713 21.9897C4.72433 21.9897 5.02153 21.9894 5.31874 21.9891C5.59788 21.9889 5.87702 21.9888 6.15617 21.9888C6.70897 21.9887 7.26177 21.9883 7.81457 21.9879C8.35148 21.9875 8.88839 21.9871 9.4253 21.9869C9.47497 21.9869 9.47497 21.9869 9.52564 21.9869C9.69174 21.9868 9.85785 21.9868 10.024 21.9867C11.4014 21.9862 12.7788 21.9854 14.1563 21.9844C14.1269 21.9327 14.0974 21.881 14.0671 21.8277C14.0506 21.7986 14.034 21.7695 14.017 21.7396C13.9565 21.635 13.8923 21.533 13.8282 21.4307C13.1865 20.3595 13.3854 19.2261 13.3594 17.9531C9.3066 17.9531 5.25379 17.9531 1.07817 17.9531Z" fill="black"/>
<path d="M7.08116 9.32154C7.11956 9.3214 7.15796 9.32126 7.19753 9.32112C7.32639 9.32071 7.45524 9.32064 7.5841 9.32057C7.67642 9.32035 7.76874 9.32012 7.86106 9.31987C8.112 9.31925 8.36294 9.31895 8.61388 9.31874C8.77064 9.3186 8.9274 9.31841 9.08417 9.3182C9.57459 9.31756 10.065 9.31711 10.5555 9.31693C11.1217 9.31672 11.6879 9.31589 12.2541 9.31454C12.6917 9.31352 13.1293 9.31305 13.567 9.31299C13.8284 9.31294 14.0897 9.31266 14.3511 9.31182C14.597 9.31105 14.8429 9.31095 15.0888 9.31136C15.179 9.3114 15.2692 9.31119 15.3594 9.31073C15.4826 9.31013 15.6059 9.31041 15.7291 9.3109C15.7647 9.31052 15.8003 9.31014 15.8369 9.30975C16.0751 9.31196 16.2417 9.35672 16.4531 9.46875C16.5783 9.63306 16.6045 9.76241 16.5938 9.96387C16.5615 10.1741 16.4855 10.2775 16.3125 10.4062C16.1303 10.4738 15.9365 10.4599 15.7449 10.4597C15.6869 10.4599 15.6869 10.4599 15.6278 10.4601C15.4982 10.4605 15.3686 10.4606 15.239 10.4607C15.1461 10.4609 15.0533 10.4611 14.9604 10.4614C14.708 10.462 14.4556 10.4623 14.2032 10.4625C14.0456 10.4626 13.888 10.4628 13.7303 10.463C13.2372 10.4637 12.7441 10.4641 12.251 10.4643C11.6815 10.4645 11.1121 10.4654 10.5426 10.4667C10.1026 10.4677 9.66255 10.4682 9.22249 10.4683C8.9596 10.4683 8.69672 10.4686 8.43383 10.4694C8.18659 10.4702 7.93936 10.4703 7.69212 10.4699C7.60138 10.4699 7.51064 10.4701 7.4199 10.4705C7.29602 10.4711 7.17216 10.4708 7.04828 10.4704C7.01238 10.4707 6.97649 10.4711 6.93951 10.4715C6.67695 10.4691 6.47839 10.4159 6.29004 10.2275C6.21695 10.0929 6.19353 9.99756 6.1875 9.84375C6.25585 9.63152 6.3159 9.48394 6.51562 9.375C6.69952 9.31145 6.88905 9.32132 7.08116 9.32154Z" fill="black"/>
<path d="M6.90643 13.1065C6.9462 13.1063 6.98598 13.106 7.02696 13.1057C7.16047 13.1049 7.29396 13.1051 7.42747 13.1053C7.5231 13.105 7.61873 13.1046 7.71435 13.1041C7.9743 13.1031 8.23424 13.103 8.49418 13.103C8.71109 13.1031 8.92799 13.1027 9.1449 13.1023C9.65659 13.1014 10.1683 13.1012 10.68 13.1015C11.208 13.1019 11.7361 13.1008 12.2641 13.099C12.7173 13.0976 13.1705 13.0971 13.6237 13.0973C13.8945 13.0974 14.1652 13.0971 14.436 13.0959C14.6906 13.0949 14.9452 13.095 15.1998 13.0959C15.2933 13.0961 15.3868 13.0959 15.4802 13.0952C15.6078 13.0943 15.7353 13.0949 15.8629 13.0959C15.8999 13.0953 15.9369 13.0947 15.975 13.0941C16.1624 13.0971 16.2792 13.1172 16.4285 13.2352C16.5681 13.3817 16.5896 13.456 16.6084 13.6553C16.5909 13.8622 16.5409 13.953 16.4062 14.1094C16.2046 14.2187 16.0061 14.2165 15.7822 14.2154C15.7236 14.2156 15.7236 14.2156 15.6638 14.2159C15.5329 14.2164 15.4021 14.2162 15.2712 14.216C15.1773 14.2162 15.0834 14.2165 14.9896 14.2168C14.7347 14.2174 14.4798 14.2174 14.2249 14.2173C14.0122 14.2172 13.7994 14.2175 13.5867 14.2177C13.085 14.2182 12.5833 14.2182 12.0815 14.2179C11.5637 14.2177 11.0458 14.2182 10.5279 14.2192C10.0835 14.2201 9.63899 14.2203 9.19452 14.2202C8.92899 14.2201 8.66346 14.2202 8.39793 14.2209C8.1483 14.2215 7.89869 14.2214 7.64906 14.2208C7.55739 14.2207 7.46573 14.2208 7.37406 14.2212C7.24903 14.2217 7.12404 14.2213 6.99901 14.2207C6.94447 14.2212 6.94447 14.2212 6.88882 14.2217C6.67744 14.2196 6.54408 14.1912 6.375 14.0625C6.23574 13.9183 6.19534 13.7937 6.1875 13.5938C6.32124 13.1785 6.48825 13.1037 6.90643 13.1065Z" fill="black"/>
<path d="M6.8688 5.57155C6.91237 5.57129 6.95593 5.57102 7.00082 5.57074C7.04853 5.57069 7.09623 5.57064 7.14538 5.57058C7.1957 5.57035 7.24602 5.57012 7.29786 5.56988C7.46467 5.56919 7.63147 5.56887 7.79828 5.56862C7.91406 5.56835 8.02984 5.56808 8.14562 5.56781C8.38856 5.56731 8.63149 5.56704 8.87442 5.56688C9.18574 5.56662 9.49704 5.56549 9.80835 5.56416C10.0476 5.56329 10.2868 5.56304 10.526 5.56297C10.6408 5.56283 10.7556 5.56245 10.8703 5.56184C11.0309 5.56104 11.1915 5.56112 11.352 5.56143C11.3995 5.561 11.4469 5.56056 11.4957 5.56012C11.7454 5.5616 11.9265 5.57497 12.1406 5.71876C12.2619 5.88309 12.2928 6.01388 12.2842 6.21388C12.2601 6.37276 12.2238 6.45631 12.1025 6.56251C11.9126 6.68171 11.776 6.70893 11.5546 6.7094C11.5125 6.7096 11.4705 6.7098 11.4271 6.71001C11.3813 6.70999 11.3356 6.70997 11.2884 6.70995C11.2399 6.7101 11.1914 6.71026 11.1414 6.71042C10.981 6.71087 10.8205 6.71096 10.66 6.71101C10.5485 6.71116 10.437 6.71132 10.3255 6.71148C10.0917 6.71176 9.85785 6.71185 9.62402 6.71182C9.32443 6.71182 9.02484 6.71246 8.72525 6.71327C8.49491 6.71379 8.26457 6.71388 8.03423 6.71386C7.92378 6.71391 7.81333 6.71412 7.70288 6.71448C7.54837 6.71494 7.39388 6.71481 7.23937 6.71452C7.19378 6.71479 7.14818 6.71505 7.10121 6.71532C6.80439 6.71394 6.5766 6.69567 6.33691 6.50392C6.21847 6.35502 6.1875 6.28338 6.1875 6.09376C6.25619 5.88047 6.31689 5.7368 6.51562 5.62501C6.64863 5.58068 6.73095 5.57206 6.8688 5.57155Z" fill="black"/>
</g>
<defs>
<clipPath id="clip0_97_24">
<rect width="24" height="24" fill="white"/>
</clipPath>
</defs>
</svg>
