<svg width="24" height="24" viewBox="0 0 24 24" fill="none" xmlns="http://www.w3.org/2000/svg">
<g clip-path="url(#clip0_97_37)">
<path d="M5.60015 1.00872C5.663 1.00864 5.72586 1.00848 5.78872 1.00824C5.96029 1.00782 6.13185 1.00856 6.30342 1.00951C6.48887 1.01032 6.67432 1.01004 6.85977 1.0099C7.18069 1.0098 7.5016 1.01039 7.82252 1.01145C8.28651 1.01297 8.7505 1.01346 9.21449 1.01369C9.96737 1.0141 10.7202 1.01535 11.4731 1.01712C12.2043 1.01885 12.9354 1.02017 13.6666 1.02097C13.7342 1.02104 13.7342 1.02104 13.8033 1.02112C14.0295 1.02136 14.2558 1.0216 14.4821 1.02183C16.3579 1.02378 18.2338 1.02708 20.1096 1.03127C20.0409 1.20662 19.9627 1.37126 19.8752 1.53811C19.5809 2.12391 19.587 2.72526 19.5878 3.36777C19.5877 3.44334 19.5876 3.5189 19.5875 3.59446C19.5873 3.75827 19.5872 3.92208 19.5873 4.08589C19.5874 4.35246 19.5871 4.61904 19.5868 4.88561C19.5865 5.27265 19.5862 5.65969 19.5861 6.04673C19.5858 6.65869 19.585 7.27066 19.5841 7.88263C19.5838 8.09215 19.5835 8.30166 19.5832 8.51117C19.5832 8.56353 19.5831 8.61588 19.583 8.66983C19.5822 9.26541 19.5814 9.86099 19.5807 10.4566C19.5807 10.511 19.5806 10.5654 19.5805 10.6215C19.5795 11.5036 19.579 12.3857 19.5786 13.2679C19.5783 14.1741 19.5772 15.0803 19.5754 15.9865C19.5744 16.5452 19.574 17.1038 19.5743 17.6625C19.5744 18.0454 19.5739 18.4283 19.5728 18.8112C19.5722 19.032 19.5719 19.2528 19.5725 19.4736C19.5729 19.676 19.5725 19.8784 19.5715 20.0807C19.5712 20.1537 19.5713 20.2267 19.5718 20.2996C19.5761 21.0893 19.3629 21.7182 18.8174 22.2959C18.3424 22.7557 17.7739 22.9898 17.1155 22.9893C16.401 22.9716 15.7998 22.7236 15.2815 22.2188C14.7236 21.564 14.6118 20.8676 14.6124 20.0323C14.612 19.9675 14.6115 19.9027 14.611 19.8379C14.6089 19.5654 14.6077 19.2928 14.6074 19.0202C14.6071 18.8525 14.606 18.6847 14.6043 18.517C14.6036 18.4228 14.604 18.3287 14.6043 18.2345C14.6074 17.8182 14.6074 17.8182 14.3909 17.4844C14.176 17.368 13.9676 17.3771 13.7297 17.3776C13.6866 17.3773 13.6435 17.377 13.5991 17.3768C13.4548 17.376 13.3104 17.3758 13.166 17.3757C13.0625 17.3753 12.959 17.3748 12.8556 17.3743C12.5745 17.373 12.2935 17.3723 12.0125 17.3717C11.7188 17.3709 11.4251 17.3697 11.1315 17.3685C10.6386 17.3665 10.1456 17.3649 9.65271 17.3635C9.14504 17.3621 8.63736 17.3605 8.12969 17.3586C8.09839 17.3585 8.06709 17.3584 8.03484 17.3583C7.8778 17.3577 7.72077 17.3571 7.56373 17.3565C6.26132 17.3517 4.9589 17.3475 3.65648 17.3438C3.6543 15.6476 3.65398 13.9516 3.66509 12.2555C3.66531 12.2215 3.66553 12.1875 3.66576 12.1526C3.66898 11.664 3.67253 11.1755 3.67618 10.687C3.677 10.5777 3.67781 10.4684 3.67862 10.3591C3.68357 9.68907 3.68857 9.01899 3.69379 8.34892C3.69952 7.61129 3.70478 6.87367 3.70893 6.13603C3.71145 5.68931 3.71439 5.2426 3.71772 4.79589C3.71958 4.54447 3.72121 4.29305 3.72226 4.04163C3.72322 3.81169 3.72482 3.58175 3.72691 3.35182C3.72755 3.26955 3.72796 3.18728 3.72811 3.105C3.72948 2.44099 3.77464 1.91989 4.24681 1.4211C4.63788 1.05125 5.08184 1.0038 5.60015 1.00872ZM5.81273 5.20314C5.68653 5.39244 5.68217 5.54328 5.71898 5.76564C5.79802 5.92644 5.90528 6.02467 6.06927 6.10047C6.30212 6.15705 6.52596 6.15408 6.76478 6.15352C6.84428 6.15388 6.84428 6.15388 6.9254 6.15425C7.10035 6.1549 7.27529 6.15485 7.45024 6.15474C7.57202 6.15493 7.69379 6.15513 7.81556 6.15535C8.0707 6.1557 8.32584 6.15569 8.58098 6.15544C8.87536 6.15516 9.16974 6.15574 9.46413 6.15673C9.748 6.15766 10.0319 6.1578 10.3157 6.15764C10.4362 6.15766 10.5567 6.15791 10.6772 6.15838C10.8457 6.15896 11.0142 6.15864 11.1827 6.1581C11.2324 6.15845 11.2821 6.15881 11.3332 6.15918C11.6632 6.15683 11.915 6.13215 12.1584 5.88869C12.2398 5.7572 12.2778 5.68572 12.2815 5.53127C12.2175 5.31676 12.1463 5.17378 11.9532 5.05334C11.7473 4.97039 11.5215 4.9898 11.3029 4.99138C11.247 4.99105 11.1912 4.99073 11.1337 4.99039C10.9812 4.9897 10.8286 4.98986 10.6761 4.99046C10.5161 4.99093 10.3562 4.99049 10.1962 4.9902C9.92764 4.98986 9.65907 4.99031 9.3905 4.9912C9.08039 4.99222 8.77031 4.99189 8.46021 4.99086C8.19352 4.99001 7.92684 4.98989 7.66015 4.99038C7.50106 4.99067 7.34198 4.99071 7.18289 4.99009C7.00548 4.98961 6.82812 4.99034 6.65071 4.99138C6.59825 4.991 6.54579 4.99062 6.49174 4.99023C6.20467 4.99336 6.02914 5.0074 5.81273 5.20314ZM5.81273 9.32814C5.68653 9.51744 5.68217 9.66828 5.71898 9.89064C5.79949 10.0544 5.90754 10.1519 6.07618 10.2255C6.27268 10.2753 6.45233 10.2788 6.65416 10.2779C6.71677 10.2781 6.71677 10.2781 6.78064 10.2784C6.92022 10.2789 7.05979 10.2787 7.19938 10.2785C7.29956 10.2787 7.39975 10.279 7.49993 10.2792C7.77188 10.2799 8.04383 10.2799 8.31578 10.2798C8.54282 10.2797 8.76986 10.28 8.9969 10.2802C9.53251 10.2807 10.0681 10.2807 10.6037 10.2804C11.1563 10.2802 11.7088 10.2807 12.2614 10.2817C12.7358 10.2826 13.2103 10.2828 13.6847 10.2827C13.9681 10.2826 14.2514 10.2827 14.5348 10.2834C14.8012 10.284 15.0677 10.2839 15.3341 10.2833C15.4318 10.2832 15.5296 10.2833 15.6273 10.2837C15.7609 10.2842 15.8943 10.2838 16.0278 10.2832C16.0858 10.2837 16.0858 10.2837 16.1449 10.2842C16.4419 10.2815 16.6657 10.226 16.8957 10.0254C16.9976 9.83797 17.0137 9.67756 16.969 9.46877C16.8547 9.32363 16.747 9.24269 16.594 9.14064C16.4547 9.13134 16.3197 9.12761 16.1803 9.12811C16.1375 9.1279 16.0947 9.12768 16.0506 9.12746C15.9066 9.12687 15.7626 9.12695 15.6186 9.12703C15.5156 9.12675 15.4126 9.12643 15.3096 9.12607C15.0293 9.12524 14.749 9.12502 14.4687 9.12496C14.2349 9.12487 14.0011 9.12453 13.7673 9.1242C13.2473 9.12348 12.7273 9.1232 12.2073 9.12326C12.1605 9.12327 12.1605 9.12327 12.1127 9.12327C12.0659 9.12328 12.0659 9.12328 12.018 9.12328C11.5117 9.12332 11.0054 9.12242 10.4991 9.1211C9.97926 9.11976 9.45942 9.11913 8.93957 9.11919C8.6477 9.11921 8.35584 9.11894 8.06398 9.11795C7.78946 9.11705 7.51495 9.11704 7.24043 9.11772C7.13964 9.11782 7.03885 9.1176 6.93806 9.11703C6.80051 9.11631 6.66302 9.11674 6.52548 9.11747C6.48554 9.11698 6.4456 9.1165 6.40445 9.116C6.15428 9.11892 6.01047 9.16089 5.81273 9.32814ZM5.81273 13.4531C5.68705 13.6417 5.68085 13.794 5.71898 14.0156C5.79917 14.1596 5.89756 14.269 6.04711 14.3438C6.18465 14.3488 6.3211 14.3509 6.45867 14.351C6.50181 14.3512 6.54495 14.3514 6.5894 14.3516C6.73485 14.3522 6.8803 14.3525 7.02576 14.3528C7.12969 14.3532 7.23361 14.3536 7.33754 14.354C7.67961 14.3552 8.02168 14.3559 8.36376 14.3566C8.48137 14.3568 8.59899 14.3571 8.7166 14.3573C9.20573 14.3584 9.69486 14.3592 10.184 14.3598C10.311 14.3599 10.4379 14.36 10.5649 14.3602C10.6122 14.3602 10.6122 14.3602 10.6605 14.3603C11.1717 14.3609 11.6828 14.3624 12.194 14.3644C12.7187 14.3664 13.2434 14.3675 13.7681 14.3677C14.0628 14.3679 14.3574 14.3685 14.6521 14.37C14.9292 14.3714 15.2064 14.3717 15.4836 14.3711C15.5853 14.3711 15.6871 14.3715 15.7889 14.3723C15.9278 14.3734 16.0666 14.373 16.2055 14.3723C16.2458 14.3729 16.2862 14.3736 16.3277 14.3742C16.5247 14.3716 16.6496 14.3566 16.8058 14.2307C16.9779 14.0512 16.9851 13.9402 16.9823 13.6996C16.9624 13.5416 16.897 13.4653 16.7815 13.3594C16.5849 13.2438 16.3973 13.2523 16.1747 13.2531C16.1319 13.2529 16.089 13.2527 16.0449 13.2525C15.901 13.2519 15.7572 13.2519 15.6133 13.252C15.5103 13.2517 15.4073 13.2514 15.3042 13.2511C15.0241 13.2502 14.7441 13.25 14.464 13.25C14.2303 13.2499 13.9966 13.2495 13.7629 13.2492C13.2432 13.2485 12.7234 13.2482 12.2037 13.2483C12.1725 13.2483 12.1413 13.2483 12.1092 13.2483C12.0624 13.2483 12.0624 13.2483 12.0146 13.2483C11.5086 13.2483 11.0026 13.2474 10.4966 13.2461C9.97694 13.2448 9.4573 13.2441 8.93766 13.2442C8.64595 13.2442 8.35425 13.2439 8.06254 13.243C7.78822 13.242 7.5139 13.242 7.23958 13.2427C7.13886 13.2428 7.03814 13.2426 6.93743 13.242C6.79999 13.2413 6.6626 13.2417 6.52516 13.2425C6.48525 13.242 6.44534 13.2415 6.40423 13.241C6.15415 13.2439 6.01041 13.286 5.81273 13.4531Z" fill="black"/>
<path d="M0.000106417 18.4688C4.45511 18.4688 8.91011 18.4688 13.5001 18.4688C13.5156 19.1648 13.531 19.8609 13.547 20.5781C13.6586 21.4707 13.8489 22.1535 14.4242 22.8464C14.4845 22.9219 14.4845 22.9219 14.4845 22.9687C12.9032 22.9709 11.322 22.9725 9.74069 22.9735C9.55394 22.9737 9.36718 22.9738 9.18043 22.9739C9.14325 22.9739 9.10607 22.9739 9.06777 22.974C8.46606 22.9744 7.86435 22.9751 7.26264 22.976C6.64507 22.9769 6.0275 22.9774 5.40993 22.9776C5.02896 22.9777 4.648 22.9781 4.26704 22.9789C3.97474 22.9794 3.68244 22.9795 3.39014 22.9794C3.27036 22.9794 3.15058 22.9796 3.0308 22.9799C2.86714 22.9804 2.70349 22.9803 2.53983 22.98C2.49254 22.9803 2.44525 22.9806 2.39653 22.9809C1.71291 22.978 1.16206 22.7566 0.664962 22.2786C-0.351181 21.2189 0.000106417 19.9401 0.000106417 18.4688Z" fill="black"/>
<path d="M23.2824 1.34475C23.6429 1.60401 23.889 1.91001 24.0002 2.34378C24.0262 2.6185 24.024 2.89152 24.0215 3.16723C24.0214 3.24996 24.0214 3.3327 24.0216 3.41543C24.0216 3.63883 24.0205 3.86222 24.0192 4.08562C24.018 4.31953 24.0179 4.55344 24.0177 4.78735C24.0171 5.22977 24.0156 5.67217 24.0137 6.11458C24.0116 6.61847 24.0106 7.12236 24.0096 7.62626C24.0077 8.66231 24.0042 9.69835 24.0002 10.7344C22.9019 10.7344 21.8036 10.7344 20.6721 10.7344C20.6678 9.66153 20.6644 8.58866 20.6623 7.51578C20.6614 7.0176 20.6601 6.51942 20.6579 6.02123C20.656 5.58688 20.6548 5.15253 20.6544 4.71818C20.6542 4.48831 20.6536 4.25846 20.6522 4.02859C20.651 3.81194 20.6506 3.5953 20.6509 3.37865C20.6508 3.29942 20.6504 3.22019 20.6497 3.14097C20.6446 2.5523 20.7025 2.06084 21.095 1.59396C21.6871 0.993697 22.5697 0.902181 23.2824 1.34475Z" fill="black"/>
</g>
<defs>
<clipPath id="clip0_97_37">
<rect width="24" height="24" fill="white"/>
</clipPath>
</defs>
</svg>
