<svg width="512" height="512" viewBox="0 0 512 512" fill="none" xmlns="http://www.w3.org/2000/svg">
<path d="M99.7615 60.707C101.033 60.7113 102.305 60.7155 103.615 60.7199C106.958 60.7337 110.299 60.7606 113.642 60.794C117.068 60.825 120.494 60.8385 123.92 60.8535C130.613 60.8864 137.306 60.9365 144 61C144.005 62.3164 144.005 62.3164 144.011 63.6594C144.049 71.9708 144.106 80.2818 144.184 88.593C144.223 92.8648 144.255 97.1365 144.271 101.408C144.286 105.539 144.321 109.669 144.368 113.799C144.383 115.367 144.391 116.935 144.392 118.503C144.405 131.012 145.765 142.687 155 152C165.077 160.305 174.646 162.153 187.368 162.145C188.163 162.149 188.958 162.152 189.776 162.155C192.38 162.165 194.983 162.167 197.586 162.168C199.411 162.171 201.237 162.175 203.062 162.178C206.88 162.184 210.698 162.186 214.515 162.185C219.386 162.185 224.257 162.199 229.127 162.216C232.895 162.227 236.663 162.229 240.431 162.229C242.226 162.23 244.021 162.234 245.816 162.242C266.472 162.482 266.472 162.482 284.265 152.953C291.682 144.987 295.074 137.69 295.205 126.845C295.215 126.132 295.225 125.42 295.235 124.685C295.267 122.337 295.291 119.989 295.316 117.641C295.337 116.01 295.358 114.379 295.379 112.748C295.434 108.46 295.484 104.173 295.532 99.8853C295.582 95.5081 295.638 91.131 295.693 86.7539C295.801 78.1693 295.902 69.5847 296 61C303.32 60.9065 310.64 60.8358 317.961 60.7928C321.362 60.7721 324.763 60.7441 328.163 60.6982C332.091 60.6492 336.017 60.6269 339.945 60.6094C341.74 60.5784 341.74 60.5784 343.571 60.5468C361.762 60.5421 377.491 67.4895 390.34 80.1719C405.321 96.0993 409.174 114.273 409.113 135.484C409.113 136.835 409.113 138.186 409.114 139.537C409.114 143.183 409.108 146.829 409.101 150.475C409.095 154.294 409.094 158.112 409.093 161.93C409.09 169.151 409.082 176.373 409.072 183.594C409.061 191.818 409.055 200.043 409.05 208.268C409.04 225.179 409.022 242.089 409 259C408.164 258.949 408.164 258.949 407.312 258.897C404.735 258.744 402.159 258.601 399.582 258.457C398.706 258.404 397.83 258.35 396.928 258.295C370.799 256.877 344.995 265.01 325 282C324.154 282.684 323.309 283.369 322.437 284.074C303.528 300.058 290.438 324.275 288 349C287.071 367.194 288.413 383.123 294.585 400.274C294.817 400.922 295.05 401.57 295.289 402.238C295.858 403.826 296.429 405.413 297 407C269.974 407.07 242.948 407.123 215.923 407.155C203.373 407.171 190.824 407.192 178.275 407.226C167.334 407.256 156.392 407.276 145.451 407.282C139.661 407.286 133.87 407.295 128.08 407.317C122.623 407.338 117.166 407.344 111.708 407.339C109.712 407.34 107.717 407.346 105.721 407.358C83.9854 407.477 66.2896 403.669 49.9998 388C38.2041 375.704 31.4965 359.747 31.6121 342.736C31.6067 341.765 31.6013 340.793 31.5958 339.792C31.5816 336.57 31.5886 333.348 31.5957 330.126C31.59 327.802 31.583 325.478 31.5749 323.155C31.557 316.865 31.5581 310.576 31.5639 304.287C31.5673 298.359 31.5594 292.432 31.5525 286.504C31.5388 274.045 31.5442 261.587 31.5557 249.128C31.5656 237.757 31.5527 226.386 31.5287 215.015C31.5043 203.31 31.4948 191.605 31.5014 179.9C31.5048 173.34 31.5024 166.78 31.4851 160.221C31.4696 154.049 31.4737 147.878 31.4924 141.706C31.4961 139.449 31.4931 137.193 31.4826 134.936C31.3879 112.915 35.191 94.835 51.1755 78.6602C64.9102 65.7234 81.1561 60.4693 99.7615 60.707ZM95.9998 276C95.9998 283.59 95.9998 291.18 95.9998 299C130.32 299 164.64 299 200 299C200 291.41 200 283.82 200 276C165.68 276 131.36 276 95.9998 276ZM95.9998 324C95.9998 331.59 95.9998 339.18 95.9998 347C120.09 347 144.18 347 169 347C169 339.41 169 331.82 169 324C144.91 324 120.82 324 95.9998 324Z" fill="black"/>
<path d="M451 295C452.242 296.104 452.242 296.104 453.508 297.23C462.596 305.749 468.795 315.792 473.875 327.063C474.286 327.962 474.286 327.962 474.706 328.879C479.232 339.489 480.539 350.366 480.438 361.813C480.429 363.04 480.42 364.268 480.41 365.532C479.93 390.762 469.058 411.932 451.012 429.398C429.963 447.581 405.212 452.979 378 451C355.711 448.543 335.385 435.858 321 419C304.749 397.207 299.363 373.431 302.277 346.436C305.517 324.838 318.362 303.923 335.646 290.745C370.555 265.798 418.597 265.232 451 295ZM420.551 330.329C419.622 331.261 419.622 331.261 418.674 332.213C417.623 333.264 417.623 333.264 416.551 334.336C415.79 335.102 415.03 335.867 414.246 336.656C413.471 337.433 412.695 338.21 411.896 339.01C409.408 341.505 406.923 344.002 404.438 346.5C402.756 348.186 401.075 349.873 399.393 351.559C395.259 355.703 391.129 359.851 387 364C384.094 362.604 382.029 361.269 379.766 358.961C379.192 358.381 378.619 357.801 378.028 357.203C377.441 356.6 376.854 355.997 376.25 355.375C375.648 354.764 375.046 354.153 374.426 353.523C372.946 352.02 371.473 350.511 370 349C364.339 353.698 359.148 358.747 354 364C355.601 367.964 358.358 370.647 361.34 373.605C361.863 374.13 362.386 374.655 362.924 375.195C364.027 376.3 365.132 377.401 366.24 378.501C367.935 380.185 369.62 381.88 371.303 383.576C372.377 384.649 373.452 385.721 374.528 386.793C375.282 387.554 375.282 387.554 376.052 388.33C379.377 391.611 381.546 392.772 386.188 393.5C390.197 392.974 390.82 392.634 393.643 390.058C394.342 389.42 395.042 388.782 395.763 388.124C399.752 384.337 403.654 380.468 407.531 376.566C408.408 375.688 409.284 374.811 410.188 373.906C412.961 371.127 415.731 368.345 418.5 365.563C420.39 363.667 422.281 361.772 424.172 359.877C428.784 355.254 433.393 350.628 438 346C436.611 343.11 435.278 341.03 432.996 338.766C432.421 338.192 431.845 337.618 431.252 337.027C430.653 336.441 430.055 335.854 429.438 335.25C428.835 334.648 428.232 334.046 427.612 333.426C424.411 329.2 424.411 329.2 420.551 330.329Z" fill="black"/>
<path d="M167 61C201.98 61 236.96 61 273 61C273.062 72.4469 273.124 83.8937 273.188 95.6875C273.229 101.101 273.229 101.101 273.27 106.624C273.284 111.045 273.284 111.045 273.286 113.117C273.291 114.558 273.302 116 273.317 117.441C273.339 119.63 273.342 121.818 273.341 124.007C273.347 125.239 273.354 126.471 273.361 127.741C272.873 132.147 271.337 134.752 268.125 137.75C263.477 140.484 258.265 140.148 253.016 140.145C252.227 140.149 251.438 140.152 250.624 140.155C248.023 140.165 245.422 140.167 242.82 140.168C241.006 140.171 239.191 140.175 237.377 140.178C233.576 140.184 229.774 140.186 225.973 140.185C221.112 140.185 216.251 140.199 211.39 140.216C207.643 140.227 203.896 140.229 200.148 140.229C198.357 140.23 196.565 140.234 194.773 140.242C192.263 140.252 189.753 140.249 187.243 140.243C186.509 140.249 185.775 140.254 185.019 140.26C180.365 140.232 176.377 139.594 172 138C167.594 133.361 166.875 130.64 166.887 124.347C166.886 123.653 166.886 122.959 166.886 122.244C166.887 119.993 166.895 117.743 166.902 115.492C166.904 114.104 166.905 112.716 166.906 111.328C166.911 106.177 166.925 101.026 166.938 95.875C166.958 84.3662 166.979 72.8575 167 61Z" fill="black"/>
</svg>
