<svg width="512" height="512" viewBox="0 0 512 512" fill="none" xmlns="http://www.w3.org/2000/svg">
<g clip-path="url(#clip0_259_2)">
<path d="M281.578 6.64453C290.958 13.524 298.718 23.3302 301 35C301.149 37.3883 301.248 39.7799 301.316 42.1719C301.337 42.8543 301.358 43.5367 301.379 44.2398C301.445 46.4098 301.504 48.5799 301.563 50.75C301.606 52.2253 301.649 53.7005 301.693 55.1758C301.8 58.7837 301.902 62.3918 302 66C303.007 66.3171 304.014 66.6342 305.051 66.9609C326.958 74.1237 345.995 85.5706 362.528 101.579C364.014 103.013 365.52 104.425 367.027 105.836C388.868 126.596 402.872 154.675 409 184C409.277 185.283 409.277 185.283 409.56 186.592C411.723 198.268 411.425 210.167 411.563 222C411.705 252.283 411.705 252.283 414.688 282.375C414.861 283.503 415.033 284.631 415.212 285.793C420.57 318.993 432.996 351.193 452 379C452.399 379.593 452.798 380.186 453.209 380.796C459.085 389.486 465.623 397.471 472.545 405.343C474.134 407.153 475.719 408.965 477.297 410.785C477.79 411.352 478.284 411.92 478.792 412.504C482.321 416.874 481.501 422.676 481 428C478.821 432.599 476.529 434.793 472 437C468.616 437.377 468.616 437.377 464.655 437.38C463.922 437.385 463.188 437.39 462.433 437.394C459.968 437.406 457.504 437.397 455.039 437.388C453.257 437.392 451.475 437.397 449.693 437.404C444.79 437.418 439.888 437.414 434.985 437.407C429.7 437.402 424.415 437.415 419.13 437.425C408.774 437.442 398.418 437.443 388.062 437.438C379.647 437.434 371.232 437.435 362.817 437.44C361.022 437.442 361.022 437.441 359.191 437.443C356.76 437.444 354.33 437.446 351.899 437.447C329.093 437.461 306.287 437.456 283.48 437.444C262.604 437.434 241.728 437.447 220.852 437.471C199.429 437.495 178.006 437.505 156.583 437.498C144.551 437.495 132.519 437.497 120.486 437.515C110.243 437.529 100.001 437.53 89.7581 437.513C84.5301 437.504 79.3022 437.502 74.0742 437.517C69.2906 437.531 64.5073 437.526 59.7238 437.507C57.991 437.503 56.2582 437.506 54.5254 437.517C52.1735 437.53 49.8229 437.518 47.4711 437.501C45.5101 437.5 45.5101 437.5 43.5095 437.5C38.44 436.778 35.2661 434.642 32.1602 430.613C30.0305 425.816 30.2017 421.125 31 416C32.4697 412.796 34.5668 410.526 37 408C44.6995 399.723 51.5464 391.276 58 382C59.1254 380.385 59.1254 380.385 60.2735 378.738C83.8943 343.392 97.5247 302.032 99.5274 259.605C99.5702 258.704 99.613 257.802 99.657 256.872C99.9726 249.713 100.12 242.556 100.211 235.391C100.225 234.317 100.24 233.242 100.254 232.136C100.311 227.73 100.367 223.324 100.401 218.918C100.75 178 112.757 140.611 140.957 110.254C142.376 108.689 143.736 107.07 145.047 105.414C147.983 101.785 151.406 98.9609 155 96C155.928 95.2343 156.856 94.4686 157.813 93.6797C173.513 81.1588 190.912 72.1412 210 66C210.004 65.129 210.008 64.258 210.012 63.3606C210.04 60.0628 210.089 56.7667 210.153 53.4695C210.176 52.0549 210.19 50.6401 210.196 49.2253C210.265 34.096 214.067 22.4404 224.582 11.3281C239.829 -3.06524 264.203 -4.43869 281.578 6.64453ZM245 35C239.358 42.5877 241 50.5395 241 60C250.9 60 260.8 60 271 60C271.915 46.5767 271.915 46.5767 266.563 35.1875C261.949 31.2492 259.41 30.5545 253.508 30.6836C249.808 31.1504 247.742 32.5256 245 35Z" fill="black"/>
<path d="M411.812 52.25C418.039 55.7334 422.474 61.6071 427 67C427.496 67.5878 427.992 68.1756 428.502 68.7812C455.017 100.458 471.729 137.391 479 178C479.227 179.253 479.454 180.506 479.688 181.797C481.017 190.551 481.26 199.281 481.375 208.125C481.401 209.3 481.427 210.475 481.454 211.686C481.476 222.341 481.476 222.341 477 227C471.777 231.056 466.347 230.774 460 230C455.487 227.862 453.057 225.547 451 221C450.218 217.037 449.831 213.163 449.641 209.133C447.103 162.316 431.379 119.139 399.125 84.625C388.871 73.6008 388.871 73.6008 388.375 66.5C388.689 61.4589 390.671 57.7414 394 54C399.514 50.0786 405.634 49.761 411.812 52.25Z" fill="black"/>
<path d="M115.188 52.5625C119.336 54.8661 121.564 57.4683 123 62C123.922 66.8825 123.5 70.7411 121 75.0625C118.475 78.6664 115.454 81.5843 112.297 84.6289C93.4596 104.075 80.7583 128.656 72 154C71.621 155.09 71.621 155.09 71.2344 156.202C65.5412 172.945 62.6785 190.745 62.3271 208.406C62.1764 214.81 61.8521 220.815 57.5625 225.875C52.4524 230.113 49.4433 230.434 42.9531 230.316C38.995 229.892 36.8769 228.729 34 226C31.4655 222.407 30.6122 219.937 30.5664 215.555C30.555 214.491 30.5435 213.428 30.5317 212.333C30.5419 211.192 30.552 210.051 30.5625 208.875C30.5701 207.683 30.5776 206.491 30.5854 205.263C31.5318 152.634 53.4207 100.683 89.5625 62.6133C91.3415 60.706 92.9747 58.8128 94.6016 56.7852C100.082 50.4206 107.644 49.3218 115.188 52.5625Z" fill="black"/>
<path d="M187 467C232.54 467 278.08 467 325 467C319.36 483.92 305.649 497.018 290 505C278.712 510.079 268.53 512.38 256.188 512.312C255.123 512.308 254.059 512.303 252.962 512.298C245.598 512.188 238.941 511.615 232 509C231.014 508.648 230.028 508.296 229.012 507.934C210.974 500.989 196.665 488.305 188 471C187.67 469.68 187.34 468.36 187 467Z" fill="black"/>
</g>
<defs>
<clipPath id="clip0_259_2">
<rect width="512" height="512" fill="white"/>
</clipPath>
</defs>
</svg>
