<?xml version="1.0" encoding="UTF-8"?>
<svg version="1.1" xmlns="http://www.w3.org/2000/svg" width="512" height="512">
<path d="M0 0 C1.08089401 0.00007553 2.16178802 0.00015106 3.2754364 0.00022888 C4.44113663 0.00539017 5.60683685 0.01055145 6.80786133 0.01586914 C8.5993737 0.01799156 8.5993737 0.01799156 10.42707825 0.02015686 C14.24804166 0.0257619 18.06894683 0.03831528 21.88989258 0.05102539 C24.47778236 0.05603974 27.06567305 0.06060276 29.65356445 0.06469727 C36.00319375 0.07573296 42.35278901 0.09247603 48.70239258 0.11352539 C49.28610374 1.26387016 49.28610374 1.26387016 49.88160706 2.43745422 C64.3100164 30.84179755 80.07409723 58.61101097 98.26489258 84.80102539 C98.72911621 85.47770264 99.19333984 86.15437988 99.67163086 86.8515625 C103.50509248 92.25439524 108.04568135 97.44934758 114.70239258 99.11352539 C122.42351392 100.13564163 128.30059292 98.52832248 134.70239258 94.11352539 C137.60116099 90.99935776 139.82300159 87.58723241 142.07739258 83.98852539 C142.71604248 83.00932129 143.35469238 82.03011719 144.01269531 81.02124023 C145.93186508 78.06583836 147.81823779 75.09133005 149.70239258 72.11352539 C150.7460289 70.50289389 151.79146725 68.89342791 152.83911133 67.28540039 C164.06558817 49.92796827 174.43028227 32.02545983 183.79614258 13.59887695 C184.2524707 12.70394531 184.70879883 11.80901367 185.17895508 10.88696289 C185.57163574 10.10756348 185.96431641 9.32816406 186.36889648 8.52514648 C186.8089502 7.72931152 187.24900391 6.93347656 187.70239258 6.11352539 C188.17161133 5.0393335 188.64083008 3.9651416 189.12426758 2.85839844 C192.10021828 -0.3100309 192.76285084 -0.33793821 196.92651367 -0.61523438 C199.10956891 -0.63458212 201.29309347 -0.61989771 203.47583008 -0.57788086 C204.63233063 -0.5765062 205.78883118 -0.57513153 206.9803772 -0.57371521 C209.42654653 -0.56465303 211.8726988 -0.54100922 214.31860352 -0.50390625 C218.05653484 -0.44927943 221.79222949 -0.44237625 225.53051758 -0.44311523 C227.90814096 -0.42836288 230.28574926 -0.41087493 232.66333008 -0.39038086 C234.33702164 -0.38537315 234.33702164 -0.38537315 236.04452515 -0.38026428 C241.60650883 -0.27866053 245.98244298 -0.18091978 250.70239258 3.11352539 C253.32983206 7.05468462 252.97377274 10.40591488 252.94290161 14.97819519 C252.94546489 16.3541137 252.94546489 16.3541137 252.94807994 17.75782853 C252.95138502 20.84416465 252.94035437 23.93028534 252.92944336 27.01660156 C252.92887947 29.2239125 252.92919538 31.43122382 252.93032837 33.63853455 C252.93090373 39.64233031 252.9191197 45.64604665 252.90518045 51.6498239 C252.89270368 57.91989095 252.89150501 64.18995969 252.88912964 70.46003723 C252.88361362 80.98769484 252.8711092 91.51532632 252.85327148 102.04296875 C252.83491671 112.88704278 252.82075824 123.73110888 252.81225586 134.57519531 C252.81173041 135.24349415 252.81120497 135.91179299 252.8106636 136.60034331 C252.80805354 139.95296332 252.80552612 143.30558338 252.80303979 146.65820348 C252.78211749 174.47666448 252.74692412 202.29509288 252.70239258 230.11352539 C234.07478143 230.13685332 215.44717323 230.15450404 196.81955051 230.16533756 C188.17103653 230.17050075 179.52253161 230.17754387 170.87402344 230.18896484 C163.33874679 230.198911 155.80347669 230.20537865 148.26819366 230.20761389 C144.27583405 230.20892111 140.28349321 230.21200769 136.2911396 230.21925545 C132.5377216 230.22601459 128.78433019 230.22814257 125.03090668 230.22663307 C123.64936364 230.22690945 122.26781976 230.2289152 120.88628197 230.23273087 C119.00802113 230.23766638 117.1297462 230.23592335 115.2514801 230.23377991 C114.19787072 230.2347017 113.14426134 230.23562349 112.0587244 230.23657322 C109.70239258 230.11352539 109.70239258 230.11352539 108.70239258 229.11352539 C108.40159418 227.3057568 108.13740092 225.49185759 107.88989258 223.67602539 C105.64469055 209.94449993 99.05372446 199.30036727 87.70239258 191.11352539 C75.6400698 183.96337494 62.93700578 182.19954957 49.21411133 184.76586914 C37.43489997 188.32560487 27.45870172 196.1016255 21.16723633 206.69946289 C17.6820471 213.46662332 15.57153084 219.66708573 14.94848633 227.25805664 C14.70239258 229.11352539 14.70239258 229.11352539 13.70239258 230.11352539 C10.10677439 230.42104258 6.49704468 230.39193133 2.88989258 230.42602539 C1.87862305 230.4550293 0.86735352 230.4840332 -0.17456055 230.51391602 C-7.65095834 230.57815473 -7.65095834 230.57815473 -10.93432617 228.21899414 C-13.64575777 224.031425 -13.44861795 220.5011158 -13.45150757 215.63053894 C-13.45588982 214.74214351 -13.46027208 213.85374807 -13.46478713 212.93843156 C-13.47820589 209.94365281 -13.48436085 206.94890351 -13.49047852 203.95410156 C-13.49837698 201.81416184 -13.50664577 199.67422346 -13.51525879 197.5342865 C-13.54150576 190.49170204 -13.55678786 183.44911154 -13.57104492 176.40649414 C-13.57640327 173.98525806 -13.58178077 171.56402202 -13.58717728 169.14278603 C-13.60880882 159.07429997 -13.62754718 149.00581555 -13.63879967 138.93731213 C-13.65504949 124.49067639 -13.68824943 110.04430917 -13.74520051 95.59777468 C-13.78384965 85.44912017 -13.80342633 75.30053762 -13.80872023 65.15181142 C-13.81238022 59.08567118 -13.82447054 53.01981715 -13.85682297 46.95375633 C-13.88681539 41.24836853 -13.89324685 35.54344145 -13.88143921 29.83799171 C-13.88121774 27.74213573 -13.88958279 25.64625892 -13.90709305 23.55047607 C-13.92967672 20.69224529 -13.92153995 17.83570048 -13.90560913 14.97746277 C-13.92643226 13.72901535 -13.92643226 13.72901535 -13.94767606 12.45534676 C-13.88903267 8.19462393 -13.67089088 6.58860557 -10.94710732 3.1220293 C-7.20370625 0.28427275 -4.56410845 -0.01063895 0 0 Z " fill="#000000" transform="translate(58.297607421875,207.886474609375)"/>
<path d="M0 0 C18.09847741 14.0427962 29.68349428 34.44327264 33.04296875 57.09375 C35.49324889 86.41932505 25.99064585 113.90753539 13.2890625 140.0390625 C12.82016602 141.01214355 12.82016602 141.01214355 12.34179688 142.00488281 C10.41297711 145.98831493 8.4250138 149.93849902 6.40039062 153.87402344 C5.63133832 155.37225627 4.86734282 156.87309159 4.10742188 158.37597656 C-6.72786465 179.79912968 -19.24849868 200.06066954 -32.5234375 220.0390625 C-33.0155069 220.78168335 -33.50757629 221.5243042 -34.01455688 222.28942871 C-35.41415377 224.39735585 -36.82078414 226.50037181 -38.23046875 228.6015625 C-38.65376465 229.23886292 -39.07706055 229.87616333 -39.51318359 230.53277588 C-42.47951181 234.92334966 -42.47951181 234.92334966 -44.7109375 236.0390625 C-47.5859375 236.3515625 -47.5859375 236.3515625 -50.7109375 236.0390625 C-54.2613276 233.05383654 -56.69742932 229.32965686 -59.2109375 225.4765625 C-59.85615356 224.49635132 -59.85615356 224.49635132 -60.5144043 223.49633789 C-61.92145634 221.34912964 -63.31796612 219.19542981 -64.7109375 217.0390625 C-65.18096191 216.31203125 -65.65098633 215.585 -66.13525391 214.8359375 C-137.52311573 103.98732681 -137.52311573 103.98732681 -126.7109375 50.0390625 C-123.180815 35.28402568 -116.88049015 22.41266055 -106.7109375 11.0390625 C-105.97230469 10.20632812 -105.23367187 9.37359375 -104.47265625 8.515625 C-76.80574657 -20.91725764 -32.25504128 -23.33145637 0 0 Z M-74.5234375 38.2265625 C-82.99331984 47.36995355 -85.19750654 56.96528372 -84.99609375 68.9765625 C-84.5324942 79.04063313 -78.84195888 87.52523416 -71.7578125 94.3671875 C-64.03712848 100.67339506 -53.63750425 104.03171918 -43.7109375 103.0390625 C-32.6983337 100.72524415 -23.07164979 96.09713121 -16.2734375 86.8515625 C-10.9905484 78.00080918 -8.13699617 68.04221718 -10.40625 57.9453125 C-13.5001817 46.60956274 -19.21074796 38.96084841 -28.7109375 32.0390625 C-44.03519244 23.558175 -61.72318692 26.52347626 -74.5234375 38.2265625 Z " fill="#000000" transform="translate(225.7109375,56.9609375)"/>
<path d="M0 0 C62.47027203 0 62.47027203 0 67.76342773 4.4987793 C68.46640991 5.27862183 68.46640991 5.27862183 69.18359375 6.07421875 C69.71549316 6.6556665 70.24739258 7.23711426 70.79541016 7.83618164 C71.3372998 8.4471167 71.87918945 9.05805176 72.4375 9.6875 C73.28900635 10.62807251 73.28900635 10.62807251 74.15771484 11.58764648 C75.78014729 13.38449158 77.39048501 15.19159157 79 17 C79.75667969 17.83273437 80.51335937 18.66546875 81.29296875 19.5234375 C84.3018293 22.87231854 86.70182392 26.11563025 89 30 C87.51790039 30.01401855 87.51790039 30.01401855 86.00585938 30.02832031 C82.30782499 30.06846936 78.61060095 30.13429394 74.91308594 30.20751953 C73.31879153 30.23558582 71.72436168 30.25687113 70.12988281 30.27099609 C57.95347835 30.20769516 57.95347835 30.20769516 47 35 C42.75803319 39.51564209 42.81835108 44.22291375 42.76171875 50.140625 C42.753647 50.9410321 42.74557526 51.74143921 42.73725891 52.56610107 C42.72343399 54.26067957 42.71270472 55.95528573 42.70483398 57.64990234 C42.69332518 59.37622277 42.67289065 61.10250793 42.64331055 62.82861328 C42.60046977 65.32869544 42.58444167 67.82772054 42.57421875 70.328125 C42.55671066 71.09191467 42.53920258 71.85570435 42.52116394 72.64263916 C42.54251221 77.97360585 43.45997634 81.91096623 47 86 C52.36044027 89.72566887 57.40631587 90.58739478 63.80273438 90.54589844 C65.0626973 90.56140495 65.0626973 90.56140495 66.34811401 90.57722473 C69.09685889 90.60648675 71.84486211 90.60814836 74.59375 90.609375 C76.5104715 90.62436789 78.42718013 90.64109736 80.34387207 90.65948486 C85.36780413 90.7030461 90.39156193 90.72313256 95.41564941 90.73822021 C100.55064143 90.75783183 105.68544638 90.79979727 110.8203125 90.83984375 C120.88015047 90.91502422 130.93994633 90.96538929 141 91 C141.04632832 101.10083446 141.08187175 111.20164367 141.10362434 121.30256271 C141.11406417 125.99276226 141.12822705 130.68288915 141.15087891 135.37304688 C141.17260012 139.89880335 141.18456713 144.42448991 141.18975449 148.95029449 C141.19345153 150.67747346 141.20067088 152.40464857 141.21146011 154.13179779 C141.22596545 156.54986357 141.22797835 158.96763994 141.22705078 161.38574219 C141.23424133 162.10071869 141.24143188 162.81569519 141.24884033 163.55233765 C141.23375306 167.18406042 141.14158074 169.98996697 139 173 C135.71533599 175.18977601 134.73816905 175.24786375 130.9296875 175.23046875 C129.46208984 175.22756836 129.46208984 175.22756836 127.96484375 175.22460938 C126.94519531 175.21236328 125.92554688 175.20011719 124.875 175.1875 C123.84761719 175.18685547 122.82023437 175.18621094 121.76171875 175.18554688 C114.14024086 175.14024086 114.14024086 175.14024086 113 174 C112.6992016 172.19223141 112.43500834 170.3783322 112.1875 168.5625 C109.94229797 154.83097454 103.35133188 144.18684188 92 136 C79.93767722 128.84984955 67.2346132 127.08602418 53.51171875 129.65234375 C41.73250739 133.21207948 31.75630915 140.98810011 25.46484375 151.5859375 C21.97965452 158.35309793 19.86913826 164.55356034 19.24609375 172.14453125 C19 174 19 174 18 175 C12.06 175 6.12 175 0 175 C0 117.25 0 59.5 0 0 Z " fill="#000000" transform="translate(326,263)"/>
<path d="M0 0 C0.64324219 0.4125 1.28648437 0.825 1.94921875 1.25 C2.64402344 1.6625 3.33882813 2.075 4.0546875 2.5 C11.12873755 7.17179291 15.41533679 13.97558444 17.38671875 22.1875 C18.95135903 32.7447044 16.8189346 41.31782371 10.94921875 50.25 C5.44964906 56.67386712 -2.53963242 61.37706166 -11.05078125 62.25 C-21.29670621 62.94463898 -30.1996718 59.92795516 -38.05078125 53.25 C-45.0051625 45.77935464 -48.25249366 37.45664806 -48.05078125 27.25 C-46.84500085 18.08372763 -43.79402754 10.2759749 -36.6484375 4.2109375 C-26.35176823 -3.31414711 -11.78241365 -6.46349549 0 0 Z " fill="#000000" transform="translate(407.05078125,408.75)"/>
<path d="M0 0 C0.64324219 0.4125 1.28648437 0.825 1.94921875 1.25 C2.64402344 1.6625 3.33882812 2.075 4.0546875 2.5 C11.12873755 7.17179291 15.41533679 13.97558444 17.38671875 22.1875 C18.95135903 32.7447044 16.8189346 41.31782371 10.94921875 50.25 C5.44964906 56.67386712 -2.53963242 61.37706166 -11.05078125 62.25 C-21.29670621 62.94463898 -30.1996718 59.92795516 -38.05078125 53.25 C-45.0051625 45.77935464 -48.25249366 37.45664806 -48.05078125 27.25 C-46.84500085 18.08372763 -43.79402754 10.2759749 -36.6484375 4.2109375 C-26.35176823 -3.31414711 -11.78241365 -6.46349549 0 0 Z " fill="#000000" transform="translate(135.05078125,408.75)"/>
<path d="M0 0 C6.53319294 -0.23049289 13.05215045 -0.42914369 19.58618164 -0.54931641 C21.80476806 -0.59941925 24.02302732 -0.66752565 26.24047852 -0.75439453 C45.7086373 -1.49762089 45.7086373 -1.49762089 50.39135742 2.13208008 C52.66182303 4.65176286 54.32120137 7.06477206 56 10 C57.11668877 11.33738419 58.25790657 12.65525602 59.4375 13.9375 C59.9840625 14.56785156 60.530625 15.19820313 61.09375 15.84765625 C62.59351151 17.54103451 64.12007927 19.21067392 65.65625 20.87109375 C66.11588135 21.36810791 66.5755127 21.86512207 67.04907227 22.37719727 C68.38178071 23.81489135 69.72006939 25.24740659 71.05859375 26.6796875 C73 29 73 29 73 31 C48.91 31 24.82 31 0 31 C0 20.77 0 10.54 0 0 Z " fill="#000000" transform="translate(383,308)"/>
<path d="M0 0 C5.3486973 2.34264649 8.65869593 6.38318663 11.515625 11.3828125 C14.21110181 18.36654788 14.36038418 24.58106252 11.484375 31.46484375 C8.33496524 37.70016711 3.95750998 41.12698996 -2.484375 43.3828125 C-10.32352872 45.44872666 -17.35502896 43.76865688 -24.296875 39.7578125 C-30.55394833 32.9644186 -32.32831885 26.96419844 -31.96875 17.6953125 C-31.05182226 11.4247099 -28.07292742 7.61446693 -23.421875 3.5078125 C-16.32220456 -1.62811931 -8.55446508 -2.12516585 0 0 Z " fill="#000000" transform="translate(187.484375,100.6171875)"/>
</svg>
