<svg width="512" height="512" viewBox="0 0 512 512" fill="none" xmlns="http://www.w3.org/2000/svg">
<path d="M47.753 127.823C49.5255 127.804 49.5255 127.804 51.3338 127.784C52.6119 127.777 53.89 127.769 55.2069 127.762C56.5202 127.754 57.8334 127.746 59.1865 127.737C61.9681 127.722 64.7497 127.712 67.5313 127.705C71.0856 127.694 74.6393 127.659 78.1934 127.62C81.5937 127.587 84.9939 127.583 88.3944 127.574C89.6664 127.557 90.9385 127.539 92.2491 127.521C103.326 127.548 103.326 127.548 108 132C112.765 137.648 115.549 145.167 118.43 151.904C119.479 154.151 120.43 156.079 122 158C125.651 159.183 125.651 159.183 129 159C129.029 159.657 129.058 160.313 129.088 160.99C130.177 183.202 133.526 204.701 143 225C143.291 225.637 143.582 226.273 143.882 226.929C161.899 266.061 194.316 294.839 234.557 309.911C273.96 323.756 317.615 321.34 355.447 303.87C369.644 297.031 382.302 288.79 393.836 278.008C395.691 276.286 397.587 274.703 399.562 273.125C404.377 269.021 408.123 263.967 412 259C412.745 258.071 413.49 257.141 414.258 256.184C440.24 222.913 446.34 184.967 447 144C450.708 143.883 454.415 143.813 458.125 143.75C459.172 143.716 460.218 143.683 461.297 143.648C467.563 143.569 471.252 143.776 476 148C480.421 152.653 480.339 156.578 480.247 162.664C479.834 168.235 478.404 173.421 476.886 178.781C476.388 180.609 476.388 180.609 475.88 182.474C474.975 185.794 474.052 189.108 473.126 192.422C472.143 195.949 471.178 199.48 470.212 203.011C468.368 209.733 466.509 216.451 464.645 223.167C462.367 231.373 460.109 239.585 457.851 247.797C455.464 256.478 453.074 265.158 450.67 273.834C447.162 286.494 443.672 299.157 440.291 311.852C439.735 313.929 439.179 316.007 438.623 318.085C437.624 321.817 436.64 325.552 435.664 329.29C435.228 330.92 434.793 332.55 434.356 334.18C434.083 335.253 434.083 335.253 433.804 336.347C432.204 342.242 429.882 346.518 425.062 350.312C419.492 353.382 413.573 353.309 407.341 353.683C405.873 353.775 405.873 353.775 404.375 353.869C401.093 354.074 397.811 354.274 394.528 354.475C392.176 354.621 389.823 354.767 387.471 354.914C382.404 355.229 377.336 355.542 372.269 355.853C364.933 356.304 357.598 356.759 350.262 357.215C338.349 357.955 326.436 358.693 314.523 359.429C313.81 359.473 313.097 359.517 312.363 359.563C309.475 359.741 306.587 359.919 303.699 360.098C295.755 360.588 287.811 361.079 279.868 361.571C279.157 361.615 278.446 361.659 277.713 361.704C265.848 362.438 253.982 363.174 242.117 363.911C234.152 364.406 226.187 364.898 218.222 365.388C213.264 365.693 208.307 366.001 203.35 366.309C201.052 366.452 198.754 366.593 196.456 366.734C193.317 366.926 190.178 367.121 187.04 367.317C186.132 367.372 185.225 367.427 184.291 367.483C182.625 367.588 180.96 367.705 179.296 367.837C177.793 367.944 176.285 368.005 174.778 368.017C171.912 368.133 169.665 368.367 167.535 370.392C166.203 372.224 165.09 374.078 164 376.062C163.607 376.726 163.214 377.389 162.808 378.072C161.848 379.701 160.92 381.349 160 383C160.62 383.001 161.24 383.002 161.879 383.003C198.622 383.061 235.364 383.135 272.106 383.229C276.516 383.24 280.926 383.251 285.336 383.262C286.213 383.265 287.091 383.267 287.996 383.269C302.219 383.305 316.442 383.329 330.665 383.35C345.255 383.372 359.844 383.405 374.434 383.449C383.439 383.475 392.445 383.493 401.45 383.499C407.622 383.505 413.794 383.521 419.966 383.546C423.529 383.56 427.092 383.569 430.655 383.565C434.516 383.561 438.377 383.58 442.237 383.601C443.931 383.594 443.931 383.594 445.66 383.587C446.694 383.596 447.728 383.605 448.793 383.615C449.684 383.617 450.576 383.619 451.494 383.621C455.832 384.277 458.404 386.322 461.25 389.562C464.94 394.702 464.598 399.822 464 406C462.187 409.562 462.187 409.562 460 412C459.484 412.598 458.969 413.196 458.437 413.812C455.339 416.372 451.658 416.273 447.812 416.562C446.182 416.688 446.182 416.688 444.519 416.816C443.688 416.877 442.856 416.938 442 417C442.349 417.675 442.699 418.351 443.058 419.047C443.513 419.939 443.969 420.831 444.437 421.75C444.89 422.632 445.342 423.513 445.808 424.422C449.827 433.119 449.432 446.053 446.437 455.062C441.818 465.61 433.61 473.818 423.062 478.437C412.912 481.735 400.192 481.615 390.387 477.32C380.269 471.723 372.281 463.42 368.66 452.289C366.527 441.662 366.7 430.633 372 421C372.66 419.68 373.32 418.36 374 417C322.52 417 271.04 417 218 417C219.65 420.3 221.3 423.6 223 427C225.645 437.58 225.341 450.344 220 460C214.38 469.013 206.473 476.03 196.285 479.34C184.306 481.747 172.089 481.044 161.582 474.492C152.78 468.153 146.161 459.765 144 449C142.941 439.1 143.136 429.891 148 421C148.584 419.792 149.168 418.584 149.75 417.375C150.162 416.591 150.575 415.807 151 415C150.051 414.979 149.102 414.959 148.125 414.937C141.659 413.98 136.186 409.63 132.097 404.711C126.218 396.114 123.747 386.943 125.5 376.5C127.914 367.54 133.924 359.652 139.91 352.742C142.606 345.958 137.99 335.919 136.118 329.098C135.834 328.055 135.551 327.013 135.259 325.938C134.324 322.502 133.385 319.068 132.445 315.633C131.781 313.197 131.118 310.76 130.455 308.324C128.882 302.547 127.305 296.77 125.727 290.994C123.464 282.707 121.206 274.418 118.949 266.129C117.25 259.892 115.547 253.656 113.837 247.422C110.996 237.056 108.16 226.69 105.467 216.284C104.434 212.296 103.387 208.311 102.339 204.327C101.871 202.529 101.41 200.729 100.959 198.927C97.7907 186.272 93.075 175.211 86.8287 163.753C85.9998 162 85.9998 162 85.9998 160C84.6931 160.016 83.3864 160.031 82.0401 160.048C77.1854 160.102 72.3306 160.136 67.4757 160.165C65.3757 160.18 63.2757 160.2 61.1759 160.226C58.1549 160.263 55.1343 160.28 52.1131 160.293C51.1765 160.308 50.2398 160.324 49.2748 160.34C44.3555 160.341 40.9701 160.245 36.9998 157C32.1747 151.505 31.659 148.199 31.7108 140.988C32.0909 137.058 33.3822 134.917 35.9998 132C36.5155 131.402 37.0311 130.804 37.5623 130.188C40.6471 127.639 43.9426 127.859 47.753 127.823ZM178.625 434.625C176.513 437.712 176.388 439.328 177 443C178.5 445.5 178.5 445.5 181 447C184.672 447.612 186.288 447.487 189.375 445.375C191.487 442.288 191.612 440.672 191 437C189.5 434.5 189.5 434.5 187 433C183.328 432.388 181.712 432.513 178.625 434.625ZM402.625 434.625C400.513 437.712 400.388 439.328 401 443C402.5 445.5 402.5 445.5 405 447C408.672 447.612 410.288 447.487 413.375 445.375C415.487 442.288 415.612 440.672 415 437C413.5 434.5 413.5 434.5 411 433C407.328 432.388 405.712 432.513 402.625 434.625Z" fill="black"/>
<path d="M368 59C371.455 61.8834 374.75 64.8884 378 68C378.746 68.6832 379.493 69.3664 380.261 70.0703C386.882 76.3328 391.979 83.4435 397 91C397.629 91.9333 398.258 92.8666 398.906 93.8281C416.236 121.398 420.958 157.795 413.839 189.377C407.982 212.573 396.5 232.766 380 250C378.975 251.12 378.975 251.12 377.929 252.262C362.509 268.564 341.431 279.122 320 285C318.825 285.339 317.651 285.678 316.441 286.027C284.742 293.562 249.946 287.033 222 271C213.3 265.5 205.431 259.115 198 252C196.88 250.975 196.88 250.975 195.738 249.93C189.117 243.667 184.02 236.557 179 229C178.371 228.067 177.742 227.133 177.094 226.172C159.764 198.602 155.042 162.205 162.161 130.623C168.018 107.427 179.499 87.2345 196 70C196.683 69.2536 197.366 68.5073 198.07 67.7383C204.333 61.1176 211.443 56.0204 219 51C219.933 50.3709 220.866 49.7419 221.828 49.0938C266.471 21.0326 327.351 26.7541 368 59ZM318.643 122.892C316.964 124.583 315.294 126.284 313.625 127.984C312.449 129.168 311.272 130.35 310.094 131.532C307.014 134.627 303.947 137.734 300.882 140.843C297.745 144.021 294.596 147.188 291.449 150.355C285.288 156.559 279.14 162.776 273 169C269.43 167.326 267.217 165.399 264.48 162.535C263.193 161.212 263.193 161.212 261.881 159.861C260.093 158.003 258.309 156.141 256.529 154.275C249.357 146.592 249.357 146.592 239.558 143.969C234.299 145.286 230.758 146.883 227 151C224.915 154.704 223.977 157.868 224.062 162.125C226.344 169.122 231.589 173.884 236.687 178.953C237.427 179.695 238.166 180.436 238.928 181.2C240.486 182.759 242.046 184.315 243.608 185.869C245.999 188.249 248.379 190.64 250.758 193.031C252.275 194.548 253.793 196.063 255.312 197.578C256.023 198.293 256.733 199.007 257.465 199.743C258.133 200.405 258.8 201.066 259.488 201.747C260.071 202.329 260.654 202.91 261.255 203.509C264.616 206.381 267.487 207.307 271.875 207.375C272.697 207.403 273.52 207.432 274.367 207.461C280.692 206.354 285.326 200.971 289.692 196.598C290.332 195.965 290.971 195.332 291.631 194.68C293.732 192.598 295.825 190.508 297.918 188.418C299.382 186.961 300.846 185.503 302.31 184.046C305.372 180.996 308.43 177.941 311.486 174.885C315.396 170.974 319.32 167.077 323.248 163.184C326.274 160.18 329.291 157.168 332.305 154.152C333.748 152.712 335.194 151.275 336.643 149.841C338.67 147.833 340.684 145.813 342.696 143.79C343.293 143.204 343.89 142.618 344.505 142.015C348.558 137.9 351.954 133.609 352.031 127.559C350.714 122.299 349.116 118.759 345 115C333.771 109.21 326.782 114.806 318.643 122.892Z" fill="black"/>
</svg>
