<svg width="512" height="512" viewBox="0 0 512 512" fill="none" xmlns="http://www.w3.org/2000/svg">
<g clip-path="url(#clip0_227_16)">
<path d="M267.383 2.58983C270.044 4.12269 272.7 5.6638 275.353 7.20965C292.327 16.9178 307.237 18.7372 326.602 18.156C327.516 18.1306 328.43 18.1051 329.372 18.0789C331.084 18.0203 332.796 17.9384 334.506 17.8284C339.898 17.5866 342.704 18.415 347 22C348.833 23.9287 350.519 25.8179 352.188 27.875C352.653 28.4351 353.117 28.9952 353.596 29.5723C357.564 34.3835 361.418 39.2891 365.208 44.2417C369.741 50.1159 373.771 54.2256 380.551 57.375C381.169 57.6668 381.786 57.9586 382.423 58.2593C384.381 59.1831 386.346 60.0924 388.313 61C410.32 71.2406 410.32 71.2406 414 77C414.828 79.3875 414.828 79.3875 415.465 82.043C415.705 83.0259 415.945 84.0088 416.192 85.0215C416.438 86.0663 416.684 87.1111 416.938 88.1875C417.205 89.2645 417.473 90.3415 417.748 91.4512C418.921 96.2164 420.039 100.955 420.821 105.801C422.726 117.052 427.696 123.578 435.229 131.985C438.194 135.358 440.952 138.877 443.688 142.438C444.192 143.063 444.697 143.689 445.217 144.334C449.073 149.357 451.284 154.691 450.859 161.139C450.479 163.294 449.992 165.389 449.446 167.508C449.265 168.278 449.085 169.047 448.899 169.84C448.326 172.273 447.727 174.699 447.125 177.125C446.535 179.559 445.95 181.994 445.373 184.431C445.015 185.939 444.648 187.445 444.271 188.949C442.56 196.046 442.816 202.086 444.496 209.219C444.726 210.211 444.726 210.211 444.96 211.224C445.445 213.317 445.941 215.409 446.438 217.5C446.929 219.592 447.419 221.684 447.905 223.777C448.347 225.676 448.795 227.573 449.244 229.471C450.868 237.049 451.373 241.98 448 249C446.208 251.758 444.161 254.213 442 256.688C440.342 258.639 438.692 260.595 437.059 262.568C435.503 264.406 433.918 266.171 432.283 267.936C423.815 277.427 421.338 286.678 419.063 299C418.548 301.629 418.022 304.255 417.482 306.878C417.153 308.493 416.839 310.112 416.543 311.733C415.131 318.927 412.145 323.791 406 328C403.503 329.404 400.948 330.657 398.364 331.891C397.643 332.24 396.922 332.59 396.18 332.95C394.666 333.682 393.151 334.411 391.634 335.138C389.306 336.253 386.984 337.38 384.662 338.508C383.188 339.219 381.713 339.93 380.239 340.641C379.543 340.978 378.847 341.316 378.13 341.663C373.232 344 373.232 344 371 344C370.727 344.587 370.454 345.174 370.173 345.779C369.03 347.943 367.797 349.655 366.242 351.539C365.433 352.527 365.433 352.527 364.607 353.534C363.75 354.569 363.75 354.569 362.875 355.625C361.697 357.06 360.518 358.495 359.34 359.93C358.768 360.625 358.195 361.321 357.605 362.038C354.921 365.319 352.301 368.65 349.684 371.984C349.128 372.65 348.573 373.315 348 374C347.414 374.706 346.827 375.413 346.223 376.141C341.03 380.485 334.819 380.189 328.438 379.887C304.95 379.263 288.056 382.149 267.876 394.412C261.647 397.852 256.836 398.691 250 397C246.083 395.489 242.367 393.651 238.625 391.75C235.7 390.299 232.775 388.852 229.838 387.425C228.045 386.525 226.277 385.571 224.551 384.547C215.377 379.497 205.492 380.321 195.313 380.375C192.544 380.379 189.776 380.375 187.008 380.354C185.297 380.342 183.586 380.345 181.876 380.364C175.242 380.333 169.613 379.233 164.418 374.793C163.682 373.933 162.946 373.073 162.188 372.188C160.935 370.733 160.935 370.733 159.656 369.25C155.428 364.123 151.334 358.891 147.283 353.623C145.956 351.944 144.572 350.327 143.176 348.707C141 346 141 346 141 344C140.158 343.737 139.315 343.473 138.447 343.202C132.65 341.181 127.167 338.467 121.633 335.825C120.214 335.152 118.793 334.486 117.368 333.827C100.463 326.011 100.463 326.011 96.7502 316.949C96.5027 315.873 96.2552 314.797 96.0002 313.688C95.8447 313.069 95.6892 312.451 95.529 311.814C94.475 307.518 93.6755 303.197 92.9143 298.84C90.1611 284.014 86.2554 274.648 75.738 263.826C73.0745 261.027 70.6845 258.046 68.3127 255C67.5457 254.051 66.7787 253.103 65.9885 252.125C61.3255 244.796 60.5493 239.489 62.3628 230.978C62.6144 229.913 62.866 228.848 63.1252 227.75C63.3659 226.645 63.6065 225.54 63.8545 224.401C65.3046 217.796 66.8223 211.195 68.5198 204.648C69.6595 198.366 68.7025 192.832 67.1799 186.758C66.8055 185.181 66.4319 183.604 66.0588 182.027C65.4698 179.575 64.8749 177.124 64.2673 174.675C63.679 172.29 63.1155 169.9 62.5549 167.508C62.3696 166.789 62.1843 166.07 61.9934 165.329C60.4449 158.592 61.3158 152.764 64.926 146.84C65.7136 145.882 66.5012 144.924 67.3127 143.938C67.7421 143.404 68.1714 142.87 68.6138 142.32C70.0585 140.531 71.5265 138.765 73.0002 137C74.7382 134.912 76.4737 132.821 78.2021 130.725C79.3326 129.357 80.4717 127.997 81.6206 126.644C82.1468 126.011 82.6729 125.379 83.2151 124.727C83.6803 124.176 84.1456 123.625 84.625 123.057C88.1051 117.851 89.6187 112.142 90.9377 106.09C91.2789 104.591 91.62 103.091 91.9612 101.592C92.4832 99.2598 93.0025 96.9273 93.5207 94.5945C94.0283 92.3206 94.5452 90.049 95.0627 87.7774C95.2128 87.0866 95.3629 86.3958 95.5176 85.6841C97.0994 78.7604 99.0328 74.062 105 70C106.744 69.0131 108.518 68.0788 110.317 67.1953C111.329 66.6939 112.342 66.1924 113.385 65.6758C114.434 65.164 115.482 64.6523 116.563 64.125C117.584 63.621 118.606 63.117 119.658 62.5977C120.68 62.0937 121.702 61.5896 122.754 61.0703C123.78 60.5623 124.805 60.0542 125.862 59.5308C127.983 58.4963 130.117 57.4881 132.262 56.5044C138.351 53.6499 142.667 51.227 146.438 45.625C147.334 44.3998 148.233 43.1759 149.133 41.9531C149.592 41.3144 150.051 40.6757 150.525 40.0176C153.181 36.3855 155.995 32.8821 158.813 29.375C159.603 28.363 159.603 28.363 160.41 27.3306C160.921 26.693 161.431 26.0554 161.957 25.3985C162.4 24.8382 162.844 24.2779 163.3 23.7007C166.981 20.0182 170.101 17.7755 175.371 17.6287C177.061 17.6606 178.749 17.7113 180.438 17.7774C182.311 17.8057 184.185 17.8308 186.059 17.8528C187.516 17.8766 187.516 17.8766 189.003 17.9008C206.596 18.1163 220.066 17.4914 234.987 7.34768C237.924 5.38186 240.942 3.85032 244.125 2.31252C244.994 1.8549 245.863 1.39729 246.758 0.925803C254.231 -1.20791 260.426 -1.19713 267.383 2.58983ZM139.75 145.313C128.913 157.984 127.848 172.679 127.832 188.672C127.829 189.871 127.826 191.071 127.822 192.306C127.817 194.835 127.815 197.363 127.815 199.891C127.813 203.724 127.795 207.557 127.776 211.391C127.773 213.859 127.771 216.328 127.77 218.797C127.759 220.491 127.759 220.491 127.748 222.22C127.797 239.636 130.769 253.464 143.102 266.164C156.433 278.742 172.389 280.595 190.003 280.093C198.117 279.714 205.464 278.216 212.879 274.902C216.829 273.222 216.829 273.222 219 273C221.015 274.447 221.015 274.447 223.11 276.621C223.864 277.391 224.618 278.162 225.395 278.955C226.172 279.774 226.949 280.594 227.75 281.438C228.543 282.253 229.336 283.068 230.153 283.908C232.113 285.928 234.062 287.959 236 290C239.467 288.513 241.69 286.543 244.328 283.867C245.128 283.062 245.927 282.256 246.75 281.426C247.575 280.584 248.4 279.742 249.25 278.875C250.091 278.026 250.931 277.176 251.797 276.301C253.869 274.205 255.937 272.105 258 270C256.541 266.507 254.686 264.645 251.797 262.234C250.982 261.507 250.168 260.78 249.328 260.031C247.624 258.523 245.889 257.048 244.125 255.609C241.486 253.189 239.671 251.175 238 248C237.895 244.919 238.243 242.172 238.82 239.15C240.117 232.293 240.26 225.615 240.266 218.645C240.268 217.446 240.271 216.248 240.273 215.013C240.274 212.536 240.269 210.059 240.261 207.581C240.25 203.81 240.261 200.039 240.274 196.268C240.272 193.831 240.27 191.394 240.266 188.957C240.27 187.849 240.274 186.742 240.278 185.601C240.176 168.253 237.181 154.484 224.899 141.836C211.391 129.092 195.783 127.395 177.981 127.907C162.139 128.653 150.601 133.812 139.75 145.313ZM283.75 145.313C272.913 157.984 271.848 172.679 271.832 188.672C271.829 189.871 271.826 191.071 271.822 192.306C271.817 194.835 271.815 197.363 271.815 199.891C271.813 203.724 271.795 207.557 271.776 211.391C271.773 213.859 271.771 216.328 271.77 218.797C271.759 220.491 271.759 220.491 271.748 222.22C271.797 239.636 274.769 253.464 287.102 266.164C299.897 278.236 314.491 280.185 331.379 280.098C332.432 280.096 333.484 280.095 334.569 280.093C337.9 280.088 341.232 280.075 344.563 280.063C346.834 280.057 349.106 280.053 351.377 280.049C356.918 280.039 362.459 280.019 368 280C368 269.44 368 258.88 368 248C364.172 247.974 360.343 247.948 356.399 247.922C352.685 247.883 348.972 247.838 345.259 247.792C342.68 247.764 340.102 247.743 337.524 247.729C333.815 247.708 330.107 247.661 326.399 247.609C325.248 247.608 324.098 247.607 322.913 247.606C316.846 247.495 312.628 247.363 308 243C305.089 239.02 304.619 236.178 304.596 231.285C304.589 230.631 304.582 229.977 304.575 229.303C304.557 227.151 304.561 225 304.567 222.848C304.562 221.345 304.557 219.842 304.551 218.339C304.542 215.192 304.544 212.046 304.554 208.9C304.566 204.877 304.545 200.855 304.516 196.832C304.498 193.729 304.498 190.626 304.504 187.523C304.504 186.04 304.498 184.558 304.486 183.075C304.471 180.997 304.481 178.921 304.499 176.844C304.499 175.664 304.499 174.485 304.499 173.269C305.268 168.254 307.41 165.222 311.405 162.152C314.311 160.862 316.354 160.605 319.525 160.568C320.606 160.548 321.686 160.528 322.8 160.508C323.955 160.501 325.111 160.495 326.301 160.488C328.088 160.461 328.088 160.461 329.912 160.434C333.712 160.38 337.512 160.346 341.313 160.313C343.892 160.279 346.47 160.245 349.049 160.209C355.366 160.122 361.683 160.062 368 160C368 149.44 368 138.88 368 128C361.402 127.954 354.805 127.914 348.207 127.89C345.967 127.88 343.728 127.867 341.489 127.849C318.868 127.678 300.191 127.886 283.75 145.313Z" fill="black"/>
<path d="M402 348C403.255 349.645 403.255 349.645 404.335 351.821C404.751 352.642 405.167 353.464 405.596 354.31C406.038 355.218 406.481 356.126 406.936 357.062C407.652 358.489 407.652 358.489 408.381 359.944C409.959 363.1 411.517 366.264 413.074 369.43C414.164 371.619 415.254 373.807 416.346 375.995C419.22 381.765 422.077 387.543 424.931 393.323C427.265 398.044 429.612 402.758 431.959 407.473C436.802 417.202 441.638 426.935 446.452 436.679C446.9 437.583 447.349 438.487 447.81 439.419C448.218 440.246 448.626 441.073 449.046 441.926C449.402 442.644 449.757 443.363 450.123 444.103C452.413 449.055 452.965 453.952 451.316 459.16C449.155 463.959 446.768 466.517 442 469C439.017 469.943 436.432 470.086 433.314 469.983C432.389 469.958 431.464 469.933 430.511 469.907C429.018 469.866 429.018 469.866 427.496 469.824C424.262 469.785 421.029 469.759 417.795 469.734C415.569 469.703 413.343 469.649 411.118 469.572C397.857 468.592 397.857 468.592 386.315 473.817C383.82 476.699 381.888 479.836 380.049 483.167C378.483 485.903 376.551 488.313 374.602 490.785C372.593 493.447 370.589 496.111 368.59 498.779C359.81 510.397 359.81 510.397 355 512C353.255 512.169 351.503 512.266 349.75 512.312C348.837 512.35 347.925 512.387 346.984 512.426C343.028 511.861 340.078 510.491 337 508C334.873 505.142 333.399 502.03 331.863 498.824C331.371 497.84 330.879 496.856 330.371 495.842C329.229 493.556 328.094 491.267 326.966 488.973C324.773 484.523 322.523 480.103 320.271 475.682C316.264 467.809 312.283 459.923 308.318 452.028C306.004 447.421 303.685 442.817 301.355 438.218C299.068 433.703 296.792 429.183 294.525 424.658C293.666 422.949 292.803 421.241 291.935 419.536C290.735 417.173 289.55 414.804 288.368 412.433C287.83 411.387 287.83 411.387 287.281 410.319C284.962 405.611 284.962 405.611 285.148 402.64C287.275 398.547 292.793 396.988 296.921 395.556C303.734 393.735 311.069 394.236 318.063 394.313C337.659 394.981 337.659 394.981 354.953 387.039C360.807 381.208 365.915 374.703 370.973 368.184C371.459 367.558 371.945 366.932 372.446 366.287C373.374 365.087 374.295 363.881 375.208 362.67C379.667 356.857 384.571 353.443 391.063 350.188C391.674 349.863 392.286 349.539 392.916 349.205C396.357 347.468 398.38 346.472 402 348Z" fill="black"/>
<path d="M111 347C119.482 347.881 129.582 353.833 135.25 360.125C136.527 361.729 137.774 363.357 139 365C139.877 366.125 140.758 367.247 141.641 368.367C143.072 370.185 144.502 372.003 145.928 373.824C154.257 384.46 160.293 391.378 174 394C176.946 394.231 179.867 394.208 182.82 394.168C184.508 394.174 186.195 394.181 187.883 394.189C190.496 394.194 193.108 394.188 195.721 394.155C207.962 394.023 216.527 395.342 227 402C226.424 405.399 225.587 408.205 224.053 411.288C223.647 412.112 223.24 412.937 222.822 413.786C222.375 414.676 221.928 415.567 221.468 416.484C220.998 417.433 220.528 418.381 220.043 419.359C218.488 422.492 216.924 425.621 215.359 428.75C214.274 430.928 213.189 433.106 212.104 435.284C209.828 439.849 207.548 444.412 205.264 448.973C202.34 454.815 199.431 460.664 196.525 466.516C194.288 471.016 192.041 475.512 189.792 480.006C188.716 482.161 187.643 484.317 186.573 486.475C185.075 489.493 183.564 492.505 182.05 495.516C181.611 496.406 181.173 497.297 180.721 498.214C177.755 504.066 174.541 509.697 168 512C165.449 512.336 165.449 512.336 162.688 512.375C161.784 512.403 160.88 512.432 159.949 512.461C153.952 511.524 150.348 508.766 146.746 504.086C145.63 502.525 144.527 500.955 143.438 499.375C141.738 496.96 140.027 494.563 138.26 492.197C136.447 489.632 134.863 487.087 133.271 484.387C127.838 475.54 127.838 475.54 119.358 470.045C112.145 468.693 104.912 469.153 97.625 469.562C94.3777 469.664 91.1309 469.739 87.8827 469.804C85.8762 469.853 83.87 469.927 81.8656 470.031C75.7732 470.286 71.5326 469.637 66 467C61.9228 462.923 60.1866 459.139 59.688 453.424C59.7622 448.136 61.871 444.16 64.2422 439.523C64.9599 438.072 64.9599 438.072 65.6921 436.592C67.1163 433.72 68.5554 430.857 69.9982 427.995C71.8625 424.283 73.7032 420.559 75.5479 416.837C80.269 407.321 85.0204 397.82 89.7759 388.321C91.5969 384.682 93.4149 381.041 95.2329 377.4C96.9866 373.889 98.7422 370.379 100.498 366.869C101.335 365.196 102.172 363.522 103.008 361.848C104.164 359.534 105.322 357.221 106.481 354.909C106.825 354.219 107.169 353.529 107.523 352.819C109.886 348.114 109.886 348.114 111 347Z" fill="black"/>
<path d="M184 159.5C185.258 159.485 186.516 159.469 187.813 159.453C199.442 159.502 199.442 159.502 204 164C208.699 169.428 208.532 174.093 208.391 181.086C208.385 182.143 208.379 183.2 208.374 184.289C208.351 187.651 208.301 191.013 208.25 194.375C208.23 196.66 208.212 198.945 208.195 201.23C208.151 206.821 208.084 212.41 208 218C206.893 217.061 205.788 216.121 204.684 215.18C204.068 214.656 203.452 214.133 202.818 213.593C200.428 211.498 198.213 209.28 196 207C192.637 208.457 190.455 210.311 187.891 212.914C187.137 213.675 186.382 214.435 185.606 215.219C184.828 216.013 184.051 216.807 183.25 217.625C182.457 218.427 181.664 219.229 180.848 220.055C178.894 222.032 176.945 224.014 175 226C176.455 229.362 178.301 231.524 180.914 234.074C182.055 235.199 182.055 235.199 183.219 236.346C184.41 237.505 184.41 237.505 185.625 238.688C187.203 240.231 188.778 241.776 190.352 243.324C191.051 244.006 191.751 244.687 192.471 245.389C194 247 194 247 194 248C190.125 248.117 186.251 248.187 182.375 248.25C181.281 248.284 180.186 248.317 179.059 248.352C172.899 248.426 168.686 248.464 164 244C160.561 239.591 159.498 236.747 159.482 231.172C159.475 230.517 159.468 229.863 159.461 229.189C159.444 227.042 159.455 224.897 159.469 222.75C159.466 221.248 159.462 219.747 159.457 218.245C159.451 215.105 159.46 211.965 159.479 208.824C159.501 204.809 159.488 200.795 159.464 196.78C159.45 193.681 159.454 190.583 159.465 187.484C159.467 186.004 159.464 184.524 159.455 183.044C159.445 180.972 159.46 178.901 159.482 176.828C159.486 175.652 159.489 174.475 159.492 173.263C160.274 168.239 162.822 165.163 166.375 161.656C172.115 159.033 177.769 159.423 184 159.5Z" fill="black"/>
</g>
<defs>
<clipPath id="clip0_227_16">
<rect width="512" height="512" fill="white"/>
</clipPath>
</defs>
</svg>
