<svg width="512" height="512" viewBox="0 0 512 512" fill="none" xmlns="http://www.w3.org/2000/svg">
<path d="M352.3 142.834C359.845 150.256 366.381 158.032 372 167C372.36 167.575 372.72 168.149 373.092 168.741C383.894 186.254 391.665 206.468 394 227C394.109 227.883 394.219 228.766 394.332 229.676C398.277 266.027 388.215 302.325 365.35 330.873C356.552 341.522 346.983 350.182 335.623 358.068C329.116 362.64 323.51 367.416 320.687 375.062C320.382 375.858 320.076 376.653 319.762 377.473C318.78 380.537 318.78 380.537 318 386C277.08 386 236.16 386 194 386C193.01 382.04 192.02 378.08 191 374C186.915 366.428 181.865 362.053 175 357C168.364 351.969 162.105 346.666 156 341C155.406 340.471 154.811 339.943 154.199 339.398C131.222 318.011 118.518 284.509 116.875 253.662C115.654 216.422 126.385 180.387 151 152C151.708 151.171 152.415 150.342 153.144 149.488C176.865 122.361 209.884 107.177 245.562 104.312C285.441 101.98 323.358 115.2 352.3 142.834ZM228.687 186.188C219.986 195.294 215.745 204.841 215.504 217.266C216.129 220.71 217.262 221.881 220 224C223 224.667 223 224.667 226 224C229.832 221.001 230.597 218.529 231.375 213.812C232.927 206.498 235.123 201.034 241.121 196.34C248.036 192.264 255.162 191.912 263 193C270.185 195.018 274.132 198.59 277.941 204.914C281.299 211.531 281.125 219.878 279.199 226.934C275.848 234.5 270.482 237.617 263.406 241.379C256.314 245.299 251.942 249.514 249.195 257.273C247.197 265.514 246.018 277.312 250 285C252.161 287.08 252.161 287.08 255 288C258.203 287.738 258.203 287.738 261 286C264.964 280.086 264.434 274.011 264.439 267.168C264.582 260.599 264.582 260.599 266.711 257.551C269.136 255.908 271.547 254.581 274.187 253.312C285.127 247.464 291.64 238.851 295.633 227.145C297.744 214.812 296.059 204.109 289.426 193.477C282.953 184.393 273.191 178.608 262.273 176.465C249.46 174.895 239.292 179.184 228.687 186.188ZM250.562 306.625C248.528 309.717 248.394 311.364 249 315C250.437 317.52 250.437 317.52 253 319C257.666 319.579 257.666 319.579 261.875 317.812C263.354 315.43 263.866 313.816 264 311C262.858 308.717 261.81 306.81 260 305C256.142 304.636 253.84 304.44 250.562 306.625Z" fill="black"/>
<path d="M196 440C235.6 440 275.2 440 316 440C314.14 453.018 308.895 462.361 298.688 470.812C291.621 476.002 283.37 480.064 274.498 480.177C273.17 480.196 273.17 480.196 271.816 480.216C270.864 480.223 269.913 480.231 268.934 480.238C267.944 480.246 266.955 480.254 265.936 480.263C263.84 480.277 261.745 480.287 259.649 480.295C257.521 480.307 255.392 480.327 253.263 480.357C250.174 480.4 247.086 480.416 243.996 480.426C243.059 480.443 242.122 480.461 241.157 480.479C229.468 480.441 218.146 475.666 209.551 467.742C201.292 459.033 198.364 451.818 196 440Z" fill="black"/>
<path d="M195 401C235.26 401 275.52 401 317 401C317 408.92 317 416.84 317 425C276.74 425 236.48 425 195 425C195 417.08 195 409.16 195 401Z" fill="black"/>
<path d="M408 93C410.5 94.5 410.5 94.5 412 97C412.73 100.981 413.094 103.408 410.764 106.798C410.215 107.397 409.667 107.996 409.102 108.613C408.468 109.306 407.834 109.999 407.181 110.712C403.077 115.016 398.901 119.242 394.687 123.437C393.329 124.802 393.329 124.802 391.943 126.193C391.079 127.056 390.215 127.919 389.324 128.809C388.541 129.59 387.758 130.372 386.952 131.177C383.771 134.147 381.325 134.356 376.977 134.27C375 134 375 134 372.5 132.5C370.805 129.675 370.247 127.42 370.432 124.116C371.12 121.553 372.109 120.34 373.898 118.387C374.849 117.348 374.849 117.348 375.819 116.288C379.922 111.984 384.098 107.758 388.312 103.562C389.218 102.653 390.124 101.744 391.057 100.807C391.921 99.9436 392.785 99.0806 393.676 98.1914C394.459 97.4097 395.241 96.6279 396.048 95.8225C399.631 92.4775 403.271 92.3551 408 93Z" fill="black"/>
<path d="M137 364C139.5 365.5 139.5 365.5 141 368C141.73 371.981 142.094 374.408 139.764 377.798C139.216 378.397 138.667 378.996 138.102 379.613C137.468 380.306 136.834 380.999 136.181 381.712C132.078 386.016 127.902 390.242 123.688 394.437C122.329 395.802 122.329 395.802 120.943 397.193C120.079 398.056 119.215 398.919 118.324 399.809C117.541 400.59 116.758 401.372 115.952 402.177C113.334 404.621 112.312 404.965 108.688 405.375C105 405 105 405 102.062 402.938C100 400 100 400 99.25 396.688C101.044 387.868 111.143 380.705 117.312 374.562C118.218 373.653 119.124 372.744 120.057 371.807C120.921 370.944 121.785 370.081 122.676 369.191C123.459 368.41 124.242 367.628 125.048 366.823C128.631 363.478 132.271 363.355 137 364Z" fill="black"/>
<path d="M380.884 363.432C383.447 364.12 384.66 365.109 386.613 366.898C387.652 367.849 387.652 367.849 388.713 368.819C393.016 372.922 397.242 377.098 401.438 381.312C402.802 382.671 402.802 382.671 404.193 384.057C405.056 384.921 405.92 385.785 406.809 386.676C407.59 387.459 408.372 388.241 409.178 389.048C411.622 391.666 411.965 392.688 412.375 396.312C412 400 412 400 409.938 402.937C407 405 407 405 403.688 405.75C394.868 403.956 387.705 393.857 381.563 387.687C380.653 386.782 379.744 385.876 378.807 384.943C377.944 384.079 377.081 383.215 376.192 382.324C375.41 381.541 374.628 380.758 373.823 379.952C370.853 376.771 370.644 374.325 370.731 369.977C371 368 371 368 372.5 365.5C375.325 363.805 377.58 363.247 380.884 363.432Z" fill="black"/>
<path d="M108.312 92.25C117.132 94.0438 124.295 104.143 130.438 110.312C131.802 111.671 131.802 111.671 133.193 113.057C134.056 113.921 134.919 114.785 135.809 115.676C136.59 116.459 137.372 117.242 138.177 118.048C141.147 121.229 141.356 123.675 141.27 128.023C141 130 141 130 139.5 132.5C136.675 134.195 134.42 134.753 131.116 134.568C128.553 133.88 127.34 132.891 125.387 131.102C124.694 130.468 124.001 129.834 123.288 129.181C118.984 125.078 114.758 120.902 110.562 116.688C109.653 115.782 108.744 114.876 107.807 113.943C106.944 113.079 106.081 112.215 105.191 111.324C104.41 110.541 103.628 109.758 102.823 108.952C100.379 106.334 100.035 105.312 99.625 101.688C100 98 100 98 102.062 95.0625C105 93 105 93 108.312 92.25Z" fill="black"/>
<path d="M437.211 239.832C438.419 239.827 438.419 239.827 439.651 239.822C441.354 239.817 443.057 239.815 444.76 239.815C447.358 239.813 449.956 239.794 452.555 239.775C454.211 239.772 455.867 239.77 457.524 239.77C458.685 239.759 458.685 239.759 459.869 239.748C464 239.765 467.359 239.961 471 242C473.143 245.214 473.3 247.174 473.461 250.965C472.749 254.11 471.602 255.074 469 257C465.785 257.607 462.608 257.56 459.344 257.531C457.935 257.537 457.935 257.537 456.498 257.543C454.514 257.546 452.53 257.538 450.546 257.521C447.511 257.5 444.477 257.521 441.441 257.547C439.513 257.544 437.585 257.539 435.656 257.531C434.295 257.543 434.295 257.543 432.907 257.556C426.623 257.462 426.623 257.462 423.43 255.092C421.441 252.182 421.433 250.331 421.606 246.902C422.214 243.969 423.612 242.706 426 241C429.763 239.746 433.29 239.838 437.211 239.832Z" fill="black"/>
<path d="M54.211 239.797C55.0162 239.791 55.8213 239.785 56.6509 239.78C58.3538 239.77 60.0568 239.764 61.7598 239.76C64.3585 239.75 66.9563 239.719 69.5548 239.688C71.211 239.681 72.8673 239.676 74.5235 239.672C75.2976 239.66 76.0717 239.647 76.8693 239.634C82.704 239.658 85.9153 240.915 90.0001 245C90.6778 252.003 90.6778 252.003 88.5748 255.096C84.6804 257.976 81.0701 257.573 76.3438 257.531C74.9349 257.537 74.9349 257.537 73.4975 257.543C71.5138 257.546 69.5301 257.538 67.5465 257.521C64.5107 257.5 61.4772 257.521 58.4415 257.547C56.5131 257.544 54.5847 257.539 52.6563 257.531C51.2953 257.543 51.2953 257.543 49.9067 257.556C43.6228 257.462 43.6228 257.462 40.4298 255.092C38.4413 252.182 38.4332 250.331 38.6055 246.902C39.214 243.969 40.6115 242.706 43.0001 241C46.7596 239.747 50.2929 239.818 54.211 239.797Z" fill="black"/>
<path d="M256 31.5C256.66 31.4897 257.32 31.4794 258 31.4688C261.083 32.2876 262.087 33.4236 264 36C264.607 39.2148 264.56 42.3925 264.531 45.6562C264.535 46.5955 264.539 47.5348 264.543 48.5026C264.546 50.4863 264.538 52.47 264.522 54.4536C264.5 57.4894 264.521 60.5229 264.547 63.5586C264.544 65.487 264.539 67.4154 264.531 69.3438C264.539 70.2511 264.548 71.1585 264.556 72.0934C264.462 78.3773 264.462 78.3773 262.092 81.5703C259.831 83.1159 258.713 83.5424 256 83.5C255.01 83.5155 255.01 83.5155 254 83.5312C250.917 82.7124 249.913 81.5764 248 79C247.393 75.7852 247.44 72.6075 247.469 69.3438C247.465 68.4045 247.461 67.4652 247.457 66.4974C247.455 64.5137 247.462 62.53 247.479 60.5464C247.5 57.5106 247.479 54.4771 247.453 51.4414C247.456 49.513 247.461 47.5846 247.469 45.6562C247.461 44.7489 247.453 43.8415 247.444 42.9066C247.538 36.6227 247.538 36.6227 249.908 33.4297C252.17 31.8841 253.287 31.4576 256 31.5Z" fill="black"/>
</svg>
