<?xml version="1.0" encoding="UTF-8"?>
<svg version="1.1" xmlns="http://www.w3.org/2000/svg" width="512" height="512">
<path d="M0 0 C17.33274197 14.09872832 30.1033929 32.00053707 36.6237793 53.53320312 C36.81883057 54.17241699 37.01388184 54.81163086 37.21484375 55.47021484 C41.55591907 70.91578765 41.05280456 86.51679536 40.9362793 102.40820312 C40.92622918 104.80142855 40.91710692 107.19465805 40.90893555 109.58789062 C40.88708377 115.40308515 40.85376732 121.21812466 40.8112793 127.03320312 C41.46972336 127.0246933 42.12816742 127.01618347 42.80656433 127.00741577 C45.82243273 126.97340141 48.83826059 126.95242243 51.85424805 126.93164062 C52.88996948 126.9180249 53.92569092 126.90440918 54.99279785 126.89038086 C68.9449478 126.81833401 80.63230029 131.08609032 90.9987793 140.65820312 C103.3195743 153.80204718 105.29715648 168.84154145 105.10424805 186.17773438 C105.09863603 187.68372673 105.09437355 189.18972464 105.09138489 190.69572449 C105.0800622 194.61332977 105.05070755 198.53058848 105.01727295 202.44805908 C104.98629677 206.46402298 104.97282139 210.4800442 104.95776367 214.49609375 C104.92582231 222.34195296 104.87478351 230.18752904 104.8112793 238.03320312 C104.24960556 238.33533218 103.68793182 238.63746124 103.10923767 238.94874573 C100.51603058 240.34771381 97.92734119 241.75485327 95.33862305 243.16210938 C94.45541382 243.63700806 93.57220459 244.11190674 92.66223145 244.60119629 C64.50714319 259.95203727 38.23276685 286.44170387 27.7175293 317.23632812 C23.07112437 334.70336889 25.76685543 351.2637145 34.2878418 366.93945312 C35.69063946 369.78821146 36.67196341 371.86644583 36.8112793 375.03320312 C35.6237793 376.77929688 35.6237793 376.77929688 33.8112793 378.47070312 C27.91534907 384.69746711 23.72098213 392.92157485 21.71875 401.25585938 C21.41928467 402.50238281 21.11981934 403.74890625 20.8112793 405.03320312 C-7.38783818 405.12674533 -35.58693231 405.19723084 -63.78617382 405.24045181 C-76.88028851 405.26105564 -89.97430666 405.28913467 -103.06835938 405.33496094 C-114.48436894 405.3748953 -125.90030857 405.40065177 -137.31638604 405.4095571 C-143.35818506 405.41476063 -149.39978403 405.42694562 -155.44151878 405.45612335 C-161.13535531 405.48339659 -166.82891053 405.49162405 -172.52280617 405.48563385 C-174.60562293 405.48672877 -176.6884497 405.4946112 -178.77120972 405.51002502 C-196.0548911 405.63159579 -210.21569236 403.87945921 -223.66137695 391.81445312 C-232.6589525 382.56152068 -237.3389666 371.74681393 -237.33589172 358.95750427 C-237.33956841 358.13697022 -237.3432451 357.31643617 -237.3470332 356.47103745 C-237.35805877 353.71758309 -237.361912 350.96416648 -237.36572266 348.21069336 C-237.37198825 346.23782736 -237.37863514 344.26496253 -237.38563538 342.292099 C-237.40666999 335.80867331 -237.41703846 329.3252474 -237.42700195 322.84179688 C-237.43104999 320.60828196 -237.43516693 318.37476718 -237.43935204 316.14125252 C-237.45840383 305.64566635 -237.47263386 295.15008721 -237.480964 284.65448707 C-237.49073123 272.54867607 -237.51703748 260.44304817 -237.5574649 248.33730167 C-237.58765503 238.97491695 -237.60243571 229.61258462 -237.60574502 220.25015217 C-237.60809254 214.66120184 -237.61701419 209.07244712 -237.64220619 203.48354912 C-237.66554195 198.22137289 -237.66969794 192.9595203 -237.65944481 187.69730568 C-237.65895065 185.77168067 -237.66523555 183.84603943 -237.67900085 181.92046356 C-237.74636045 171.93461174 -237.75224313 163.18597103 -233.1887207 154.03320312 C-232.70790039 153.03804687 -232.22708008 152.04289063 -231.73168945 151.01757812 C-224.28403997 138.7407611 -214.27430477 131.38367821 -200.31488037 127.65887451 C-195.04293863 126.60374507 -189.85607996 126.7178161 -184.5012207 126.84570312 C-183.40616211 126.85923828 -182.31110352 126.87277344 -181.18286133 126.88671875 C-178.51760657 126.92163475 -175.85344567 126.97066595 -173.1887207 127.03320312 C-173.19760315 126.35907379 -173.2064856 125.68494446 -173.21563721 124.99038696 C-173.3051131 117.88332728 -173.36486445 110.77643117 -173.40844727 103.66894531 C-173.42610026 101.02701387 -173.45554392 98.38598677 -173.49047852 95.74414062 C-173.95034179 60.03710996 -165.44405731 32.46533824 -140.67700195 6.38867188 C-129.15183931 -4.81879869 -114.44308187 -13.07596561 -99.1887207 -17.96679688 C-98.23304199 -18.27786377 -98.23304199 -18.27786377 -97.25805664 -18.59521484 C-64.53739857 -28.78517852 -26.71736602 -21.01771475 0 0 Z M-115.54418945 43.77148438 C-134.38596143 68.76422881 -130.1887207 95.277184 -130.1887207 127.03320312 C-88.2787207 127.03320312 -46.3687207 127.03320312 -3.1887207 127.03320312 C-0.72657696 78.03914753 -0.72657696 78.03914753 -22.36450195 38.69335938 C-35.33379989 26.47746464 -51.90637166 20.18508312 -69.77075195 20.68554688 C-87.67584004 22.50675012 -103.66779063 29.96492455 -115.54418945 43.77148438 Z " fill="#000000" transform="translate(237.188720703125,21.966796875)"/>
<path d="M0 0 C1.23525925 -0.01606293 2.47051849 -0.03212585 3.74320984 -0.04867554 C5.09418038 -0.06016551 6.44515867 -0.07077362 7.79614258 -0.08056641 C8.47845758 -0.08589008 9.16077259 -0.09121376 9.86376381 -0.09669876 C13.47801208 -0.12340712 17.09222616 -0.14278603 20.70654297 -0.15722656 C23.68732553 -0.17054233 26.66741967 -0.19835243 29.64794922 -0.23925781 C33.25656682 -0.28877509 36.86456224 -0.31337079 40.47350502 -0.32045364 C41.84296782 -0.32713549 43.21241841 -0.34227731 44.58168602 -0.36634445 C52.57256882 -0.49874166 58.89053919 -0.40573886 65.00317383 5.19287109 C68.63757192 9.69088854 68.5164299 13.74114101 68.33911133 19.33349609 C67.43629804 27.01790684 60.31009435 32.0900629 55.00317383 37.19287109 C65.53670098 46.09188541 82.75575888 48.15961517 96.00317383 47.19287109 C115.98375474 44.3543424 132.58317852 35.1739978 145.00317383 19.19287109 C146.85061184 16.37861968 148.60478868 13.52149692 150.35473633 10.64599609 C153.98943216 5.23701746 158.52915181 1.4876755 165.00317383 0.19287109 C171.74087612 -0.62536979 177.2627261 0.50258327 183.00317383 4.19287109 C187.51115572 8.25776075 190.54065018 12.64327101 191.33911133 18.77099609 C191.5666226 34.33276728 181.1256819 46.60622634 170.78051758 57.38037109 C149.99995674 78.423977 123.53938085 91.0561357 93.72241211 91.48535156 C80.70875744 91.55098815 68.48047036 91.23706637 56.00317383 87.19287109 C55.32158203 86.97856445 54.63999023 86.76425781 53.93774414 86.54345703 C43.78209633 83.27250999 31.65006657 78.83976384 24.00317383 71.19287109 C19.40143234 71.68781242 17.0117409 74.9244599 14.00317383 78.13037109 C6.70875646 85.84909244 6.70875646 85.84909244 1.63598633 86.49365234 C-3.65592796 86.51838092 -7.4999693 86.2978437 -11.99682617 83.19287109 C-16.60909705 78.32436294 -18.23816261 73.89467638 -18.28735352 67.24438477 C-18.30011322 66.06933884 -18.31287292 64.89429291 -18.32601929 63.68363953 C-18.32935776 61.79135368 -18.32935776 61.79135368 -18.33276367 59.86083984 C-18.33942047 58.55512527 -18.34607727 57.24941071 -18.35293579 55.90412903 C-18.36488809 53.14283951 -18.36861883 50.38167488 -18.36743164 47.62036133 C-18.36722876 44.09988933 -18.39450647 40.58022741 -18.42897606 37.05994701 C-18.45670421 33.68106726 -18.45539726 30.3023317 -18.45776367 26.92333984 C-18.4721347 25.66788864 -18.48650574 24.41243744 -18.50131226 23.11894226 C-18.46429882 15.99385541 -17.89755927 11.22180485 -13.99682617 5.19287109 C-9.48359663 0.89979909 -6.10727628 0.07216311 0 0 Z " fill="#000000" transform="translate(315.996826171875,420.80712890625)"/>
<path d="M0 0 C0.66363556 0.00182281 1.32727112 0.00364563 2.01101685 0.00552368 C11.80834536 0.05086596 20.8224143 0.48307878 30.25 3.3125 C31.44496094 3.64121094 32.63992188 3.96992188 33.87109375 4.30859375 C45.14287051 7.69833723 57.03611638 12.83663577 66.25 20.3125 C71.10994267 18.33044965 74.09009167 14.47641498 77.6171875 10.72265625 C82.61402807 6.14839716 87.07994056 4.68437595 93.71484375 4.89453125 C98.86679284 5.74392809 102.79286522 8.29275253 105.83045959 12.50318909 C107.52348418 15.85373299 107.63636104 18.09990709 107.65405273 21.84350586 C107.67307899 23.7959446 107.67307899 23.7959446 107.69248962 25.78782654 C107.69043799 27.20100056 107.6874498 28.6141735 107.68359375 30.02734375 C107.68815811 31.48556257 107.69346445 32.94377924 107.69947815 34.4019928 C107.70839953 37.45420078 107.70599758 40.50614698 107.69604492 43.55834961 C107.68455852 47.4601673 107.70476542 51.36107951 107.73396206 55.26277828 C107.75235285 58.27321566 107.75202592 61.28343722 107.74632454 64.2939167 C107.74617166 65.73196241 107.75218823 67.17002305 107.76461601 68.60801506 C107.77957501 70.62265897 107.76619368 72.63745224 107.75170898 74.65209961 C107.75154282 75.79617783 107.75137665 76.94025604 107.75120544 78.1190033 C106.93647305 83.31017836 104.38367963 86.38307825 100.39086914 89.65649414 C94.73646589 92.54859371 88.18347611 91.86505341 81.99609375 91.80859375 C80.60799585 91.80874896 79.21989753 91.81024152 77.83180237 91.81300354 C74.93267492 91.81438292 72.03404498 91.80190646 69.13500977 91.77905273 C65.4306333 91.75064213 61.7270808 91.75341846 58.02264309 91.76614285 C55.15974464 91.77311744 52.29703461 91.76529104 49.43416023 91.75288582 C48.06870307 91.74839043 46.70322555 91.7480177 45.33776665 91.75195122 C43.42623409 91.75488131 41.51470601 91.7361326 39.60327148 91.71655273 C38.51852036 91.71114975 37.43376923 91.70574677 36.31614685 91.70018005 C31.55964766 91.09877381 28.28384688 89.40378282 25 85.9375 C21.71854319 81.01531478 20.64382242 77.27324619 21.25 71.3125 C23.45931581 64.06179239 28.81980139 59.32499102 34.25 54.3125 C23.62423101 45.53023792 7.61344208 43.25792504 -5.75 44.3125 C-24.18687371 46.98511589 -40.69708401 54.87634941 -52.75 69.3125 C-54.80363733 72.26675247 -56.6806791 75.32569966 -58.55810547 78.39379883 C-62.46952631 84.69378702 -66.60538169 88.89546817 -73.75 91.3125 C-81.67735705 92.46933398 -88.2406605 91.01564439 -94.75 86.3125 C-100.33280197 80.44734942 -101.23992347 74.67849007 -101.14453125 66.84765625 C-99.28135175 50.15283004 -81.51118273 32.94862381 -68.93261719 22.85400391 C-48.72799262 7.65434417 -25.19973461 -0.10948817 0 0 Z " fill="#000000" transform="translate(404.75,287.6875)"/>
</svg>
