<svg width="20" height="22" viewBox="0 0 20 22" fill="none" xmlns="http://www.w3.org/2000/svg">
<g clip-path="url(#clip0_95_11)">
<path fill-rule="evenodd" clip-rule="evenodd" d="M6.75 10.9998C6.75 12.7918 8.20796 14.2498 9.99996 14.2498C11.792 14.2498 13.25 12.7918 13.25 10.9998C13.25 9.2078 11.792 7.74976 9.99996 7.74976C8.20796 7.74976 6.75 9.2078 6.75 10.9998ZM8.24996 10.9998C8.24996 10.0348 9.03496 9.2498 9.99996 9.2498C10.965 9.2498 11.75 10.0348 11.75 10.9998C11.75 11.9648 10.965 12.7498 9.99996 12.7498C9.03496 12.7498 8.24996 11.9648 8.24996 10.9998Z" fill="black"/>
<path fill-rule="evenodd" clip-rule="evenodd" d="M6.77499 18.008C6.77499 19.796 8.22194 21.25 9.99994 21.25C11.7779 21.25 13.2249 19.796 13.2249 18.008C13.2249 17.585 13.5049 17.378 13.6259 17.308C13.7449 17.241 14.0559 17.106 14.4119 17.311C15.1569 17.745 16.025 17.859 16.857 17.637C17.691 17.413 18.388 16.875 18.819 16.123C19.706 14.577 19.176 12.592 17.639 11.698C17.28 11.488 17.2409 11.14 17.2409 11C17.2409 10.86 17.28 10.512 17.6399 10.303C19.176 9.41 19.705 7.425 18.819 5.877C18.387 5.124 17.69 4.587 16.8559 4.363C16.024 4.143 15.1569 4.258 14.4129 4.69C14.0569 4.895 13.7429 4.759 13.6259 4.691C13.5049 4.622 13.2249 4.415 13.2249 3.992C13.2249 2.204 11.7779 0.75 9.99994 0.75C8.22194 0.75 6.77499 2.204 6.77499 3.992C6.77499 4.415 6.49499 4.622 6.37399 4.691C6.25599 4.762 5.94299 4.896 5.58899 4.69C4.84399 4.258 3.97699 4.143 3.14399 4.363C2.30999 4.587 1.61299 5.124 1.18099 5.877C0.294994 7.425 0.823994 9.41 2.35999 10.303C2.71999 10.512 2.75799 10.86 2.75799 11C2.75799 11.139 2.71999 11.488 2.35999 11.697C0.823994 12.592 0.294994 14.577 1.18099 16.123C1.61199 16.875 2.30899 17.412 3.14299 17.637C3.97399 17.859 4.84299 17.744 5.58999 17.31C5.94299 17.105 6.25599 17.241 6.37399 17.308C6.49399 17.378 6.77499 17.585 6.77499 18.008ZM7.12099 16.009C6.76499 15.804 6.37399 15.701 5.98299 15.701C5.58799 15.701 5.19399 15.805 4.83499 16.014C4.43699 16.244 3.97399 16.306 3.53199 16.187C3.08699 16.068 2.71299 15.78 2.48299 15.377C2.00399 14.544 2.28799 13.474 3.11499 12.994C3.83099 12.577 4.25799 11.831 4.25799 11C4.25799 10.169 3.83099 9.423 3.11399 9.006C2.28899 8.525 2.00499 7.457 2.48199 6.623C2.71299 6.22 3.08699 5.931 3.53199 5.812C3.97599 5.696 4.43799 5.757 4.83599 5.987C5.55099 6.403 6.40599 6.404 7.12199 5.992C7.84399 5.576 8.27494 4.829 8.27494 3.992C8.27494 3.031 9.04894 2.25 9.99994 2.25C10.9509 2.25 11.7249 3.031 11.7249 3.992C11.7249 4.828 12.1549 5.575 12.8769 5.991C13.5939 6.404 14.4489 6.401 15.1659 5.987C15.5629 5.757 16.0239 5.694 16.4679 5.812C16.9139 5.931 17.287 6.22 17.5179 6.623C17.995 7.457 17.712 8.526 16.885 9.006C16.169 9.423 15.7419 10.169 15.7419 11C15.7419 11.831 16.169 12.577 16.885 12.994C17.712 13.474 17.996 14.544 17.5179 15.377C17.287 15.78 16.9139 16.068 16.4679 16.187C16.0249 16.306 15.5629 16.244 15.1659 16.014C14.4509 15.598 13.5949 15.597 12.8779 16.009C12.1559 16.424 11.7249 17.172 11.7249 18.008C11.7249 18.969 10.9509 19.75 9.99994 19.75C9.04894 19.75 8.27494 18.969 8.27494 18.008C8.27494 17.171 7.84399 16.424 7.12099 16.009Z" fill="black"/>
</g>
<defs>
<clipPath id="clip0_95_11">
<rect width="20" height="22" fill="white"/>
</clipPath>
</defs>
</svg>
