<?xml version="1.0" encoding="UTF-8"?>
<svg version="1.1" xmlns="http://www.w3.org/2000/svg" width="512" height="512">
<path d="M0 0 C1.04668844 -0.00367669 2.09337688 -0.00735338 3.17178315 -0.01114148 C6.67891409 -0.02215383 10.18601538 -0.02601806 13.69316101 -0.02983093 C16.20830377 -0.03609758 18.7234456 -0.04274456 21.23858643 -0.04974365 C28.78684455 -0.06895214 36.33509745 -0.07957048 43.88337377 -0.08847144 C47.44506894 -0.09286206 51.00676264 -0.09822696 54.56845665 -0.10346031 C66.42138135 -0.12047076 78.27430515 -0.13496154 90.12724018 -0.14220905 C93.20032057 -0.14411871 96.27340096 -0.14603907 99.34648132 -0.147995 C100.49207081 -0.14872061 100.49207081 -0.14872061 101.66080352 -0.14946087 C114.01298258 -0.15774855 126.36506442 -0.18306486 138.71720109 -0.21557567 C151.42220447 -0.24874025 164.12715861 -0.26666638 176.83220547 -0.26985329 C183.95607262 -0.27201003 191.07979809 -0.28063483 198.20362282 -0.30631447 C204.91368029 -0.33044772 211.62344022 -0.33378857 218.33354759 -0.32355309 C220.78557049 -0.32305997 223.23760631 -0.32931344 225.68959045 -0.34310913 C252.21404806 -0.48389663 275.77252089 4.64912203 296.59819031 22.14717102 C297.69067078 23.0211554 297.69067078 23.0211554 298.80522156 23.91279602 C318.22528965 40.10185453 328.13365102 64.44651821 330.59819031 89.14717102 C331.15130952 96.73116031 331.3748729 104.33562374 331.65141296 111.93354797 C331.73977242 114.21391103 331.82875363 116.49425007 331.91830444 118.77456665 C332.1585175 124.94133497 332.38949288 131.10841661 332.61834002 137.27561593 C332.81161785 142.45945549 333.00963075 147.64310979 333.20766389 152.82676953 C333.7031301 165.79624172 334.18991006 178.76602295 334.672419 191.73598298 C335.06205789 202.20381071 335.45951207 212.67131713 335.86283875 223.1386261 C336.33408012 235.36855232 336.79986095 247.59866839 337.25823438 259.8290841 C337.4997927 266.27402535 337.74331097 272.71887381 337.99255753 279.16352272 C339.76311175 325.0914069 339.76311175 325.0914069 339.94334483 347.50581777 C339.95861908 349.20547353 339.98018381 350.90508849 340.00908399 352.60456717 C340.23907444 367.19410923 338.02999517 380.59835221 331.47319031 393.83467102 C331.08558533 394.63010315 330.69798035 395.42553528 330.29862976 396.24507141 C318.83611937 418.96134925 298.630589 435.80125453 274.89115906 444.50654602 C265.88317797 447.34792063 257.76748821 448.29597745 248.36117554 448.29434204 C247.22464895 448.29801873 246.08812235 448.30169542 244.91715556 448.30548352 C241.10599524 448.31650287 237.29486221 448.32036129 233.48368835 448.32417297 C230.75179818 448.32990923 228.01991206 448.33707356 225.2880249 448.34408569 C217.08718613 448.36381613 208.88634619 448.37391312 200.68548962 448.38281348 C196.81696555 448.38720302 192.94844282 448.39256819 189.07991982 448.39780235 C176.20788577 448.41481313 163.33585256 448.42930437 150.46380901 448.43655109 C147.12603441 448.43846078 143.78825981 448.44038114 140.45048523 448.44233704 C139.62096538 448.44282078 138.79144553 448.44330452 137.93678872 448.44380292 C124.51763651 448.45209227 111.09857375 448.47741132 97.67946055 448.50991771 C83.88060531 448.54306945 70.0817954 448.56100726 56.28290015 448.56419533 C48.54423302 448.56635321 40.80569624 448.57499509 33.0670681 448.60065651 C26.47236639 448.62247492 19.87782671 448.63035976 13.283093 448.62068973 C9.92487699 448.61617653 6.56726269 448.62008327 3.20904922 448.63745117 C-27.86754889 448.78908931 -52.74853149 442.08843372 -75.61274719 420.03779602 C-80.11360697 415.50290912 -83.82325744 410.42571416 -87.40180969 405.14717102 C-87.9548175 404.34924133 -88.50782532 403.55131165 -89.07759094 402.72920227 C-99.70069256 386.34162691 -102.96158212 367.32383769 -102.70576477 348.1476593 C-102.69482352 346.55612468 -102.68422332 344.96458769 -102.67392445 343.37304878 C-102.47433472 320.89407757 -101.53659361 298.42349101 -100.68324256 275.96217108 C-100.48698646 270.77780964 -100.29483795 265.59329869 -100.1025241 260.40878975 C-99.62290668 247.48447837 -99.1345608 234.56051384 -98.64221219 221.63668193 C-98.21717132 210.47160339 -97.80433654 199.30611114 -97.39701941 188.14037322 C-96.97517901 176.57987904 -96.54454359 165.01974238 -96.10537177 153.45989335 C-95.86034493 147.00735767 -95.6186431 140.55474355 -95.38576317 134.10175705 C-95.16695829 128.04838774 -94.93697422 121.99554046 -94.69874573 115.94290543 C-94.61379733 113.73857555 -94.5326407 111.53409533 -94.45580482 109.32946777 C-93.27573626 75.67143863 -86.85265136 47.56727103 -61.67915344 23.54951477 C-44.47711359 8.77957481 -22.65700904 -0.00428512 0 0 Z M-36.40180969 46.14717102 C-37.43305969 46.86904602 -38.46430969 47.59092102 -39.52680969 48.33467102 C-52.94560057 60.24093922 -59.57742155 77.65722907 -60.81206322 95.17436028 C-61.15930149 101.23516034 -61.36259597 107.30070308 -61.56855774 113.36763 C-61.65662534 115.69379077 -61.74576649 118.01991109 -61.83589172 120.34599304 C-62.07633984 126.63385468 -62.30141883 132.92218004 -62.52335334 139.21071887 C-62.73533431 145.15774421 -62.95815177 151.10435678 -63.18056462 157.05099965 C-63.621636 168.85589035 -64.05086285 180.66118169 -64.4733429 192.4667511 C-64.88066979 203.84859283 -65.29628664 215.23009045 -65.72138977 226.61128235 C-65.74748456 227.30994266 -65.77357935 228.00860296 -65.80046489 228.72843479 C-65.82652102 229.42603419 -65.85257714 230.12363359 -65.87942284 230.84237236 C-66.39118709 244.54538367 -66.89399137 258.24871358 -67.39413476 271.95215344 C-67.53718357 275.85655766 -67.68178764 279.76090163 -67.82674217 283.66523552 C-68.41222649 299.49081752 -68.96351108 315.31675694 -69.40180969 331.14717102 C-69.42622273 332.01802794 -69.45063577 332.88888486 -69.47578859 333.78613138 C-69.61549845 338.93267031 -69.70872152 344.07744506 -69.76826477 349.22554016 C-69.79477206 350.37595763 -69.82127935 351.5263751 -69.8485899 352.71165371 C-69.89946305 370.28237975 -62.45486402 385.63053768 -50.40180969 398.14717102 C-34.45511553 412.32945504 -17.31922611 416.31451329 3.38731384 416.28088379 C4.42728602 416.28314935 5.4672582 416.2854149 6.53874469 416.28774911 C9.9990011 416.29404354 13.45921789 416.29326269 16.91947937 416.29243469 C19.41052297 416.29542902 21.90156611 416.29883218 24.39260864 416.3026123 C30.44255457 416.31051397 36.49248512 416.31366574 42.54243478 416.31422468 C47.46436964 416.3147013 52.38630132 416.31676328 57.30823517 416.31992531 C71.28930577 416.32872332 85.27036872 416.333346 99.2514421 416.33259483 C100.00379382 416.33255488 100.75614553 416.33251492 101.53129578 416.33247375 C102.28457518 416.33243287 103.03785459 416.33239199 103.81396064 416.33234987 C116.01591546 416.33194361 128.2178394 416.34151051 140.41978529 416.35561212 C152.97460944 416.37000608 165.52941856 416.37688065 178.08425117 416.37601835 C185.12240133 416.37568743 192.16051911 416.37838826 199.1986618 416.3891964 C205.82087367 416.39930136 212.4430291 416.39893531 219.06524849 416.39167976 C221.48788872 416.39063779 223.91053326 416.39297369 226.33316612 416.39904022 C246.98304174 416.44737768 265.45832758 416.22100792 282.59819031 403.14717102 C283.32522156 402.6083429 284.05225281 402.06951477 284.80131531 401.51435852 C297.33477281 391.39118131 305.98176427 375.242468 308.28454018 359.38529968 C308.64419453 355.67222273 308.70520796 351.99673193 308.69081116 348.27070618 C308.68895699 347.49116388 308.68710282 346.71162159 308.68519247 345.9084568 C308.62449313 335.3852923 308.20008729 324.8728304 307.80375671 314.35810852 C307.71806729 312.02016658 307.63265141 309.6822146 307.54748535 307.34425354 C307.31713571 301.04666799 307.08250644 294.74924917 306.84669161 288.45186615 C306.67430904 283.84170921 306.5033323 279.23150089 306.33248746 274.62128675 C305.87224926 262.20279644 305.4089926 249.78442257 304.94271 237.36615777 C304.91635248 236.66418511 304.88999497 235.96221245 304.86283875 235.2389679 C304.83644783 234.53612097 304.81005692 233.83327404 304.78286628 233.10912871 C304.35522854 221.715678 303.93423375 210.32199277 303.51624723 198.92818427 C303.08509074 187.17746858 302.64893362 175.4269475 302.20766389 163.67660713 C301.96079616 157.10023581 301.7160343 150.52379882 301.47641373 143.94715881 C301.2508484 137.76126595 301.0188199 131.57564748 300.78201866 125.39017487 C300.69669627 123.13377603 300.61358667 120.87729213 300.53297997 118.62071991 C300.16745848 108.42148807 299.74678251 98.25079467 298.67298889 88.09785461 C298.56439873 87.03462447 298.56439873 87.03462447 298.45361483 85.94991493 C296.67087703 70.65591062 288.06028173 56.06741222 276.32084656 46.24092102 C260.67434115 34.67721524 244.47822286 31.97950998 225.53074646 32.01345825 C224.58046357 32.0111927 223.63018069 32.00892714 222.65110135 32.00659293 C219.50031358 32.00031612 216.34956953 32.00107819 213.19877625 32.00190735 C210.92595362 31.99891192 208.65313151 31.99550851 206.38031006 31.99172974 C200.22932128 31.98292488 194.07834643 31.98055311 187.92735195 31.97991395 C184.07830347 31.97920148 180.22925849 31.97706344 176.38021088 31.97441673 C163.62753825 31.96565127 150.87487715 31.96099557 138.12220225 31.96174721 C137.43639257 31.96178716 136.75058288 31.96182712 136.04399109 31.96186829 C135.01400399 31.96192961 135.01400399 31.96192961 133.96320906 31.96199217 C122.84190201 31.96239838 111.72062885 31.95283191 100.59933159 31.93872992 C89.14849099 31.92432594 77.69767375 31.91764458 66.2468226 31.9183237 C59.83072403 31.91857787 53.41466387 31.91577117 46.9985733 31.90514565 C40.96072975 31.89541873 34.92296095 31.89541684 28.88511467 31.90266228 C26.67897621 31.9037024 24.47283298 31.90137952 22.26670265 31.89530182 C0.42589051 31.83906598 -17.93903495 33.07319952 -36.40180969 46.14717102 Z " fill="#000000" transform="translate(137.4018096923828,31.852828979492188)"/>
<path d="M0 0 C4.73288609 3.82658876 6.00466315 7.77936555 6.7109375 13.68359375 C6.91712816 15.72599805 7.11738947 17.76900745 7.3125 19.8125 C9.40612487 38.65512387 15.37482684 53.97872169 27.9375 68.375 C28.45699219 68.98988281 28.97648437 69.60476562 29.51171875 70.23828125 C42.90127852 84.90946135 63.72101118 92.21144737 83.06640625 93.3359375 C104.57856373 93.55301275 123.67427795 86.5668306 139.9375 72.375 C140.55238281 71.85550781 141.16726563 71.33601563 141.80078125 70.80078125 C157.64962494 56.33643425 163.73028592 34.68172297 165.02807617 13.99780273 C165.44651038 8.76053792 166.50708426 5.5620308 169.9375 1.375 C175.27536424 -2.62839818 181.54638632 -2.38747871 187.9375 -1.625 C191.86750184 -0.40463101 194.30489837 1.41195705 196.59765625 4.90234375 C198.36383929 9.48000184 198.38842489 13.4489183 198.3125 18.3125 C198.30307373 19.24400879 198.29364746 20.17551758 198.28393555 21.13525391 C198.11018451 29.1804114 197.06466923 36.58973287 194.9375 44.375 C194.60878906 45.5815625 194.28007812 46.788125 193.94140625 48.03125 C185.78351216 74.9043129 167.36432229 98.81597952 142.75244141 112.59863281 C116.90200465 126.35693802 84.44045695 131.92935038 55.9375 123.375 C54.74253906 123.04628906 53.54757813 122.71757812 52.31640625 122.37890625 C25.43084253 114.29365348 1.48424475 95.77990135 -12.28613281 71.18994141 C-21.20716336 54.42824492 -26.18419045 37.32985197 -26.375 18.3125 C-26.40400391 17.34505859 -26.43300781 16.37761719 -26.46289062 15.38085938 C-26.5164448 9.36219422 -26.07936672 5.94996886 -22.0625 1.375 C-16.10664638 -3.09189022 -6.62511738 -3.36894267 0 0 Z " fill="#000000" transform="translate(170.0625,97.625)"/>
</svg>
