<svg width="512" height="512" viewBox="0 0 512 512" fill="none" xmlns="http://www.w3.org/2000/svg">
<g clip-path="url(#clip0_267_2)">
<path d="M142.937 51.25C148.718 56.1549 148.718 56.1549 150 60C150.505 67.8264 149.71 75.1828 148.12 82.8298C147.92 83.8379 147.72 84.846 147.514 85.8847C146.858 89.1742 146.185 92.4601 145.512 95.7461C145.047 98.0485 144.583 100.351 144.121 102.654C143.152 107.459 142.175 112.262 141.192 117.064C139.934 123.217 138.694 129.373 137.46 135.531C136.507 140.278 135.545 145.022 134.58 149.766C134.119 152.036 133.661 154.307 133.206 156.578C132.569 159.746 131.92 162.911 131.268 166.076C130.99 167.479 130.99 167.479 130.706 168.911C129.288 175.688 127.394 180.565 121.73 184.984C117.29 187.591 113.195 187.303 108.328 186.07C102.583 183.8 98.7876 179.285 94.6248 174.875C93.0355 173.225 91.4445 171.576 89.8513 169.93C89.1586 169.2 88.4659 168.47 87.7522 167.718C86.0995 165.922 86.0995 165.922 83.9998 165C83.7471 165.82 83.4945 166.64 83.2342 167.484C82.0799 170.772 80.7445 173.855 79.284 177.012C67.6701 202.145 61.5543 228.156 61.6248 255.875C61.6253 256.684 61.6259 257.494 61.6264 258.328C61.6691 272.199 62.7495 285.472 65.9998 299C66.3212 300.351 66.3212 300.351 66.6492 301.729C77.5604 346.096 104.028 386.093 141 413C141.563 413.413 142.127 413.826 142.707 414.252C183.616 443.863 235.431 456.221 285.312 448.813C336.053 440.514 382.695 412.641 413 371C413.413 370.437 413.826 369.873 414.252 369.292C436.713 338.262 449.425 300.997 450.571 262.745C450.808 256.324 451.142 250.191 455.437 245.125C458.774 242.358 460.773 240.755 465.101 240.709C465.922 240.697 466.743 240.684 467.589 240.671C468.916 240.667 468.916 240.667 470.269 240.664C471.183 240.657 472.097 240.651 473.038 240.644C474.972 240.634 476.907 240.629 478.841 240.629C481.791 240.625 484.739 240.589 487.689 240.551C489.57 240.545 491.451 240.541 493.332 240.539C494.649 240.517 494.649 240.517 495.993 240.496C501.469 240.536 504.738 241.232 509 245C511.809 248.625 512.39 251.307 512.433 255.848C512.451 257.57 512.451 257.57 512.468 259.327C512.458 260.559 512.448 261.792 512.437 263.062C512.429 264.349 512.421 265.636 512.412 266.962C511.777 313.272 495.828 359.729 470 398C469.594 398.602 469.188 399.205 468.77 399.826C462.735 408.702 456.079 416.939 449 425C448.25 425.862 447.499 426.725 446.726 427.613C437.567 437.979 427.915 447.485 417 456C416.016 456.789 415.033 457.578 414.019 458.391C369.119 494.116 313.457 512.535 256.375 512.313C255.405 512.311 254.436 512.309 253.437 512.307C239.107 512.262 225.087 511.852 211 509C210.082 508.818 209.164 508.636 208.219 508.448C201.767 507.136 195.377 505.634 189 504C187.884 503.718 187.884 503.718 186.745 503.431C136.251 490.431 88.0613 457.958 55.9998 417C55.2096 416.015 54.4194 415.03 53.6053 414.016C21.6405 373.83 0.221745 320.981 -0.238493 269.227C-0.248286 268.313 -0.25808 267.4 -0.268171 266.459C-0.439783 246.301 -0.283103 226.791 3.99979 207C4.2141 205.983 4.4284 204.966 4.6492 203.918C11.1508 173.823 23.3061 146.36 38.9998 120C33.7481 113.655 27.9815 107.985 22.0135 102.316C17.1203 97.5399 13.5474 93.6209 12.7146 86.5938C13.2472 81.5857 14.4726 78.1507 18.0817 74.5442C23.659 70.054 32.1693 69.1883 39.0266 67.8235C39.9856 67.628 40.9446 67.4325 41.9327 67.231C45.0763 66.592 48.2215 65.9615 51.367 65.332C53.5698 64.8881 55.7726 64.444 57.9754 63.9997C62.5825 63.072 67.1905 62.1489 71.7991 61.2288C77.6842 60.053 83.5662 58.8623 89.4475 57.6676C93.993 56.7466 98.5404 55.8354 103.088 54.9268C105.257 54.4921 107.425 54.0539 109.592 53.6122C112.631 52.9941 115.672 52.3896 118.714 51.7883C120.036 51.5149 120.036 51.5149 121.385 51.2359C128.305 49.891 136.293 48.4226 142.937 51.25Z" fill="black"/>
<path d="M236.578 187.645C246.021 194.571 253.592 204.301 256 216C256.923 228.298 257.114 240.598 252 252C251.611 252.924 251.221 253.849 250.82 254.801C244.17 268.712 231.67 277.093 219 285C216.803 286.382 214.618 287.779 212.437 289.188C211.529 289.759 210.62 290.33 209.684 290.918C207.35 292.728 205.714 294.391 203.832 296.63C203.3 297.261 202.767 297.892 202.218 298.542C201.816 299.023 201.414 299.504 201 300C201.563 300.004 202.126 300.007 202.706 300.011C208.579 300.053 214.451 300.122 220.324 300.208C222.514 300.236 224.704 300.257 226.894 300.271C230.047 300.292 233.199 300.339 236.352 300.391C237.327 300.392 238.302 300.393 239.307 300.394C245.171 300.52 248.512 301.134 253 305C257.056 310.223 256.774 315.653 256 322C253.82 326.603 251.524 328.78 247 331C243.706 331.388 243.706 331.388 239.918 331.404C238.878 331.414 238.878 331.414 237.817 331.425C235.535 331.443 233.254 331.439 230.973 331.434C229.38 331.438 227.787 331.443 226.194 331.449C222.86 331.458 219.525 331.456 216.191 331.446C211.926 331.435 207.661 331.455 203.397 331.484C200.108 331.502 196.82 331.502 193.532 331.496C191.96 331.496 190.388 331.502 188.816 331.515C186.614 331.53 184.413 331.519 182.211 331.502C180.96 331.502 179.71 331.501 178.421 331.501C173.487 330.778 170.342 328.589 167.152 324.812C165.525 320.84 165.509 317.257 165.562 313C165.57 312.156 165.578 311.311 165.585 310.441C165.776 303.122 167.115 296.759 170 290C170.389 289.071 170.779 288.141 171.18 287.184C177.859 273.291 190.321 264.9 203 257C216.65 248.646 216.65 248.646 224 235C224.35 231.512 224.35 231.512 224.312 227.938C224.329 226.75 224.346 225.563 224.363 224.34C223.869 219.792 222.347 217.184 218.937 214.188C213.707 212.073 208.293 212.073 203.062 214.188C198.794 217.939 197.609 222.032 196.625 227.5C195.064 234.771 193.108 236.928 187 241C181.446 241.689 176.529 241.724 171.437 239.313C167.871 235.929 166.187 233.407 165.531 228.469C165.416 213.82 169.41 203.077 179.582 192.328C194.829 177.935 219.203 176.561 236.578 187.645Z" fill="black"/>
<path d="M307 181C311.626 183.191 313.694 185.508 316 190C317.82 199.844 314.151 209.119 310.969 218.266C310.452 219.795 309.936 221.325 309.422 222.855C308.077 226.846 306.71 230.828 305.338 234.81C303.938 238.888 302.558 242.974 301.176 247.059C298.471 255.046 295.741 263.025 293 271C300.59 271 308.18 271 316 271C315.954 267.388 315.907 263.776 315.86 260.055C315.828 256.55 315.804 253.045 315.78 249.54C315.76 247.107 315.733 244.675 315.698 242.242C315.65 238.742 315.627 235.243 315.61 231.742C315.589 230.658 315.568 229.573 315.547 228.456C315.545 222.308 315.847 218.656 320 214C325.223 209.944 330.654 210.226 337 211C341.578 213.168 343.961 215.397 346 220C346.416 223.884 346.349 227.743 346.293 231.645C346.289 232.769 346.285 233.894 346.28 235.053C346.263 238.64 346.226 242.226 346.188 245.812C346.173 248.247 346.159 250.681 346.147 253.115C346.114 259.077 346.063 265.038 346 271C346.907 270.969 346.907 270.969 347.833 270.937C350.597 270.853 353.36 270.801 356.125 270.75C357.076 270.716 358.028 270.683 359.008 270.648C365.038 270.565 368.412 270.982 373 275C377.056 280.223 376.774 285.653 376 292C373.833 296.575 371.591 298.941 367 301C363.388 301.362 359.813 301.282 356.188 301.187C355.209 301.174 354.23 301.16 353.221 301.146C350.813 301.111 348.407 301.062 346 301C346.032 301.907 346.032 301.907 346.064 302.833C346.147 305.596 346.199 308.36 346.25 311.125C346.284 312.076 346.317 313.028 346.352 314.008C346.433 319.848 346.125 323.496 342 328C336.778 332.056 331.347 331.774 325 331C320.425 328.833 318.059 326.591 316 322C315.638 318.388 315.718 314.813 315.813 311.188C315.826 310.208 315.84 309.229 315.854 308.221C315.889 305.813 315.938 303.407 316 301C315.375 301.009 314.749 301.018 314.104 301.027C307.583 301.116 301.062 301.176 294.54 301.22C292.107 301.24 289.675 301.267 287.242 301.302C283.742 301.35 280.243 301.373 276.742 301.391C275.658 301.411 274.573 301.432 273.456 301.453C267.492 301.455 263.571 301.262 259 297C255.063 291.327 255.109 286.727 256 280C257.645 272.977 260.095 266.17 262.422 259.352C263.086 257.366 263.749 255.379 264.411 253.393C265.796 249.249 267.192 245.109 268.598 240.972C270.396 235.679 272.171 230.378 273.937 225.075C275.302 220.98 276.677 216.889 278.055 212.798C278.713 210.845 279.368 208.89 280.021 206.935C280.936 204.204 281.862 201.478 282.792 198.752C283.058 197.951 283.324 197.15 283.599 196.325C285.505 190.796 287.635 185.837 292.379 182.152C297.128 180.064 301.923 180.381 307 181Z" fill="black"/>
<path d="M221.938 1.1875C230.745 8.92716 231.325 21.0423 233.262 32.125C233.457 33.2338 233.653 34.3425 233.854 35.4849C234.263 37.8105 234.668 40.1365 235.072 42.4629C235.686 45.9928 236.317 49.5198 236.947 53.0469C237.345 55.3228 237.741 57.5988 238.137 59.875C238.324 60.9129 238.512 61.9507 238.705 63.02C241.666 80.4119 241.666 80.4119 238.375 87.5C234.244 91.8488 231.143 94.2232 225.063 94.5C219.965 94.2774 217.066 93.0702 213 90C209.324 85.3478 208.811 79.8941 207.844 74.207C207.656 73.147 207.467 72.087 207.273 70.9948C206.673 67.6023 206.086 64.2075 205.5 60.8125C205.107 58.5786 204.712 56.3449 204.317 54.1113C203.549 49.7631 202.793 45.4131 202.047 41.061C201.395 37.2537 200.72 33.452 200.016 29.6538C199.796 28.4346 199.796 28.4346 199.572 27.1908C199.307 25.722 199.034 24.2545 198.75 22.7893C197.662 16.6309 197.789 11.2929 200.75 5.6875C206.262 -0.896348 213.972 -2.03263 221.938 1.1875Z" fill="black"/>
<path d="M305.25 4.1875C308.818 6.53899 311.092 9.18442 313 13C313.622 21.6226 312.458 29.8919 310.953 38.3594C310.741 39.5886 310.528 40.8178 310.309 42.0843C309.86 44.6634 309.406 47.2416 308.947 49.8188C308.481 52.4457 308.022 55.0726 307.574 57.7026C306.922 61.5282 306.253 65.3503 305.578 69.1719C305.38 70.3397 305.182 71.5076 304.978 72.7109C303.604 80.2844 302.124 86.9521 296.437 92.5C291.561 94.628 287.241 94.7799 282 94C276.851 91.4257 273.818 88.454 272 83C271.618 75.3575 272.771 68.1962 274.082 60.6797C274.297 59.4217 274.512 58.1636 274.733 56.8675C275.187 54.2193 275.645 51.572 276.108 48.9253C276.697 45.5505 277.272 42.1734 277.842 38.7954C278.393 35.5471 278.957 32.301 279.519 29.0547C279.723 27.8504 279.926 26.6461 280.135 25.4052C281.763 16.1931 283.133 9.57261 291 4C296.029 2.3238 300.34 2.39357 305.25 4.1875Z" fill="black"/>
<path d="M385.5 34.6875C389.689 38.562 391.939 42.3554 392.359 48.2031C391.484 55.012 387.354 61.1284 384 67C383.479 67.9133 382.957 68.8266 382.42 69.7676C379.498 74.8571 376.536 79.9224 373.547 84.9727C371.264 88.8323 369.022 92.7099 366.828 96.6211C366.338 97.4895 365.848 98.3579 365.343 99.2527C364.434 100.868 363.532 102.488 362.639 104.113C359.766 109.186 356.853 112.336 351.75 115.312C346.292 116.677 341.576 115.817 336.625 113.25C333.11 110.237 331.37 108.277 330.613 103.621C330.269 98.2471 330.949 94.4801 333.656 89.8086C334.201 88.8531 334.747 87.8976 335.308 86.9131C335.867 85.9518 336.425 84.9904 337 84C337.993 82.2239 338.984 80.4466 339.973 78.668C345.581 68.6985 351.242 58.759 357 48.875C357.527 47.9574 358.055 47.0399 358.598 46.0945C364.772 35.5736 372.832 28.58 385.5 34.6875Z" fill="black"/>
<path d="M448.875 87.9062C453.055 90.9992 455.024 95.0254 456 100C455.786 106.317 453.862 110.104 449.469 114.578C448.489 115.46 447.509 116.342 446.5 117.25C445.968 117.73 445.436 118.209 444.888 118.703C440.669 122.478 436.317 126.076 431.906 129.625C429.197 131.839 426.546 134.103 423.904 136.395C418.676 140.928 413.396 145.372 407.938 149.625C406.915 150.422 405.893 151.218 404.84 152.039C399.861 155.477 396.064 156.532 390 156C385.331 154.26 382.596 152.265 380 148C377.827 142.401 377.677 138.549 379.941 132.987C381.704 129.679 384.173 127.47 387 125.062C387.578 124.55 388.156 124.038 388.752 123.51C393.14 119.651 397.644 115.929 402.199 112.27C404.728 110.22 407.212 108.131 409.686 106.016C414.888 101.569 420.149 97.2031 425.5 92.9375C426.363 92.2397 426.363 92.2397 427.243 91.5278C433.94 86.24 440.775 83.9914 448.875 87.9062Z" fill="black"/>
<path d="M492.652 162.469C496.675 167.226 497.365 170.405 497.27 176.465C496.861 180.303 495.615 182.189 493 185C486.386 190.213 478.429 192.574 470.562 195.25C468.49 195.965 466.419 196.683 464.347 197.402C462.948 197.887 461.549 198.371 460.148 198.853C455.637 200.413 451.157 202.039 446.687 203.715C445.565 204.133 444.443 204.551 443.287 204.981C441.194 205.764 439.105 206.556 437.02 207.358C430.827 209.653 425.382 211.34 418.828 209.336C414.706 206.826 412.052 204.514 410 200C409.222 194.618 409.299 190.401 411.75 185.5C415.004 181.884 418.021 179.796 422.594 178.162C423.499 177.835 424.404 177.508 425.337 177.171C426.31 176.827 427.283 176.483 428.285 176.129C429.297 175.765 430.308 175.402 431.35 175.027C434.585 173.866 437.824 172.714 441.062 171.562C443.216 170.792 445.369 170.02 447.521 169.248C451.513 167.817 455.506 166.39 459.5 164.967C464.237 163.278 468.962 161.558 473.683 159.826C480.393 157.434 487.055 157.493 492.652 162.469Z" fill="black"/>
</g>
<defs>
<clipPath id="clip0_267_2">
<rect width="512" height="512" fill="white"/>
</clipPath>
</defs>
</svg>
