<?xml version="1.0" encoding="UTF-8"?>
<svg version="1.1" xmlns="http://www.w3.org/2000/svg" width="512" height="512">
<path d="M0 0 C168.96 0 337.92 0 512 0 C512.12375 78.08625 512.12375 78.08625 512.25 157.75 C512.28641602 174.19038086 512.32283203 190.63076172 512.36035156 207.56933594 C512.37841797 227.63720703 512.37841797 227.63720703 512.3817749 237.03033447 C512.38550313 243.59403214 512.40016765 250.15759343 512.42230225 256.72125244 C512.44780616 264.29525922 512.45933385 271.86913532 512.4537798 279.44318534 C512.45137533 283.31572503 512.45512489 287.18797282 512.47686052 291.06045866 C512.50003473 295.21463247 512.4919463 299.36817587 512.48101807 303.5223999 C512.49266872 304.72052937 512.50431938 305.91865883 512.51632309 307.15309525 C512.41668127 321.27296737 507.33624211 333.32034095 497.8125 343.75 C485.07888138 355.62709719 471.04348746 357.45091663 454.47781372 357.38768005 C452.69581831 357.39185672 450.91382557 357.39733607 449.13183773 357.40399987 C444.25206538 357.41842943 439.3724623 357.41421751 434.49268079 357.40683305 C429.22330476 357.40209753 423.95396514 357.41461464 418.68460083 357.42485046 C408.36805817 357.44203626 398.05157642 357.44287891 387.73502316 357.43763756 C379.34863012 357.43359421 370.96225507 357.43504138 362.57586288 357.44038582 C360.78465816 357.44150845 360.78465816 357.44150845 358.95726749 357.44265376 C356.5312876 357.44418526 354.10530771 357.44572361 351.67932783 357.44726873 C328.93492716 357.46099299 306.1905609 357.4555566 283.44616102 357.44408352 C262.64558719 357.43415131 241.84510232 357.44709176 221.04454221 357.47101771 C199.67788395 357.49540934 178.31126712 357.50501641 156.94459522 357.49836498 C144.95228608 357.4948729 132.96004534 357.49710416 120.96774673 357.51461601 C110.75896978 357.52933875 100.55030942 357.52997241 90.34153475 357.5125451 C85.13497051 357.5040334 79.92861453 357.50188989 74.72206116 357.51719666 C69.95130565 357.53104837 65.18093674 357.52627421 60.41020356 357.50695742 C58.68890175 357.50319861 56.96756893 357.50611591 55.24629475 357.51656907 C38.91881639 357.6086353 25.59709552 354.08713065 13.25 342.8125 C2.72298888 331.52632942 -0.46944009 318.73678723 -0.36076355 303.76290894 C-0.3633316 302.46300522 -0.36589966 301.1631015 -0.36854553 299.82380676 C-0.37523433 296.23349084 -0.36328964 292.64344631 -0.34821819 289.05316481 C-0.33506595 285.1153709 -0.33950545 281.1775884 -0.34167194 277.23977852 C-0.34326338 269.60475792 -0.32944604 261.96984364 -0.31016796 254.33485032 C-0.28852703 245.49869519 -0.28618147 236.66260348 -0.28381348 227.82641602 C-0.26807684 204.50926055 -0.22619333 181.19212867 -0.1875 157.875 C-0.125625 105.77625 -0.06375 53.6775 0 0 Z M104 85 C100.7399408 89.83388088 100.13086871 94.33089361 101 100 C102.59944274 104.85545118 105.29398753 107.74152075 109.82278442 110.19494629 C114.21296109 111.81827108 118.78111854 111.48274349 123.40234375 111.390625 C125.0188961 111.38213531 125.0188961 111.38213531 126.66810608 111.37347412 C130.09169968 111.3511816 133.51422564 111.30099671 136.9375 111.25 C139.26626087 111.22992587 141.59503823 111.2116767 143.92382812 111.1953125 C149.61625835 111.15134013 155.30801917 111.08287211 161 111 C161.17306231 111.65927081 161.34612461 112.31854162 161.52443123 112.99779034 C163.38096877 119.95095972 165.48804944 126.78734725 167.74951172 133.6184082 C168.29407516 135.27422157 168.29407516 135.27422157 168.84963989 136.96348572 C170.03946118 140.57709268 171.23397134 144.18912082 172.4296875 147.80078125 C172.8399329 149.04091665 173.2501783 150.28105206 173.67285538 151.55876732 C175.39645841 156.76794482 177.12160415 161.9766066 178.85108757 167.18383503 C181.31718383 174.60898631 183.77393199 182.03708038 186.21775234 189.4695943 C187.94510684 194.72059212 189.68284638 199.96808222 191.42831624 205.21308583 C192.46743136 208.33641554 193.5006892 211.46147762 194.52560043 214.58950233 C195.66831395 218.07354037 196.82789493 221.55152447 197.99169922 225.02856445 C198.32433777 226.0556955 198.65697632 227.08282654 198.99969482 228.14108276 C201.28588801 234.89139304 203.40155146 239.89204787 209.78690147 243.63255215 C213.16722762 245.07116964 215.3856314 245.37693065 219.03405762 245.38095093 C220.22003036 245.3894104 221.40600311 245.39786987 222.62791443 245.40658569 C223.91537064 245.400513 225.20282684 245.39444031 226.52929688 245.38818359 C227.90959589 245.39225218 229.28989165 245.39759567 230.67018127 245.40411377 C234.40779459 245.41775918 238.14515874 245.41250031 241.88277626 245.40297651 C245.79974652 245.39536548 249.71669587 245.40242953 253.63366699 245.40713501 C260.2107322 245.41258836 266.78769625 245.40541201 273.36474609 245.39111328 C280.96176431 245.37478753 288.55854097 245.38007633 296.15555334 245.3965925 C302.68567134 245.41021937 309.21571674 245.41212117 315.74584436 245.40427649 C319.64273187 245.39960656 323.53950595 245.39895634 327.43638611 245.40888596 C331.10054229 245.41757089 334.76438792 245.41150615 338.42851067 245.39420319 C340.40969799 245.38836341 342.39091168 245.39724086 344.37208557 245.40658569 C346.15104469 245.39389648 346.15104469 245.39389648 347.96594238 245.38095093 C348.9924012 245.37981985 350.01886002 245.37868877 351.07642365 245.37752342 C356.03127512 244.73770005 359.21660913 242.79069505 362.69702148 239.27783203 C365.21455532 236.00618663 366.59403509 232.45737042 367.84765625 228.5546875 C368.09723083 227.81574249 368.34680542 227.07679749 368.60394287 226.31546021 C369.43653012 223.83946483 370.24965309 221.35753964 371.0625 218.875 C371.65148788 217.10640412 372.24160914 215.33818535 372.83276367 213.5703125 C374.14972684 209.62555081 375.45849217 205.67816705 376.76367188 201.72949219 C379.02357995 194.90825736 381.3292741 188.10280076 383.63705635 181.29767227 C385.01693861 177.22460903 386.3906363 173.14945744 387.76382351 169.07413292 C388.89741653 165.7102866 390.03340223 162.34729632 391.17532349 158.98626709 C392.46727784 155.1818423 393.74393539 151.3724408 395.01953125 147.5625 C395.40743835 146.42652374 395.79534546 145.29054749 396.19500732 144.12014771 C399.71692104 134.01055918 399.71692104 134.01055918 399.3984375 123.51171875 C396.53116164 118.40096369 393.76289629 114.92096543 388 113 C385.42874358 112.89461644 382.88389768 112.84517064 380.31221008 112.84178162 C379.5215212 112.83684364 378.73083232 112.83190566 377.91618317 112.82681805 C375.25833325 112.8114212 372.60050753 112.80307651 369.94262695 112.79467773 C368.04072862 112.78510093 366.13883242 112.77509097 364.23693848 112.76467896 C359.06580709 112.73760242 353.89466655 112.71660773 348.72350335 112.69667697 C343.32225892 112.67483437 337.92104278 112.64743724 332.51982117 112.62062073 C322.28826359 112.57067048 312.05669033 112.5257403 301.82510203 112.48259836 C290.1783188 112.43324591 278.53156396 112.3783204 266.88480818 112.32291877 C242.92323193 112.20906292 218.96162846 112.10223173 195 112 C194.77860352 111.29915283 194.55720703 110.59830566 194.32910156 109.8762207 C193.31391978 106.68463075 192.28215536 103.49863917 191.25 100.3125 C190.90195313 99.20970703 190.55390625 98.10691406 190.1953125 96.97070312 C189.84726563 95.90400391 189.49921875 94.83730469 189.140625 93.73828125 C188.82641602 92.75899658 188.51220703 91.77971191 188.18847656 90.77075195 C186.00337951 85.67653124 182.96612874 82.42250183 178 80 C174.39164148 79.10903165 171.02117463 78.86916162 167.31103516 78.85473633 C165.63371811 78.84516655 165.63371811 78.84516655 163.92251587 78.83540344 C162.72347626 78.83429062 161.52443665 78.8331778 160.2890625 78.83203125 C159.04756439 78.82870285 157.80606628 78.82537445 156.52694702 78.82194519 C153.90273407 78.81688622 151.2785147 78.81453655 148.65429688 78.81469727 C145.97161125 78.81477862 143.28909602 78.80782189 140.60644531 78.79418945 C136.72976479 78.7758493 132.85328211 78.7709599 128.9765625 78.76953125 C127.78157135 78.76234573 126.5865802 78.75516022 125.3553772 78.74775696 C117.11204881 78.77031037 110.15356452 78.84643548 104 85 Z M219.0625 270.3125 C216.98194846 275.57507154 216.49389457 279.34109887 218.125 284.6875 C220.83819481 289.48081083 223.89600874 292.8544333 229 295 C233.53599833 295.72106443 237.69885845 295.50274563 241.8125 293.375 C246.36526831 289.98274126 248.90772546 286.66664146 249.9375 281.0625 C250.27518025 276.7467817 249.14088791 273.78223531 247 270 C243.7792757 266.28377965 240.85094127 263.50909666 235.921875 262.62890625 C228.69854603 262.40804907 223.71919651 264.7545074 219.0625 270.3125 Z M321.1875 269.0625 C317.48116547 274.0395778 317.35958699 277.89777888 318 284 C319.28413618 288.10768861 321.61527478 291.05324735 325.1875 293.4375 C329.39536819 295.51890803 333.40372584 295.79722985 338 295 C343.27477165 293.15538437 346.54954644 289.99515533 349 285 C350.3472037 280.28478706 350.49679172 276.30633161 348.5625 271.75 C346.02698715 267.39344872 342.66937658 264.83379153 338 263 C331.14301017 261.66455629 325.65649999 263.8401543 321.1875 269.0625 Z " fill="#000000" transform="translate(0,155)"/>
<path d="M0 0 C1.78199541 -0.00417667 3.56398815 -0.00965601 5.345976 -0.01631981 C10.22574834 -0.03074938 15.10535142 -0.02653746 19.98513293 -0.019153 C25.25450896 -0.01441748 30.52384858 -0.02693459 35.79321289 -0.03717041 C46.10975555 -0.05435621 56.4262373 -0.05519886 66.74279056 -0.04995751 C75.1291836 -0.04591416 83.51555866 -0.04736133 91.90195084 -0.05270576 C93.69315556 -0.0538284 93.69315556 -0.0538284 95.52054624 -0.05497371 C97.94652612 -0.05650521 100.37250601 -0.05804355 102.79848589 -0.05958868 C125.54288656 -0.07331294 148.28725282 -0.06787655 171.0316527 -0.05640347 C191.83222653 -0.04647126 212.6327114 -0.05941171 233.43327151 -0.08333766 C254.79992977 -0.10772929 276.1665466 -0.11733636 297.5332185 -0.11068493 C309.52552765 -0.10719285 321.51776838 -0.1094241 333.51006699 -0.12693596 C343.71884394 -0.14165869 353.9275043 -0.14229236 364.13627897 -0.12486505 C369.34284321 -0.11635334 374.54919919 -0.11420983 379.75575256 -0.1295166 C384.52650807 -0.14336831 389.29687698 -0.13859416 394.06761016 -0.11927737 C395.78891197 -0.11551856 397.51024479 -0.11843586 399.23151897 -0.12888902 C415.55899733 -0.22095525 428.88071821 3.3005494 441.22781372 14.57518005 C467.23961944 42.46283714 454.47781372 93.2999249 454.47781372 123.38768005 C285.51781372 123.38768005 116.55781372 123.38768005 -57.52218628 123.38768005 C-57.52218628 29.17472274 -57.52218628 29.17472274 -43.33468628 13.63768005 C-30.60106766 1.76058287 -16.56567374 -0.06323658 0 0 Z M13.16531372 51.57518005 C10.15941601 55.34046245 9.09236955 58.57880517 9.47781372 63.38768005 C10.70045154 69.61621234 13.3572547 72.79239393 18.47781372 76.38768005 C22.63370238 78.46562438 28.20122878 78.13796699 32.55203247 76.7040863 C36.86484004 74.44945154 39.32682842 71.68965066 41.47781372 67.38768005 C42.7376955 63.12145968 42.66524709 60.06712602 41.47781372 55.76268005 C38.56334759 50.84451846 34.9584851 47.21457051 29.47781372 45.38768005 C22.40810299 44.85411698 18.04407608 46.48732788 13.16531372 51.57518005 Z M81.47781372 49.38768005 C77.31509303 54.61776502 75.92186224 58.71626233 76.47781372 65.38768005 C78.60353966 70.9214992 82.14217642 74.71986141 87.47781372 77.38768005 C94.29636498 78.14806694 99.0235941 77.64197136 104.47781372 73.38768005 C108.21627843 68.59477659 109.13124754 64.81183143 108.86453247 58.7509613 C108.07569299 53.93027556 105.42607859 51.24343128 101.91531372 48.07518005 C95.13799324 43.38318895 87.86108664 44.85000561 81.47781372 49.38768005 Z M146.08718872 51.99705505 C143.10568692 56.57429021 142.89574732 60.14908247 143.47781372 65.38768005 C145.4807804 71.06275231 149.09131551 74.69443095 154.47781372 77.38768005 C159.43263466 77.93128451 163.34907224 77.95205079 167.85281372 75.70018005 C173.24910323 70.95136913 173.24910323 70.95136913 175.68093872 64.43455505 C175.78557682 59.30728822 175.43448937 55.77171637 172.47781372 51.38768005 C170.11685172 49.09868766 170.11685172 49.09868766 167.47781372 47.38768005 C166.58062622 46.76893005 166.58062622 46.76893005 165.66531372 46.13768005 C157.93062249 43.48578592 151.31147024 45.95097644 146.08718872 51.99705505 Z M214.83328247 49.9228363 C210.45859996 55.64357497 209.72729033 59.23626431 210.47781372 66.38768005 C211.94087351 71.06770864 214.76674089 74.23504806 219.09153938 76.57064438 C224.605579 78.45859457 230.60873654 77.95886531 236.37405396 77.93699646 C237.88919069 77.94569944 239.40431862 77.95606867 240.91943359 77.9679718 C245.0207649 77.99467996 249.1217268 77.99591747 253.22312808 77.9908452 C256.65250821 77.98870104 260.08181433 77.99848448 263.51117855 78.00805604 C271.60403615 78.03022112 279.69670806 78.03113523 287.7895813 78.01902771 C296.12691396 78.00694594 304.46357176 78.03158041 312.8007893 78.07416785 C319.97046652 78.10943904 327.1399293 78.12139658 334.30969006 78.11489236 C338.58683421 78.11127276 342.8634968 78.11647683 347.14056206 78.14432144 C351.16365715 78.16953448 355.18570261 78.16554007 359.2087822 78.13949966 C360.6809214 78.13478105 362.15313514 78.14019168 363.62518883 78.15674591 C371.28702504 78.23666312 377.09064117 78.22063566 383.05464268 73.05241966 C386.4877927 69.03652793 387.77759818 64.63121392 387.60281372 59.38768005 C386.70071731 54.31589359 383.33658297 50.62357711 379.47781372 47.38768005 C375.59123985 45.4905178 372.44935725 45.13495244 368.14640808 45.12698364 C366.8692543 45.11989883 365.59210052 45.11281403 364.27624512 45.10551453 C362.86825526 45.10780815 361.46026574 45.11031783 360.05227661 45.11302185 C358.56375371 45.10867281 357.07523304 45.10348902 355.5867157 45.09753418 C351.54952232 45.08415387 347.51242261 45.08356441 343.47521138 45.08609748 C340.10292796 45.0871678 336.73066344 45.08228227 333.35838407 45.07749206 C325.40184166 45.06640032 317.44534645 45.06595765 309.48880005 45.07200623 C301.28458647 45.07804722 293.08054433 45.06573108 284.87636 45.04443616 C277.82822962 45.02681557 270.78015379 45.0208195 263.7320022 45.0240739 C259.52433671 45.0258861 255.31679354 45.02325683 251.10914803 45.00935936 C247.15201238 44.99677809 243.19514389 44.99872782 239.23801231 45.01177025 C237.78761327 45.0141349 236.3371954 45.01140528 234.88681793 45.00314713 C232.90330432 44.99266968 230.91971451 45.00258852 228.936203 45.01345825 C227.82732759 45.01329051 226.71845217 45.01312277 225.57597446 45.01294994 C221.34347159 45.5248815 217.96300424 47.00126705 214.83328247 49.9228363 Z " fill="#000000" transform="translate(57.522186279296875,-0.3876800537109375)"/>
</svg>
