<?xml version="1.0" encoding="UTF-8"?>
<svg version="1.1" xmlns="http://www.w3.org/2000/svg" width="512" height="512">
<path d="M0 0 C55.73369962 42.06922876 120.40932355 66.82197847 190.11743164 72.1159668 C201.24960976 73.07015349 211.01141001 76.58006881 218.42138672 85.31445312 C224.5741155 93.90705712 226.15748848 102.8486371 226.09326172 113.25195312 C226.09960632 114.79440201 226.09960632 114.79440201 226.1060791 116.36801147 C226.11245412 119.69292733 226.093641 123.01696843 226.06982422 126.34179688 C226.06517151 127.48311066 226.0605188 128.62442444 226.0557251 129.80032349 C225.96499238 148.77758613 225.28665633 167.46026793 222.69482422 186.27929688 C222.59772156 186.98687134 222.5006189 187.6944458 222.40057373 188.42346191 C216.68778342 229.48350509 206.45577702 269.68483295 188.69482422 307.27929688 C188.25525391 308.21209473 187.81568359 309.14489258 187.36279297 310.10595703 C173.42304697 339.40653985 155.36955292 366.19135672 133.08642578 389.78613281 C130.99177773 392.03365342 128.97323659 394.34706493 126.94482422 396.65429688 C123.7627175 400.20137641 120.46753201 403.39277172 116.82373047 406.45898438 C114.39573184 408.53503458 112.08706785 410.71862487 109.75732422 412.90429688 C87.92853249 432.74865299 62.16608603 448.6125156 35.63671875 461.34082031 C33.72848531 462.26302918 31.83446233 463.21016896 29.94091797 464.16210938 C20.70601205 468.73189981 11.19728331 472.50580889 1.56982422 476.15429688 C0.93476959 476.39540192 0.29971497 476.63650696 -0.35458374 476.88491821 C-30.77305358 488.39472917 -51.47386839 479.34447759 -80.21240234 466.52368164 C-111.57285557 452.19468195 -140.60276319 434.3345908 -166.30517578 411.27929688 C-167.07933838 410.589729 -167.07933838 410.589729 -167.86914062 409.88623047 C-178.30491266 400.56775046 -188.426446 390.99880563 -197.12158203 380.00976562 C-198.54620265 378.22835273 -200.01138651 376.47842651 -201.52001953 374.76757812 C-252.39298041 316.78425333 -275.25981187 234.85401443 -280.30517578 159.27929688 C-280.36157227 158.49506348 -280.41796875 157.71083008 -280.47607422 156.90283203 C-281.24806013 145.89175494 -281.42640632 134.87769143 -281.49267578 123.84179688 C-281.50572754 122.59785156 -281.5187793 121.35390625 -281.53222656 120.07226562 C-281.54500723 106.37139055 -280.78517947 92.96436466 -271.05517578 82.46679688 C-261.27957904 73.53392399 -250.34583206 72.4603045 -237.60302734 71.34277344 C-191.02897436 67.22764241 -146.78242921 53.6405317 -105.30517578 32.27929688 C-103.97921387 31.59867188 -103.97921387 31.59867188 -102.62646484 30.90429688 C-86.73581908 22.65276479 -71.85399729 12.61202352 -57.61767578 1.77929688 C-37.40443588 -13.57796943 -20.8779494 -15.79810839 0 0 Z M-78.61767578 123.15429688 C-88.55386361 136.11541286 -92.38494179 152.44179308 -90.74267578 168.52929688 C-88.16070434 185.26115128 -80.17658607 199.11834865 -67.22705078 210.17773438 C-53.27301848 220.21419077 -37.51131291 224.84030218 -20.30517578 223.27929688 C-1.50436472 219.914541 13.05305117 210.92317331 24.24169922 195.49804688 C33.0150147 182.10223184 36.73215699 166.22602338 34.03466797 150.40820312 C30.27608501 132.41743821 21.35636083 117.57161037 6.00732422 107.34179688 C-23.07331956 89.36148646 -57.0447073 97.71029105 -78.61767578 123.15429688 Z M-73.61376953 260.56835938 C-74.41694107 260.90926605 -75.22011261 261.25017273 -76.04762268 261.60140991 C-78.61630113 262.69401275 -81.17947119 263.79892243 -83.74267578 264.90429688 C-85.43177998 265.62516709 -87.12123019 266.34522713 -88.81103516 267.06445312 C-92.10600036 268.46818256 -95.39717122 269.88030137 -98.68579102 271.29882812 C-101.61117827 272.55882453 -104.54362318 273.79729249 -107.48901367 275.00976562 C-108.12778946 275.27526215 -108.76656525 275.54075867 -109.42469788 275.81430054 C-111.10928878 276.51303326 -112.79695121 277.20434828 -114.48486328 277.89501953 C-122.55770716 281.85736586 -127.21717429 289.04462622 -130.30517578 297.27929688 C-133.39658609 308.27056958 -133.39658609 308.27056958 -132.30517578 332.27929688 C-63.33517578 332.27929688 5.63482422 332.27929688 76.69482422 332.27929688 C78.57787432 311.65857063 78.57787432 311.65857063 73.56982422 292.15429688 C73.04001953 291.03667969 73.04001953 291.03667969 72.49951172 289.89648438 C67.18186703 282.18474856 61.12242861 277.93928456 52.50732422 274.52929688 C51.53424316 274.12662598 50.56116211 273.72395508 49.55859375 273.30908203 C47.433897 272.43158394 45.30580223 271.56227923 43.17480469 270.70019531 C39.40615338 269.16143071 35.66147371 267.57209249 31.91748047 265.97460938 C29.94838225 265.13981315 27.97860775 264.30664323 26.00839233 263.4744873 C24.72266467 262.9305077 23.43784105 262.38438604 22.15396118 261.83605957 C20.34580666 261.06609581 18.53212076 260.30916171 16.71826172 259.55273438 C15.67589355 259.11364746 14.63352539 258.67456055 13.55957031 258.22216797 C10.6424893 257.26207194 8.73088487 256.87550112 5.69482422 257.27929688 C3.4712811 258.41975301 3.4712811 258.41975301 1.40185547 260.09570312 C0.21619995 260.99071533 0.21619995 260.99071533 -0.9934082 261.90380859 C-1.8181665 262.54334473 -2.6429248 263.18288086 -3.49267578 263.84179688 C-5.2008435 265.12717325 -6.90917515 266.4123318 -8.61767578 267.69726562 C-11.25519538 269.70518714 -13.88042419 271.72697542 -16.49267578 273.76757812 C-17.73017578 274.70150391 -17.73017578 274.70150391 -18.99267578 275.65429688 C-19.65654297 276.17765625 -20.32041016 276.70101563 -21.00439453 277.24023438 C-24.44250957 278.79293149 -27.64658764 278.91969235 -31.30517578 278.27929688 C-33.80473116 276.92205891 -35.68856408 275.71021581 -37.86767578 273.96679688 C-38.74734009 273.30478271 -38.74734009 273.30478271 -39.64477539 272.62939453 C-41.54540493 271.1965775 -43.42568279 269.7397009 -45.30517578 268.27929688 C-47.32746526 266.72395286 -49.35440582 265.17600289 -51.39282227 263.6418457 C-52.68544928 262.66818067 -53.96928503 261.68270603 -55.24291992 260.68432617 C-62.12621712 255.47689671 -66.33909351 257.40468708 -73.61376953 260.56835938 Z " fill="#000000" transform="translate(283.30517578125,23.720703125)"/>
</svg>
