<?xml version="1.0" encoding="UTF-8"?>
<svg version="1.1" xmlns="http://www.w3.org/2000/svg" width="512" height="512">
<path d="M0 0 C1.72330204 0.01005787 3.44660982 0.01917872 5.16992188 0.02734375 C9.34259262 0.04911657 13.51498087 0.08348875 17.6875 0.125 C17.64019462 0.67699412 17.59288923 1.22898825 17.54415035 1.79770947 C16.39311478 15.23455559 15.24997685 28.6720535 14.11532497 42.11029339 C13.56637522 48.60892862 13.01480697 55.10731955 12.45727539 61.60522461 C11.91944657 67.87462493 11.38846883 74.14457104 10.86226082 80.41495705 C10.66017229 82.80857935 10.455605 85.20199369 10.24853325 87.59519005 C9.95919669 90.94404883 9.67863706 94.29353485 9.40014648 97.64331055 C9.2685186 99.13116562 9.2685186 99.13116562 9.13423157 100.64907837 C9.05987885 101.56468033 8.98552612 102.48028229 8.90892029 103.42362976 C8.8416294 104.21544993 8.77433851 105.00727011 8.70500851 105.82308483 C8.67098182 110.29671231 9.80673052 113.74050221 11.953125 117.6171875 C12.66082031 118.90604858 12.66082031 118.90604858 13.3828125 120.22094727 C13.89585937 121.13803467 14.40890625 122.05512207 14.9375 123 C15.46601563 123.95511475 15.99453125 124.91022949 16.5390625 125.89428711 C18.24792484 128.97530372 19.96754055 132.05016684 21.6875 135.125 C22.86981963 137.25389072 24.05211136 139.38279693 25.234375 141.51171875 C26.38449598 143.57082702 27.53551208 145.62943562 28.6875 147.6875 C29.49622559 149.140354 29.49622559 149.140354 30.32128906 150.62255859 C34.5122733 158.93331207 34.5122733 158.93331207 41.625 164.25 C45.07863195 164.10903543 45.969618 163.3998609 48.27514648 160.94482422 C51.45715499 156.84479114 53.78600693 152.17676207 56.25 147.625 C63.45410045 134.42356759 63.45410045 134.42356759 67.26953125 128.265625 C68.10278931 126.89760742 68.10278931 126.89760742 68.95288086 125.50195312 C69.98983744 123.80960475 71.04783787 122.12988362 72.13110352 120.46679688 C79.33467266 108.53785438 75.10269503 91.53144831 73.9375 78.25 C73.75759767 76.150681 73.57824519 74.05131482 73.39941406 71.9519043 C72.93064071 66.46266175 72.45568661 60.97397331 71.97900391 55.4854126 C71.21467195 46.67431032 70.45917452 37.86244888 69.70495605 29.05047607 C69.44122758 25.98088609 69.17443538 22.91157389 68.90722656 19.84228516 C68.74536284 17.96387407 68.58357486 16.08545645 68.421875 14.20703125 C68.34706909 13.35711105 68.27226318 12.50719086 68.19519043 11.6315155 C67.86619409 7.78291294 67.59564192 3.99232306 67.6875 0.125 C109.11331052 -0.72900497 109.11331052 -0.72900497 124.6875 4.125 C125.73357422 4.44645996 125.73357422 4.44645996 126.80078125 4.77441406 C157.66030146 14.60766563 181.55661528 35.90407906 196.55932617 64.44677734 C199.21896329 69.77562508 201.3055449 75.20718049 203.125 80.875 C203.35993164 81.60614014 203.59486328 82.33728027 203.83691406 83.09057617 C206.96664823 93.56591234 207.98683655 104.23108804 207.99389648 115.12231445 C208.00222 116.24277664 208.01054352 117.36323883 208.01911926 118.51765442 C208.04296842 122.17456655 208.05195631 125.83129993 208.05859375 129.48828125 C208.06757254 132.05128529 208.07669459 134.61428883 208.08595276 137.17729187 C208.10237223 142.52714636 208.1101636 147.87693483 208.11303711 153.22680664 C208.11668384 159.39317798 208.14669304 165.55905525 208.18844169 171.72527534 C208.22739338 177.68987833 208.23863081 183.65433319 208.23976326 189.61907005 C208.24396217 192.14400115 208.25638309 194.6689328 208.27728081 197.1937809 C208.30417798 200.72118009 208.29937556 204.24720836 208.28686523 207.7746582 C208.30911667 209.32790802 208.30911667 209.32790802 208.33181763 210.91253662 C208.26496701 217.54205646 207.04031738 222.024999 202.6875 227.125 C196.40040007 232.42655454 189.57978614 231.64157282 181.66015625 231.515625 C180.30253436 231.50815366 178.9449016 231.50246495 177.58726501 231.49847412 C174.0343893 231.48328762 170.48217998 231.44406839 166.92956543 231.3996582 C163.29623425 231.35855303 159.66279414 231.34043079 156.02929688 231.3203125 C148.91509392 231.27756556 141.80134074 231.20940093 134.6875 231.125 C134.68607498 230.24660965 134.68464996 229.3682193 134.68318176 228.46321106 C134.66534159 220.17931391 134.62369818 211.89595044 134.55540943 203.61230946 C134.5211393 199.35369151 134.49602948 195.09543229 134.49194336 190.83666992 C134.48766034 186.72552891 134.45919856 182.61519712 134.41406822 178.5043087 C134.40109311 176.93710738 134.39678563 175.36980921 134.40134621 173.80256081 C134.4062527 171.60422362 134.38016466 169.40825123 134.34692383 167.21020508 C134.33693108 165.33489861 134.33693108 165.33489861 134.32673645 163.42170715 C133.51440481 159.23230348 132.01719103 157.71562324 128.6875 155.125 C125.53377591 154.78949153 125.53377591 154.78949153 122.6875 156.125 C109.80682592 177.59279013 119.04511394 206.09202395 118.6875 231.125 C68.1975 231.125 17.7075 231.125 -34.3125 231.125 C-34.8075 195.485 -34.8075 195.485 -35.3125 159.125 C-37.01042816 155.87411961 -37.01042816 155.87411961 -40.1875 155.3125 C-43.40982959 155.11916022 -44.71063344 155.29405687 -47.3125 157.125 C-48.77900956 160.05801912 -48.47788474 162.68654861 -48.51782227 165.96142578 C-48.52772186 166.66397491 -48.53762146 167.36652405 -48.54782104 168.09036255 C-48.5794568 170.41697803 -48.60420159 172.74361394 -48.62890625 175.0703125 C-48.64947399 176.68171729 -48.67047042 178.29311666 -48.69187927 179.9045105 C-48.74711854 184.14922706 -48.79651961 188.39399247 -48.84472656 192.63879395 C-48.89492806 196.96887568 -48.95062117 201.29888635 -49.00585938 205.62890625 C-49.11346363 214.12754411 -49.21490354 222.62624135 -49.3125 231.125 C-57.2926118 231.21784953 -65.27249636 231.28884 -73.25301552 231.33224869 C-76.9590735 231.35308715 -80.6647608 231.38133503 -84.37060547 231.42675781 C-87.94975786 231.47035112 -91.52855464 231.49416523 -95.10795212 231.50450897 C-96.47068247 231.51187635 -97.83339427 231.52626338 -99.19597244 231.54792023 C-112.42704271 231.74977292 -112.42704271 231.74977292 -117.3125 227.125 C-120.86702238 223.09013676 -122.4331268 220.7898686 -122.45967102 215.44995117 C-122.46682632 214.46351624 -122.47398163 213.4770813 -122.48135376 212.46075439 C-122.48404266 211.37413513 -122.48673157 210.28751587 -122.48950195 209.16796875 C-122.49607315 208.0261615 -122.50264435 206.88435425 -122.50941467 205.70794678 C-122.52920275 201.90946387 -122.54082955 198.11102083 -122.55078125 194.3125 C-122.55485678 193.01289337 -122.5589323 191.71328674 -122.56313133 190.3742981 C-122.58186951 184.19235797 -122.59642041 178.01043772 -122.6047433 171.828475 C-122.61445879 164.73106903 -122.64061723 157.6339797 -122.68124419 150.53668499 C-122.71165444 145.03152326 -122.72623632 139.52645079 -122.72952431 134.02120686 C-122.73185105 130.74415072 -122.74253848 127.4675039 -122.76598549 124.19052124 C-123.0039851 88.6877343 -113.93821022 58.79645925 -88.625 33 C-73.26330817 17.8626115 -53.62485779 6.38747156 -32.3125 2.125 C-31.48230347 1.95891235 -30.65210693 1.79282471 -29.79675293 1.6217041 C-19.83865192 -0.1491379 -10.08259203 -0.10339119 0 0 Z " fill="#000000" transform="translate(122.3125,236.875)"/>
<path d="M0 0 C1.07386208 -0.00074776 1.07386208 -0.00074776 2.16941833 -0.00151062 C3.67636911 0.00082086 5.18332445 0.01049464 6.69018555 0.02709961 C8.99237971 0.05074311 11.2934179 0.04764762 13.59570312 0.04101562 C15.06380896 0.04659153 16.53190994 0.05370087 18 0.0625 C18.6855043 0.06158859 19.37100861 0.06067719 20.07728577 0.05973816 C23.65595473 0.1126869 26.4871119 0.21982473 29.43359375 2.36328125 C30.61501813 4.86494738 31.55404093 7.19704226 32.43359375 9.80078125 C32.69358154 10.51782227 32.95356934 11.23486328 33.22143555 11.97363281 C34.38545181 15.20440132 35.45037976 18.42227208 36.390625 21.7265625 C37.80104142 26.8059673 37.80104142 26.8059673 41.1171875 30.7109375 C43.51409114 31.83009667 45.90190321 32.59171842 48.43359375 33.36328125 C51.00250265 34.28643996 53.56322985 35.22321006 56.12109375 36.17578125 C56.80510254 36.42376465 57.48911133 36.67174805 58.19384766 36.92724609 C64.21467447 39.15389573 69.75108313 42.01000037 75.34765625 45.140625 C79.09832476 46.62664936 80.59622277 46.55915781 84.43359375 45.36328125 C88.02856312 43.63577498 91.45595098 41.62163632 94.89257812 39.6015625 C99.90355701 36.79396055 104.59039258 34.90813417 110.43359375 35.36328125 C113.04296875 36.77734375 113.04296875 36.77734375 115.18359375 38.98828125 C116.0034375 39.80941406 116.82328125 40.63054687 117.66796875 41.4765625 C118.580625 42.42917969 119.49328125 43.38179687 120.43359375 44.36328125 C121.58059507 45.4859138 122.73184667 46.60421586 123.88671875 47.71875 C125.07007038 48.87000524 126.25237169 50.02234111 127.43359375 51.17578125 C127.99788086 51.72637207 128.56216797 52.27696289 129.14355469 52.84423828 C134.58925421 58.28496002 134.58925421 58.28496002 135.43359375 61.36328125 C135.31074514 67.89882704 132.38748157 72.87041453 129.37109375 78.48828125 C128.43332517 80.23588273 127.5045725 81.98835925 126.5859375 83.74609375 C126.17335693 84.51324707 125.76077637 85.28040039 125.33569336 86.07080078 C124.29738281 88.70943029 124.16579681 90.54969675 124.43359375 93.36328125 C125.55134649 95.61620625 126.70845819 97.71331651 127.99609375 99.86328125 C132.1096392 107.0500385 134.67354337 114.4618238 136.99829102 122.39257812 C137.26053467 123.25431641 137.52277832 124.11605469 137.79296875 125.00390625 C138.01436523 125.77250977 138.23576172 126.54111328 138.46386719 127.33300781 C140.09713686 130.752512 142.52207418 131.9913551 145.95141602 133.390625 C146.87494873 133.69097656 147.79848145 133.99132812 148.75 134.30078125 C149.76126953 134.63851562 150.77253906 134.97625 151.81445312 135.32421875 C153.93907697 136.01807994 156.06407884 136.71078466 158.18945312 137.40234375 C159.19943359 137.74007812 160.20941406 138.0778125 161.25 138.42578125 C162.17240479 138.72613281 163.09480957 139.02648437 164.04516602 139.3359375 C167.93587514 141.00946341 167.93587514 141.00946341 169.43359375 143.36328125 C169.75626042 146.18605181 169.90161537 148.78396748 169.90234375 151.609375 C169.90995728 152.41689713 169.9175708 153.22441925 169.92541504 154.05641174 C169.93621572 155.76356923 169.93906925 157.47079279 169.93457031 159.17797852 C169.93359836 161.78839497 169.97520646 164.39586782 170.01953125 167.00585938 C170.02473868 168.66535846 170.02742644 170.32486775 170.02734375 171.984375 C170.04373901 172.76364853 170.06013428 173.54292206 170.07702637 174.34580994 C170.02918033 178.10330335 169.81131527 179.9508325 167.23486328 182.76416016 C164.49982712 184.32547154 162.02563298 185.40371839 159.01953125 186.328125 C158.01148438 186.65361328 157.0034375 186.97910156 155.96484375 187.31445312 C153.85466382 187.97388435 151.74265869 188.62750213 149.62890625 189.27539062 C148.6234375 189.60216797 147.61796875 189.92894531 146.58203125 190.265625 C145.66599121 190.54913818 144.74995117 190.83265137 143.80615234 191.12475586 C139.81800922 193.20665029 138.74440577 196.46159692 137.328125 200.5703125 C136.97105469 201.76011719 136.61398437 202.94992187 136.24609375 204.17578125 C134.18978128 210.76914154 131.42726703 216.76513809 128.11254883 222.81958008 C125.87150263 227.01970813 124.33132234 230.49516226 124.43359375 235.36328125 C125.94224228 239.21086146 127.91526419 242.76223282 129.93359375 246.36328125 C131.0025949 248.27056387 132.05530787 250.18708657 133.08984375 252.11328125 C133.56228516 252.95375 134.03472656 253.79421875 134.52148438 254.66015625 C135.76833996 258.35533427 135.44672648 260.60860825 134.43359375 264.36328125 C132.31982422 267.25341797 132.31982422 267.25341797 129.55078125 270.04296875 C128.81204269 270.79031784 128.81204269 270.79031784 128.05838013 271.55276489 C127.01828588 272.59692257 125.97065351 273.63361995 124.91601562 274.66308594 C123.3126427 276.23431347 121.74383259 277.83501384 120.17578125 279.44140625 C119.156866 280.4563563 118.13609088 281.46944335 117.11328125 282.48046875 C116.19272949 283.39425293 115.27217773 284.30803711 114.32373047 285.24951172 C110.85587322 287.78581076 108.70972299 288.30376532 104.43359375 288.36328125 C101.73046875 287.45117187 101.73046875 287.45117187 99.18359375 286.01953125 C97.7759375 285.26349609 97.7759375 285.26349609 96.33984375 284.4921875 C94.40234375 283.40625 92.46484375 282.3203125 90.52734375 281.234375 C84.92225736 278.19442223 84.92225736 278.19442223 78.703125 277.2890625 C74.94867298 278.52260408 71.56758322 280.14881668 68.12109375 282.05078125 C61.41883001 285.6190422 54.70796401 288.1399168 47.3737793 290.1081543 C43.67655366 291.19279004 41.79101459 291.97176234 39.140625 294.875 C36.89081841 299.47243085 35.36584771 304.16343967 33.87109375 309.05078125 C33.29500639 310.93232599 32.71069546 312.81137752 32.1171875 314.6875 C31.86509521 315.51338623 31.61300293 316.33927246 31.35327148 317.19018555 C30.35428986 319.55066747 29.42348381 320.76578118 27.43359375 322.36328125 C24.19607697 323.44245351 21.85607604 323.47753726 18.453125 323.4609375 C17.28974609 323.45771484 16.12636719 323.45449219 14.92773438 323.45117188 C13.71279297 323.44279297 12.49785156 323.43441406 11.24609375 323.42578125 C10.01955078 323.42126953 8.79300781 323.41675781 7.52929688 323.41210938 C4.49734707 323.4003119 1.46549469 323.38385046 -1.56640625 323.36328125 C-1.36144531 322.69941406 -1.15648437 322.03554688 -0.9453125 321.3515625 C-0.67589844 320.46855469 -0.40648437 319.58554687 -0.12890625 318.67578125 C0.13792969 317.80566406 0.40476562 316.93554688 0.6796875 316.0390625 C1.9795533 311.42554918 2.56700944 307.17683435 2.63891602 302.37963867 C2.65886124 301.19879196 2.67880646 300.01794525 2.69935608 298.80131531 C2.71606857 297.53656876 2.73278107 296.2718222 2.75 294.96875 C2.78117165 293.01501213 2.78117165 293.01501213 2.81297302 291.02180481 C2.86797559 287.57118862 2.91748034 284.1205149 2.96582031 280.6697998 C3.01619539 277.14374719 3.07179762 273.61777738 3.12695312 270.09179688 C3.23426753 263.18236354 3.335771 256.2728553 3.43359375 249.36328125 C4.63580566 249.31139648 5.83801758 249.25951172 7.07666016 249.20605469 C8.68784239 249.12860529 10.29900687 249.050786 11.91015625 248.97265625 C12.69849854 248.93962402 13.48684082 248.9065918 14.29907227 248.87255859 C36.79032015 247.74164926 58.39767931 237.30296677 73.80615234 220.90234375 C91.73710351 200.52296311 97.02633494 175.92732389 95.43359375 149.36328125 C94.74087161 143.81402106 93.26552563 138.64816369 91.43359375 133.36328125 C91.08296875 132.32558594 90.73234375 131.28789062 90.37109375 130.21875 C82.05214069 108.17930144 65.50353551 91.96056124 44.3828125 82.0859375 C23.69086806 72.83889627 -0.10251095 71.74748408 -21.44140625 79.61328125 C-31.80144498 84.03075969 -40.8316866 89.07892475 -49.2265625 96.640625 C-51.56640625 98.36328125 -51.56640625 98.36328125 -55.56640625 98.36328125 C-57.69372231 97.25650195 -59.77176061 96.05372108 -61.81640625 94.80078125 C-74.05900235 87.57318569 -86.38299089 82.77484418 -100.19140625 79.40625 C-100.9184375 79.22787598 -101.64546875 79.04950195 -102.39453125 78.86572266 C-103.85601937 78.5276221 -105.32563443 78.22308286 -106.80078125 77.95068359 C-110.1645753 77.2793059 -112.16051668 76.83343667 -114.44140625 74.19140625 C-118.65484162 64.53561685 -118.65484162 64.53561685 -117.56640625 60.36328125 C-113.06166074 54.41031243 -107.53673526 49.17923401 -102.25390625 43.92578125 C-101.53912109 43.20712891 -100.82433594 42.48847656 -100.08789062 41.74804688 C-99.40404297 41.06548828 -98.72019531 40.38292969 -98.015625 39.6796875 C-97.40033936 39.06552979 -96.78505371 38.45137207 -96.15112305 37.81860352 C-93.92727423 35.77633533 -92.81460153 35.38234157 -89.765625 35.14819336 C-86.29157112 35.38175879 -84.41063929 36.14233691 -81.37890625 37.8046875 C-80.43273437 38.30548828 -79.4865625 38.80628906 -78.51171875 39.32226562 C-76.54653433 40.39217041 -74.58299081 41.46509463 -72.62109375 42.54101562 C-71.67492187 43.04052734 -70.72875 43.54003906 -69.75390625 44.0546875 C-68.90183594 44.52076416 -68.04976563 44.98684082 -67.171875 45.46704102 C-63.23352359 46.8217719 -60.21523806 46.00925579 -56.41088867 44.51879883 C-55.75451416 44.18517334 -55.09813965 43.85154785 -54.421875 43.5078125 C-53.29471069 42.9499707 -53.29471069 42.9499707 -52.14477539 42.38085938 C-51.35578857 41.98318359 -50.56680176 41.58550781 -49.75390625 41.17578125 C-44.04424349 38.34131562 -38.46729927 35.89721697 -32.36376953 34.04663086 C-26.09082349 32.26777868 -26.09082349 32.26777868 -20.83203125 28.62890625 C-19.69428678 26.22285648 -19.15378356 23.96549933 -18.56640625 21.36328125 C-17.88525536 19.04758176 -17.16258039 16.74910187 -16.4206543 14.45214844 C-15.90030024 12.83284128 -15.4035458 11.20572479 -14.93286133 9.57128906 C-14.69978271 8.81428711 -14.4667041 8.05728516 -14.2265625 7.27734375 C-13.92697632 6.25568115 -13.92697632 6.25568115 -13.62133789 5.21337891 C-10.6403169 -0.01461857 -5.43183769 -0.07319285 0 0 Z " fill="#000000" transform="translate(342.56640625,145.63671875)"/>
<path d="M0 0 C0.81726563 0.30035156 1.63453125 0.60070313 2.4765625 0.91015625 C4.7286524 1.82929541 6.84766755 2.86719345 9 4 C9.92039062 4.46921875 10.84078125 4.9384375 11.7890625 5.421875 C29.93889205 15.27061972 44.18526864 32.12657193 50.28515625 51.9765625 C56.47152756 73.76819478 55.01448716 95.67581404 45 116 C33.38809535 136.55182264 15.05726155 150.84759888 -7.5 157.5 C-29.95061446 162.92370159 -52.39650357 158.58388426 -72 147 C-91.02279472 134.97436792 -103.78689679 116.76672312 -108.875 94.8125 C-112.88946259 71.80102693 -108.63280497 49.69640716 -95.75 30.1875 C-84.95586893 15.46161125 -71.34247883 4.872951 -54 -1 C-53.10152344 -1.31839844 -52.20304687 -1.63679688 -51.27734375 -1.96484375 C-35.28435769 -6.63574277 -15.51363418 -5.88377989 0 0 Z " fill="#000000" transform="translate(193,48)"/>
<path d="M0 0 C3.65085123 2.9998916 6.96245944 6.26389287 10.23144531 9.671875 C11.13443359 10.58066406 11.13443359 10.58066406 12.05566406 11.5078125 C25.1238634 25.57070418 30.04618429 44.45531797 29.54003906 63.19921875 C28.63173901 80.47199519 21.7687398 95.83721407 10.23144531 108.671875 C9.71324219 109.28289062 9.19503906 109.89390625 8.66113281 110.5234375 C-2.16724501 122.4400945 -18.93936851 129.91965291 -34.76855469 131.671875 C-37.20566115 131.71795615 -39.64356292 131.7305052 -42.08105469 131.71484375 C-43.3353125 131.70864014 -44.58957031 131.70243652 -45.88183594 131.69604492 C-46.83445312 131.68806885 -47.78707031 131.68009277 -48.76855469 131.671875 C-48.78313721 130.72159424 -48.79771973 129.77131348 -48.81274414 128.79223633 C-49.53684142 85.00227045 -54.97325438 46.53119126 -86.76855469 13.671875 C-87.78558077 12.70950219 -88.8056278 11.75029157 -89.83105469 10.796875 C-91.76855469 8.671875 -91.76855469 8.671875 -91.76855469 4.671875 C-69.49142567 -19.83296692 -25.16815276 -18.90043498 0 0 Z " fill="#000000" transform="translate(394.7685546875,248.328125)"/>
<path d="M0 0 C6.6 0 13.2 0 20 0 C21.1977776 13.75100088 22.38994242 27.50245646 23.57217503 41.2548027 C24.12133134 47.64023246 24.67296526 54.02542814 25.23022461 60.41015625 C25.76770776 66.56934587 26.29873075 72.72906116 26.82523918 78.8891983 C27.02746526 81.24177269 27.23203624 83.5941467 27.43896675 85.94631195 C27.72793361 89.23552158 28.00862833 92.52533863 28.28735352 95.81542969 C28.37510544 96.79222687 28.46285736 97.76902405 28.55326843 98.77542114 C28.62762115 99.67282013 28.70197388 100.57021912 28.77857971 101.49481201 C28.87951604 102.66180193 28.87951604 102.66180193 28.98249149 103.8523674 C29.01893129 108.32215479 27.31424057 111.52621966 25.19921875 115.39453125 C24.63396484 116.43287109 24.06871094 117.47121094 23.48632812 118.54101562 C22.5959082 120.16040039 22.5959082 120.16040039 21.6875 121.8125 C21.10548828 122.88048828 20.52347656 123.94847656 19.92382812 125.04882812 C17.00298993 130.39763375 14.04874252 135.72304073 11 141 C10.34 141 9.68 141 9 141 C8.5968457 140.2793335 8.19369141 139.55866699 7.77832031 138.81616211 C6.26522633 136.11175647 4.75184684 133.40751086 3.23828125 130.70336914 C2.26801257 128.96968501 1.29806573 127.23582076 0.328125 125.50195312 C-0.290625 124.39658203 -0.909375 123.29121094 -1.546875 122.15234375 C-2.11245117 121.14163818 -2.67802734 120.13093262 -3.26074219 119.08959961 C-4.98479947 115.93689332 -4.98479947 115.93689332 -7.11810303 112.8200531 C-9.39019377 108.82309929 -9.31426759 105.26971357 -8.84960938 100.78955078 C-8.78731895 100.00997576 -8.72502853 99.23040073 -8.66085052 98.42720222 C-8.52682731 96.77893154 -8.3829301 95.13143712 -8.22970581 93.48484039 C-8.00692585 91.0749203 -7.81321395 88.66463415 -7.63012695 86.25140381 C-7.24986287 81.28755764 -6.82971524 76.32750714 -6.40625 71.3671875 C-6.25295447 69.5512134 -6.09984142 67.73522388 -5.94689941 65.91921997 C-5.62913727 62.15271359 -5.3096444 58.38635964 -4.98876953 54.62011719 C-4.57906551 49.81032103 -4.17312542 45.00021615 -3.76837921 40.19000053 C-3.45391643 36.45630372 -3.13782572 32.72274615 -2.82121277 28.98923111 C-2.6708953 27.21516584 -2.52099556 25.44106511 -2.37153625 23.66692734 C-2.16270117 21.19171235 -1.95175305 18.71668614 -1.74023438 16.24169922 C-1.67994553 15.52262894 -1.61965668 14.80355865 -1.55754089 14.06269836 C-1.15182418 9.34984881 -0.58769371 4.70154971 0 0 Z " fill="#000000" transform="translate(155,237)"/>
</svg>
