<svg width="663" height="669" viewBox="0 0 663 669" fill="none" xmlns="http://www.w3.org/2000/svg">
<path fill-rule="evenodd" clip-rule="evenodd" d="M214.62 49.4738C245.751 18.4365 287.974 0.999982 332 0.999986L332 166.5L332 331.999C423.173 331.729 497 257.512 497 166C497 74.3207 422.903 -6.47775e-06 331.5 -1.44685e-05C240.097 -2.24592e-05 166 74.3207 166 166C166 166.084 166 166.168 166 166.252C166.066 122.448 183.548 80.4525 214.62 49.4738ZM214.542 283.448C214.568 283.474 214.594 283.5 214.62 283.526C245.692 314.504 287.813 331.933 331.748 332C331.665 332 331.583 332 331.5 332C285.833 332 244.486 313.448 214.542 283.448Z" fill="black"/>
<path fill-rule="evenodd" clip-rule="evenodd" d="M309.103 25.665C279.637 30.4268 252.19 44.3008 230.811 65.6154C203.974 92.3716 188.897 128.661 188.897 166.5C188.897 204.339 203.973 240.628 230.811 267.385C252.19 288.699 279.637 302.573 309.103 307.335L309.103 25.665ZM309.103 2.5812C273.537 7.51884 240.304 23.8677 214.62 49.4738C183.489 80.5111 166 122.607 166 166.5C166 210.393 183.489 252.489 214.62 283.526C240.304 309.132 273.537 325.481 309.103 330.419C316.647 331.466 324.296 332 332 332L332 1.00002C324.296 1.00002 316.647 1.53392 309.103 2.5812Z" fill="black"/>
<path fill-rule="evenodd" clip-rule="evenodd" d="M331.5 377V669H605.845C637.411 669 663 643.366 663 611.745V537.314C663 448.775 591.35 377 502.966 377H331.5ZM354.362 399.902H502.966C578.724 399.902 640.138 461.423 640.138 537.314V611.745C640.138 630.718 624.784 646.098 605.845 646.098H354.362V399.902Z" fill="black"/>
<path fill-rule="evenodd" clip-rule="evenodd" d="M0 537.314C0 448.775 71.6499 377 160.034 377H331.5V394H291L317.357 457.012L291 594.494L331.5 625.616V669H57.1552C25.5892 669 0 643.366 0 611.745V537.314Z" fill="black"/>
<path d="M354 481C367.526 481 380.92 478.336 393.416 473.16C405.913 467.983 417.268 460.396 426.832 450.832C436.396 441.268 443.983 429.913 449.16 417.416C454.336 404.92 457 391.526 457 378L354 378L354 481Z" fill="black"/>
</svg>
