<svg width="235" height="238" viewBox="0 0 235 238" fill="none" xmlns="http://www.w3.org/2000/svg">
<path d="M142.49 99.643C152.29 95.543 162.69 93.343 173.39 93.343C174.49 93.343 175.49 93.343 176.59 93.343C181.59 80.643 182.89 65.643 180.39 50.943C174.59 17.443 142.99 -4.957 109.69 0.942998C76.4901 6.843 48.4901 32.643 54.3901 66.143C55.6901 73.343 59.0901 84.643 63.2901 92.843L2.99012 179.843C0.790117 183.043 -0.509883 188.743 0.190117 192.743L2.79012 207.643C0.290118 193.343 3.49012 212.843 5.39012 212.743L25.2901 213.043C29.0901 212.343 33.8901 209.143 35.9901 205.843L59.7901 168.543L59.9901 168.343L80.7901 170.043L108.59 126.343C108.69 126.343 108.79 126.343 108.89 126.343C111.39 122.943 114.09 119.743 117.19 116.643C124.49 109.343 133.09 103.643 142.49 99.643ZM15.9901 189.143L12.9901 190.443L13.2901 187.243L71.0901 103.343L74.5901 106.543L15.9901 189.143ZM103.79 34.843C112.89 21.743 130.89 18.443 143.89 27.643C156.99 36.943 160.09 55.143 150.99 68.243C141.89 81.343 132.59 72.143 119.49 62.943C106.49 53.643 94.6901 48.043 103.79 34.843Z" fill="black"/>
<path fill-rule="evenodd" clip-rule="evenodd" d="M235 173.5C235 209.122 206.122 238 170.5 238C134.878 238 106 209.122 106 173.5C106 137.878 134.878 109 170.5 109C206.122 109 235 137.878 235 173.5ZM152.592 180.613L153.573 180.605L154.638 180.602L155.768 180.596C157.003 180.589 158.238 180.585 159.473 180.581L160.755 180.577C162.766 180.571 164.777 180.566 166.788 180.563C168.868 180.56 170.947 180.553 173.027 180.541C175.265 180.528 177.503 180.521 179.741 180.52C180.59 180.518 181.439 180.514 182.289 180.508C189.54 180.457 195.782 180.94 201.375 186.148C205.735 190.809 207.28 195.708 207.287 201.96L207.312 203.258C207.318 204.998 207.318 206.351 206.614 207.957C205.038 209.513 203.602 210.294 201.373 210.327L200.627 210.317L199.815 210.323C198.922 210.327 198.03 210.322 197.137 210.317C196.495 210.318 195.853 210.32 195.211 210.323C193.47 210.327 191.73 210.324 189.99 210.318C188.399 210.314 186.808 210.315 185.218 210.316L184.523 210.317C181.464 210.317 178.404 210.313 175.344 210.305C171.808 210.296 168.271 210.295 164.735 210.299C161.331 210.303 157.928 210.301 154.524 210.296C153.076 210.294 151.628 210.294 150.18 210.296C148.476 210.297 146.771 210.294 145.066 210.286C144.44 210.284 143.815 210.284 143.189 210.286C142.335 210.288 141.481 210.284 140.627 210.278L139.878 210.284C138.288 210.264 137.207 209.948 135.853 209.117C133.566 206.702 133.626 204.13 133.697 201.085C133.703 200.83 133.709 200.571 133.713 200.309C133.91 194.772 136.099 189.912 140.007 186.02C143.378 182.951 147.959 180.637 152.592 180.613ZM178.794 138.467L178.019 138.155C171.154 135.38 163.217 136.486 157.705 141.617C154.658 144.896 152.374 148.794 152.213 153.339C152.135 158.927 152.998 163.727 157.006 167.92C160.599 171.438 164.734 173.601 169.842 173.571L170.777 173.55C170.934 173.549 171.09 173.549 171.245 173.548C172.735 173.544 174.165 173.541 175.619 173.121C180.612 171.466 184.58 168.593 187.061 163.887C189.335 158.908 189.821 153.631 187.961 148.417C186.228 144.023 183.129 140.434 178.794 138.467Z" fill="black"/>
</svg>
