<svg width="512" height="512" viewBox="0 0 512 512" fill="none" xmlns="http://www.w3.org/2000/svg">
<g clip-path="url(#clip0_124_2)">
<path d="M383 246C383.666 246.182 384.331 246.364 385.017 246.551C403.552 251.718 420.386 261.629 435 274C435.835 274.7 436.671 275.4 437.531 276.121C463.914 298.961 479.052 332.572 482 367C484.214 406.714 470.782 440.878 445 470.687C423.83 494.065 391.157 510.579 359.493 512.177C342.615 512.457 326.376 512.698 310 508C309.335 507.818 308.669 507.636 307.983 507.449C274.504 498.116 245.621 474.513 228.43 444.586C211.772 414.668 206.068 379.539 214 346C214.156 345.317 214.311 344.635 214.472 343.932C222.51 309.887 245.009 280.188 274.298 261.499C306.059 241.971 346.987 235.668 383 246ZM339.688 326.5C336.756 330.843 336.867 334.68 336.902 339.73C336.905 340.856 336.905 340.856 336.907 342.004C336.912 344.399 336.925 346.793 336.938 349.187C336.943 350.812 336.947 352.436 336.951 354.061C336.962 358.04 336.98 362.02 337 366C336.098 365.99 335.195 365.979 334.265 365.968C330.89 365.934 327.515 365.909 324.14 365.89C322.684 365.88 321.228 365.867 319.773 365.849C317.67 365.825 315.568 365.813 313.465 365.805C312.203 365.794 310.941 365.784 309.64 365.773C303.327 366.167 298.578 367.552 294 372C291.279 376.468 291.349 380.913 292 386C294.193 390.468 296.487 392.909 301 395C304.263 395.777 307.314 396.132 310.663 396.161C311.558 396.171 312.453 396.18 313.375 396.19C314.33 396.194 315.285 396.199 316.27 396.203C317.762 396.212 317.762 396.212 319.285 396.22C321.387 396.23 323.489 396.236 325.591 396.24C328.791 396.25 331.99 396.281 335.19 396.312C337.237 396.319 339.285 396.324 341.332 396.328C342.756 396.347 342.756 396.347 344.209 396.366C350.407 396.345 356.725 395.974 361.56 391.583C365.084 387.533 366.118 384.347 366.177 379.105C366.19 378.11 366.203 377.115 366.216 376.09C366.223 375.015 366.231 373.94 366.238 372.832C366.25 371.169 366.25 371.169 366.263 369.472C366.277 367.123 366.287 364.773 366.295 362.424C366.312 358.844 366.356 355.265 366.4 351.686C366.411 349.401 366.419 347.117 366.426 344.832C366.452 343.235 366.452 343.235 366.479 341.605C366.461 335.312 365.865 330.154 362 325C358.798 322.192 355.682 321.084 351.438 320.562C346.302 321.216 343.21 322.692 339.688 326.5Z" fill="black"/>
<path d="M428.313 -0.437524C429.228 -0.429226 430.144 -0.420927 431.087 -0.412378C445.699 -0.0502365 457.218 5.30194 467.813 15.3125C479.646 27.8434 482.617 42.1947 482.518 58.9763C482.523 60.535 482.53 62.0936 482.539 63.6523C482.557 67.8441 482.55 72.0354 482.537 76.2272C482.527 80.63 482.537 85.0327 482.543 89.4354C482.55 96.8181 482.541 104.201 482.522 111.583C482.5 120.11 482.507 128.637 482.529 137.164C482.547 144.505 482.55 151.847 482.539 159.188C482.533 163.564 482.532 167.94 482.545 172.317C482.557 176.425 482.549 180.533 482.526 184.641C482.52 186.147 482.522 187.652 482.531 189.157C482.542 191.215 482.528 193.272 482.508 195.33C482.506 196.48 482.505 197.63 482.503 198.815C481.782 203.378 479.808 206.55 476.198 209.445C470.835 212.064 466.295 212.553 460.371 212.454C459.443 212.455 458.516 212.455 457.56 212.456C454.519 212.453 451.479 212.422 448.438 212.391C446.319 212.383 444.201 212.377 442.082 212.373C436.525 212.358 430.969 212.319 425.412 212.275C419.735 212.234 414.057 212.215 408.379 212.195C397.252 212.152 386.126 212.084 375 212C374.953 191.233 374.918 170.465 374.896 149.698C374.886 140.055 374.872 130.411 374.849 120.767C374.829 112.357 374.816 103.947 374.812 95.5374C374.809 91.0886 374.803 86.6398 374.789 82.191C374.775 77.9943 374.771 73.7977 374.774 69.601C374.773 68.0697 374.769 66.5384 374.762 65.0071C374.674 46.8466 376.53 30.9851 389 17C389.522 16.3851 390.044 15.7702 390.582 15.1367C400.416 4.34579 413.983 -0.606689 428.313 -0.437524Z" fill="black"/>
<path fill-rule="evenodd" clip-rule="evenodd" d="M127.986 -0.455585C125.368 -0.453238 122.749 -0.450891 120.131 -0.454118C119.588 -0.457272 119.047 -0.46068 118.507 -0.46408L118.506 -0.464085L118.506 -0.464086C101.974 -0.568183 86.7094 -0.664298 71.4501 6.78807L69.6251 7.74998C64.2435 10.5332 59.4884 13.4843 55.1407 17.7656L53.0001 20C47.3409 25.463 42.3293 30.844 38.5804 37.8164L37.5626 39.8125C31.1091 52.2805 29.4068 65.0777 29.4949 78.8844C29.5068 80.6348 29.5111 82.3854 29.5087 84.1359C29.4932 88.9959 29.4922 93.8555 29.5098 98.7155C29.5293 104.016 29.5311 109.315 29.5266 114.615C29.5169 125.009 29.5249 135.402 29.5466 145.795C29.5722 157.995 29.5809 170.195 29.5831 182.395C29.5863 204.124 29.6043 225.853 29.6374 247.582C29.6699 268.747 29.6952 289.911 29.7035 311.075L29.705 315.037L29.7107 330.815C29.718 351.074 29.7325 371.333 29.7495 391.592L29.7513 393.719L29.7513 393.72C29.756 399.104 29.7606 404.489 29.7645 409.873C29.7734 422.814 29.7834 435.754 29.8032 448.695L29.8066 450.765C29.8143 455.429 29.822 460.093 29.8254 464.757C29.8281 469.727 29.8318 474.696 29.8418 479.666C29.8459 481.469 29.8496 483.271 29.8529 485.074L29.8529 485.135C29.8525 487.615 29.8521 490.094 29.8588 492.574L29.8659 494.817L29.8657 494.899C29.858 498.475 29.8513 501.554 31.0001 505C33.9987 508.63 37.7135 511.7 42.4728 512.324C47.822 512.427 51.5713 512.131 55.7201 508.491L57.4259 506.734L59.3419 504.785C64.7017 499.25 70.0764 493.935 76.0001 489C78.1494 491.191 80.3028 493.377 82.4611 495.559L85.1251 498.25C86.0642 499.207 87.0119 500.235 87.9797 501.283L87.9806 501.284C92.412 506.087 97.264 511.346 103.633 512.461L106.125 512.375C110.432 512.308 113.345 511.44 116.628 508.583L118.207 506.953L119.986 505.141C125.13 499.816 130.313 494.748 136 490C138.012 492.074 140.031 494.142 142.057 496.203L144.563 498.75C145.207 499.415 145.849 500.091 146.494 500.771C151.334 505.873 156.319 511.129 163.477 512.461L165.625 512.375C170.164 512.293 173.68 511.131 177.157 508.152L179.285 505.937L181.643 503.523C183.258 501.839 184.875 500.157 186.494 498.477L188.848 496.062C191.422 493.38 193.569 491.471 197 490C199.147 492.209 201.3 494.412 203.461 496.607L206.125 499.312L208.719 501.982L211.258 504.551C215.062 508.434 218.91 511.586 224.449 512.328L226.688 512.25C229.496 512.192 231.288 511.904 234 511C237.386 508.605 239.294 506.75 241 503C214.868 477.232 196.679 451.207 187.192 415.441C186.282 411.902 185.164 408.464 184 405C174.737 405.042 165.474 405.076 156.211 405.098L155.094 405.1C150.74 405.109 146.387 405.118 142.034 405.137C137.407 405.159 132.781 405.179 128.155 405.187C126.393 405.189 124.63 405.192 122.867 405.195C120.335 405.211 117.803 405.227 115.271 405.228L112.933 405.227C107.937 405.277 103.672 404.953 99.0001 403C94.9948 399.905 93.0559 397.014 92.0939 392.121C91.9274 388.354 92.8261 385.08 95.0001 382C98.9229 378.828 101.813 377.541 106.887 377.439L109.117 377.454C111.623 377.421 114.129 377.394 116.635 377.392C118.422 377.391 120.209 377.383 121.996 377.368C126.684 377.321 131.372 377.286 136.06 377.271C140.916 377.256 145.772 377.223 150.628 377.184C158.638 377.118 166.649 377.062 174.66 377.028L182 377L185 346C175.451 345.902 165.902 345.801 156.354 345.693L155.289 345.681C150.778 345.63 146.266 345.579 141.755 345.532C136.985 345.484 132.216 345.435 127.447 345.379C125.635 345.358 123.824 345.337 122.012 345.316C119.398 345.292 116.785 345.267 114.172 345.235L111.776 345.205C106.569 345.165 102.718 344.895 98.0001 342.437C94.2383 339.381 92.9373 336.704 92.0001 332C92.1728 327.596 93.2779 324.473 96.0001 321C100.267 318.286 103.665 317.642 108.585 317.563L111.127 317.568C113.975 317.535 116.824 317.507 119.673 317.498C121.705 317.491 123.738 317.48 125.77 317.463C131.1 317.413 136.429 317.372 141.759 317.346C147.281 317.32 152.803 317.28 158.325 317.236C169.066 317.148 179.807 317.075 190.548 317.018L194 317C194.671 315.415 195.343 313.83 196.016 312.246L196.851 310.285C198.853 305.55 200.936 300.937 203.522 296.488L204.688 294.562C216.602 274.762 231.489 257.762 250.32 244.192L252 243C277.776 224.565 309 214.244 340.632 213.239C342.422 213.185 344.211 213.096 346 213C346.372 212.628 346.605 212.395 346.759 212.117C347.019 211.648 347.051 211.052 347.136 209.45L347.152 205.98C347.165 203.938 347.177 201.896 347.183 199.854C347.187 198.351 347.194 196.849 347.201 195.346C347.22 192.118 347.237 188.889 347.251 185.661C347.271 180.452 347.294 175.243 347.323 170.034C347.383 158.969 347.436 147.903 347.487 136.838C347.542 124.793 347.598 112.747 347.663 100.702C347.692 95.4667 347.719 90.2317 347.74 84.9967C347.753 81.6836 347.768 78.3705 347.786 75.0574C347.794 73.5109 347.803 71.9644 347.811 70.418C347.879 46.3946 352.057 26.99 365.481 6.76955L367.108 4.3325L368.748 1.87453L370 -1.67716e-05C335.789 -0.0895414 301.578 -0.159924 267.367 -0.201311C263.235 -0.206284 259.104 -0.211338 254.972 -0.216559L252.477 -0.219743C239.144 -0.236711 225.812 -0.264992 212.479 -0.301775C198.744 -0.339706 185.009 -0.366256 171.275 -0.374985C162.811 -0.379995 154.348 -0.390265 145.885 -0.422937C140.032 -0.44555 134.178 -0.457974 128.324 -0.455888L127.986 -0.455585ZM92.0001 276C91.3405 271.427 91.4353 267.443 93.1251 263.125C97.1716 258.539 100.917 256.554 107.085 256.469L109.405 256.498C112.011 256.481 114.617 256.47 117.223 256.485C119.086 256.498 120.948 256.504 122.81 256.504C126.701 256.498 130.591 256.498 134.482 256.516C139.534 256.545 144.585 256.565 149.637 256.554C153.583 256.544 157.53 256.542 161.476 256.55C163.361 256.556 165.245 256.562 167.129 256.566C169.833 256.561 172.536 256.557 175.24 256.575L177.725 256.596C182.901 256.566 186.75 256.734 191 260C193.491 262.761 194.868 264.808 195.281 268.543C195.356 274.967 194.545 278.222 190 283C185.565 285.319 181.181 286.342 176.163 286.384L174.087 286.356C171.73 286.363 169.374 286.365 167.016 286.348C165.337 286.335 163.658 286.327 161.979 286.324C158.463 286.322 154.947 286.317 151.432 286.298C146.875 286.27 142.318 286.246 137.76 286.24C134.193 286.237 130.625 286.231 127.058 286.22L121.953 286.203C119.514 286.198 117.074 286.191 114.634 286.176L112.396 286.161C112.132 286.161 111.87 286.161 111.608 286.161C107.99 286.161 104.487 286.161 101 285C96.5014 282.863 94.1996 280.48 92.0001 276ZM132.6 118.4V124.4H149.2C149.755 124.4 150.307 124.397 150.855 124.392L150.8 124.4C158.667 124.4 165.133 126.933 170.2 132C175.267 137.067 178 144.867 178.4 155.4L179 167.2C179.4 173.333 181.133 178.733 184.2 183.4C187.4 187.933 191.6 191.467 196.8 194C202 196.533 207.8 197.8 214.2 197.8H229.6V192.8H222C216.933 192.8 213.333 191.133 211.2 187.8C209.2 184.467 208.2 178.2 208.2 169V162.6C208.2 156.2 206.467 150.267 203 144.8C199.533 139.333 195.133 134.667 189.8 130.8C184.6 126.933 179.133 124.333 173.4 123V122.347C177.232 121.623 180.832 120.707 184.2 119.6C193.933 116.267 201.333 111.667 206.4 105.8C211.6 99.9333 214.2 93.1333 214.2 85.4C214.2 85.2663 214.199 85.133 214.197 85H236.4V76.2H212.463C211.045 72.7231 208.757 69.5897 205.6 66.8C202.584 64.1346 198.996 61.8012 194.836 59.8H236.4V51H149.2H132V59.8H159.2C168.267 59.8 174.533 61.8 178 65.8C180.194 68.3318 181.694 71.7985 182.499 76.2H132V85H183.2C183.183 94.1025 181.983 101.102 179.6 106C177.333 110.8 173.667 114.067 168.6 115.8C163.667 117.533 157.2 118.4 149.2 118.4H132.6Z" fill="black"/>
</g>
<defs>
<clipPath id="clip0_124_2">
<rect width="512" height="512" fill="white"/>
</clipPath>
</defs>
</svg>
